<svg width="78" height="78" viewBox="0 0 78 78" fill="none" xmlns="http://www.w3.org/2000/svg">
<g clip-path="url(#clip0_2476_354)">
<path d="M53.9273 3.27596L18.6063 6.7177C18.537 6.17937 18.2695 5.68621 17.856 5.33462C17.4425 4.98303 16.9127 4.79827 16.3703 4.81646C15.7609 4.82486 15.1788 5.07067 14.7479 5.5016C14.317 5.93253 14.0712 6.51458 14.0628 7.12395C14.0628 7.95596 14.5178 8.60271 15.1223 9.00896L0.344503 41.067L0.191753 41.21C-0.00324662 41.405 3.38188e-06 41.405 3.38188e-06 41.6C3.38188e-06 41.6 3.37791e-06 41.7885 0.191753 41.7885L20.7903 70.954C20.4378 71.36 20.2368 71.8757 20.2215 72.4132C20.2215 73.762 21.3753 74.7207 22.529 74.7207C22.8222 74.7315 23.1146 74.6839 23.3892 74.5806C23.6638 74.4772 23.9151 74.3202 24.1283 74.1187C24.3416 73.9172 24.5126 73.6753 24.6314 73.4071C24.7502 73.1388 24.8144 72.8495 24.8203 72.5562L59.4653 69.1762L59.8943 69.3322C59.9632 69.2729 60.0205 69.2012 60.0633 69.121C60.1835 69.108 60.2843 69.0755 60.2843 68.9455L75.0718 36.8485C75.2733 36.907 75.478 36.9752 75.6893 36.9752C76.8463 36.9752 78 35.8215 78 34.6677C77.9941 34.0566 77.7494 33.4721 77.3182 33.0391C76.887 32.6061 76.3036 32.3589 75.6925 32.3505C75.3989 32.3527 75.1085 32.4123 74.8378 32.526L54.3075 3.46771C54.1125 3.27271 54.1125 3.27271 53.924 3.27271L53.9273 3.27596ZM52.2308 4.18596L36.1368 12.9967L18.4763 7.80321C18.5382 7.64495 18.5871 7.48191 18.6225 7.3157L52.2308 4.18596ZM53.5438 4.23796L57.9638 23.4357L47.84 17.1535C48.0868 16.8027 48.2573 16.4042 48.3405 15.9835C48.3321 15.3741 48.0863 14.792 47.6554 14.3611C47.2244 13.9302 46.6424 13.6844 46.033 13.676C45.5505 13.6814 45.0819 13.838 44.6931 14.1237C44.3042 14.4093 44.0147 14.8097 43.8653 15.2685L37.1378 13.2925L53.5438 4.23796ZM54.4278 5.03096L74.1293 33.0037C74.0318 33.0947 73.9603 33.1987 73.8823 33.306L58.6853 23.881L54.4278 5.03096ZM18.3723 8.09896L35.724 13.2242L23.881 19.708L17.784 8.8562C18.0241 8.64205 18.2257 8.38531 18.3723 8.09896ZM17.1373 9.27871L23.1335 19.955L23.1725 20.1467L16.3703 26.377V9.43471C16.6336 9.43292 16.8941 9.37994 17.1373 9.27871ZM15.7398 9.31121C15.8828 9.35671 16.0323 9.38595 16.1785 9.39895V26.559L1.82325 39.715L15.7398 9.31121ZM36.7218 13.52L43.7938 15.6097C43.7678 15.7365 43.7158 15.8567 43.7158 15.9835C43.7158 16.523 43.9335 16.9715 44.2293 17.3485L36.0068 24.4595L24.4238 20.306L36.7218 13.52ZM44.3235 17.485C44.5358 17.7316 44.7972 17.9312 45.091 18.0711C45.3847 18.211 45.7045 18.2881 46.0298 18.2975C46.1013 18.2975 46.1695 18.2812 46.241 18.2715L48.2723 28.8567L36.1725 24.5212L44.3235 17.485ZM47.5703 17.5435L58.1165 24.0987L60.1965 33.1305L48.503 28.938L46.488 18.2292C46.9062 18.1074 47.2815 17.8696 47.5703 17.5435ZM24.0728 20.8L35.5355 24.8657L26.4258 32.7437L24.0728 20.8ZM23.3578 21.086L25.7888 33.293L18.0538 39.975C17.8348 39.7519 17.5724 39.5759 17.2829 39.458C16.9934 39.3401 16.6828 39.2826 16.3703 39.2892V27.4852L23.3578 21.086ZM58.8348 24.5472L73.606 33.7317C73.5573 33.839 73.5345 33.9462 73.502 34.0567L60.7718 33.1305L58.8348 24.5472ZM35.7013 24.9275L48.3828 29.4255L50.6805 41.418L40.6803 49.998L29.0323 45.9745L26.455 32.8997L35.7013 24.9275ZM16.1785 27.6575V39.3087C15.6053 39.363 15.0722 39.6268 14.6812 40.0495C14.2903 40.4722 14.0689 41.0242 14.0595 41.6C14.0671 42.2104 14.313 42.7938 14.7447 43.2255C15.1764 43.6572 15.7598 43.9031 16.3703 43.9107C16.4678 43.9107 16.5523 43.8685 16.6465 43.8555L17.9693 50.8332L1.15375 41.4082L16.1785 27.6575ZM48.6135 29.5035L59.8943 33.5107L50.8268 41.2912L48.6135 29.5035ZM25.818 33.449L28.262 45.708L18.4633 42.3247C18.5651 42.0929 18.6383 41.8495 18.681 41.6C18.6855 41.045 18.4893 40.5071 18.1285 40.0855L25.818 33.449ZM60.853 33.904L73.3915 34.8237C73.426 35.1985 73.557 35.5579 73.7718 35.867L60.5508 47.71L60.853 33.904ZM60.2648 34.3525L59.956 48.2397L54.8665 52.7995C54.4488 52.4214 53.9087 52.2068 53.3455 52.195C53.183 52.195 53.0433 52.2502 52.8905 52.2762L51.0185 42.3052L60.2648 34.3525ZM74.152 36.361C74.2365 36.439 74.3438 36.4812 74.438 36.5462L60.1153 67.6682L60.5378 48.3632L74.152 36.361ZM50.8755 42.4255L52.767 52.299C52.4132 52.3705 52.0834 52.5309 51.8088 52.7652C51.5341 52.9995 51.3237 53.2998 51.1973 53.638L41.6683 50.3425L50.8755 42.4255ZM18.3495 42.6042L28.327 46.0557L30.6995 57.9637L18.226 50.9762L16.8383 43.8132C17.1624 43.7325 17.4653 43.5827 17.7261 43.374C17.987 43.1654 18.1996 42.9027 18.3495 42.6042ZM1.69975 42.6432L18.1773 51.9057L21.671 70.278C21.5735 70.3202 21.4955 70.3885 21.4078 70.4405L1.69975 42.6432ZM29.0973 46.3222L40.4138 50.2287L31.395 57.9702L29.0973 46.3222ZM59.943 48.8832L59.5108 68.3735L41.0865 61.8085L51.48 55.7797C51.6861 56.0887 51.9628 56.3441 52.2872 56.525C52.6116 56.7058 52.9743 56.8068 53.3455 56.8197C53.9572 56.8113 54.5413 56.5643 54.9736 56.1315C55.4058 55.6986 55.6519 55.1141 55.6595 54.5025C55.6496 53.9939 55.4635 53.5046 55.133 53.118L59.943 48.8832ZM41.405 50.57L51.142 53.9337C51.0998 54.1222 51.038 54.2977 51.038 54.5025C51.038 54.86 51.129 55.185 51.2688 55.4807L40.625 61.6427L32.0678 58.5975L41.405 50.57ZM18.4308 52.052L30.7353 58.9745L23.543 70.3267C23.0458 70.0835 22.4759 70.0337 21.944 70.187L18.4308 52.052ZM31.3788 59.2572L39.676 62.192L24.3815 71.0417C24.3003 70.928 24.2288 70.8045 24.1215 70.707L31.3788 59.2572ZM40.144 62.3577L58.1263 68.7115L24.7358 71.8217C24.7 71.669 24.6643 71.5162 24.5993 71.3765L40.144 62.3577Z" fill="white"/>
</g>
<defs>
<clipPath id="clip0_2476_354">
<rect width="78" height="78" fill="white"/>
</clipPath>
</defs>
</svg>
