<svg width="50" height="69" viewBox="0 0 50 69" fill="none" xmlns="http://www.w3.org/2000/svg">
<g clip-path="url(#clip0_2476_366)">
<path d="M32.2957 68.0845C27.4373 68.0845 23.8912 66.9143 21.6573 64.5738C19.5879 62.5927 18.387 59.8729 18.3172 57.0089C18.292 56.1388 18.4937 55.2772 18.9023 54.5086C19.2834 53.8445 19.834 53.2935 20.4978 52.9119C21.2693 52.5271 22.1196 52.3268 22.9818 52.3268C23.844 52.3268 24.6943 52.5271 25.4658 52.9119C26.1284 53.292 26.6764 53.8436 27.0523 54.5086C27.4728 55.2735 27.6819 56.1364 27.6584 57.0089C27.7018 58.0508 27.4029 59.0783 26.8074 59.9344C26.3111 60.6332 25.6016 61.1524 24.7854 61.4141C25.5836 62.4303 26.713 63.1343 27.9768 63.4036C29.3908 63.8143 30.8553 64.0255 32.3277 64.031C34.2771 64.0481 36.1864 63.4772 37.8065 62.3928C39.4872 61.2055 40.7406 59.5082 41.3808 57.5525C42.1925 55.225 42.5886 52.7729 42.5511 50.3082C42.6165 47.7385 42.183 45.1806 41.2744 42.7761C40.5911 40.853 39.2939 39.2081 37.583 38.0953C35.9927 37.0889 34.1467 36.5609 32.2649 36.5741C30.6251 36.7131 29.0439 37.2499 27.6584 38.138L24.2426 39.8506V38.138L39.5935 17.5447H18.3172V38.9146C18.2571 40.4567 18.665 41.9809 19.4874 43.2869C19.8853 43.8559 20.4234 44.3126 21.0496 44.6126C21.6758 44.9127 22.3689 45.0459 23.0617 44.9994C24.3418 44.9735 25.5798 44.5373 26.5933 43.7549C27.7422 42.9129 28.7419 41.8845 29.5509 40.7122C29.6237 40.5067 29.758 40.3285 29.9356 40.2019C30.0781 40.0787 30.2601 40.0108 30.4484 40.0104C30.8181 40.0442 31.1678 40.1929 31.4485 40.4357C31.8041 40.833 31.9976 41.3493 31.9909 41.8824C31.9498 42.2407 31.8859 42.5961 31.7994 42.9462C31.0436 44.7756 29.7767 46.3485 28.1503 47.4766C26.6398 48.4988 24.8557 49.0408 23.0318 49.0315C18.4253 49.0315 15.2341 48.1237 13.4581 46.3081C12.5452 45.3046 11.8417 44.1291 11.3887 42.8504C10.9357 41.5717 10.7423 40.2155 10.8198 38.8612V17.5447H-0.00195312V13.5742H10.8702V4.52101L8.38103 2.03014V0H15.6041L18.3172 1.40443V13.5742L46.4229 13.4887L49.221 16.2971L31.9871 33.6148C33.0282 33.1961 34.1247 32.9309 35.2421 32.8276C37.4538 32.9244 39.6116 33.5404 41.5411 34.6256C43.7755 35.6877 45.6585 37.3681 46.9669 39.4676C48.1393 41.245 48.9692 43.2258 49.4138 45.308C49.7793 46.9505 49.9754 48.6261 49.9989 50.3086C50.0103 53.5195 49.2823 56.6899 47.8713 59.5741C46.5332 62.3671 44.2811 64.6192 41.4881 65.9573C38.6291 67.3661 35.4829 68.0942 32.2957 68.0845Z" fill="#2C7DF7"/>
</g>
<defs>
<clipPath id="clip0_2476_366">
<rect width="50" height="68.0845" fill="white"/>
</clipPath>
</defs>
</svg>
