<svg width="72" height="62" viewBox="0 0 72 62" fill="none" xmlns="http://www.w3.org/2000/svg">
<g clip-path="url(#clip0_2476_376)">
<path d="M61.8379 8.66074L53.1684 13.0777L11.3045 34.4011C11.1629 33.3214 11.0917 32.2337 11.0912 31.1447C11.0969 26.7999 12.2377 22.532 14.4004 18.7637C16.5631 14.9953 19.6728 11.8574 23.4214 9.66071C27.1699 7.464 31.4274 6.28472 35.772 6.2397C40.1166 6.19467 44.3976 7.28546 48.1909 9.40401L53.1532 6.87567L53.8934 6.49794C49.3476 3.19856 43.9782 1.22028 38.3784 0.781724C32.7786 0.343171 27.1666 1.46143 22.1627 4.0129C17.1587 6.56437 12.9576 10.4497 10.0237 15.2395C7.08986 20.0293 5.53741 25.537 5.53799 31.1539C5.53799 31.9297 5.56744 32.7024 5.62633 33.472C5.70882 34.562 5.46708 35.652 4.93155 36.6049C4.39602 37.5578 3.59062 38.331 2.61669 38.8273L0 40.1615V46.3849L7.70384 42.4583L10.1987 41.185L12.657 39.933L56.7903 17.446L61.7495 14.9207L72 9.69645V3.47611L61.8379 8.66074Z" fill="white"/>
<path d="M72 15.9229L15.164 44.8618L10.2048 47.3931L0 52.593V58.8103L10.1347 53.647L18.8042 49.23L60.7108 27.8761C60.8524 28.963 60.9237 30.0578 60.924 31.1539C60.9213 35.5037 59.7809 39.7772 57.6161 43.5501C55.4513 47.323 52.3373 50.4641 48.5833 52.6615C44.8293 54.8589 40.5658 56.0362 36.2162 56.0766C31.8665 56.1169 27.5819 55.0189 23.7878 52.8915L23.4832 53.053L18.1036 55.7946C22.6483 59.094 28.0167 61.0729 33.6155 61.5125C39.2144 61.9521 44.8259 60.8354 49.8298 58.2856C54.8338 55.7359 59.0355 51.8524 61.9707 47.0644C64.9058 42.2763 66.4602 36.77 66.462 31.1539C66.462 30.371 66.4315 29.5881 66.3737 28.8144C66.2913 27.7248 66.5328 26.6352 67.0677 25.6824C67.6026 24.7296 68.4072 23.9562 69.3803 23.4592L72 22.1249V15.9229Z" fill="white"/>
</g>
<defs>
<clipPath id="clip0_2476_376">
<rect width="72" height="60.924" fill="white" transform="translate(0 0.692139)"/>
</clipPath>
</defs>
</svg>
