<svg width="1454" height="691" viewBox="0 0 1454 691" fill="none" xmlns="http://www.w3.org/2000/svg">
<rect width="1442" height="691" fill="#FCFCFC"/>
<path opacity="0.15" d="M1162 303C1162 397.993 1084.99 475 990 475C895.007 475 818 397.993 818 303C818 208.007 895.007 131 990 131C1084.99 131 1162 208.007 1162 303ZM878.069 303C878.069 364.818 928.182 414.931 990 414.931C1051.82 414.931 1101.93 364.818 1101.93 303C1101.93 241.182 1051.82 191.069 990 191.069C928.182 191.069 878.069 241.182 878.069 303Z" fill="url(#paint0_linear_2565_407)"/>
<path opacity="0.2" d="M202 596C202 618.644 183.644 637 161 637C138.356 637 120 618.644 120 596C120 573.356 138.356 555 161 555C183.644 555 202 573.356 202 596ZM134.319 596C134.319 610.736 146.264 622.681 161 622.681C175.736 622.681 187.681 610.736 187.681 596C187.681 581.264 175.736 569.319 161 569.319C146.264 569.319 134.319 581.264 134.319 596Z" fill="#FF6524"/>
<path opacity="0.2" d="M1454 148C1454 178.376 1429.38 203 1399 203C1368.62 203 1344 178.376 1344 148C1344 117.624 1368.62 93 1399 93C1429.38 93 1454 117.624 1454 148ZM1363.21 148C1363.21 167.767 1379.23 183.792 1399 183.792C1418.77 183.792 1434.79 167.767 1434.79 148C1434.79 128.233 1418.77 112.208 1399 112.208C1379.23 112.208 1363.21 128.233 1363.21 148Z" fill="#FF6524"/>
<g opacity="0.5">
<path d="M194.238 247.762L208.904 259.31L226.238 266.238L214.69 280.904L207.762 298.238L193.096 286.69L175.762 279.762L187.31 265.096L194.238 247.762Z" fill="#3B82CF"/>
<path d="M195.669 252.795L207.476 262.092L221.431 267.669L212.134 279.475L206.557 293.43L194.75 284.133L180.796 278.557L190.092 266.75L195.669 252.795Z" fill="url(#paint1_linear_2565_407)"/>
</g>
<g opacity="0.5">
<path d="M1271.2 507.804L1279.45 514.3L1289.2 518.196L1282.7 526.446L1278.8 536.196L1270.55 529.7L1260.8 525.804L1267.3 517.554L1271.2 507.804Z" fill="#3B82CF"/>
<path d="M1272 510.635L1278.64 515.864L1286.49 519.001L1281.26 525.642L1278.13 533.492L1271.48 528.263L1263.63 525.126L1268.86 518.484L1272 510.635Z" fill="url(#paint2_linear_2565_407)"/>
</g>
<defs>
<linearGradient id="paint0_linear_2565_407" x1="929.5" y1="79" x2="1025.5" y2="376" gradientUnits="userSpaceOnUse">
<stop stop-color="#1D2550"/>
<stop offset="1" stop-color="#1D2550" stop-opacity="0.08"/>
</linearGradient>
<linearGradient id="paint1_linear_2565_407" x1="195.669" y1="252.795" x2="206.557" y2="293.43" gradientUnits="userSpaceOnUse">
<stop stop-color="#1B6CBB"/>
<stop offset="1" stop-color="#3FA5E8"/>
</linearGradient>
<linearGradient id="paint2_linear_2565_407" x1="1272" y1="510.635" x2="1278.13" y2="533.492" gradientUnits="userSpaceOnUse">
<stop stop-color="#1B6CBB"/>
<stop offset="1" stop-color="#3FA5E8"/>
</linearGradient>
</defs>
</svg>
