<svg width="558" height="484" viewBox="0 0 558 484" fill="none" xmlns="http://www.w3.org/2000/svg">
<circle opacity="0.5" cx="315.391" cy="242" r="242" fill="#2D0165"/>
<path d="M223.457 202.25L171.334 302.673H185.486L198.647 276.877H260.594L273.589 302.673H287.585L235.451 202.25H223.457ZM203.431 267.275L229.576 215.683L255.721 267.275H203.431Z" fill="#7CDDF7"/>
<path d="M320.906 202.25H307.244V302.673H320.906V202.25Z" fill="#7CDDF7"/>
<path d="M387.369 357.638H117.018V292.288L127.943 286.737V226.174L117.018 217.709V145.518H387.369V217.728L377.434 224.12V285.925L387.369 292.317V357.638ZM118.019 356.797H386.367V292.727L376.443 286.345V223.699L386.367 217.317V146.359H118.052V217.336L128.978 225.801V287.215L118.052 292.766L118.019 356.797Z" fill="#7CDDF7"/>
<path d="M141.627 124.05H139.658V137.387H141.627V124.05Z" fill="#7CDDF7"/>
<path d="M149.17 124.05H147.201V137.387H149.17V124.05Z" fill="#7CDDF7"/>
<path d="M156.715 124.05H154.746V137.387H156.715V124.05Z" fill="#7CDDF7"/>
<path d="M164.256 124.05H162.287V137.387H164.256V124.05Z" fill="#7CDDF7"/>
<path d="M171.799 124.05H169.83V137.387H171.799V124.05Z" fill="#7CDDF7"/>
<path d="M179.344 124.05H177.375V137.387H179.344V124.05Z" fill="#7CDDF7"/>
<path d="M186.885 124.05H184.916V137.387H186.885V124.05Z" fill="#7CDDF7"/>
<path d="M194.43 124.05H192.461V137.387H194.43V124.05Z" fill="#7CDDF7"/>
<path d="M201.983 124.05H200.014V137.387H201.983V124.05Z" fill="#7CDDF7"/>
<path d="M209.526 124.05H207.557V137.387H209.526V124.05Z" fill="#7CDDF7"/>
<path d="M217.071 124.05H215.102V137.387H217.071V124.05Z" fill="#7CDDF7"/>
<path d="M224.614 124.05H222.645V137.387H224.614V124.05Z" fill="#7CDDF7"/>
<path d="M232.155 124.05H230.186V137.387H232.155V124.05Z" fill="#7CDDF7"/>
<path d="M239.7 124.05H237.73V137.387H239.7V124.05Z" fill="#7CDDF7"/>
<path d="M247.243 124.05H245.273V137.387H247.243V124.05Z" fill="#7CDDF7"/>
<path d="M254.787 124.05H252.818V137.387H254.787V124.05Z" fill="#7CDDF7"/>
<path d="M262.329 124.05H260.359V137.387H262.329V124.05Z" fill="#7CDDF7"/>
<path d="M269.881 124.05H267.912V137.387H269.881V124.05Z" fill="#7CDDF7"/>
<path d="M277.426 124.05H275.457V137.387H277.426V124.05Z" fill="#7CDDF7"/>
<path d="M284.969 124.05H283V137.387H284.969V124.05Z" fill="#7CDDF7"/>
<path d="M292.512 124.05H290.543V137.387H292.512V124.05Z" fill="#7CDDF7"/>
<path d="M300.055 124.05H298.086V137.387H300.055V124.05Z" fill="#7CDDF7"/>
<path d="M307.598 124.05H305.629V137.387H307.598V124.05Z" fill="#7CDDF7"/>
<path d="M315.143 124.05H313.174V137.387H315.143V124.05Z" fill="#7CDDF7"/>
<path d="M322.686 124.05H320.717V137.387H322.686V124.05Z" fill="#7CDDF7"/>
<path d="M330.227 124.05H328.258V137.387H330.227V124.05Z" fill="#7CDDF7"/>
<path d="M337.772 124.05H335.803V137.387H337.772V124.05Z" fill="#7CDDF7"/>
<path d="M345.325 124.05H343.355V137.387H345.325V124.05Z" fill="#7CDDF7"/>
<path d="M352.868 124.05H350.898V137.387H352.868V124.05Z" fill="#7CDDF7"/>
<path d="M360.412 124.05H358.443V137.387H360.412V124.05Z" fill="#7CDDF7"/>
<path d="M415.818 277.765V276.103H400.076V277.765H415.818Z" fill="#7CDDF7"/>
<path d="M415.818 284.157V282.495H400.076V284.157H415.818Z" fill="#7CDDF7"/>
<path d="M415.818 290.549V288.886H400.076V290.549H415.818Z" fill="#7CDDF7"/>
<path d="M415.818 296.931V295.269H400.076V296.931H415.818Z" fill="#7CDDF7"/>
<path d="M415.807 303.322V301.66H400.065V303.322H415.807Z" fill="#7CDDF7"/>
<path d="M415.818 309.714V308.052H400.076V309.714H415.818Z" fill="#7CDDF7"/>
<path d="M415.818 316.096V314.434H400.076V316.096H415.818Z" fill="#7CDDF7"/>
<path d="M415.818 322.488V320.826H400.076V322.488H415.818Z" fill="#7CDDF7"/>
<path d="M415.818 328.88V327.217H400.076V328.88H415.818Z" fill="#7CDDF7"/>
<path d="M415.818 335.271V333.609H400.076V335.271H415.818Z" fill="#7CDDF7"/>
<path d="M415.818 341.654V339.991H400.076V341.654H415.818Z" fill="#7CDDF7"/>
<path d="M415.807 348.045V346.383H400.065V348.045H415.807Z" fill="#7CDDF7"/>
<path d="M415.818 354.437V352.775H400.076V354.437H415.818Z" fill="#7CDDF7"/>
<path d="M144.787 367.459H142.818V380.796H144.787V367.459Z" fill="#7CDDF7"/>
<path d="M152.329 367.459H150.359V380.796H152.329V367.459Z" fill="#7CDDF7"/>
<path d="M159.873 367.459H157.904V380.796H159.873V367.459Z" fill="#7CDDF7"/>
<path d="M167.416 367.459H165.447V380.796H167.416V367.459Z" fill="#7CDDF7"/>
<path d="M174.961 367.459H172.992V380.796H174.961V367.459Z" fill="#7CDDF7"/>
<path d="M182.502 367.459H180.533V380.796H182.502V367.459Z" fill="#7CDDF7"/>
<path d="M190.057 367.459H188.088V380.796H190.057V367.459Z" fill="#7CDDF7"/>
<path d="M197.6 367.459H195.631V380.796H197.6V367.459Z" fill="#7CDDF7"/>
<path d="M205.143 367.459H203.174V380.796H205.143V367.459Z" fill="#7CDDF7"/>
<path d="M212.686 367.459H210.717V380.796H212.686V367.459Z" fill="#7CDDF7"/>
<path d="M220.231 367.459H218.262V380.796H220.231V367.459Z" fill="#7CDDF7"/>
<path d="M227.772 367.459H225.803V380.796H227.772V367.459Z" fill="#7CDDF7"/>
<path d="M235.317 367.459H233.348V380.796H235.317V367.459Z" fill="#7CDDF7"/>
<path d="M242.86 367.459H240.891V380.796H242.86V367.459Z" fill="#7CDDF7"/>
<path d="M250.401 367.459H248.432V380.796H250.401V367.459Z" fill="#7CDDF7"/>
<path d="M257.946 367.459H255.977V380.796H257.946V367.459Z" fill="#7CDDF7"/>
<path d="M265.498 367.459H263.529V380.796H265.498V367.459Z" fill="#7CDDF7"/>
<path d="M273.041 367.459H271.072V380.796H273.041V367.459Z" fill="#7CDDF7"/>
<path d="M280.586 367.459H278.617V380.796H280.586V367.459Z" fill="#7CDDF7"/>
<path d="M288.129 367.459H286.16V380.796H288.129V367.459Z" fill="#7CDDF7"/>
<path d="M295.672 367.459H293.703V380.796H295.672V367.459Z" fill="#7CDDF7"/>
<path d="M303.215 367.459H301.246V380.796H303.215V367.459Z" fill="#7CDDF7"/>
<path d="M310.758 367.459H308.789V380.796H310.758V367.459Z" fill="#7CDDF7"/>
<path d="M318.303 367.459H316.334V380.796H318.303V367.459Z" fill="#7CDDF7"/>
<path d="M325.844 367.459H323.875V380.796H325.844V367.459Z" fill="#7CDDF7"/>
<path d="M333.397 367.459H331.428V380.796H333.397V367.459Z" fill="#7CDDF7"/>
<path d="M340.942 367.459H338.973V380.796H340.942V367.459Z" fill="#7CDDF7"/>
<path d="M348.485 367.459H346.516V380.796H348.485V367.459Z" fill="#7CDDF7"/>
<path d="M356.03 367.459H354.061V380.796H356.03V367.459Z" fill="#7CDDF7"/>
<path d="M363.571 367.459H361.602V380.796H363.571V367.459Z" fill="#7CDDF7"/>
<path d="M382.552 149.426H375.332V155.54H382.552V149.426Z" fill="#7CDDF7"/>
<path d="M129.958 149.426H122.738V155.54H129.958V149.426Z" fill="#7CDDF7"/>
<path d="M382.552 347.453H375.332V353.567H382.552V347.453Z" fill="#7CDDF7"/>
<path d="M129.958 347.453H122.738V353.567H129.958V347.453Z" fill="#7CDDF7"/>
<path d="M408.285 157.355C408.277 158.22 407.869 159.047 407.151 159.654C406.434 160.261 405.466 160.599 404.458 160.594C403.96 160.597 403.466 160.515 403.005 160.354C402.544 160.192 402.124 159.954 401.769 159.654C401.415 159.353 401.133 158.995 400.94 158.601C400.747 158.206 400.645 157.783 400.643 157.355C400.651 156.493 401.058 155.669 401.773 155.064C402.489 154.458 403.454 154.121 404.458 154.126C404.957 154.123 405.451 154.203 405.913 154.363C406.375 154.524 406.795 154.76 407.151 155.06C407.506 155.36 407.789 155.717 407.984 156.111C408.179 156.505 408.281 156.928 408.285 157.355Z" fill="#7CDDF7"/>
<path d="M408.285 168.658C408.281 169.086 408.179 169.508 407.984 169.902C407.789 170.296 407.506 170.653 407.151 170.953C406.795 171.253 406.375 171.49 405.913 171.65C405.451 171.81 404.957 171.891 404.458 171.887C403.454 171.892 402.489 171.555 401.773 170.95C401.058 170.344 400.651 169.52 400.643 168.658C400.645 168.23 400.747 167.807 400.94 167.412C401.133 167.018 401.415 166.66 401.769 166.36C402.124 166.059 402.544 165.821 403.005 165.66C403.466 165.498 403.96 165.416 404.458 165.419C405.466 165.414 406.434 165.752 407.151 166.359C407.869 166.966 408.277 167.793 408.285 168.658Z" fill="#7CDDF7"/>
<path d="M408.285 179.951C408.277 180.816 407.869 181.642 407.151 182.249C406.434 182.856 405.466 183.194 404.458 183.189C403.96 183.192 403.466 183.11 403.005 182.949C402.544 182.787 402.124 182.549 401.769 182.249C401.415 181.948 401.133 181.59 400.94 181.196C400.747 180.802 400.645 180.379 400.643 179.951C400.651 179.088 401.058 178.264 401.773 177.659C402.489 177.054 403.454 176.716 404.458 176.722C404.957 176.718 405.451 176.798 405.913 176.959C406.375 177.119 406.795 177.356 407.151 177.655C407.506 177.955 407.789 178.312 407.984 178.706C408.179 179.1 408.281 179.523 408.285 179.951Z" fill="#7CDDF7"/>
<path d="M408.285 191.253C408.281 191.681 408.179 192.104 407.984 192.498C407.789 192.892 407.506 193.249 407.151 193.548C406.795 193.848 406.375 194.085 405.913 194.245C405.451 194.406 404.957 194.486 404.458 194.482C403.454 194.487 402.489 194.15 401.773 193.545C401.058 192.94 400.651 192.116 400.643 191.253C400.651 190.391 401.058 189.567 401.773 188.961C402.489 188.356 403.454 188.019 404.458 188.024C404.957 188.02 405.451 188.101 405.913 188.261C406.375 188.421 406.795 188.658 407.151 188.958C407.506 189.258 407.789 189.615 407.984 190.009C408.179 190.402 408.281 190.825 408.285 191.253Z" fill="#7CDDF7"/>
<path d="M408.285 202.556C408.281 202.984 408.179 203.406 407.984 203.8C407.789 204.194 407.506 204.551 407.151 204.851C406.795 205.151 406.375 205.388 405.913 205.548C405.451 205.708 404.957 205.789 404.458 205.785C403.454 205.79 402.489 205.453 401.773 204.848C401.058 204.242 400.651 203.418 400.643 202.556C400.645 202.128 400.747 201.705 400.94 201.311C401.133 200.916 401.415 200.558 401.769 200.258C402.124 199.957 402.544 199.719 403.005 199.558C403.466 199.396 403.96 199.315 404.458 199.317C405.466 199.312 406.434 199.65 407.151 200.257C407.869 200.864 408.277 201.691 408.285 202.556Z" fill="#7CDDF7"/>
<path d="M408.285 213.849C408.277 214.713 407.869 215.54 407.151 216.147C406.434 216.754 405.466 217.092 404.458 217.087C403.96 217.09 403.466 217.008 403.005 216.847C402.544 216.685 402.124 216.447 401.769 216.147C401.415 215.846 401.133 215.488 400.94 215.094C400.747 214.699 400.645 214.276 400.643 213.849C400.651 212.986 401.058 212.162 401.773 211.557C402.489 210.951 403.454 210.614 404.458 210.619C404.957 210.616 405.451 210.696 405.913 210.856C406.375 211.017 406.795 211.253 407.151 211.553C407.506 211.853 407.789 212.21 407.984 212.604C408.179 212.998 408.281 213.421 408.285 213.849Z" fill="#7CDDF7"/>
<path d="M408.285 225.151C408.281 225.579 408.179 226.002 407.984 226.396C407.789 226.789 407.506 227.146 407.151 227.446C406.795 227.746 406.375 227.983 405.913 228.143C405.451 228.303 404.957 228.384 404.458 228.38C403.454 228.385 402.489 228.048 401.773 227.443C401.058 226.838 400.651 226.013 400.643 225.151C400.645 224.723 400.747 224.3 400.94 223.906C401.133 223.511 401.415 223.154 401.769 222.853C402.124 222.552 402.544 222.314 403.005 222.153C403.466 221.992 403.96 221.91 404.458 221.912C405.466 221.907 406.434 222.245 407.151 222.852C407.869 223.459 408.277 224.286 408.285 225.151Z" fill="#7CDDF7"/>
<path d="M408.285 236.444C408.277 237.309 407.869 238.136 407.151 238.743C406.434 239.35 405.466 239.688 404.458 239.683C403.96 239.685 403.466 239.604 403.005 239.442C402.544 239.281 402.124 239.043 401.769 238.742C401.415 238.441 401.133 238.084 400.94 237.689C400.747 237.295 400.645 236.872 400.643 236.444C400.651 235.582 401.058 234.758 401.773 234.152C402.489 233.547 403.454 233.21 404.458 233.215C404.957 233.211 405.451 233.292 405.913 233.452C406.375 233.612 406.795 233.849 407.151 234.149C407.506 234.449 407.789 234.806 407.984 235.2C408.179 235.593 408.281 236.016 408.285 236.444Z" fill="#7CDDF7"/>
<path d="M408.285 247.746C408.281 248.174 408.179 248.597 407.984 248.991C407.789 249.385 407.506 249.742 407.151 250.042C406.795 250.341 406.375 250.578 405.913 250.738C405.451 250.899 404.957 250.979 404.458 250.975C403.454 250.981 402.489 250.643 401.773 250.038C401.058 249.433 400.651 248.609 400.643 247.746C400.645 247.318 400.747 246.895 400.94 246.501C401.133 246.107 401.415 245.749 401.769 245.448C402.124 245.148 402.544 244.91 403.005 244.748C403.466 244.587 403.96 244.505 404.458 244.508C405.466 244.503 406.434 244.841 407.151 245.448C407.869 246.055 408.277 246.881 408.285 247.746Z" fill="#7CDDF7"/>
<path d="M408.285 259.04C408.277 259.904 407.869 260.731 407.151 261.338C406.434 261.945 405.466 262.283 404.458 262.278C403.96 262.281 403.466 262.199 403.005 262.038C402.544 261.876 402.124 261.638 401.769 261.338C401.415 261.037 401.133 260.679 400.94 260.285C400.747 259.891 400.645 259.467 400.643 259.04C400.651 258.177 401.058 257.353 401.773 256.748C402.489 256.142 403.454 255.805 404.458 255.81C404.957 255.807 405.451 255.887 405.913 256.047C406.375 256.208 406.795 256.444 407.151 256.744C407.506 257.044 407.789 257.401 407.984 257.795C408.179 258.189 408.281 258.612 408.285 259.04Z" fill="#7CDDF7"/>
<path d="M84.252 230.798V232.46H99.9939V230.798H84.252Z" fill="#7CDDF7"/>
<path d="M84.2422 224.406V226.068H99.9841V224.406H84.2422Z" fill="#7CDDF7"/>
<path d="M84.252 218.014V219.677H99.9939V218.014H84.252Z" fill="#7CDDF7"/>
<path d="M84.252 211.623V213.285H99.9939V211.623H84.252Z" fill="#7CDDF7"/>
<path d="M84.2422 205.241V206.903H99.9841V205.241H84.2422Z" fill="#7CDDF7"/>
<path d="M84.2422 198.849V200.511H99.9841V198.849H84.2422Z" fill="#7CDDF7"/>
<path d="M84.252 192.457V194.12H99.9939V192.457H84.252Z" fill="#7CDDF7"/>
<path d="M84.252 186.075V187.737H99.9939V186.075H84.252Z" fill="#7CDDF7"/>
<path d="M84.2422 179.683V181.346H99.9842V179.683H84.2422Z" fill="#7CDDF7"/>
<path d="M84.252 173.292V174.954H99.9939V173.292H84.252Z" fill="#7CDDF7"/>
<path d="M84.252 166.9V168.562H99.9939V166.9H84.252Z" fill="#7CDDF7"/>
<path d="M84.2422 160.518V162.18H99.9842V160.518H84.2422Z" fill="#7CDDF7"/>
<path d="M84.2422 154.126V155.789H99.9842V154.126H84.2422Z" fill="#7CDDF7"/>
<path d="M91.7852 349.516C91.794 348.654 92.2006 347.83 92.9159 347.225C93.6312 346.619 94.5968 346.282 95.601 346.287C96.6053 346.282 97.5709 346.619 98.2862 347.225C99.0015 347.83 99.4081 348.654 99.4169 349.516C99.414 349.944 99.313 350.367 99.1197 350.762C98.9263 351.156 98.6444 351.514 98.2901 351.814C97.9358 352.115 97.5159 352.353 97.0545 352.514C96.5931 352.676 96.0992 352.758 95.601 352.755C95.1029 352.758 94.609 352.676 94.1476 352.514C93.6862 352.353 93.2663 352.115 92.912 351.814C92.5576 351.514 92.2757 351.156 92.0824 350.762C91.8891 350.367 91.7881 349.944 91.7852 349.516Z" fill="#7CDDF7"/>
<path d="M91.7852 338.223C91.7881 337.796 91.8891 337.372 92.0824 336.978C92.2757 336.584 92.5576 336.226 92.912 335.925C93.2663 335.625 93.6862 335.387 94.1476 335.225C94.609 335.064 95.1029 334.982 95.601 334.985C96.0992 334.982 96.5931 335.064 97.0545 335.225C97.5159 335.387 97.9358 335.625 98.2901 335.925C98.6444 336.226 98.9263 336.584 99.1197 336.978C99.313 337.372 99.414 337.796 99.4169 338.223C99.4081 339.086 99.0015 339.91 98.2862 340.515C97.5709 341.121 96.6053 341.458 95.601 341.453C95.1034 341.456 94.6097 341.376 94.1484 341.215C93.6871 341.055 93.2672 340.818 92.9127 340.518C92.5582 340.218 92.2761 339.861 92.0826 339.467C91.8892 339.073 91.7881 338.651 91.7852 338.223Z" fill="#7CDDF7"/>
<path d="M91.7852 326.921C91.7881 326.494 91.8892 326.071 92.0826 325.677C92.2761 325.283 92.5582 324.926 92.9127 324.626C93.2672 324.326 93.6871 324.089 94.1484 323.929C94.6097 323.769 95.1034 323.688 95.601 323.692C96.6053 323.687 97.5709 324.024 98.2862 324.629C99.0015 325.234 99.4081 326.059 99.4169 326.921C99.414 327.349 99.313 327.772 99.1197 328.166C98.9263 328.561 98.6444 328.918 98.2901 329.219C97.9358 329.52 97.5159 329.758 97.0545 329.919C96.5931 330.08 96.0992 330.162 95.601 330.16C95.1029 330.162 94.609 330.08 94.1476 329.919C93.6862 329.758 93.2663 329.52 92.912 329.219C92.5576 328.918 92.2757 328.561 92.0824 328.166C91.8891 327.772 91.7881 327.349 91.7852 326.921Z" fill="#7CDDF7"/>
<path d="M91.7852 315.628C91.7881 315.2 91.8891 314.777 92.0824 314.383C92.2757 313.989 92.5576 313.631 92.912 313.33C93.2663 313.029 93.6862 312.792 94.1476 312.63C94.609 312.469 95.1029 312.387 95.601 312.389C96.0992 312.387 96.5931 312.469 97.0545 312.63C97.5159 312.792 97.9358 313.029 98.2901 313.33C98.6444 313.631 98.9263 313.989 99.1197 314.383C99.313 314.777 99.414 315.2 99.4169 315.628C99.4081 316.491 99.0015 317.315 98.2862 317.92C97.5709 318.525 96.6053 318.862 95.601 318.857C95.1034 318.861 94.6097 318.78 94.1484 318.62C93.6871 318.46 93.2672 318.223 92.9127 317.923C92.5582 317.623 92.2761 317.266 92.0826 316.872C91.8892 316.478 91.7881 316.056 91.7852 315.628Z" fill="#7CDDF7"/>
<path d="M91.7852 304.326C91.7881 303.898 91.8892 303.476 92.0826 303.082C92.2761 302.688 92.5582 302.331 92.9127 302.031C93.2672 301.731 93.6871 301.494 94.1484 301.334C94.6097 301.173 95.1034 301.093 95.601 301.097C96.6053 301.091 97.5709 301.429 98.2862 302.034C99.0015 302.639 99.4081 303.463 99.4169 304.326C99.414 304.754 99.313 305.177 99.1197 305.571C98.9263 305.965 98.6444 306.323 98.2901 306.624C97.9358 306.924 97.5159 307.162 97.0545 307.324C96.5931 307.485 96.0992 307.567 95.601 307.564C95.1029 307.567 94.609 307.485 94.1476 307.324C93.6862 307.162 93.2663 306.924 92.912 306.624C92.5576 306.323 92.2757 305.965 92.0824 305.571C91.8891 305.177 91.7881 304.754 91.7852 304.326Z" fill="#7CDDF7"/>
<path d="M91.7852 293.033C91.7881 292.605 91.8891 292.182 92.0824 291.787C92.2757 291.393 92.5576 291.035 92.912 290.735C93.2663 290.434 93.6862 290.196 94.1476 290.035C94.609 289.873 95.1029 289.791 95.601 289.794C96.0992 289.791 96.5931 289.873 97.0545 290.035C97.5159 290.196 97.9358 290.434 98.2901 290.735C98.6444 291.035 98.9263 291.393 99.1197 291.787C99.313 292.182 99.414 292.605 99.4169 293.033C99.4081 293.895 99.0015 294.719 98.2862 295.325C97.5709 295.93 96.6053 296.267 95.601 296.262C95.1034 296.266 94.6097 296.185 94.1484 296.025C93.6871 295.864 93.2672 295.627 92.9127 295.327C92.5582 295.027 92.2761 294.67 92.0826 294.277C91.8892 293.883 91.7881 293.46 91.7852 293.033Z" fill="#7CDDF7"/>
<path d="M91.7852 281.73C91.7881 281.303 91.8892 280.88 92.0826 280.487C92.2761 280.093 92.5582 279.736 92.9127 279.436C93.2672 279.136 93.6871 278.899 94.1484 278.738C94.6097 278.578 95.1034 278.497 95.601 278.501C96.6053 278.496 97.5709 278.833 98.2862 279.438C99.0015 280.044 99.4081 280.868 99.4169 281.73C99.414 282.158 99.313 282.581 99.1197 282.976C98.9263 283.37 98.6444 283.728 98.2901 284.028C97.9358 284.329 97.5159 284.567 97.0545 284.728C96.5931 284.89 96.0992 284.972 95.601 284.969C95.1029 284.972 94.609 284.89 94.1476 284.728C93.6862 284.567 93.2663 284.329 92.912 284.028C92.5576 283.728 92.2757 283.37 92.0824 282.976C91.8891 282.581 91.7881 282.158 91.7852 281.73Z" fill="#7CDDF7"/>
<path d="M91.7852 270.39C91.794 269.527 92.2006 268.703 92.9159 268.098C93.6312 267.492 94.5968 267.155 95.601 267.16C96.6053 267.155 97.5709 267.492 98.2862 268.098C99.0015 268.703 99.4081 269.527 99.4169 270.39C99.414 270.817 99.313 271.241 99.1197 271.635C98.9263 272.029 98.6444 272.387 98.2901 272.688C97.9358 272.988 97.5159 273.226 97.0545 273.388C96.5931 273.549 96.0992 273.631 95.601 273.628C95.1029 273.631 94.609 273.549 94.1476 273.388C93.6862 273.226 93.2663 272.988 92.912 272.688C92.5576 272.387 92.2757 272.029 92.0824 271.635C91.8891 271.241 91.7881 270.817 91.7852 270.39Z" fill="#7CDDF7"/>
<path d="M91.7852 259.135C91.7881 258.707 91.8891 258.284 92.0824 257.89C92.2757 257.495 92.5576 257.138 92.912 256.837C93.2663 256.536 93.6862 256.298 94.1476 256.137C94.609 255.975 95.1029 255.894 95.601 255.896C96.0992 255.894 96.5931 255.975 97.0545 256.137C97.5159 256.298 97.9358 256.536 98.2901 256.837C98.6444 257.138 98.9263 257.495 99.1197 257.89C99.313 258.284 99.414 258.707 99.4169 259.135C99.4081 259.997 99.0015 260.821 98.2862 261.427C97.5709 262.032 96.6053 262.369 95.601 262.364C95.1034 262.368 94.6097 262.287 94.1484 262.127C93.6871 261.966 93.2672 261.73 92.9127 261.43C92.5582 261.13 92.2761 260.772 92.0826 260.379C91.8892 259.985 91.7881 259.562 91.7852 259.135Z" fill="#7CDDF7"/>
<path d="M91.7852 247.832C91.7881 247.405 91.8892 246.982 92.0826 246.589C92.2761 246.195 92.5582 245.838 92.9127 245.538C93.2672 245.238 93.6871 245.001 94.1484 244.84C94.6097 244.68 95.1034 244.599 95.601 244.603C96.6053 244.598 97.5709 244.935 98.2862 245.541C99.0015 246.146 99.4081 246.97 99.4169 247.832C99.414 248.26 99.313 248.683 99.1197 249.078C98.9263 249.472 98.6444 249.83 98.2901 250.13C97.9358 250.431 97.5159 250.669 97.0545 250.83C96.5931 250.992 96.0992 251.074 95.601 251.071C95.1029 251.074 94.609 250.992 94.1476 250.83C93.6862 250.669 93.2663 250.431 92.912 250.13C92.5576 249.83 92.2757 249.472 92.0824 249.078C91.8891 248.683 91.7881 248.26 91.7852 247.832Z" fill="#7CDDF7"/>
<path d="M359.821 160.203H140.336V160.556H359.821V160.203Z" fill="#7CDDF7"/>
<path d="M361.813 343.068H142.328V343.545H361.813V343.068Z" fill="#7CDDF7"/>
<path style="mix-blend-mode:color-dodge" d="M231.2 433C358.889 433 462.4 344.109 462.4 234.457C462.4 124.804 358.889 35.9137 231.2 35.9137C103.512 35.9137 0 124.804 0 234.457C0 344.109 103.512 433 231.2 433Z" fill="url(#paint0_radial_2715_1359)"/>
<defs>
<radialGradient id="paint0_radial_2715_1359" cx="0" cy="0" r="1" gradientUnits="userSpaceOnUse" gradientTransform="translate(231.2 234.457) scale(231.2 198.543)">
<stop offset="0.01" stop-color="#CCCCCC"/>
<stop offset="1" stop-opacity="0"/>
</radialGradient>
</defs>
</svg>
