<svg width="29" height="24" viewBox="0 0 29 24" fill="none" xmlns="http://www.w3.org/2000/svg">
<path d="M24.0084 10.8124H1.9375C1.62256 10.8124 1.32051 10.9375 1.09781 11.1602C0.875111 11.3829 0.75 11.685 0.75 11.9999C0.75 12.3149 0.875111 12.6169 1.09781 12.8396C1.32051 13.0623 1.62256 13.1874 1.9375 13.1874H24.0084L15.3468 21.8467C15.1238 22.0696 14.9985 22.3721 14.9985 22.6874C14.9985 23.0028 15.1238 23.3052 15.3468 23.5282C15.5697 23.7511 15.8722 23.8764 16.1875 23.8764C16.5028 23.8764 16.8053 23.7511 17.0282 23.5282L27.7157 12.8407C27.8263 12.7304 27.9141 12.5993 27.9739 12.455C28.0338 12.3108 28.0646 12.1561 28.0646 11.9999C28.0646 11.8437 28.0338 11.6891 27.9739 11.5448C27.9141 11.4005 27.8263 11.2695 27.7157 11.1592L17.0282 0.471663C16.8053 0.248682 16.5028 0.123413 16.1875 0.123413C15.8722 0.123413 15.5697 0.248682 15.3468 0.471663C15.1238 0.694644 14.9985 0.997071 14.9985 1.31241C14.9985 1.62776 15.1238 1.93018 15.3468 2.15316L24.0084 10.8124Z" fill="white"/>
</svg>
