<svg width="58" height="58" viewBox="0 0 58 58" fill="none" xmlns="http://www.w3.org/2000/svg">
<circle cx="29" cy="29" r="28" stroke="#2A2D48" stroke-width="2"/>
<path d="M19.3406 36.2482C18.9254 36.6124 18.884 37.2442 19.2482 37.6594C19.6124 38.0746 20.2442 38.116 20.6594 37.7518L19.3406 36.2482ZM39.6572 20.6996C39.6933 20.1485 39.2758 19.6725 38.7246 19.6364L29.7439 19.0483C29.1928 19.0122 28.7168 19.4297 28.6807 19.9808C28.6446 20.5319 29.0621 21.008 29.6132 21.044L37.5961 21.5668L37.0733 29.5497C37.0373 30.1008 37.4548 30.5768 38.0059 30.6129C38.557 30.649 39.033 30.2315 39.0691 29.6804L39.6572 20.6996ZM20.6594 37.7518L39.3187 21.3861L37.9999 19.8825L19.3406 36.2482L20.6594 37.7518Z" fill="#2A2D48"/>
</svg>
