<svg width="100" height="100" viewBox="0 0 100 100" fill="none" xmlns="http://www.w3.org/2000/svg">
<circle cx="50" cy="50" r="48.5" stroke="url(#paint0_linear_2764_423)" stroke-width="3"/>
<path d="M35.032 71V67.224C38.0613 64.8347 40.92 62.424 43.608 59.992C46.3387 57.5173 48.7493 55.0853 50.84 52.696C52.9733 50.3067 54.6373 47.96 55.832 45.656C57.0693 43.352 57.688 41.1333 57.688 39C57.688 37.4213 57.4107 35.9493 56.856 34.584C56.344 33.2187 55.4907 32.1307 54.296 31.32C53.1013 30.4667 51.48 30.04 49.432 30.04C47.4693 30.04 45.8267 30.488 44.504 31.384C43.1813 32.2373 42.1787 33.3893 41.496 34.84C40.856 36.2907 40.536 37.848 40.536 39.512H35.352C35.352 36.568 35.9707 34.0507 37.208 31.96C38.4453 29.8267 40.1307 28.2053 42.264 27.096C44.3973 25.9867 46.808 25.432 49.496 25.432C53.464 25.432 56.7067 26.5627 59.224 28.824C61.784 31.0427 63.064 34.3707 63.064 38.808C63.064 41.4533 62.4027 44.0773 61.08 46.68C59.7573 49.24 58.072 51.736 56.024 54.168C53.976 56.5573 51.7787 58.7973 49.432 60.888C47.128 62.9787 44.9733 64.856 42.968 66.52H64.6V71H35.032Z" fill="#028AE8"/>
<defs>
<linearGradient id="paint0_linear_2764_423" x1="6" y1="5.5" x2="100" y2="95.5" gradientUnits="userSpaceOnUse">
<stop stop-color="#0950A3"/>
<stop offset="1" stop-color="#0196F6"/>
</linearGradient>
</defs>
</svg>
