<svg width="100" height="100" viewBox="0 0 100 100" fill="none" xmlns="http://www.w3.org/2000/svg">
<circle cx="50" cy="50" r="48.5" stroke="url(#paint0_linear_2764_426)" stroke-width="3"/>
<path d="M49.688 71.768C46.8293 71.768 44.248 71.256 41.944 70.232C39.64 69.1653 37.784 67.5867 36.376 65.496C35.0107 63.4053 34.2853 60.8027 34.2 57.688H39.64C39.6827 60.248 40.5787 62.4667 42.328 64.344C44.0773 66.1787 46.5307 67.096 49.688 67.096C52.8453 67.096 55.2133 66.2213 56.792 64.472C58.4133 62.7227 59.224 60.6107 59.224 58.136C59.224 56.0453 58.712 54.3387 57.688 53.016C56.7067 51.6933 55.3627 50.712 53.656 50.072C51.992 49.432 50.1573 49.112 48.152 49.112H44.824V44.568H48.152C51.0533 44.568 53.3147 43.9067 54.936 42.584C56.6 41.2613 57.432 39.4053 57.432 37.016C57.432 35.0107 56.7707 33.368 55.448 32.088C54.168 30.7653 52.248 30.104 49.688 30.104C47.2133 30.104 45.2293 30.8507 43.736 32.344C42.2427 33.7947 41.4107 35.6293 41.24 37.848H35.8C35.928 35.416 36.568 33.2613 37.72 31.384C38.9147 29.5067 40.536 28.056 42.584 27.032C44.632 25.9653 47 25.432 49.688 25.432C52.5893 25.432 55 25.944 56.92 26.968C58.8827 27.992 60.3547 29.3573 61.336 31.064C62.36 32.7707 62.872 34.648 62.872 36.696C62.872 38.9573 62.2533 41.0267 61.016 42.904C59.7787 44.7387 57.9227 45.976 55.448 46.616C58.0933 47.1707 60.2907 48.4293 62.04 50.392C63.7893 52.3547 64.664 54.936 64.664 58.136C64.664 60.6107 64.088 62.8933 62.936 64.984C61.8267 67.032 60.1627 68.6747 57.944 69.912C55.7253 71.1493 52.9733 71.768 49.688 71.768Z" fill="#0388E5"/>
<defs>
<linearGradient id="paint0_linear_2764_426" x1="6" y1="5.5" x2="100" y2="95.5" gradientUnits="userSpaceOnUse">
<stop stop-color="#0950A3"/>
<stop offset="1" stop-color="#0196F6"/>
</linearGradient>
</defs>
</svg>
