<svg width="30" height="30" viewBox="0 0 30 30" fill="none" xmlns="http://www.w3.org/2000/svg">
<path d="M17.7324 3.44116V7.93616C17.7324 8.54491 17.9749 9.12991 18.4074 9.56116C18.841 9.99288 19.428 10.2351 20.0399 10.2349H25.1962" stroke="black" stroke-width="1.5" stroke-linecap="round" stroke-linejoin="round"/>
<path d="M25.3125 10.71V21.42C25.2876 22.1205 25.1244 22.8092 24.8322 23.4463C24.54 24.0835 24.1246 24.6565 23.61 25.1325C22.5695 26.0977 21.1883 26.6102 19.77 26.5575H10.2825C9.57588 26.5902 8.86977 26.4829 8.20476 26.2418C7.53975 26.0007 6.92896 25.6305 6.4075 25.1525C5.88811 24.6751 5.46863 24.0993 5.17338 23.4586C4.87813 22.8179 4.71298 22.125 4.6875 21.42V8.57748C4.71232 7.87695 4.87553 7.18826 5.16772 6.55109C5.45992 5.91392 5.87533 5.34088 6.39 4.86498C7.43052 3.89977 8.81172 3.38722 10.23 3.43998H17.3725C18.4628 3.43649 19.5151 3.83988 20.3238 4.57123L24.0237 7.97373C24.4185 8.31388 24.7373 8.7333 24.9593 9.20472C25.1813 9.67614 25.3017 10.189 25.3125 10.71Z" stroke="black" stroke-width="1.5" stroke-linecap="round" stroke-linejoin="round"/>
<path d="M15 13.1238V21.5913" stroke="black" stroke-width="1.5" stroke-miterlimit="10" stroke-linecap="round"/>
<path d="M18.8822 16.6875L15.5509 13.3562C15.4789 13.2833 15.393 13.2254 15.2984 13.1859C15.2038 13.1463 15.1022 13.126 14.9997 13.126C14.8971 13.126 14.7956 13.1463 14.701 13.1859C14.6064 13.2254 14.5205 13.2833 14.4484 13.3562L11.1172 16.6887" stroke="black" stroke-width="1.5" stroke-linecap="round" stroke-linejoin="round"/>
</svg>
