<svg width="535" height="493" viewBox="0 0 535 493" fill="none" xmlns="http://www.w3.org/2000/svg">
<g clip-path="url(#clip0_1341_173)">
<path d="M199.793 144.32H5.15678V4.88H199.803V144.32H199.793ZM6.39855 143.07H198.562V6.13H6.39855V143.07Z" fill="white"/>
<path d="M10.5545 0.719971H1.00088V10.3H10.5545V0.719971Z" fill="#121936"/>
<path d="M11.1753 10.92H0.379999V0.0899658H11.1753V10.92ZM1.62176 9.66997H9.93357V1.33997H1.62176V9.66997Z" fill="white"/>
<path d="M203.649 1.06995H194.095V10.6499H203.649V1.06995Z" fill="#121936"/>
<path d="M204.28 11.27H193.474V0.449951H204.27V11.27H204.28ZM194.716 10.03H203.028V1.68995H194.716V10.03Z" fill="white"/>
<path d="M10.5545 138.9H1.00088V148.48H10.5545V138.9Z" fill="#121936"/>
<path d="M11.1753 149.11H0.379999V138.28H11.1753V149.11ZM1.62176 147.86H9.93357V139.52H1.62176V147.86Z" fill="white"/>
<path d="M203.649 138.9H194.095V148.48H203.649V138.9Z" fill="#121936"/>
<path d="M204.28 149.11H193.474V138.28H204.27V149.11H204.28ZM194.716 147.86H203.028V139.52H194.716V147.86Z" fill="white"/>
<path d="M391.706 355.57H200.084V218.29H391.716V355.57H391.706ZM201.325 354.32H390.474V219.53H201.325V354.32Z" fill="white"/>
<path d="M205.401 214.19H195.998V223.62H205.401V214.19Z" fill="#121936"/>
<path d="M206.022 224.25H195.377V213.57H206.022V224.25ZM196.619 223H204.78V214.81H196.619V223Z" fill="white"/>
<path d="M395.491 214.54H386.088V223.97H395.491V214.54Z" fill="#121936"/>
<path d="M396.122 224.6H385.477V213.92H396.122V224.6ZM386.709 223.35H394.87V215.16H386.709V223.35Z" fill="white"/>
<path d="M205.401 350.23H195.998V359.66H205.401V350.23Z" fill="#121936"/>
<path d="M206.022 360.28H195.377V349.6H206.022V360.28ZM196.619 359.04H204.78V350.85H196.619V359.04Z" fill="white"/>
<path d="M395.491 350.23H386.088V359.66H395.491V350.23Z" fill="#121936"/>
<path d="M396.122 360.28H385.477V349.6H396.122V360.28ZM386.709 359.04H394.87V350.85H386.709V359.04Z" fill="white"/>
<path d="M267.57 492.52L75.9874 492.43C58.3123 492.42 43.9819 479.64 43.992 463.89L44.2223 54.1799C44.2323 38.4299 58.5727 25.6599 76.2478 25.6699L267.83 25.7599C285.505 25.7699 299.835 38.5499 299.825 54.2999L299.595 464.01C299.585 479.76 285.245 492.53 267.57 492.52Z" fill="#F9CAD0"/>
<path d="M267.58 493.15C267.57 493.15 267.57 493.15 267.56 493.15L75.9774 493.06C67.275 493.06 59.0934 490.03 52.9347 484.54C46.7559 479.03 43.3611 471.7 43.3611 463.9L43.5914 54.1899C43.6014 38.1199 58.2422 25.0599 76.2177 25.0599C76.2277 25.0599 76.2277 25.0599 76.2378 25.0599L267.82 25.1499C276.522 25.1499 284.704 28.1799 290.863 33.6699C297.041 39.1799 300.436 46.5099 300.436 54.3099L300.206 464.02C300.206 480.08 285.565 493.15 267.58 493.15ZM267.57 491.9H267.58C284.884 491.9 298.964 479.39 298.964 464.01L299.194 54.2999C299.194 46.8599 295.95 39.8599 290.041 34.5899C284.113 29.2999 276.222 26.3899 267.83 26.3799L76.2378 26.2999C76.2277 26.2999 76.2277 26.2999 76.2177 26.2999C58.9131 26.2999 44.8432 38.8099 44.8331 54.1899L44.6028 463.9C44.6028 471.34 47.8474 478.34 53.7558 483.61C59.6842 488.9 67.5755 491.81 75.9674 491.82L267.57 491.9Z" fill="#121936"/>
<path d="M260.239 485.08L83.6283 485C67.3351 484.99 54.1264 472.64 54.1364 457.41L54.3567 61.3C54.3667 46.07 67.5855 33.73 83.8786 33.73L260.479 33.81C276.773 33.82 289.981 46.17 289.971 61.4L289.751 457.51C289.751 472.74 276.532 485.08 260.239 485.08Z" fill="#121936"/>
<path opacity="0.89" d="M139.377 63.2799C138.496 63.2799 137.665 62.9699 137.034 62.3999C136.383 61.8199 136.033 61.0299 136.033 60.1999C136.033 59.3699 136.393 58.5799 137.034 57.9999C137.665 57.4299 138.496 57.1199 139.377 57.1199C140.259 57.1199 141.09 57.4299 141.721 57.9999C142.372 58.5799 142.722 59.3699 142.722 60.1999C142.722 61.8999 141.22 63.2799 139.377 63.2799ZM139.377 58.3599C138.807 58.3599 138.266 58.5599 137.865 58.9199C137.485 59.2599 137.274 59.7199 137.274 60.1899C137.274 60.6699 137.485 61.1199 137.865 61.4599C138.266 61.8199 138.807 62.0199 139.377 62.0199C140.539 62.0199 141.48 61.1999 141.48 60.1899C141.48 59.7099 141.27 59.2599 140.89 58.9199C140.489 58.5599 139.948 58.3599 139.377 58.3599Z" fill="white"/>
<path opacity="0.89" d="M127.36 61.7599C126.449 61.7599 125.698 61.0599 125.698 60.1999C125.698 59.3399 126.449 58.6399 127.36 58.6399C128.272 58.6399 129.023 59.3399 129.023 60.1999C129.023 61.0599 128.272 61.7599 127.36 61.7599ZM127.36 59.8799C127.13 59.8799 126.94 60.0199 126.94 60.1899C126.94 60.5299 127.771 60.5299 127.781 60.1899C127.781 60.0299 127.591 59.8799 127.36 59.8799Z" fill="white"/>
<path opacity="0.89" d="M193.064 62.4699L151.264 62.4499C149.922 62.4499 148.831 61.4399 148.831 60.1899C148.831 59.5699 149.091 58.9999 149.572 58.5699C150.033 58.1599 150.633 57.9299 151.274 57.9299L193.064 57.9499C193.705 57.9499 194.305 58.1799 194.766 58.5899C195.247 59.0199 195.507 59.5999 195.507 60.2099C195.507 61.4499 194.406 62.4699 193.064 62.4699ZM151.274 59.1699C150.944 59.1699 150.633 59.2799 150.403 59.4899C150.193 59.6799 150.073 59.9299 150.073 60.1799C150.073 60.7399 150.613 61.1899 151.264 61.1999L193.064 61.2199C193.725 61.2199 194.255 60.7699 194.255 60.2099C194.255 59.9499 194.135 59.6999 193.935 59.5199C193.705 59.3099 193.394 59.1999 193.064 59.1999L151.274 59.1699Z" fill="white"/>
<path d="M194.596 471.45L149.292 471.43C147.279 471.43 145.376 470.64 143.954 469.21C142.532 467.78 141.741 465.88 141.751 463.86V463.54C141.751 459.37 145.136 455.98 149.302 455.98L194.606 456C196.619 456 198.521 456.79 199.943 458.22C201.366 459.65 202.157 461.55 202.147 463.57V463.89C202.147 468.06 198.762 471.45 194.596 471.45ZM149.292 457.22C145.817 457.22 142.983 460.05 142.983 463.54V463.86C142.983 465.55 143.633 467.14 144.825 468.33C146.017 469.53 147.599 470.18 149.282 470.18L194.586 470.2C198.061 470.2 200.895 467.37 200.895 463.88V463.56C200.895 461.87 200.244 460.28 199.052 459.09C197.861 457.89 196.278 457.24 194.596 457.24L149.292 457.22Z" fill="white"/>
<path d="M282.921 85.58H62.1377V437.61H282.921V85.58Z" fill="white"/>
<path opacity="0.81" d="M289.971 85.5699H54.2665V437.6H289.971V85.5699Z" fill="white"/>
<path opacity="0.69" d="M265.667 163.66L169.14 163.51C168.799 163.51 168.519 163.23 168.519 162.89C168.519 162.55 168.799 162.27 169.14 162.27L265.667 162.42C266.007 162.42 266.288 162.7 266.288 163.04C266.288 163.38 266.007 163.66 265.667 163.66Z" fill="#353148"/>
<path opacity="0.69" d="M217.328 206.13L169.06 206.06C168.719 206.06 168.439 205.78 168.439 205.44C168.439 205.1 168.719 204.82 169.06 204.82L217.328 204.89C217.669 204.89 217.949 205.17 217.949 205.51C217.949 205.85 217.669 206.13 217.328 206.13Z" fill="#353148"/>
<path opacity="0.69" d="M197.15 176.33L169.09 176.27C168.749 176.27 168.469 175.99 168.469 175.65C168.469 175.31 168.749 175.03 169.09 175.03L197.15 175.09C197.49 175.09 197.77 175.37 197.77 175.71C197.77 176.05 197.5 176.33 197.15 176.33Z" fill="#353148"/>
<path opacity="0.69" d="M265.627 176.42L203.909 176.36C203.569 176.36 203.288 176.08 203.288 175.74C203.288 175.4 203.569 175.12 203.909 175.12L265.627 175.18C265.967 175.18 266.248 175.46 266.248 175.8C266.248 176.15 265.977 176.42 265.627 176.42Z" fill="#353148"/>
<path opacity="0.69" d="M223.667 191.43L169.1 191.37C168.759 191.37 168.479 191.09 168.479 190.75C168.479 190.41 168.759 190.13 169.1 190.13L223.667 190.19C224.008 190.19 224.288 190.47 224.288 190.81C224.288 191.15 224.008 191.43 223.667 191.43Z" fill="#353148"/>
<path opacity="0.69" d="M265.627 191.52L229.586 191.46C229.245 191.46 228.965 191.18 228.965 190.84C228.965 190.5 229.245 190.22 229.586 190.22L265.627 190.28C265.967 190.28 266.248 190.56 266.248 190.9C266.248 191.24 265.967 191.52 265.627 191.52Z" fill="#353148"/>
<path opacity="0.69" d="M265.667 121.67L169.14 121.52C168.799 121.52 168.519 121.24 168.519 120.9C168.519 120.56 168.799 120.28 169.14 120.28L265.667 120.43C266.007 120.43 266.288 120.71 266.288 121.05C266.288 121.39 266.007 121.67 265.667 121.67Z" fill="#353148"/>
<path opacity="0.69" d="M197.15 134.34L169.09 134.28C168.749 134.28 168.469 134 168.469 133.66C168.469 133.32 168.749 133.04 169.09 133.04L197.15 133.1C197.49 133.1 197.77 133.38 197.77 133.72C197.77 134.06 197.5 134.34 197.15 134.34Z" fill="#353148"/>
<path opacity="0.69" d="M265.627 134.43L203.909 134.37C203.569 134.37 203.288 134.09 203.288 133.75C203.288 133.41 203.569 133.13 203.909 133.13L265.627 133.19C265.967 133.19 266.248 133.47 266.248 133.81C266.248 134.15 265.977 134.43 265.627 134.43Z" fill="#353148"/>
<path opacity="0.69" d="M223.667 149.44L169.1 149.38C168.759 149.38 168.479 149.1 168.479 148.76C168.479 148.42 168.759 148.14 169.1 148.14L223.667 148.2C224.008 148.2 224.288 148.48 224.288 148.82C224.288 149.16 224.008 149.44 223.667 149.44Z" fill="#353148"/>
<path opacity="0.69" d="M265.627 149.53L229.586 149.47C229.245 149.47 228.965 149.19 228.965 148.85C228.965 148.51 229.245 148.23 229.586 148.23L265.627 148.29C265.967 148.29 266.248 148.57 266.248 148.91C266.248 149.25 265.967 149.53 265.627 149.53Z" fill="#353148"/>
<path d="M153.918 112.3H83.2177V214.21H153.918V112.3Z" fill="#FF9C9C"/>
<path d="M153.918 112.3H83.2177V136.31H153.918V112.3Z" fill="#708CF5"/>
<path d="M203.118 323.52H82.8271V233H203.118V323.52ZM84.0689 322.28H201.876V234.25H84.0689V322.28Z" fill="#121936"/>
<path d="M86.3822 230.54H80.5038V236.73H86.3822V230.54Z" fill="#121936"/>
<path d="M205.251 230.77H199.373V236.96H205.251V230.77Z" fill="#121936"/>
<path d="M86.3822 319.81H80.5038V326H86.3822V319.81Z" fill="#121936"/>
<path d="M205.251 319.81H199.373V326H205.251V319.81Z" fill="#121936"/>
<path d="M142.682 257.91H95.5852C93.5023 257.91 91.8099 256.22 91.8099 254.12C91.8099 252.03 93.5023 250.33 95.5852 250.33H142.682C144.765 250.33 146.458 252.02 146.458 254.12C146.458 256.21 144.765 257.91 142.682 257.91Z" fill="#708CF5"/>
<path d="M142.682 288.88H95.5852C93.5023 288.88 91.8099 287.19 91.8099 285.09C91.8099 283 93.5023 281.3 95.5852 281.3H142.682C144.765 281.3 146.458 282.99 146.458 285.09C146.458 287.19 144.765 288.88 142.682 288.88Z" fill="#F9CAD0"/>
<path d="M154.309 272.85H125.107C123.024 272.85 121.332 271.16 121.332 269.06C121.332 266.97 123.024 265.27 125.107 265.27H154.309C156.392 265.27 158.084 266.96 158.084 269.06C158.084 271.15 156.392 272.85 154.309 272.85Z" fill="#708CF5"/>
<path d="M171.673 257.91H156.502C154.419 257.91 152.726 256.22 152.726 254.12C152.726 252.03 154.419 250.33 156.502 250.33H171.673C173.756 250.33 175.449 252.02 175.449 254.12C175.449 256.21 173.756 257.91 171.673 257.91Z" fill="#F9CAD0"/>
<path d="M138.556 305.93H95.5852C93.5023 305.93 91.8099 304.24 91.8099 302.14C91.8099 300.05 93.5023 298.35 95.5852 298.35H138.566C140.649 298.35 142.342 300.04 142.342 302.14C142.332 304.24 140.649 305.93 138.556 305.93Z" fill="#708CF5"/>
<path d="M165.354 305.93H151.905C149.822 305.93 148.13 304.24 148.13 302.14C148.13 300.05 149.822 298.35 151.905 298.35H165.354C167.437 298.35 169.13 300.04 169.13 302.14C169.13 304.24 167.447 305.93 165.354 305.93Z" fill="#F9CAD0"/>
<path d="M110.747 272.85H95.5852C93.5023 272.85 91.8099 271.16 91.8099 269.06C91.8099 266.97 93.5023 265.27 95.5852 265.27H110.757C112.84 265.27 114.532 266.96 114.532 269.06C114.522 271.16 112.84 272.85 110.747 272.85Z" fill="#F9CAD0"/>
<path d="M84.139 410.43H192.413C193.204 410.43 193.845 409.79 193.845 409V349.34C193.845 348.55 193.204 347.91 192.413 347.91H84.139C83.3479 347.91 82.7069 348.55 82.7069 349.34V409C82.7069 409.79 83.3479 410.43 84.139 410.43Z" fill="#4268FF"/>
<path d="M108.323 393.59C117.626 393.59 125.167 386.028 125.167 376.7C125.167 367.372 117.626 359.81 108.323 359.81C99.0207 359.81 91.4794 367.372 91.4794 376.7C91.4794 386.028 99.0207 393.59 108.323 393.59Z" fill="white"/>
<path d="M178.293 363.96H137.585C137.244 363.96 136.964 363.68 136.964 363.34C136.964 363 137.244 362.72 137.585 362.72H178.293C178.633 362.72 178.914 363 178.914 363.34C178.914 363.68 178.633 363.96 178.293 363.96Z" fill="white"/>
<path d="M185.142 387.23H162.711C162.37 387.23 162.09 386.95 162.09 386.61C162.09 386.27 162.37 385.99 162.711 385.99H185.142C185.483 385.99 185.763 386.27 185.763 386.61C185.763 386.95 185.483 387.23 185.142 387.23Z" fill="white"/>
<path d="M157.313 395.63H134.881C134.541 395.63 134.26 395.35 134.26 395.01C134.26 394.67 134.541 394.39 134.881 394.39H157.313C157.653 394.39 157.934 394.67 157.934 395.01C157.934 395.35 157.663 395.63 157.313 395.63Z" fill="white"/>
<path d="M160.037 379.13H134.881C134.541 379.13 134.26 378.85 134.26 378.51C134.26 378.17 134.541 377.89 134.881 377.89H160.037C160.377 377.89 160.658 378.17 160.658 378.51C160.658 378.85 160.387 379.13 160.037 379.13Z" fill="white"/>
<path d="M183.851 379.13H167.337C166.997 379.13 166.716 378.85 166.716 378.51C166.716 378.17 166.997 377.89 167.337 377.89H183.851C184.191 377.89 184.472 378.17 184.472 378.51C184.472 378.85 184.191 379.13 183.851 379.13Z" fill="#9DD3FF"/>
<path d="M150.193 387.23H133.769C133.429 387.23 133.149 386.95 133.149 386.61C133.149 386.27 133.429 385.99 133.769 385.99H150.193C150.533 385.99 150.814 386.27 150.814 386.61C150.814 386.95 150.533 387.23 150.193 387.23Z" fill="#9DD3FF"/>
<path d="M315.327 339.72H209.167V419.33H315.327V339.72Z" fill="white"/>
<g opacity="0.48">
<path d="M315.948 419.95H208.546V339.1H315.948V419.95ZM209.788 418.71H314.707V340.35H209.788V418.71Z" fill="#121936"/>
<path d="M211.79 336.96H206.543V342.48H211.79V336.96Z" fill="#121936"/>
<path d="M317.791 337.17H312.543V342.69H317.791V337.17Z" fill="#121936"/>
<path d="M211.79 416.57H206.543V422.09H211.79V416.57Z" fill="#121936"/>
<path d="M317.791 416.57H312.543V422.09H317.791V416.57Z" fill="#121936"/>
</g>
<path d="M271.405 359.39H224.308C222.225 359.39 220.533 357.7 220.533 355.6C220.533 353.51 222.225 351.81 224.308 351.81H271.405C273.488 351.81 275.18 353.5 275.18 355.6C275.18 357.69 273.488 359.39 271.405 359.39Z" fill="#708CF5"/>
<path d="M271.405 390.36H224.308C222.225 390.36 220.533 388.67 220.533 386.57C220.533 384.48 222.225 382.78 224.308 382.78H271.405C273.488 382.78 275.18 384.47 275.18 386.57C275.18 388.67 273.488 390.36 271.405 390.36Z" fill="#F9CAD0"/>
<path d="M283.022 374.33H253.82C251.737 374.33 250.045 372.64 250.045 370.54C250.045 368.45 251.737 366.75 253.82 366.75H283.022C285.104 366.75 286.797 368.44 286.797 370.54C286.797 372.63 285.114 374.33 283.022 374.33Z" fill="#708CF5"/>
<path d="M300.386 359.39H285.215C283.132 359.39 281.439 357.7 281.439 355.6C281.439 353.51 283.132 351.81 285.215 351.81H300.386C302.469 351.81 304.162 353.5 304.162 355.6C304.162 357.69 302.479 359.39 300.386 359.39Z" fill="#F9CAD0"/>
<path d="M267.279 407.42H224.298C222.215 407.42 220.523 405.73 220.523 403.63C220.523 401.54 222.215 399.84 224.298 399.84H267.279C269.362 399.84 271.055 401.53 271.055 403.63C271.055 405.72 269.362 407.42 267.279 407.42Z" fill="#708CF5"/>
<path d="M294.077 407.42H280.628C278.545 407.42 276.853 405.73 276.853 403.63C276.853 401.54 278.545 399.84 280.628 399.84H294.077C296.16 399.84 297.853 401.53 297.853 403.63C297.853 405.72 296.16 407.42 294.077 407.42Z" fill="#F9CAD0"/>
<path d="M239.47 374.33H224.298C222.215 374.33 220.523 372.64 220.523 370.54C220.523 368.45 222.215 366.75 224.298 366.75H239.47C241.553 366.75 243.245 368.44 243.245 370.54C243.245 372.64 241.553 374.33 239.47 374.33Z" fill="#F9CAD0"/>
<path d="M338.21 206.68H258.437C257.645 206.68 257.005 206.04 257.005 205.25V134.88C257.005 134.09 257.645 133.45 258.437 133.45H338.21C339.001 133.45 339.642 134.09 339.642 134.88V205.25C339.642 206.04 339.001 206.68 338.21 206.68Z" fill="#4268FF"/>
<path d="M269.883 145.43C269.723 145.43 269.562 145.37 269.442 145.25L263.714 139.51C263.474 139.27 263.474 138.87 263.714 138.63C263.954 138.39 264.345 138.39 264.595 138.63L270.323 144.37C270.564 144.61 270.564 145.01 270.323 145.25C270.193 145.37 270.033 145.43 269.883 145.43Z" fill="white"/>
<path d="M264.155 145.43C263.994 145.43 263.834 145.37 263.714 145.25C263.474 145.01 263.474 144.61 263.714 144.37L269.442 138.63C269.683 138.39 270.073 138.39 270.323 138.63C270.564 138.87 270.564 139.27 270.323 139.51L264.595 145.25C264.465 145.37 264.305 145.43 264.155 145.43Z" fill="white"/>
<path d="M272.125 171.076V168.896L289.671 159.96V163.447L276.212 169.932L276.321 169.714V170.259L276.212 170.041L289.671 176.525V180.013L272.125 171.076ZM306.349 151.677L297.358 185.08H294.415L303.406 151.677H306.349ZM328.632 171.076L311.086 180.013V176.525L324.545 170.041L324.436 170.259V169.714L324.545 169.932L311.086 163.447V159.96L328.632 168.896V171.076Z" fill="white"/>
<path d="M366.47 314.89H185.283C184.492 314.89 183.851 314.25 183.851 313.46V243.09C183.851 242.3 184.492 241.66 185.283 241.66H366.47C367.261 241.66 367.902 242.3 367.902 243.09V313.46C367.902 314.25 367.261 314.89 366.47 314.89Z" fill="#4268FF"/>
<path d="M196.719 253.65C196.559 253.65 196.398 253.59 196.278 253.47L190.55 247.73C190.31 247.49 190.31 247.09 190.55 246.85C190.791 246.61 191.181 246.61 191.431 246.85L197.16 252.59C197.4 252.83 197.4 253.23 197.16 253.47C197.029 253.59 196.879 253.65 196.719 253.65Z" fill="white"/>
<path d="M190.991 253.65C190.831 253.65 190.67 253.59 190.55 253.47C190.31 253.23 190.31 252.83 190.55 252.59L196.278 246.85C196.519 246.61 196.909 246.61 197.16 246.85C197.4 247.09 197.4 247.49 197.16 247.73L191.431 253.47C191.301 253.59 191.151 253.65 190.991 253.65Z" fill="white"/>
<path d="M243.355 268.58H202.377C202.036 268.58 201.756 268.3 201.756 267.96C201.756 267.62 202.036 267.34 202.377 267.34H243.355C243.696 267.34 243.976 267.62 243.976 267.96C243.976 268.3 243.696 268.58 243.355 268.58Z" fill="white"/>
<path d="M290.522 268.58H254C253.66 268.58 253.379 268.3 253.379 267.96C253.379 267.62 253.66 267.34 254 267.34H290.522C290.863 267.34 291.143 267.62 291.143 267.96C291.143 268.3 290.873 268.58 290.522 268.58Z" fill="white"/>
<path d="M238.899 291.71H202.377C202.036 291.71 201.756 291.43 201.756 291.09C201.756 290.75 202.036 290.47 202.377 290.47H238.899C239.239 290.47 239.52 290.75 239.52 291.09C239.52 291.43 239.239 291.71 238.899 291.71Z" fill="white"/>
<path d="M273.468 279.49H236.946C236.606 279.49 236.325 279.21 236.325 278.87C236.325 278.53 236.606 278.25 236.946 278.25H273.468C273.808 278.25 274.089 278.53 274.089 278.87C274.089 279.22 273.808 279.49 273.468 279.49Z" fill="white"/>
<path d="M226.351 279.49H202.377C202.036 279.49 201.756 279.21 201.756 278.87C201.756 278.53 202.036 278.25 202.377 278.25H226.351C226.691 278.25 226.972 278.53 226.972 278.87C226.972 279.22 226.691 279.49 226.351 279.49Z" fill="white"/>
<path d="M264.866 291.71H250.125C249.784 291.71 249.504 291.43 249.504 291.09C249.504 290.75 249.784 290.47 250.125 290.47H264.866C265.206 290.47 265.487 290.75 265.487 291.09C265.487 291.43 265.206 291.71 264.866 291.71Z" fill="white"/>
<path d="M322.247 268.58H281.269C280.929 268.58 280.648 268.3 280.648 267.96C280.648 267.62 280.929 267.34 281.269 267.34H322.247C322.588 267.34 322.868 267.62 322.868 267.96C322.868 268.3 322.588 268.58 322.247 268.58Z" fill="white"/>
<path d="M343.227 268.58H310.761C310.42 268.58 310.14 268.3 310.14 267.96C310.14 267.62 310.42 267.34 310.761 267.34H343.227C343.568 267.34 343.848 267.62 343.848 267.96C343.848 268.3 343.568 268.58 343.227 268.58Z" fill="white"/>
<path d="M317.791 291.71H281.269C280.929 291.71 280.648 291.43 280.648 291.09C280.648 290.75 280.929 290.47 281.269 290.47H317.791C318.131 290.47 318.412 290.75 318.412 291.09C318.412 291.43 318.131 291.71 317.791 291.71Z" fill="white"/>
<path d="M352.36 279.49H315.838C315.498 279.49 315.217 279.21 315.217 278.87C315.217 278.53 315.498 278.25 315.838 278.25H352.36C352.7 278.25 352.981 278.53 352.981 278.87C352.981 279.22 352.7 279.49 352.36 279.49Z" fill="white"/>
<path d="M305.243 279.49H281.269C280.929 279.49 280.648 279.21 280.648 278.87C280.648 278.53 280.929 278.25 281.269 278.25H305.243C305.584 278.25 305.864 278.53 305.864 278.87C305.864 279.22 305.584 279.49 305.243 279.49Z" fill="white"/>
<path d="M343.758 291.71H329.017C328.676 291.71 328.396 291.43 328.396 291.09C328.396 290.75 328.676 290.47 329.017 290.47H343.758C344.098 290.47 344.379 290.75 344.379 291.09C344.379 291.43 344.108 291.71 343.758 291.71Z" fill="white"/>
<path d="M529.161 167.09H408.039C404.945 167.09 402.441 164.97 402.441 162.35V82.58V73.6C402.441 70.98 404.945 68.86 408.039 68.86H529.161C532.256 68.86 534.759 70.98 534.759 73.6V162.35C534.759 164.97 532.256 167.09 529.161 167.09Z" fill="white"/>
<path d="M529.161 167.72H408.039C404.614 167.72 401.82 165.39 401.82 162.54V86.0199L535.38 85.4399V162.53C535.38 165.39 532.596 167.72 529.161 167.72ZM403.062 87.2599V162.53C403.062 164.7 405.295 166.47 408.039 166.47H529.161C531.905 166.47 534.138 164.7 534.138 162.53V86.6899L403.062 87.2599Z" fill="#121936"/>
<path d="M401.73 87.23V73.52C401.73 70.95 404.264 68.86 407.378 68.86H529.632C532.756 68.86 535.28 70.95 535.28 73.52V86.63" fill="#4268FF"/>
<path d="M411.995 81.0399C410.503 81.0399 409.291 79.7799 409.291 78.2299C409.291 76.6799 410.503 75.4199 411.995 75.4199C413.487 75.4199 414.699 76.6799 414.699 78.2299C414.699 79.7799 413.487 81.0399 411.995 81.0399ZM411.995 76.6699C411.194 76.6699 410.533 77.3699 410.533 78.2299C410.533 79.0899 411.184 79.7899 411.995 79.7899C412.796 79.7899 413.457 79.0899 413.457 78.2299C413.457 77.3699 412.796 76.6699 411.995 76.6699Z" fill="white"/>
<path d="M419.796 81.0399C418.304 81.0399 417.092 79.7799 417.092 78.2299C417.092 76.6799 418.304 75.4199 419.796 75.4199C421.288 75.4199 422.5 76.6799 422.5 78.2299C422.5 79.7799 421.288 81.0399 419.796 81.0399ZM419.796 76.6699C418.995 76.6699 418.334 77.3699 418.334 78.2299C418.334 79.0899 418.985 79.7899 419.796 79.7899C420.597 79.7899 421.258 79.0899 421.258 78.2299C421.258 77.3699 420.607 76.6699 419.796 76.6699Z" fill="white"/>
<path d="M427.457 81.0399C425.965 81.0399 424.753 79.7799 424.753 78.2299C424.753 76.6799 425.965 75.4199 427.457 75.4199C428.949 75.4199 430.161 76.6799 430.161 78.2299C430.161 79.7799 428.949 81.0399 427.457 81.0399ZM427.457 76.6699C426.656 76.6699 425.995 77.3699 425.995 78.2299C425.995 79.0899 426.646 79.7899 427.457 79.7899C428.258 79.7899 428.919 79.0899 428.919 78.2299C428.919 77.3699 428.258 76.6699 427.457 76.6699Z" fill="white"/>
<g opacity="0.31">
<path d="M525.035 161.01H412.175C409.762 161.01 407.799 159.04 407.799 156.62V93.85C407.799 91.43 409.762 89.46 412.175 89.46H525.035C527.449 89.46 529.412 91.43 529.412 93.85V156.63C529.412 159.04 527.449 161.01 525.035 161.01ZM412.175 90.71C410.453 90.71 409.041 92.12 409.041 93.85V156.63C409.041 158.36 410.443 159.77 412.175 159.77H525.035C526.758 159.77 528.17 158.36 528.17 156.63V93.85C528.17 92.12 526.768 90.71 525.035 90.71H412.175Z" fill="#103463"/>
<path opacity="0.69" d="M452.512 150.71H421.428V115.07H452.512V150.71ZM422.67 149.46H451.271V116.31H422.67V149.46Z" fill="#353148"/>
<path d="M451.891 112.1H422.049V99.96H422.73H451.891V112.1Z" fill="#708CF5"/>
<path d="M467.624 127.76V99.96H515.382V100.59V127.76H467.624Z" fill="#708CF5"/>
<path d="M451.751 112.1H421.909V99.96H422.59H451.751V112.1Z" fill="#F9CAD0"/>
<path d="M467.474 127.76V99.96H515.231V100.59V127.76H467.474Z" fill="#F9CAD0"/>
<path opacity="0.69" d="M516.002 152.29H467.003V135.38H516.002V152.29ZM468.245 151.04H514.761V136.62H468.245V151.04Z" fill="#353148"/>
</g>
<path d="M451.751 112.1H421.909V99.96H422.59H451.751V112.1Z" fill="#F9CAD0"/>
<path d="M467.474 127.76V99.96H515.231V100.59V127.76H467.474Z" fill="#F9CAD0"/>
<path d="M477.157 117.13C475.004 117.13 473.242 115.37 473.242 113.21C473.242 111.05 474.994 109.29 477.157 109.29C479.31 109.29 481.073 111.05 481.073 113.21C481.073 115.37 479.32 117.13 477.157 117.13ZM477.157 110.22C475.515 110.22 474.173 111.56 474.173 113.21C474.173 114.86 475.515 116.2 477.157 116.2C478.8 116.2 480.142 114.86 480.142 113.21C480.142 111.56 478.8 110.22 477.157 110.22Z" fill="white"/>
<path d="M491.558 117.13C489.405 117.13 487.642 115.37 487.642 113.21C487.642 111.05 489.395 109.29 491.558 109.29C493.721 109.29 495.473 111.05 495.473 113.21C495.463 115.37 493.711 117.13 491.558 117.13ZM491.558 110.22C489.915 110.22 488.574 111.56 488.574 113.21C488.574 114.86 489.915 116.2 491.558 116.2C493.2 116.2 494.542 114.86 494.542 113.21C494.532 111.56 493.2 110.22 491.558 110.22Z" fill="white"/>
<path d="M505.548 117.13C503.395 117.13 501.632 115.37 501.632 113.21C501.632 111.05 503.385 109.29 505.548 109.29C507.711 109.29 509.463 111.05 509.463 113.21C509.463 115.37 507.711 117.13 505.548 117.13ZM505.548 110.22C503.905 110.22 502.563 111.56 502.563 113.21C502.563 114.86 503.905 116.2 505.548 116.2C507.19 116.2 508.532 114.86 508.532 113.21C508.532 111.56 507.19 110.22 505.548 110.22Z" fill="white"/>
<path d="M345.16 390L341.124 394.52L318.252 420.92C316.739 422.67 313.875 421.6 313.855 419.29L313.515 361.18C313.505 359.63 314.767 358.37 316.319 358.39L343.457 357.93L345.16 390Z" fill="#FF6969"/>
<path d="M318.001 361.18C317.991 359.63 319.253 358.37 320.805 358.39L343.457 358.01V357.93L316.319 358.39C314.767 358.37 313.505 359.63 313.515 361.18L313.855 419.29C313.865 421.61 316.739 422.67 318.252 420.92L318.662 420.45C318.482 420.11 318.352 419.73 318.352 419.29L318.001 361.18Z" fill="#121936"/>
<path d="M318.502 413.11C318.161 413.11 317.881 412.84 317.881 412.49L317.29 358.42C317.29 358.08 317.561 357.79 317.901 357.79C317.901 357.79 317.901 357.79 317.911 357.79C318.252 357.79 318.532 358.06 318.532 358.41L319.123 412.48C319.123 412.82 318.852 413.11 318.502 413.11Z" fill="white"/>
<path d="M331.28 375.86C330.98 375.86 330.679 375.83 330.379 375.78C327.445 375.28 325.462 372.48 325.952 369.53C326.193 368.1 326.974 366.86 328.146 366.02C329.317 365.18 330.749 364.86 332.181 365.1C335.116 365.6 337.108 368.4 336.608 371.35C336.157 373.98 333.864 375.86 331.28 375.86ZM331.27 366.27C330.419 366.27 329.578 366.53 328.867 367.04C327.965 367.69 327.365 368.65 327.174 369.74C326.794 372.01 328.316 374.17 330.579 374.55C332.832 374.94 334.995 373.4 335.376 371.13C335.566 370.03 335.306 368.93 334.665 368.02C334.024 367.11 333.063 366.51 331.971 366.32C331.741 366.29 331.5 366.27 331.27 366.27Z" fill="white"/>
<path d="M341.114 395.14C340.964 395.14 340.824 395.09 340.703 394.98L335.316 390.22C335.055 389.99 335.035 389.6 335.256 389.34C335.486 389.08 335.877 389.06 336.127 389.28L341.515 394.04C341.775 394.27 341.795 394.66 341.575 394.92C341.465 395.07 341.294 395.14 341.114 395.14Z" fill="white"/>
<path d="M337.439 399.21C337.289 399.21 337.148 399.16 337.028 399.05L331.641 394.29C331.38 394.06 331.36 393.67 331.58 393.41C331.811 393.15 332.201 393.13 332.452 393.35L337.839 398.11C338.1 398.34 338.12 398.73 337.9 398.99C337.779 399.14 337.609 399.21 337.439 399.21Z" fill="white"/>
<path d="M333.824 403.04C333.673 403.04 333.533 402.99 333.413 402.88L328.025 398.12C327.765 397.89 327.745 397.5 327.965 397.24C328.196 396.98 328.586 396.96 328.837 397.18L334.224 401.94C334.485 402.17 334.505 402.56 334.284 402.82C334.164 402.97 333.994 403.04 333.824 403.04Z" fill="white"/>
<path d="M347.123 391.36C344.809 391.36 342.306 391.11 341.785 390.14C341.675 389.93 341.675 389.68 341.785 389.45C342.376 388.19 349.025 385.24 350.067 385.03C350.878 384.86 351.709 385.02 352.4 385.48C353.091 385.94 353.562 386.64 353.732 387.45C354.072 389.13 352.991 390.78 351.319 391.12C351.068 391.17 349.176 391.36 347.123 391.36ZM343.187 389.73C344.559 390.24 349.526 390.21 351.058 389.9C352.06 389.69 352.711 388.7 352.5 387.7C352.4 387.21 352.12 386.79 351.699 386.52C351.289 386.25 350.788 386.15 350.297 386.25C349.176 386.48 344.479 388.75 343.187 389.73Z" fill="white"/>
<path d="M346.582 399.96C346.341 399.96 346.101 399.93 345.861 399.87C345.05 399.68 344.369 399.18 343.938 398.47C343.588 397.9 340.784 390.25 342.035 389.45C342.216 389.33 342.536 389.21 342.987 389.32C344.859 389.75 348.585 394.17 349.226 395.21C349.656 395.92 349.796 396.75 349.606 397.56C349.416 398.37 348.915 399.05 348.214 399.49C347.703 399.8 347.143 399.96 346.582 399.96ZM342.897 390.59C343.017 392.05 344.369 396.81 344.99 397.83C345.25 398.25 345.66 398.55 346.141 398.67C346.632 398.79 347.123 398.7 347.553 398.44C348.424 397.9 348.705 396.75 348.164 395.87C347.353 394.55 344.108 391.07 342.897 390.59Z" fill="white"/>
<path d="M441.176 265.89L396.853 234.79C396.513 234.57 369.484 233.14 369.484 233.14C369.124 233.07 368.773 233.08 368.433 233.13L314.456 221.35L311.332 232.44C308.267 243.3 308.267 254.8 311.322 265.66L335.065 349.98L334.344 350.48C333.313 351.2 332.822 352.48 333.103 353.71L344.188 402.64C344.699 404.88 347.363 405.81 349.145 404.38L350.157 403.57L363.806 452.02C364.057 452.9 364.938 453.43 365.829 453.24L409.171 443.68C411.003 443.28 412.165 441.48 411.794 439.64L396.923 365.96L444.351 327.83C464.66 311.51 463.047 280.04 441.176 265.89ZM386.519 314.34L383.234 298.07L401.189 304.17L386.519 314.34Z" fill="#121936"/>
<path d="M398.095 372.37C397.805 372.37 397.544 372.16 397.484 371.87L377.305 266.93C377.245 266.59 377.466 266.27 377.796 266.2C378.127 266.14 378.457 266.35 378.527 266.69L398.706 371.63C398.766 371.97 398.546 372.29 398.215 372.36C398.175 372.37 398.135 372.37 398.095 372.37Z" fill="white"/>
<path d="M413.227 308.97C413.156 308.97 413.096 308.96 413.026 308.94L383.785 298.91C383.464 298.8 383.284 298.45 383.394 298.12C383.504 297.8 383.855 297.62 384.185 297.73L413.427 307.76C413.747 307.87 413.928 308.22 413.817 308.55C413.727 308.81 413.487 308.97 413.227 308.97Z" fill="white"/>
<path d="M401.129 445.55L406.247 448.79L436.029 466.99C438.002 468.19 437.431 471.21 435.158 471.61L378.077 481.66C376.554 481.93 375.102 480.89 374.862 479.36L369.875 452.61L401.129 445.55Z" fill="#FF6969"/>
<path d="M436.029 466.99L434.997 466.36C434.647 466.83 434.136 467.2 433.455 467.32L376.374 477.37C375.673 477.49 374.992 477.33 374.431 476.98L374.872 479.35C375.112 480.88 376.554 481.92 378.087 481.65L435.168 471.6C437.441 471.2 438.002 468.19 436.029 466.99Z" fill="#121936"/>
<path d="M374.622 478.39C374.331 478.39 374.071 478.18 374.011 477.88C373.951 477.54 374.171 477.22 374.511 477.16L427.587 467.54C427.917 467.49 428.248 467.7 428.308 468.04C428.368 468.38 428.148 468.7 427.807 468.76L374.732 478.38C374.692 478.39 374.662 478.39 374.622 478.39Z" fill="white"/>
<path d="M384.215 467.96C381.241 467.96 378.808 465.53 378.808 462.54C378.808 459.55 381.231 457.12 384.215 457.12C387.19 457.12 389.613 459.55 389.613 462.54C389.613 465.53 387.19 467.96 384.215 467.96ZM384.215 458.37C381.922 458.37 380.049 460.24 380.049 462.54C380.049 464.84 381.912 466.71 384.215 466.71C386.509 466.71 388.371 464.84 388.371 462.54C388.371 460.24 386.509 458.37 384.215 458.37Z" fill="white"/>
<path d="M402.471 455.54C402.361 455.54 402.251 455.51 402.141 455.45C401.85 455.27 401.76 454.89 401.94 454.59L405.716 448.47C405.896 448.18 406.277 448.09 406.567 448.27C406.857 448.45 406.948 448.83 406.767 449.13L402.992 455.25C402.882 455.43 402.671 455.54 402.471 455.54Z" fill="white"/>
<path d="M407.078 458.49C406.968 458.49 406.857 458.46 406.747 458.4C406.457 458.22 406.367 457.84 406.547 457.54L410.322 451.42C410.503 451.13 410.883 451.04 411.174 451.22C411.464 451.4 411.554 451.78 411.374 452.08L407.598 458.2C407.488 458.39 407.288 458.49 407.078 458.49Z" fill="white"/>
<path d="M411.454 461.43C411.344 461.43 411.234 461.4 411.123 461.34C410.833 461.16 410.743 460.78 410.923 460.48L414.699 454.36C414.879 454.07 415.259 453.98 415.55 454.16C415.84 454.34 415.93 454.72 415.75 455.02L411.975 461.14C411.865 461.33 411.664 461.43 411.454 461.43Z" fill="white"/>
<path d="M401.38 449.01C401.31 449.01 401.229 449 401.149 448.98C399.817 448.61 395.802 442.53 395.421 441.54C394.8 439.94 395.591 438.14 397.184 437.51C397.955 437.21 398.796 437.23 399.557 437.56C400.318 437.9 400.899 438.51 401.199 439.28C401.39 439.77 403.473 447.58 401.83 448.86C401.7 448.96 401.54 449.01 401.38 449.01ZM398.305 438.54C398.085 438.54 397.855 438.58 397.634 438.67C396.683 439.04 396.202 440.13 396.573 441.09C396.993 442.17 400.008 446.43 401.189 447.55C401.47 446.11 400.609 441.21 400.038 439.74C399.757 439 399.056 438.54 398.305 438.54Z" fill="white"/>
<path d="M401.71 448.92C401.44 448.92 401.239 448.86 401.119 448.73C400.979 448.57 400.809 448.28 400.839 447.81C400.949 445.89 404.674 441.47 405.586 440.66C406.867 439.53 408.84 439.66 409.962 440.95C411.093 442.24 410.963 444.21 409.671 445.34C409.231 445.73 403.703 448.92 401.71 448.92ZM407.629 441.14C407.198 441.14 406.757 441.29 406.407 441.6C405.245 442.62 402.361 446.41 402.091 447.69C403.503 447.32 407.969 445.2 408.86 444.41C409.231 444.08 409.461 443.63 409.491 443.13C409.521 442.63 409.361 442.15 409.031 441.78C408.66 441.36 408.139 441.14 407.629 441.14Z" fill="white"/>
<path d="M397.044 86.82C396.302 85.56 395.591 84.42 394.92 83.4C392.597 79.86 389.673 76.12 389.893 72.12C391.245 46.93 364.778 39.33 345.27 44.31C345.02 43.62 344.719 42.94 344.359 42.27C341.164 36.28 334.965 33.35 330.499 35.74C328.216 36.96 326.834 39.34 326.453 42.17C321.847 42.29 317.881 44.4 316.249 48.09C314.036 53.1 316.85 59.34 322.608 62.99C319.603 65.63 316.139 67.87 312.023 70.04L311.011 70.57C297.302 77.8 294.358 94.61 301.408 103.9L303.441 106.6C303.751 107.02 304.081 107.42 304.422 107.82C305.664 109.25 306.074 111.04 305.463 112.7C304.332 115.78 303.811 119.12 304.101 122.66C305.163 135.81 317.21 147.06 332.572 149.14C343.227 150.58 353.211 147.58 360.141 141.83C368.413 134.96 377.876 129.22 387.54 123.8C395.441 119.37 400.889 112 401.64 103.26C402.151 97.34 400.398 91.66 397.044 86.82Z" fill="#121936"/>
<path d="M389.333 96.56L387.31 76.93C383.855 71.63 374.872 70.24 371.537 66.4C368.863 63.33 367.802 62.72 367.662 60.09C366.38 73.18 356.937 82.97 346.552 82.02L346.572 82.17L343.177 82.29C338.6 82.45 334.995 86.33 335.156 90.92L335.166 91.11C335.326 95.69 339.191 99.32 343.768 99.16L346.331 99.07L342.376 124.56C341.495 132.26 373.39 134 374.271 126.31L375.383 116.64C384.195 114.36 390.294 105.92 389.333 96.56Z" fill="#FF9C9C"/>
<path d="M342.596 93.6299C342.396 93.6299 342.196 93.5299 342.075 93.3499C341.885 93.0599 341.965 92.6799 342.256 92.4899L344.359 91.1099L341.945 88.4099C341.715 88.1499 341.735 87.7599 341.995 87.5299C342.246 87.2999 342.646 87.3199 342.877 87.5799L345.781 90.8199C345.901 90.9599 345.961 91.1399 345.931 91.3199C345.911 91.4999 345.811 91.6599 345.651 91.7599L342.937 93.5299C342.827 93.5999 342.706 93.6299 342.596 93.6299Z" fill="#FF6969"/>
<path d="M388.702 85.64C388.892 86.51 388.331 87.37 387.46 87.56C386.589 87.75 385.737 87.19 385.547 86.32C385.357 85.45 385.918 84.59 386.789 84.4C387.66 84.21 388.511 84.77 388.702 85.64Z" fill="#121936"/>
<path d="M375.563 86.5699C375.523 87.5499 374.692 88.2999 373.72 88.2599C372.749 88.2199 371.998 87.3899 372.038 86.4199C372.078 85.4399 372.909 84.6899 373.881 84.7299C374.852 84.7699 375.613 85.5999 375.563 86.5699Z" fill="#121936"/>
<path d="M372.779 93.2899C372.779 93.2899 372.318 99.0299 379.989 99.0099L372.779 93.2899Z" fill="#FF9C9C"/>
<path d="M379.959 99.64C377.145 99.64 375.032 98.9 373.68 97.43C371.998 95.6 372.158 93.34 372.158 93.24C372.188 92.9 372.499 92.64 372.829 92.67C373.17 92.7 373.42 93 373.4 93.34C373.4 93.37 373.29 95.18 374.602 96.6C375.713 97.79 377.516 98.4 379.959 98.4C379.969 98.4 379.979 98.4 379.989 98.4C380.33 98.4 380.61 98.68 380.61 99.02C380.61 99.37 380.3 99.65 379.959 99.64Z" fill="#FF6969"/>
<path d="M376.614 108.48C376.544 108.5 376.464 108.5 376.394 108.47C376.314 108.44 374.522 107.71 373.25 109.15C373.13 109.29 372.919 109.3 372.779 109.18C372.639 109.06 372.629 108.84 372.749 108.71C374.351 106.91 376.635 107.85 376.655 107.86C376.825 107.93 376.905 108.13 376.835 108.3C376.785 108.39 376.705 108.46 376.614 108.48Z" fill="#FF6969"/>
<path d="M367.391 80.3C368.032 80.44 368.773 80.22 369.504 80.06C370.235 79.87 370.986 79.71 371.637 79.58C372.288 79.46 373.039 79.34 373.8 79.24C374.542 79.13 375.323 79.06 375.853 78.69C376.364 78.35 376.464 77.62 375.643 76.91C374.862 76.21 373.069 75.64 370.916 76.04C368.763 76.46 367.331 77.64 366.881 78.57C366.41 79.54 366.781 80.17 367.391 80.3Z" fill="#121936"/>
<path d="M390.214 78.99C389.773 79.13 389.252 79 388.742 78.9C388.231 78.79 387.71 78.7 387.26 78.63C386.809 78.56 386.278 78.51 385.757 78.47C385.237 78.42 384.696 78.4 384.325 78.14C383.965 77.9 383.875 77.33 384.436 76.74C384.956 76.16 386.188 75.62 387.69 75.83C389.192 76.05 390.204 76.91 390.524 77.62C390.875 78.35 390.634 78.86 390.214 78.99Z" fill="#121936"/>
<path d="M372.048 88.4C372.048 88.4 373.59 87.22 375.152 88.52L372.048 88.4Z" fill="#FF9C9C"/>
<path d="M375.152 89.15C375.012 89.15 374.872 89.1 374.752 89.01C373.57 88.03 372.459 88.87 372.419 88.9C372.148 89.11 371.758 89.06 371.547 88.78C371.337 88.51 371.387 88.12 371.657 87.91C372.328 87.4 374.001 86.76 375.543 88.05C375.803 88.27 375.843 88.66 375.623 88.93C375.503 89.07 375.333 89.15 375.152 89.15Z" fill="#FF6969"/>
<path d="M386.258 87.3499C386.258 87.3499 387.21 86.6599 388.091 87.5599L386.258 87.3499Z" fill="#FF9C9C"/>
<path d="M388.101 88.18C387.941 88.18 387.78 88.12 387.66 88C387.2 87.53 386.749 87.78 386.619 87.86C386.338 88.05 385.958 87.98 385.757 87.7C385.567 87.42 385.627 87.04 385.898 86.84C386.378 86.5 387.54 86.11 388.541 87.12C388.782 87.36 388.782 87.76 388.541 88C388.411 88.12 388.251 88.18 388.101 88.18Z" fill="#FF6969"/>
<path d="M375.363 116.64C375.363 116.64 360.191 117.81 357.177 112.02C357.177 112.02 356.846 121.7 374.371 125.25L375.363 116.64Z" fill="#FF6969"/>
<path d="M381.251 81.09L381.091 84.84C381.031 86.27 382.132 87.48 383.564 87.55C384.275 87.58 384.836 88.19 384.796 88.9C384.696 91.22 382.743 93.01 380.43 92.91L378.918 92.84" fill="#FF9C9C"/>
<path d="M380.62 93.54C380.55 93.54 380.48 93.54 380.41 93.54L378.888 93.47C378.547 93.45 378.277 93.16 378.297 92.82C378.307 92.48 378.607 92.18 378.948 92.23L380.47 92.3C381.411 92.35 382.333 92.01 383.034 91.36C383.735 90.72 384.145 89.84 384.185 88.88C384.195 88.7 384.135 88.53 384.005 88.39C383.885 88.26 383.715 88.18 383.534 88.17C382.673 88.13 381.882 87.76 381.311 87.13C380.73 86.5 380.43 85.67 380.47 84.82L380.63 81.07C380.65 80.73 380.941 80.44 381.281 80.48C381.622 80.5 381.892 80.79 381.872 81.13L381.712 84.88C381.692 85.41 381.872 85.91 382.222 86.3C382.573 86.69 383.064 86.92 383.584 86.94C384.095 86.96 384.566 87.18 384.916 87.56C385.267 87.94 385.437 88.43 385.417 88.94C385.357 90.23 384.806 91.41 383.865 92.28C382.974 93.09 381.832 93.54 380.62 93.54Z" fill="#FF6969"/>
<path d="M342.286 102.68C342.206 102.68 342.136 102.68 342.055 102.67C341.054 102.61 340.143 102.16 339.482 101.41C338.821 100.66 338.49 99.7 338.55 98.69C338.681 96.63 340.493 95.05 342.516 95.18C343.517 95.24 344.429 95.69 345.09 96.44C345.751 97.19 346.081 98.15 346.021 99.16C345.901 101.14 344.248 102.68 342.286 102.68ZM339.792 98.77C339.752 99.44 339.972 100.08 340.413 100.58C340.854 101.08 341.465 101.38 342.135 101.42C343.487 101.5 344.699 100.45 344.789 99.07C344.829 98.4 344.609 97.76 344.168 97.26C343.728 96.76 343.117 96.46 342.446 96.42C341.024 96.34 339.872 97.4 339.792 98.77Z" fill="white"/>
<path d="M466.602 135.45L458.681 129.34L463.808 115.44C464.429 113.76 463.778 111.87 462.256 110.94L462.086 110.84C461.405 110.42 460.524 110.63 460.093 111.3L447.695 134.2L447.455 133.95L444.701 127.58C444.14 126.29 442.829 125.49 441.427 125.6L440.876 125.64C439.904 125.71 439.243 126.65 439.504 127.59L441.967 136.55L442.969 143.09C443.109 143.99 443.479 144.78 444 145.41L443.93 145.51L422.049 177.09L404.194 153.98L383.054 191.8L401.159 217.01C413.116 233.66 438.863 229.65 445.222 210.15L460.143 164.42L469.116 146.76C471.119 142.85 470.047 138.11 466.602 135.45Z" fill="#FF9C9C"/>
<path d="M415.54 187.45C415.42 187.45 415.299 187.42 415.189 187.34C414.909 187.15 414.829 186.76 415.019 186.48L422.139 175.86C422.329 175.57 422.72 175.5 423 175.69C423.281 175.88 423.361 176.27 423.171 176.55L416.05 187.17C415.94 187.36 415.74 187.45 415.54 187.45Z" fill="#FF6969"/>
<path d="M457.259 146.98C456.929 146.98 456.648 146.71 456.638 146.38C456.338 136.99 447.916 134.87 447.555 134.79C447.225 134.71 447.014 134.37 447.095 134.04C447.175 133.71 447.505 133.5 447.836 133.58C447.936 133.6 457.549 135.99 457.87 146.35C457.88 146.69 457.61 146.98 457.269 146.99C457.279 146.98 457.269 146.98 457.259 146.98Z" fill="#FF6969"/>
<path d="M459.723 128.06L459.662 128.32L455.677 142.88C455.296 144.28 455.967 145.74 457.269 146.37L458.14 146.78C458.651 147.02 459.262 146.77 459.442 146.23L464.129 132.47C464.499 131.3 463.949 130.05 462.837 129.53L459.723 128.06Z" fill="#FF9C9C"/>
<path d="M458.541 147.49C458.311 147.49 458.08 147.44 457.87 147.34L456.999 146.93C455.416 146.18 454.615 144.41 455.076 142.72L459.302 127.18L463.097 128.96C464.479 129.61 465.17 131.2 464.71 132.65L460.023 146.43C459.883 146.85 459.562 147.2 459.152 147.37C458.951 147.45 458.751 147.49 458.541 147.49ZM460.133 128.94L456.268 143.04C455.967 144.15 456.498 145.31 457.529 145.8L458.401 146.21C458.511 146.26 458.621 146.24 458.671 146.22C458.721 146.2 458.811 146.14 458.851 146.02L463.538 132.26C463.808 131.41 463.398 130.47 462.577 130.08L460.133 128.94Z" fill="#FF6969"/>
<path d="M464.549 131.05L464.489 131.28L460.904 144.36C460.564 145.61 461.165 146.93 462.336 147.49L463.117 147.86C463.578 148.08 464.129 147.85 464.289 147.36L468.495 135C468.825 133.95 468.325 132.82 467.333 132.36L464.549 131.05Z" fill="#FF9C9C"/>
<path d="M463.488 148.57C463.268 148.57 463.057 148.52 462.857 148.43L462.076 148.06C460.634 147.37 459.893 145.75 460.313 144.2L464.129 130.17L467.604 131.8C468.876 132.4 469.516 133.85 469.086 135.19L464.88 147.57C464.74 147.97 464.439 148.29 464.059 148.45C463.878 148.54 463.678 148.57 463.488 148.57ZM464.96 131.93L461.505 144.52C461.245 145.48 461.705 146.5 462.607 146.92L463.388 147.29C463.468 147.33 463.538 147.31 463.578 147.29C463.618 147.27 463.678 147.24 463.708 147.15L467.914 134.79C468.144 134.06 467.794 133.24 467.083 132.91L464.96 131.93Z" fill="#FF6969"/>
<path d="M468.475 133.32L468.425 133.53L465.18 145.38C464.87 146.52 465.411 147.71 466.472 148.22L467.183 148.56C467.604 148.76 468.094 148.55 468.245 148.11L472.06 136.91C472.36 135.96 471.91 134.94 471.009 134.52L468.475 133.32Z" fill="#FF9C9C"/>
<path d="M467.504 149.26C467.303 149.26 467.093 149.22 466.903 149.12L466.192 148.78C464.86 148.14 464.169 146.64 464.559 145.22L468.034 132.44L471.249 133.95C472.421 134.5 473.021 135.85 472.631 137.1L468.815 148.32C468.685 148.7 468.405 149 468.034 149.16C467.874 149.22 467.694 149.26 467.504 149.26ZM468.876 134.2L465.771 145.55C465.541 146.4 465.941 147.28 466.732 147.66L467.443 148C467.594 147.99 467.634 147.97 467.654 147.91L471.469 136.71C471.669 136.08 471.359 135.37 470.748 135.08L468.876 134.2Z" fill="#FF6969"/>
<path d="M407.028 150.69L387.099 133.11C382.633 129.14 376.935 126.83 370.966 126.59L345.751 125.55L344.789 125.44C343.948 125.34 343.117 125.3 342.286 125.27L342.276 125.25L341.815 125.26C341.144 125.25 340.483 125.26 339.822 125.3L322.968 125.62C310.881 126.65 300.837 135.38 298.113 147.23L293.707 169.44C293.346 171.23 294.568 172.96 296.37 173.21L311.963 175.44L311.702 230.32L398.275 234.87C401.239 235.03 403.302 231.94 402.021 229.25L384.556 192.5L408.069 161.29C410.563 158.02 410.102 153.4 407.028 150.69Z" fill="#4268FF"/>
<path d="M300.036 293.07C300.286 292.48 300.496 291.86 300.647 291.22L337.319 179.52L301.888 174L277.233 285.4L268.982 284.48C263.564 283.87 258.827 288.12 258.827 293.58V294.12V305.71C258.827 306.55 259.498 307.22 260.339 307.22C262.953 307.22 265.076 305.09 265.076 302.47V305.71C265.076 306.55 265.747 307.22 266.588 307.22C269.202 307.22 271.325 305.09 271.325 302.47V305.71C271.325 306.55 271.996 307.22 272.837 307.22C275.411 307.22 277.484 305.17 277.564 302.61C278.365 303.22 279.346 303.6 280.438 303.6H284.514C286.837 303.6 288.84 302.31 289.921 300.42C294.448 300.05 298.303 297.17 300.036 293.12V293.07Z" fill="#FF9C9C"/>
<path d="M265.086 303.81C264.826 303.81 264.615 303.6 264.615 303.34V293.57C264.615 293.31 264.826 293.1 265.086 293.1C265.346 293.1 265.557 293.31 265.557 293.57V303.34C265.547 303.6 265.336 303.81 265.086 303.81Z" fill="#FF6969"/>
<path d="M271.325 303.81C271.065 303.81 270.854 303.6 270.854 303.34V293.57C270.854 293.31 271.065 293.1 271.325 293.1C271.585 293.1 271.796 293.31 271.796 293.57V303.34C271.796 303.6 271.585 303.81 271.325 303.81Z" fill="#FF6969"/>
<path d="M341.725 180.82C341.495 180.82 341.264 180.8 341.034 180.76L331.661 179.2C331.32 179.14 331.09 178.82 331.15 178.48C331.21 178.14 331.53 177.91 331.861 177.97L341.234 179.53C342.836 179.8 344.369 178.71 344.669 177.11L349.105 152.92C349.165 152.58 349.486 152.35 349.826 152.42C350.167 152.48 350.387 152.81 350.327 153.14L345.891 177.33C345.52 179.38 343.718 180.82 341.725 180.82Z" fill="white"/>
<path d="M384.586 193.12C384.506 193.12 384.416 193.1 384.335 193.07C384.025 192.93 383.875 192.56 384.015 192.25L387.971 183.21C390.825 176.7 391.005 169.46 388.491 162.82L383.755 150.31C383.634 149.99 383.795 149.63 384.115 149.51C384.436 149.39 384.796 149.55 384.916 149.87L389.653 162.38C392.277 169.33 392.086 176.91 389.112 183.71L385.157 192.75C385.056 192.98 384.826 193.12 384.586 193.12Z" fill="white"/>
<path d="M374.171 127.55C374.161 127.55 374.151 127.55 374.141 127.55L342.256 125.87C341.915 125.85 341.655 125.56 341.665 125.22C341.685 124.88 341.975 124.61 342.316 124.63L374.201 126.31C374.542 126.33 374.802 126.62 374.792 126.96C374.772 127.29 374.501 127.55 374.171 127.55Z" fill="white"/>
</g>
<defs>
<clipPath id="clip0_1341_173">
<rect width="535" height="492.78" fill="white"/>
</clipPath>
</defs>
</svg>
