<svg width="535" height="481" viewBox="0 0 535 481" fill="none" xmlns="http://www.w3.org/2000/svg">
<g clip-path="url(#clip0_1342_1166)">
<path d="M443.685 339.768C491.762 290.914 491.762 211.706 443.685 162.853C395.608 113.999 317.66 113.999 269.583 162.853C221.506 211.706 221.506 290.914 269.583 339.768C317.66 388.622 395.608 388.622 443.685 339.768Z" fill="#FFD98A"/>
<path d="M354.44 237.689C354.39 227.832 362.21 219.795 371.91 219.734C373.16 219.723 374.37 219.855 375.55 220.099C378.96 209.298 388.89 201.443 400.66 201.382C411.86 201.321 421.48 208.322 425.42 218.28C427.32 217.488 429.4 217.051 431.58 217.041C440.73 216.99 448.2 224.489 448.25 233.787C448.25 234.326 448.23 234.854 448.18 235.372C449.89 234.153 451.97 233.421 454.21 233.411C460.07 233.381 464.85 238.177 464.88 244.131C464.91 250.086 460.19 254.943 454.33 254.974C454.33 254.974 389.66 257.352 368.27 255.025C360.26 254.161 354.49 246.204 354.44 237.689Z" fill="white"/>
<path d="M366.34 238.339H194.04C192.26 238.339 190.82 236.632 190.82 234.519V211.594C190.82 209.481 192.26 207.773 194.04 207.773H366.34C368.12 207.773 369.56 209.481 369.56 211.594V234.519C369.56 236.632 368.12 238.339 366.34 238.339Z" fill="#FFA633"/>
<path d="M362.4 298.191H178.74C176.84 298.191 175.31 296.484 175.31 294.371V271.446C175.31 269.332 176.85 267.625 178.74 267.625H362.4C364.3 267.625 365.83 269.332 365.83 271.446V294.371C365.83 296.474 364.3 298.191 362.4 298.191Z" fill="#FFA633"/>
<path d="M266.18 298.191H82.51C80.61 298.191 79.08 296.484 79.08 294.371V271.446C79.08 269.332 80.62 267.625 82.51 267.625H266.17C268.07 267.625 269.6 269.332 269.6 271.446V294.371C269.61 296.474 268.07 298.191 266.18 298.191Z" fill="#FFA633"/>
<path d="M374 358.368H201.7C199.92 358.368 198.48 356.661 198.48 354.547V331.623C198.48 329.509 199.92 327.802 201.7 327.802H374C375.78 327.802 377.22 329.509 377.22 331.623V354.547C377.22 356.651 375.78 358.368 374 358.368Z" fill="#FFA633"/>
<path d="M262.17 358.368H89.87C88.09 358.368 86.65 356.661 86.65 354.547V331.623C86.65 329.509 88.09 327.802 89.87 327.802H262.17C263.95 327.802 265.39 329.509 265.39 331.623V354.547C265.39 356.651 263.95 358.368 262.17 358.368Z" fill="#FFA633"/>
<path d="M382.64 418.535H210.34C208.56 418.535 207.12 416.828 207.12 414.714V391.789C207.12 389.676 208.56 387.969 210.34 387.969H382.64C384.42 387.969 385.86 389.676 385.86 391.789V414.714C385.86 416.828 384.42 418.535 382.64 418.535Z" fill="#FFA633"/>
<path d="M240.91 418.535H68.61C66.83 418.535 65.39 416.828 65.39 414.714V391.789C65.39 389.676 66.83 387.969 68.61 387.969H240.91C242.69 387.969 244.13 389.676 244.13 391.789V414.714C244.13 416.828 242.69 418.535 240.91 418.535Z" fill="#FFA633"/>
<path d="M378.32 268.103H206.02C204.24 268.103 202.8 266.395 202.8 264.282V241.357C202.8 239.244 204.24 237.537 206.02 237.537H378.32C380.1 237.537 381.54 239.244 381.54 241.357V264.282C381.54 266.385 380.1 268.103 378.32 268.103Z" fill="#FFC55F"/>
<path d="M369.68 328.28H197.38C195.6 328.28 194.16 326.573 194.16 324.459V301.534C194.16 299.421 195.6 297.714 197.38 297.714H369.68C371.46 297.714 372.9 299.421 372.9 301.534V324.459C372.9 326.562 371.46 328.28 369.68 328.28Z" fill="#FFC55F"/>
<path d="M245.94 328.28H73.64C71.86 328.28 70.42 326.573 70.42 324.459V301.534C70.42 299.421 71.86 297.714 73.64 297.714H245.94C247.72 297.714 249.16 299.421 249.16 301.534V324.459C249.16 326.562 247.72 328.28 245.94 328.28Z" fill="#FFC55F"/>
<path d="M361.04 388.446H188.74C186.96 388.446 185.52 386.739 185.52 384.626V361.701C185.52 359.588 186.96 357.88 188.74 357.88H361.04C362.82 357.88 364.26 359.588 364.26 361.701V384.626C364.26 386.739 362.82 388.446 361.04 388.446Z" fill="#FFC55F"/>
<path d="M250.13 388.446H77.82C76.04 388.446 74.6 386.739 74.6 384.626V361.701C74.6 359.588 76.04 357.88 77.82 357.88H250.12C251.9 357.88 253.34 359.588 253.34 361.701V384.626C253.35 386.739 251.9 388.446 250.13 388.446Z" fill="#FFC55F"/>
<path d="M325.67 307.225C315.12 308.759 289.89 368.967 297.42 382.746C304.95 396.525 346.38 412.6 346.38 412.6L344.12 388.873C344.12 388.873 315.75 376.628 318.01 368.977C320.27 361.325 336.59 332.751 336.59 332.751L325.67 307.225Z" fill="url(#paint0_linear_1342_1166)"/>
<path d="M396.28 307.225C406.83 308.759 432.08 368.967 424.55 382.746C417.02 396.525 375.59 412.6 375.59 412.6L377.85 388.873C377.85 388.873 406.22 376.628 403.96 368.977C401.7 361.325 385.38 332.751 385.38 332.751L396.28 307.225Z" fill="url(#paint1_linear_1342_1166)"/>
<path d="M332.17 305.497H390.09C398.81 305.497 405.8 312.539 405.51 321.045C405.51 321.045 394.47 366.863 394.34 382.238C394.27 390.661 396.95 415.832 396.95 415.832H325.32C325.32 415.832 328.62 389.523 328.56 380.703C328.45 365.705 316.74 321.045 316.74 321.045C316.46 312.539 323.45 305.497 332.17 305.497Z" fill="url(#paint2_linear_1342_1166)"/>
<path d="M368.55 317C368.55 317 367.83 323.168 361.35 322.853C354.25 322.508 353.73 317 353.73 317V288.345H368.55V317Z" fill="#F57F29"/>
<path d="M335.09 429.387C335.09 429.387 325.3 443.471 332.08 451.916C338.86 460.37 394.22 453.745 396.48 444.355C398.74 434.966 393.09 423.758 393.09 423.758L335.09 429.387Z" fill="#B2219F"/>
<path d="M316.3 382.532H246.11V383.863H316.3V382.532Z" fill="#EF39FF"/>
<path d="M379.44 287.084C379.44 297.358 371.25 312.651 361.14 312.651C351.03 312.651 342.84 297.358 342.84 287.084C342.84 276.811 351.03 268.489 361.14 268.489C371.25 268.489 379.44 276.821 379.44 287.084Z" fill="#F59344"/>
<path d="M409.65 363.307H312.62V422.091H409.65V363.307Z" fill="#2E176F"/>
<path d="M409.65 421.614H312.62V428.839H409.65V421.614Z" fill="#4132AF"/>
<path d="M370.06 391.688C370.06 396.698 366.07 400.752 361.14 400.752C356.21 400.752 352.22 396.698 352.22 391.688C352.22 386.678 356.21 382.624 361.14 382.624C366.07 382.624 370.06 386.678 370.06 391.688Z" fill="#4132AF"/>
<path d="M354.65 453.45C354.65 453.45 352.93 455.106 347.88 457.271C342.68 459.496 332.4 463.622 333.95 468.174C336.02 474.302 343.27 473.854 348.07 472.381C358.49 469.2 369.32 461.732 369.32 461.732L354.65 453.45Z" fill="#671077"/>
<path d="M367.1 437.466C384.71 424.398 393.92 414.744 413.69 402.54C418.39 399.634 421.62 398.77 429.78 402.022C436.73 404.796 435.98 416.939 432.19 422.01C420.81 437.202 376.97 458.185 368.11 461.366C364.29 462.738 350.78 451.174 356.27 445.646C358.97 442.912 362.34 441.002 367.1 437.466Z" fill="#D938BD"/>
<path d="M361.93 466.64C361.93 466.64 366.22 472.411 371.22 476.334C377.19 481.028 381.31 482.573 386.16 480.287C393.19 476.974 386.73 469.952 381.26 464.404C373.17 456.183 367.39 452.779 367.39 452.779L361.93 466.64Z" fill="#911F9B"/>
<path d="M343.19 290.702C343.19 290.702 349.47 282.095 351.48 275.968C353.49 269.84 354.68 276.354 363.34 283.05C367.86 286.546 379.28 290.895 379.28 290.895C379.28 290.895 381.89 279.26 377.84 273.295C368.24 259.14 348.59 260.065 342.63 276.608C339.61 284.961 343.19 290.702 343.19 290.702Z" fill="#2E176F"/>
<path d="M341.68 285.733C341.68 285.733 340.46 279.514 342.81 271.863C344.07 267.757 343.52 263.906 343.94 263.733C344.88 263.347 344.98 266.894 346.67 266.894C348.36 266.894 348.16 258.378 349.31 258.378C350.53 258.378 350.91 263.926 353.36 263.357C355.81 262.788 354.45 258.957 355.05 258.571C355.8 258.094 356.74 260.583 360.89 262.107C365.03 263.642 365.97 263.926 369.74 266.03C373.51 268.133 369.93 272.533 369.93 272.533L354.3 270.623L348.46 271.578L341.68 285.733Z" fill="#2E176F"/>
<path d="M435.99 387.684H409.67V386.353H435.99C440.12 386.353 443.48 382.939 443.48 378.742V341.175C443.48 336.978 440.12 333.564 435.99 333.564H264.29V332.232H435.99C440.84 332.232 444.79 336.246 444.79 341.175V378.742C444.79 383.67 440.84 387.684 435.99 387.684Z" fill="#EF39FF"/>
<path d="M424.74 332.893H423.43V240.88C423.43 236.155 419.65 232.314 415 232.314H263.35C258.7 232.314 254.92 236.155 254.92 240.88V301.697H253.61V240.88C253.61 235.423 257.98 230.982 263.35 230.982H415C420.37 230.982 424.74 235.423 424.74 240.88V332.893Z" fill="#EF39FF"/>
<path d="M222.33 276.222H221.02V255.523C221.02 251.468 224.26 248.176 228.25 248.176H254.26V249.507H228.25C224.98 249.507 222.32 252.21 222.32 255.533V276.222H222.33Z" fill="#EF39FF"/>
<path d="M300.66 332.893H299.35V270.491C299.35 265.938 295.71 262.24 291.23 262.24H254.26V260.908H291.23C296.43 260.908 300.66 265.207 300.66 270.491V332.893Z" fill="#EF39FF"/>
<path d="M205.084 433.457C251.093 422.564 279.702 375.833 268.982 329.081C258.263 282.328 212.275 253.257 166.266 264.15C120.257 275.042 91.6483 321.773 102.368 368.526C113.087 415.279 159.075 444.349 205.084 433.457Z" fill="#FFB93E" stroke="#EF9D26" stroke-width="2" stroke-miterlimit="10"/>
<path d="M255.22 360.543C261.594 321.512 235.623 284.621 197.213 278.144C158.802 271.667 122.498 298.057 116.124 337.089C109.75 376.12 135.721 413.011 174.131 419.488C212.542 425.965 248.846 399.574 255.22 360.543Z" fill="#FF9827"/>
<path d="M185.67 409.948C218.895 409.948 245.83 382.578 245.83 348.816C245.83 315.054 218.895 287.684 185.67 287.684C152.445 287.684 125.51 315.054 125.51 348.816C125.51 382.578 152.445 409.948 185.67 409.948Z" fill="#FFC350"/>
<path d="M164.8 363.662L183.26 320.537L176.3 317.458L179.38 310.263L198.22 318.586C203.4 320.872 207.15 322.914 209.47 324.693C211.79 326.471 213.39 329.093 214.26 332.537C215.14 335.992 214.83 339.447 213.35 342.922C212.21 345.595 210.58 347.749 208.48 349.375C206.38 351.001 203.96 351.865 201.2 351.956C203.88 354.446 205.51 357.342 206.12 360.644C206.72 363.947 206.32 367.239 204.92 370.511C203.71 373.346 201.97 375.653 199.72 377.411C197.47 379.169 195.03 380.226 192.39 380.561C189.76 380.906 187.11 380.754 184.44 380.094C181.77 379.433 178.29 378.163 174 376.273L154.75 367.768L157.83 360.573L164.8 363.662ZM173.34 367.432L176.55 368.855C180.76 370.714 183.93 371.863 186.06 372.3C188.2 372.737 190.22 372.432 192.13 371.395C194.04 370.359 195.53 368.591 196.59 366.111C197.56 363.855 197.78 361.691 197.25 359.638C196.72 357.586 195.64 355.899 194 354.568C192.36 353.236 189.84 351.824 186.45 350.32L181.57 348.166L173.34 367.432ZM184.63 341.053L189.96 343.41C194.03 345.209 197.18 345.737 199.41 345.006C201.64 344.274 203.36 342.496 204.56 339.691C206.9 334.234 204.42 329.895 197.12 326.664L191.79 324.306L184.63 341.053Z" fill="white"/>
<path d="M192.771 304.467L159.782 381.547L166.082 384.331L199.071 307.251L192.771 304.467Z" fill="white"/>
<path d="M175.671 372.403L170.048 385.542L176.348 388.326L181.971 375.187L175.671 372.403Z" fill="white"/>
<path d="M203.036 308.45L197.413 321.588L203.713 324.372L209.336 311.234L203.036 308.45Z" fill="white"/>
<path d="M221.64 271.375C222.722 271.375 223.6 270.483 223.6 269.383C223.6 268.283 222.722 267.391 221.64 267.391C220.558 267.391 219.68 268.283 219.68 269.383C219.68 270.483 220.558 271.375 221.64 271.375Z" fill="#E423F5"/>
<path d="M256.3 296.962C256.3 298.059 255.42 298.953 254.34 298.953C253.26 298.953 252.38 298.059 252.38 296.962C252.38 295.864 253.26 294.97 254.34 294.97C255.42 294.97 256.3 295.864 256.3 296.962Z" fill="#E423F5"/>
<path d="M272 333.188C272 334.285 271.12 335.179 270.04 335.179C268.96 335.179 268.08 334.285 268.08 333.188C268.08 332.09 268.96 331.196 270.04 331.196C271.12 331.196 272 332.08 272 333.188Z" fill="#E423F5"/>
<path d="M266.76 383.691C266.76 384.788 265.88 385.682 264.8 385.682C263.72 385.682 262.84 384.788 262.84 383.691C262.84 382.593 263.72 381.699 264.8 381.699C265.89 381.699 266.76 382.593 266.76 383.691Z" fill="#E423F5"/>
<path d="M359.87 445.473L367.39 451.783C367.39 451.783 369.99 453.938 371.31 456.437C373.76 461.091 365.3 470.521 359.8 464.973C354.3 459.425 349.4 453.44 349.4 453.44L359.87 445.473Z" fill="#F59344"/>
<path d="M337.47 455.442C316.99 444.965 304.44 441.205 291.28 422.356C287.93 417.559 286.59 409.623 287.89 405.701C289.49 400.874 296.43 397.988 304.59 399.96C311.45 401.616 357.44 438.238 364.62 445.138C367.71 448.115 358.28 462.982 350.56 460.421C346.74 459.161 343.01 458.277 337.47 455.442Z" fill="#D938BD"/>
<path d="M103.57 190.844H129.39C130.05 190.844 130.57 191.403 130.53 192.074L127.89 235.22H105.08L102.44 192.074C102.39 191.403 102.91 190.844 103.57 190.844Z" fill="#BFB5FF"/>
<path d="M117.94 238.868H115.03V263.754H117.94V238.868Z" fill="#BFB5FF"/>
<path d="M105.81 233.615H126.57C127.99 233.615 129.13 235.271 129.13 237.323V237.395C129.13 239.437 127.98 241.104 126.57 241.104H105.81C104.39 241.104 103.25 239.447 103.25 237.395V237.323C103.25 235.281 104.4 233.615 105.81 233.615Z" fill="#BFB5FF"/>
<path d="M122.22 263.276H110.75V264.231H122.22V263.276Z" fill="#BFB5FF"/>
<path d="M113.22 265.288C113.22 266.487 112.26 267.463 111.08 267.463C109.9 267.463 108.94 266.487 108.94 265.288C108.94 264.089 109.9 263.114 111.08 263.114C112.26 263.114 113.22 264.089 113.22 265.288Z" fill="#9A88F7"/>
<path d="M110.08 229.906C110.08 229.906 97.07 238.868 97.98 241.652C98.89 244.437 106.88 263.225 106.88 263.225H110.13L106.42 242.343L116.59 237.649L114.41 232.375L110.59 229.997L110.08 229.906Z" fill="url(#paint3_linear_1342_1166)"/>
<path d="M122.15 229.763C122.15 229.763 135.83 238.868 134.92 241.652C134.01 244.437 126.02 263.225 126.02 263.225H122.75L126.47 242.343L116.3 237.649L115.41 232.415L121.46 229.987L122.15 229.763Z" fill="url(#paint4_linear_1342_1166)"/>
<path d="M121.81 267.463C122.992 267.463 123.95 266.489 123.95 265.288C123.95 264.087 122.992 263.114 121.81 263.114C120.628 263.114 119.67 264.087 119.67 265.288C119.67 266.489 120.628 267.463 121.81 267.463Z" fill="#9A88F7"/>
<path d="M116.41 267.463C117.592 267.463 118.55 266.489 118.55 265.288C118.55 264.087 117.592 263.114 116.41 263.114C115.228 263.114 114.27 264.087 114.27 265.288C114.27 266.489 115.228 267.463 116.41 267.463Z" fill="#9A88F7"/>
<path d="M123.98 230.099L116.52 230.718L109.06 230.099C109.06 230.099 105.93 233.706 107 235.738C107.84 237.334 124.4 237.415 125.24 235.82C126.31 233.787 123.98 230.099 123.98 230.099Z" fill="url(#paint5_linear_1342_1166)"/>
<path d="M109.93 200.813H123C125.42 200.813 127.36 202.845 127.28 205.304L126.4 232.69H106.54L105.66 205.304C105.58 202.855 107.51 200.813 109.93 200.813Z" fill="#3B7EDD"/>
<path d="M126.5 223.473C126.5 223.473 121.8 223.819 120.95 225.912C120.4 227.253 123.64 226.125 124.72 225.912C125.5 225.76 128.56 225.739 128.56 225.739L126.5 223.473Z" fill="#F59344"/>
<path d="M127.79 203.983C128.07 203.668 129.83 203.668 130.1 203.983C132.38 206.717 141.18 216.909 141.33 218.514C141.5 220.343 129.59 225.739 128.56 225.739C127.97 225.739 126.04 223.829 126.5 223.473C126.5 223.473 131.78 219.846 133.36 218.779C134.39 218.088 126.76 210.517 126.33 208.16C125.93 205.955 126.59 205.335 127.79 203.983Z" fill="url(#paint6_linear_1342_1166)"/>
<path d="M106.61 223.473C106.61 223.473 111.23 223.819 112.39 226.115C113.04 227.406 108.92 225.912 108.92 225.912L104.55 225.739L106.61 223.473Z" fill="#F59344"/>
<path d="M105.58 204.065C105.3 203.75 103.54 203.75 103.27 204.065C100.99 206.798 92.37 216.899 92.22 218.504C92.05 220.333 103.78 225.81 104.81 225.81C105.4 225.81 107.33 223.9 106.87 223.544C106.87 223.544 101.39 219.632 99.85 218.494C99.57 218.291 99.94 217.803 100.96 216.492C102.32 214.765 106.61 210.578 107.04 208.231C107.44 206.046 106.78 205.426 105.58 204.065Z" fill="url(#paint7_linear_1342_1166)"/>
<path d="M118.67 193.019H114.56V200.965H118.67V193.019Z" fill="#F57F29"/>
<path d="M135.93 214.104H126.17V213.759H135.93C137.44 213.759 138.67 212.509 138.67 210.975V178.671H139.01V210.975C139.02 212.692 137.63 214.104 135.93 214.104Z" fill="#CF21B1"/>
<path d="M108.71 207.489H98.95C97.25 207.489 95.87 206.087 95.87 204.359V170.836H96.21V204.359C96.21 205.894 97.44 207.143 98.95 207.143H108.71V207.489Z" fill="#CF21B1"/>
<path d="M149.24 226.979H85.08V228.717H149.24V226.979Z" fill="#4B1DCA"/>
<path d="M86.11 227.792H85.08V267.463H86.11V227.792Z" fill="#4B1DCA"/>
<path d="M149.26 227.792H148.23V267.463H149.26V227.792Z" fill="#4B1DCA"/>
<path d="M150.38 225.76H83.94V227.152H150.38V225.76Z" fill="#6B4BD8"/>
<path d="M121.62 192.724C121.62 195.57 119.35 199.817 116.55 199.817C113.75 199.817 111.48 195.57 111.48 192.724C111.48 189.879 113.75 187.573 116.55 187.573C119.35 187.573 121.62 189.879 121.62 192.724Z" fill="#F59344"/>
<mask id="mask0_1342_1166" style="mask-type:luminance" maskUnits="userSpaceOnUse" x="111" y="187" width="11" height="13">
<path d="M121.62 192.724C121.62 195.57 119.35 199.817 116.55 199.817C113.75 199.817 111.48 195.57 111.48 192.724C111.48 189.879 113.75 187.573 116.55 187.573C119.35 187.573 121.62 189.879 121.62 192.724Z" fill="white"/>
</mask>
<g mask="url(#mask0_1342_1166)">
<path d="M111.15 196.22C112.69 196.159 113.21 195.224 113.11 193.659C112.94 191.088 114.84 189.696 115.81 190.286C116.77 190.875 117.33 190.296 117.86 190.214C118.65 190.092 120 191.19 119.86 193.517C119.73 195.61 119.57 196.098 121.63 196.809C123.69 197.531 124.84 192.826 123.43 190.153C122.02 187.481 119.77 185.327 118.81 185.123C117.85 184.93 112 185.581 112 185.581L109.56 187.278L111.15 196.22Z" fill="#6B4BD8"/>
</g>
<path d="M112.61 189.564C112.61 189.564 114.28 188.06 116.1 187.207C119.31 185.703 118.09 184.595 118.35 184.656C119.04 184.829 121.33 189.127 121.63 191.18C121.98 193.578 121.33 194.848 121.16 195.133C120.85 195.671 119.55 190.357 119.55 190.357L116.18 189.107L113.65 189.127L112.61 189.564Z" fill="#6B4BD8"/>
<path d="M106.88 263.236H110.13L111.21 266.193C111.21 266.894 110.65 267.473 109.95 267.473H101.1C101.1 267.473 99.1 265.613 101.61 265.329C103.44 265.105 106.88 263.236 106.88 263.236Z" fill="#861391"/>
<path d="M125.93 263.236H122.68L121.6 266.193C121.6 266.894 122.16 267.473 122.86 267.473H131.71C131.71 267.473 133.71 265.613 131.2 265.329C129.37 265.105 125.93 263.236 125.93 263.236Z" fill="#861391"/>
<path d="M138.93 190.408H134.31C133.46 190.408 132.76 189.849 132.76 189.158V177.543H133.1V189.158C133.1 189.656 133.64 190.062 134.31 190.062H138.93V190.408Z" fill="#CF21B1"/>
<path d="M103.45 186.922H96.46V186.577H103.45C103.94 186.577 104.34 186.17 104.34 185.672V174.058H104.68V185.672C104.68 186.363 104.13 186.922 103.45 186.922Z" fill="#CF21B1"/>
<path d="M142.66 199.451H139.1V199.106H142.66C143.15 199.106 143.55 198.699 143.55 198.201V175.612H143.89V198.201C143.9 198.892 143.34 199.451 142.66 199.451Z" fill="#CF21B1"/>
<path d="M194.83 159.11C194.89 147.272 185.51 137.628 173.86 137.557C172.36 137.547 170.91 137.699 169.5 137.994C165.41 125.028 153.49 115.608 139.37 115.527C125.92 115.456 114.39 123.859 109.66 135.809C107.38 134.864 104.88 134.326 102.27 134.316C91.28 134.255 82.33 143.258 82.26 154.415C82.26 155.055 82.29 155.696 82.34 156.326C80.29 154.862 77.8 153.988 75.1 153.978C68.07 153.938 62.34 159.699 62.3 166.843C62.26 173.986 67.93 179.809 74.96 179.85C74.96 179.85 152.58 182.705 178.25 179.911C187.84 178.874 194.77 169.332 194.83 159.11Z" fill="#BFB5FF"/>
<path d="M96.51 181.13C96.51 181.415 96.28 181.648 96 181.648C95.72 181.648 95.49 181.415 95.49 181.13C95.49 180.846 95.72 180.612 96 180.612C96.28 180.612 96.51 180.846 96.51 181.13Z" fill="#E423F5"/>
<path d="M104.51 181.953C104.792 181.953 105.02 181.721 105.02 181.435C105.02 181.149 104.792 180.917 104.51 180.917C104.228 180.917 104 181.149 104 181.435C104 181.721 104.228 181.953 104.51 181.953Z" fill="#E423F5"/>
<path d="M132.85 181.872C133.132 181.872 133.36 181.64 133.36 181.353C133.36 181.067 133.132 180.835 132.85 180.835C132.568 180.835 132.34 181.067 132.34 181.353C132.34 181.64 132.568 181.872 132.85 181.872Z" fill="#E423F5"/>
<path d="M139.27 181.435C139.27 181.719 139.04 181.953 138.76 181.953C138.48 181.953 138.25 181.719 138.25 181.435C138.25 181.15 138.48 180.917 138.76 180.917C139.04 180.917 139.27 181.15 139.27 181.435Z" fill="#E423F5"/>
<path d="M144.33 181.262C144.33 181.547 144.1 181.78 143.82 181.78C143.54 181.78 143.31 181.547 143.31 181.262C143.31 180.978 143.54 180.744 143.82 180.744C144.1 180.744 144.33 180.978 144.33 181.262Z" fill="#E423F5"/>
<path d="M89.95 225.821H86.53L85.85 217.986H90.64L89.95 225.821Z" fill="#E423F5"/>
<path d="M85.33 219.642C84.01 219.642 82.93 220.73 82.93 222.081C82.93 223.422 84 224.52 85.33 224.52C86.65 224.52 87.73 223.433 87.73 222.081C87.73 220.73 86.66 219.642 85.33 219.642ZM85.33 223.697C84.45 223.697 83.73 222.965 83.73 222.071C83.73 221.177 84.45 220.445 85.33 220.445C86.21 220.445 86.93 221.177 86.93 222.071C86.93 222.975 86.21 223.697 85.33 223.697Z" fill="#E423F5"/>
<path d="M135.05 195.194H98.36V216.502H135.05V195.194Z" fill="#240D65"/>
<path d="M116.53 205.101H116.44C113.94 205.101 111.91 207.164 111.91 209.704V225.211H121.07V209.704C121.07 207.154 119.04 205.101 116.53 205.101ZM116.6 213.576C114.95 213.576 113.61 212.214 113.61 210.538C113.61 208.861 114.95 207.499 116.6 207.499C118.25 207.499 119.59 208.861 119.59 210.538C119.59 212.214 118.25 213.576 116.6 213.576Z" fill="url(#paint8_linear_1342_1166)"/>
<path d="M125.05 224.306H107.92V226.105H125.05V224.306Z" fill="#240D65"/>
<path d="M354.5 95.8946C354.47 89.7163 359.36 84.6864 365.44 84.6559C366.22 84.6559 366.98 84.727 367.72 84.8794C369.85 78.1118 376.07 73.2038 383.44 73.1631C390.45 73.1225 396.47 77.5123 398.94 83.7413C400.13 83.2434 401.43 82.969 402.8 82.9589C408.53 82.9284 413.2 87.623 413.24 93.4456C413.24 93.781 413.23 94.1163 413.2 94.4415C414.27 93.6793 415.57 93.2221 416.98 93.2119C420.65 93.1916 423.64 96.1994 423.66 99.9186C423.68 103.648 420.72 106.686 417.06 106.706C417.06 106.706 376.57 108.2 363.18 106.737C358.15 106.209 354.53 101.229 354.5 95.8946Z" fill="#9A88F7"/>
<path d="M189.976 83.0991C195.669 54.4792 226.776 21.4927 272.814 21.451C319.66 21.4093 350.493 40.6561 362.085 84.7818C372.938 126.098 360.867 160.323 330.348 177.998C295.957 197.94 240.544 196.271 210.778 168.667C186.486 146.152 185.378 106.226 189.976 83.0991Z" fill="#BFB5FF"/>
<path d="M196.874 81.0271C193.89 84.4064 190.086 102.443 196.874 104.654C203.662 106.866 209.122 109.438 210.573 115.349C212.023 121.259 217.156 141.479 221.042 147.64C224.915 153.787 235.056 156.179 237.807 146.75C239.6 140.617 239.258 133.455 241.434 129.77C243.61 126.085 235.864 116.725 242.405 114.751C248.947 112.776 256.447 109.341 252.341 103.917C248.222 98.5078 242.898 100.719 240.955 94.0715C239.011 87.4242 237.561 82.2509 239.258 82.2509C240.955 82.2509 240.476 95.5457 247.729 96.7694C254.996 97.9932 258.582 97.8681 261.77 91.3598C262.455 89.9552 252.56 82.5012 254.024 81.0271C255.475 79.553 258.623 84.2257 264.439 84.7124C270.255 85.1991 275.825 87.4242 276.304 91.6101C276.783 95.796 281.888 105.976 284.543 105.642C291.468 104.766 282.846 95.5457 286.719 92.3471C290.592 89.1486 292.289 87.1739 296.887 90.3724C301.486 93.5709 301.732 98.7442 301.486 102.193C301.239 105.642 304.113 113.944 306.782 116.656C309.451 119.368 314.323 124.583 318.688 122.372C323.054 120.16 318.209 118.964 314.569 116.489C310.942 114 307.302 103.667 309.971 102.193C312.639 100.719 317.717 100.218 314.569 95.796C311.421 91.3598 311.9 89.8857 314.323 88.6619C316.745 87.4242 322.561 84.6429 322.069 80.749C321.59 76.8551 316.745 71.9322 319.167 69.9575C321.59 67.9827 325.216 73.4063 327.885 69.9575C330.554 66.5086 329.336 57.3998 327.885 51.253C326.434 45.1063 314.569 45.3427 316.266 41.1568C317.963 36.9709 316.512 34.7598 310.45 32.048C304.401 29.3362 297.613 29.0998 291.796 32.048C285.98 34.9962 284.05 32.785 278.959 34.2591C273.868 35.7332 273.389 38.1947 270.967 39.4324C268.545 40.6562 265.151 41.6436 260.073 40.9065C254.982 40.1695 252.081 33.7724 246.032 39.1821C239.983 44.5918 243.131 55.1747 232.716 53.7006C222.301 52.2265 213.584 52.7132 213.091 57.6362C212.612 62.5591 215.513 66.9814 210.19 69.4429C204.866 71.9183 200.993 76.3545 196.874 81.0271Z" fill="#9A88F7"/>
<path d="M245.799 134.679C247.387 131.397 250.89 126.071 252.095 128.031C253.299 130.006 256.214 140.589 252.095 142.3C247.975 144.024 244.431 137.53 245.799 134.679Z" fill="#9A88F7"/>
<path d="M314.473 141.882C317.744 138.6 320.768 138.934 324.409 134.498C328.035 130.062 329.732 125.89 333.126 127.364C336.52 128.838 340.147 132.036 343.787 129.825C347.414 127.614 352.437 130.465 351.232 139.073C350.028 147.681 346.319 155.344 342.939 159.766C339.545 164.202 330.964 166.483 329.267 162.547C327.57 158.612 328.049 154.426 325.873 152.702C323.697 150.977 316.663 155.65 314.487 154.676C312.311 153.703 311.134 145.234 314.473 141.882Z" fill="#9A88F7"/>
<path d="M316.526 110.314C317.101 109.452 320.153 103.18 323.314 105.141C326.462 107.116 326.462 115.237 323.314 116.461C320.153 117.699 314.555 113.263 316.526 110.314Z" fill="#9A88F7"/>
<path d="M345.881 115.529C348.618 115.335 355.995 116.544 357.117 121.467C358.239 126.39 356.775 125.904 355.092 124.666C353.381 123.442 342.159 115.807 345.881 115.529Z" fill="#9A88F7"/>
<path d="M350.12 208.017C351.804 208.017 353.17 206.63 353.17 204.918C353.17 203.206 351.804 201.819 350.12 201.819C348.436 201.819 347.07 203.206 347.07 204.918C347.07 206.63 348.436 208.017 350.12 208.017Z" fill="#BFB5FF"/>
<path d="M343.07 208.017C344.754 208.017 346.12 206.63 346.12 204.918C346.12 203.206 344.754 201.819 343.07 201.819C341.386 201.819 340.02 203.206 340.02 204.918C340.02 206.63 341.386 208.017 343.07 208.017Z" fill="#BFB5FF"/>
<path d="M338.96 204.918C338.96 203.201 337.59 201.819 335.91 201.819C334.22 201.819 332.86 203.211 332.86 204.918C332.86 206.635 334.23 208.017 335.91 208.017C337.59 208.017 338.96 206.635 338.96 204.918Z" fill="#BFB5FF"/>
<path d="M329.49 179.575H354.54C355.7 179.575 356.65 178.62 356.65 177.431V172.726C356.65 171.547 355.71 170.582 354.54 170.582H329.49C328.33 170.582 327.38 171.537 327.38 172.726V177.431C327.38 178.61 328.32 179.575 329.49 179.575Z" fill="#BFB5FF"/>
<path d="M340.85 167.595H353.48C354.99 167.595 356.22 166.345 356.22 164.81L360.85 131.867C360.85 130.332 359.62 129.082 358.11 129.082H336.01C334.5 129.082 333.27 130.332 333.27 131.867L338.11 164.81C338.12 166.345 339.34 167.595 340.85 167.595Z" fill="#BFB5FF"/>
<path d="M332.27 203.191H335.99L337.23 206.574C337.23 207.377 336.59 208.038 335.79 208.038H325.67C325.67 208.038 323.38 205.914 326.26 205.579C328.33 205.335 332.27 203.191 332.27 203.191Z" fill="#4B1DCA"/>
<path d="M314.15 203.404H317.87L319.11 206.788C319.11 207.591 318.47 208.251 317.67 208.251H307.55C307.55 208.251 305.26 206.127 308.14 205.792C310.22 205.548 314.15 203.404 314.15 203.404Z" fill="#4B1DCA"/>
<path d="M333.98 167.097C333.98 167.097 313.43 172.411 312.06 175.988C311.06 178.61 313.43 203.861 313.43 203.861L318.12 204.034C318.12 204.034 320.48 181.364 320.28 179.382C320.08 177.401 329.68 178.183 334.97 175.795C340.26 173.407 340.85 167.432 340.85 167.432L333.98 167.097Z" fill="url(#paint9_linear_1342_1166)"/>
<path d="M349.06 166.162C349.06 166.162 351.04 169.617 348.29 174.393C345.55 179.169 326.15 179.565 326.55 180.561C326.94 181.557 336.43 204.38 336.43 204.38L330.33 204.166C330.33 204.166 316.06 179.697 317.54 176.974C318.89 174.494 341.49 165.511 341.49 165.511L349.06 166.162Z" fill="url(#paint10_linear_1342_1166)"/>
<path d="M347.76 134.478L331.5 134.59C327.18 134.437 324.98 140.392 325.07 142.78C325.07 142.78 330.38 151.824 330.44 156.142C330.47 158.51 329.61 168.397 329.61 168.397L349.72 168.265C349.72 168.265 348.91 158.063 348.91 155.594C348.92 151.377 352.12 138.817 352.12 138.817C352.18 136.429 350.2 134.458 347.76 134.478Z" fill="#2685D3"/>
<path d="M337.42 136.073C337.42 136.073 337.69 137.76 340 137.658C342.53 137.547 342.7 136.033 342.7 136.033L342.65 128.178L337.37 128.208L337.42 136.073Z" fill="#F59344"/>
<path d="M334.15 124.032C333.36 127.141 334.66 132.415 337.71 133.218C340.77 134.021 344.42 130.048 345.21 126.938C346 123.829 344.17 120.668 341.11 119.855C338.06 119.063 334.94 120.922 334.15 124.032Z" fill="#FFA463"/>
<path d="M343.07 200.752C342.47 200.752 341.9 200.884 341.38 201.128V178.081H344.97V201.229C344.4 200.925 343.75 200.752 343.07 200.752Z" fill="#BFB5FF"/>
<path d="M353.17 145.453C353.17 145.453 353.7 155.187 353.17 156.681C352.64 158.175 343.59 156.356 339.8 156.143C336.01 155.929 334.22 156.031 333.59 156.031C332.96 156.031 333.17 154.324 337.06 153.46C337.83 153.287 340.1 154.151 340.85 154.212C343.69 154.425 348.68 153.826 348.85 153.572C349.06 153.247 348.32 145.016 348.32 145.016L353.17 145.453Z" fill="#F59344"/>
<path d="M344.01 156.051H332.51V157.118H344.01V156.051Z" fill="#801E9E"/>
<path d="M350.85 135.179C353.71 137.598 355.27 146.093 355.06 146.733C354.85 147.373 345.9 148.227 345.9 146.733C345.91 145.239 346.43 131.44 350.85 135.179Z" fill="#479BF2"/>
<path d="M218.25 208.017C219.934 208.017 221.3 206.63 221.3 204.918C221.3 203.206 219.934 201.819 218.25 201.819C216.566 201.819 215.2 203.206 215.2 204.918C215.2 206.63 216.566 208.017 218.25 208.017Z" fill="#BFB5FF"/>
<path d="M225.3 208.017C226.984 208.017 228.35 206.63 228.35 204.918C228.35 203.206 226.984 201.819 225.3 201.819C223.616 201.819 222.25 203.206 222.25 204.918C222.25 206.63 223.616 208.017 225.3 208.017Z" fill="#BFB5FF"/>
<path d="M229.41 204.918C229.41 203.201 230.78 201.819 232.46 201.819C234.15 201.819 235.51 203.211 235.51 204.918C235.51 206.635 234.14 208.017 232.46 208.017C230.77 208.017 229.41 206.635 229.41 204.918Z" fill="#BFB5FF"/>
<path d="M238.88 179.575H213.83C212.67 179.575 211.72 178.62 211.72 177.431V172.726C211.72 171.547 212.66 170.582 213.83 170.582H238.88C240.04 170.582 240.99 171.537 240.99 172.726V177.431C240.98 178.61 240.04 179.575 238.88 179.575Z" fill="#BFB5FF"/>
<path d="M227.51 167.595H214.88C213.37 167.595 212.14 166.345 212.14 164.81L207.51 131.867C207.51 130.332 208.74 129.082 210.25 129.082H232.35C233.86 129.082 235.09 130.332 235.09 131.867L230.25 164.81C230.25 166.345 229.02 167.595 227.51 167.595Z" fill="#BFB5FF"/>
<path d="M273.75 203.191H277.47L278.71 206.574C278.71 207.377 278.07 208.038 277.27 208.038H267.15C267.15 208.038 264.86 205.914 267.74 205.579C269.82 205.335 273.75 203.191 273.75 203.191Z" fill="#861391"/>
<path d="M295.09 203.739L291.62 203.394L290.38 206.778C290.38 207.58 291.02 208.241 291.82 208.241H301.94C301.94 208.241 304.23 206.117 301.35 205.782C299.27 205.548 295.09 203.739 295.09 203.739Z" fill="#861391"/>
<path d="M236.1 203.191H232.38L231.14 206.574C231.14 207.377 231.78 208.038 232.58 208.038H242.7C242.7 208.038 244.99 205.914 242.11 205.579C240.03 205.335 236.1 203.191 236.1 203.191Z" fill="#4B1DCA"/>
<path d="M254.22 203.404H250.5L249.26 206.788C249.26 207.591 249.9 208.251 250.7 208.251H260.82C260.82 208.251 263.11 206.127 260.23 205.792C258.15 205.548 254.22 203.404 254.22 203.404Z" fill="#4B1DCA"/>
<path d="M234.39 167.097C234.39 167.097 254.94 172.411 256.31 175.988C257.31 178.61 254.94 203.861 254.94 203.861L250.25 204.034C250.25 204.034 247.89 181.364 248.09 179.382C248.29 177.401 238.69 178.183 233.4 175.795C228.11 173.407 227.52 167.432 227.52 167.432L234.39 167.097Z" fill="url(#paint11_linear_1342_1166)"/>
<path d="M219.3 166.162C219.3 166.162 217.32 169.617 220.07 174.393C222.81 179.169 242.21 179.565 241.81 180.561C241.42 181.557 231.93 204.38 231.93 204.38L238.03 204.166C238.03 204.166 252.3 179.697 250.82 176.974C249.47 174.494 226.87 165.511 226.87 165.511L219.3 166.162Z" fill="url(#paint12_linear_1342_1166)"/>
<path d="M271.65 204.451L273.83 179.768L273.95 153.155H295.27C295.27 153.155 299.89 178.376 299.69 181.364C299.62 182.431 297.9 204.888 297.9 204.888L291.16 205.03L292.64 180.368L285.59 161.66L280.69 179.778L277.97 204.319L271.65 204.451Z" fill="url(#paint13_linear_1342_1166)"/>
<path d="M275.97 112.143L293.21 112.255C295.81 112.275 297.87 114.185 297.77 116.482C297.77 116.482 294.4 128.838 294.34 132.984C294.3 135.26 296.35 153.287 296.35 153.287L272.77 153.145C272.77 153.145 274.77 134.823 274.76 132.435C274.75 128.381 271.35 116.299 271.35 116.299C271.28 114.012 273.37 112.122 275.97 112.143Z" fill="#2E176F"/>
<path d="M287.33 113.84C287.33 113.84 287.05 115.628 284.6 115.527C281.92 115.405 281.73 113.809 281.73 113.809L281.78 105.487L287.38 105.528L287.33 113.84Z" fill="#F57F29"/>
<path d="M290.59 102.032C290.89 105.416 288.64 110.71 285.31 111.015C281.98 111.32 278.83 106.523 278.53 103.14C278.23 99.7557 280.69 96.7581 284.02 96.4532C287.35 96.1484 290.29 98.638 290.59 102.032Z" fill="#F59344"/>
<path d="M220.61 134.478L236.87 134.59C241.19 134.437 243.39 140.392 243.3 142.78C243.3 142.78 237.99 151.824 237.93 156.142C237.89 158.51 238.76 168.397 238.76 168.397L218.65 168.265C218.65 168.265 219.46 158.063 219.46 155.594C219.45 151.377 216.25 138.817 216.25 138.817C216.19 136.429 218.16 134.458 220.61 134.478Z" fill="#D938BD"/>
<path d="M230.95 136.073C230.95 136.073 230.68 137.76 228.37 137.658C225.84 137.547 225.67 136.033 225.67 136.033L225.72 128.178L231 128.218L230.95 136.073Z" fill="#F59344"/>
<path d="M234.22 124.032C235.01 127.141 233.71 132.415 230.66 133.218C227.6 134.021 223.95 130.048 223.16 126.938C222.37 123.829 224.2 120.668 227.26 119.855C230.31 119.063 233.43 120.922 234.22 124.032Z" fill="#FFA463"/>
<path d="M288.35 136.785H282.46C281.65 136.785 280.99 136.144 280.99 135.342V122.609C280.99 121.817 281.65 121.166 282.46 121.166H288.35C289.16 121.166 289.82 121.806 289.82 122.609V135.352C289.82 136.144 289.16 136.785 288.35 136.785Z" fill="#5C31D4"/>
<path d="M353.32 158.622H215.78V160.766H353.32V158.622Z" fill="#4B1DCA"/>
<path d="M217.04 159.618H215.78V208.393H217.04V159.618Z" fill="#4B1DCA"/>
<path d="M353.33 159.618H352.07V208.393H353.33V159.618Z" fill="#4B1DCA"/>
<path d="M354.73 157.118H214.39V158.825H354.73V157.118Z" fill="#6B4BD8"/>
<path d="M266.25 125.231C266.25 125.231 261.09 138.898 263.09 139.996C265.83 141.489 273.19 137.963 279.09 135.718C281.4 134.834 283.64 133.076 283.93 132.293C285.19 128.869 282.16 128.94 280.98 129.082C279.68 129.235 275.93 133.574 275.93 133.574L267.93 135.067L270.46 128.005L266.25 125.231Z" fill="#F57F29"/>
<path d="M303.98 125.231C303.98 125.231 309.14 138.898 307.14 139.996C304.4 141.489 297.04 137.963 291.14 135.718C288.83 134.834 286.59 133.076 286.3 132.293C285.04 128.869 288.07 128.94 289.25 129.082C290.55 129.235 294.3 133.574 294.3 133.574L302.3 135.067L299.77 128.005L303.98 125.231Z" fill="#F57F29"/>
<path d="M273.19 113.047C270.66 114.541 263.09 125.881 263.3 126.521C263.51 127.162 270.67 132.08 271.3 131.013C271.93 129.946 274.81 121.796 275.09 119.032C275.72 112.824 273.19 113.047 273.19 113.047Z" fill="#2E176F"/>
<path d="M295.23 112.752C297.9 113.321 306.32 125.871 306.11 126.511C305.9 127.151 298.74 132.07 298.11 131.003C297.48 129.936 294.6 121.786 294.32 119.022C293.69 112.824 295.23 112.752 295.23 112.752Z" fill="#2E176F"/>
<path d="M225.3 200.752C225.9 200.752 226.47 200.884 226.99 201.128V178.081H223.4V201.229C223.97 200.925 224.61 200.752 225.3 200.752Z" fill="#BFB5FF"/>
<path d="M302.52 126.257H289.82V125.78H302.52C303.17 125.78 303.69 125.241 303.69 124.591V109.836C303.69 108.881 304.46 108.099 305.4 108.099H338.87V108.566H305.4C304.72 108.566 304.16 109.135 304.16 109.826V124.591C304.16 125.516 303.43 126.257 302.52 126.257Z" fill="#CF21B1"/>
<path d="M215.2 145.453C215.2 145.453 214.67 155.187 215.2 156.681C215.73 158.175 224.78 156.356 228.57 156.143C232.36 155.929 234.15 156.031 234.78 156.031C235.41 156.031 235.2 154.324 231.31 153.46C230.54 153.287 228.27 154.151 227.52 154.212C224.68 154.425 219.69 153.826 219.52 153.572C219.31 153.247 220.05 145.016 220.05 145.016L215.2 145.453Z" fill="#F59344"/>
<path d="M235.85 156.051H224.35V157.118H235.85V156.051Z" fill="#5C31D4"/>
<path d="M217.51 135.179C214.65 137.598 213.09 146.093 213.3 146.733C213.51 147.373 222.46 148.227 222.46 146.733C222.46 145.239 221.93 131.44 217.51 135.179Z" fill="#EF4DD8"/>
<path d="M285.54 126.867C286.391 126.867 287.08 126.166 287.08 125.302C287.08 124.438 286.391 123.737 285.54 123.737C284.689 123.737 284 124.438 284 125.302C284 126.166 284.689 126.867 285.54 126.867Z" fill="#6142E0"/>
<mask id="mask1_1342_1166" style="mask-type:luminance" maskUnits="userSpaceOnUse" x="222" y="119" width="13" height="15">
<path d="M234.22 124.032C235.01 127.141 233.71 132.415 230.66 133.218C227.6 134.021 223.95 130.048 223.16 126.938C222.37 123.829 224.2 120.668 227.26 119.855C230.31 119.063 233.43 120.922 234.22 124.032Z" fill="white"/>
</mask>
<g mask="url(#mask1_1342_1166)">
<path d="M224.49 130.657C226.03 130.657 227.32 129.977 227.16 129.235C226.6 126.664 225.34 124.886 226.46 123.463C227.58 122.04 229.55 123.178 231.09 123.178C232.63 123.178 233.48 122.325 233.48 122.325C233.48 122.325 233.06 118.9 228.85 118.9C224.64 118.9 220.71 123.036 220.85 124.743C220.99 126.45 224.49 130.657 224.49 130.657Z" fill="#2E176F"/>
</g>
<path d="M231.93 123.097C231.93 123.097 234.32 122.244 234.81 120.953C235.3 119.673 235.02 117.529 232.35 117.671C229.68 117.813 228.35 120.242 228.35 120.242L231.93 123.097Z" fill="#2E176F"/>
<path d="M279.19 105.904C279.29 105.904 279.28 103.627 279.58 101.758C279.76 100.63 280.34 99.512 280.34 99.512C280.34 99.512 281.84 99.3494 284.16 101.382C285.28 102.367 286.68 104.105 287.03 104.105C287.38 104.105 286.24 102.124 287.01 101.981C287.78 101.839 288.29 104.501 288.74 104.613C289.08 104.694 288.63 102.286 289.19 102.286C289.75 102.286 289.82 104.816 289.82 106.452C289.82 107.011 292.74 102.52 291.58 98.6178C291 96.6769 288.95 93.0797 283.61 93.9638C282.41 94.1569 281.64 95.0917 281.64 95.0917C281.64 95.0917 280.35 94.9292 279.01 95.7827C277.79 96.5652 277.67 98.3536 277.59 99.6848C277.48 101.555 278.9 105.904 279.19 105.904Z" fill="#911F9B"/>
<path d="M333.75 120.668C333.96 122.884 335.15 123.91 337.36 123.483C339.57 123.056 341.52 121.664 342.48 123.524C343.43 125.343 341.43 128.584 341.5 128.981C341.57 129.377 342.27 129.478 342.66 129.265C343.05 129.052 343.36 126.664 344.84 127.944C346.31 129.224 349.19 126.45 347.86 124.377C346.76 122.67 348.91 120.74 345.97 118.606C344.97 117.884 343.09 118.413 341.83 118.321C339.46 118.138 340.22 116.543 336.57 117.254C334.03 117.742 333.64 119.479 333.75 120.668Z" fill="#D938BD"/>
<path d="M252.79 141.703H252.33V117.041C252.33 116.38 251.8 115.852 251.16 115.852H243.23C242.44 115.852 241.8 115.202 241.8 114.399V84.0969H242.26V114.399C242.26 114.937 242.69 115.374 243.22 115.374H251.15C252.05 115.374 252.79 116.116 252.79 117.041V141.703Z" fill="#CF21B1"/>
<path d="M316.37 108.19H315.91V142.13H316.37V108.19Z" fill="#CF21B1"/>
<path d="M311.05 74.3926H310.59V108.332H311.05V74.3926Z" fill="#CF21B1"/>
<path d="M258.15 157.108H235.33L239.51 141.703H262.33L258.15 157.108Z" fill="url(#paint14_linear_1342_1166)"/>
<path d="M248.66 147.729C249.17 146.936 250.14 146.662 250.82 147.119C251.5 147.576 251.64 148.582 251.13 149.375C250.62 150.168 249.65 150.442 248.97 149.985C248.29 149.538 248.15 148.521 248.66 147.729Z" fill="#479BF2"/>
<path d="M310.21 157.108H333.04L328.86 141.703H306.03L310.21 157.108Z" fill="url(#paint15_linear_1342_1166)"/>
<path d="M319.71 147.729C319.2 146.936 318.23 146.662 317.55 147.119C316.87 147.576 316.73 148.582 317.24 149.375C317.75 150.168 318.72 150.442 319.4 149.985C320.08 149.538 320.21 148.521 319.71 147.729Z" fill="#D938BD"/>
<path d="M242.86 84.0969C242.86 84.5643 242.49 84.9301 242.04 84.9301C241.58 84.9301 241.22 84.5541 241.22 84.0969C241.22 83.6396 241.59 83.2636 242.04 83.2636C242.49 83.2535 242.86 83.6294 242.86 84.0969Z" fill="#D938BD"/>
<path d="M339.7 108.332C339.7 108.8 339.33 109.166 338.88 109.166C338.42 109.166 338.06 108.79 338.06 108.332C338.06 107.865 338.43 107.499 338.88 107.499C339.33 107.499 339.7 107.875 339.7 108.332Z" fill="#D938BD"/>
<path d="M311.65 73.9658C311.65 74.4332 311.28 74.799 310.83 74.799C310.37 74.799 310.01 74.423 310.01 73.9658C310.01 73.5085 310.38 73.1325 310.83 73.1325C311.28 73.1224 311.65 73.4983 311.65 73.9658Z" fill="#D938BD"/>
<path d="M374.16 119.246C374.16 122.111 371.87 124.438 369.05 124.438C366.23 124.438 363.94 122.111 363.94 119.246C363.94 116.38 366.23 114.053 369.05 114.053C371.87 114.053 374.16 116.38 374.16 119.246Z" fill="#FFC55F"/>
<path d="M397.57 119.246C397.57 122.111 395.28 124.438 392.46 124.438C389.64 124.438 387.35 122.111 387.35 119.246C387.35 116.38 389.64 114.053 392.46 114.053C395.28 114.053 397.57 116.38 397.57 119.246Z" fill="#FFA633"/>
<path d="M385.55 134.427C385.55 137.293 383.26 139.62 380.44 139.62C377.62 139.62 375.33 137.293 375.33 134.427C375.33 131.562 377.62 129.235 380.44 129.235C383.26 129.235 385.55 131.562 385.55 134.427Z" fill="#FFA633"/>
<path d="M403.97 139.62C406.792 139.62 409.08 137.295 409.08 134.427C409.08 131.559 406.792 129.235 403.97 129.235C401.148 129.235 398.86 131.559 398.86 134.427C398.86 137.295 401.148 139.62 403.97 139.62Z" fill="#FFC350"/>
<path d="M429.14 139.62C431.962 139.62 434.25 137.295 434.25 134.427C434.25 131.559 431.962 129.235 429.14 129.235C426.318 129.235 424.03 131.559 424.03 134.427C424.03 137.295 426.318 139.62 429.14 139.62Z" fill="#FFC55F"/>
<path d="M420.95 119.246C420.95 122.111 418.66 124.438 415.84 124.438C413.02 124.438 410.73 122.111 410.73 119.246C410.73 116.38 413.02 114.053 415.84 114.053C418.66 114.053 420.95 116.38 420.95 119.246Z" fill="#FF9827"/>
<path d="M369.05 154.618C371.872 154.618 374.16 152.293 374.16 149.426C374.16 146.558 371.872 144.233 369.05 144.233C366.228 144.233 363.94 146.558 363.94 149.426C363.94 152.293 366.228 154.618 369.05 154.618Z" fill="#FFA633"/>
<path d="M397.57 149.426C397.57 152.291 395.28 154.618 392.46 154.618C389.64 154.618 387.35 152.291 387.35 149.426C387.35 146.56 389.64 144.233 392.46 144.233C395.28 144.233 397.57 146.56 397.57 149.426Z" fill="#FF9827"/>
<path d="M385.55 167.097C385.55 169.962 383.26 172.289 380.44 172.289C377.62 172.289 375.33 169.962 375.33 167.097C375.33 164.231 377.62 161.904 380.44 161.904C383.26 161.904 385.55 164.221 385.55 167.097Z" fill="#FFC55F"/>
<path d="M420.95 149.426C420.95 152.291 418.66 154.618 415.84 154.618C413.02 154.618 410.73 152.291 410.73 149.426C410.73 146.56 413.02 144.233 415.84 144.233C418.66 144.233 420.95 146.56 420.95 149.426Z" fill="#FFA633"/>
<path d="M410.63 187.572C410.63 190.438 408.34 192.765 405.52 192.765C402.7 192.765 400.41 190.438 400.41 187.572C400.41 184.707 402.7 182.38 405.52 182.38C408.35 182.37 410.63 184.697 410.63 187.572Z" fill="#FFA633"/>
<path d="M445.52 149.426C445.52 152.291 443.23 154.618 440.41 154.618C437.59 154.618 435.3 152.291 435.3 149.426C435.3 146.56 437.59 144.233 440.41 144.233C443.23 144.233 445.52 146.56 445.52 149.426Z" fill="#FFA633"/>
<path d="M429.14 173.59C431.962 173.59 434.25 171.265 434.25 168.397C434.25 165.53 431.962 163.205 429.14 163.205C426.318 163.205 424.03 165.53 424.03 168.397C424.03 171.265 426.318 173.59 429.14 173.59Z" fill="#FF9827"/>
<path d="M42.61 243.796C41.66 236.399 35.44 230.667 27.9 230.667C20.36 230.667 14.14 236.388 13.19 243.796H42.61Z" fill="#FFC350"/>
<path d="M514.4 196.484C513.45 189.086 507.23 183.365 499.69 183.365C492.15 183.365 485.93 189.086 484.98 196.484H514.4Z" fill="#FFC350"/>
<path d="M172.91 109.572C172.48 106.229 169.68 103.648 166.27 103.648C162.87 103.648 160.06 106.229 159.63 109.572H172.91Z" fill="#FFC350"/>
<path d="M518.64 262.595C518.03 257.83 514.02 254.141 509.16 254.141C504.3 254.141 500.29 257.83 499.68 262.595H518.64Z" fill="#FFA633"/>
<path d="M55.88 287.512C55.28 282.817 51.34 279.189 46.55 279.189C41.77 279.189 37.83 282.817 37.22 287.512H55.88Z" fill="#FF9827"/>
<path d="M488.16 97.876C487.62 93.6487 484.06 90.3767 479.75 90.3767C475.44 90.3767 471.88 93.6487 471.34 97.876H488.16Z" fill="#FF9827"/>
<path d="M490.09 318.85C490.09 321.715 487.8 324.042 484.98 324.042C482.16 324.042 479.87 321.715 479.87 318.85C479.87 315.984 482.16 313.657 484.98 313.657C487.8 313.657 490.09 315.984 490.09 318.85Z" fill="#BFB5FF"/>
<path d="M522.52 217.498C522.52 219.277 521.1 220.709 519.36 220.709C517.61 220.709 516.2 219.266 516.2 217.498C516.2 215.72 517.62 214.287 519.36 214.287C521.11 214.277 522.52 215.72 522.52 217.498Z" fill="#BFB5FF"/>
<path d="M468.04 128.981C468.04 130.759 466.62 132.192 464.88 132.192C463.14 132.192 461.72 130.749 461.72 128.981C461.72 127.202 463.14 125.77 464.88 125.77C466.62 125.77 468.04 127.202 468.04 128.981Z" fill="#BFB5FF"/>
<path d="M429.14 73.285C431.415 73.285 433.26 71.4106 433.26 69.0984C433.26 66.7863 431.415 64.9119 429.14 64.9119C426.865 64.9119 425.02 66.7863 425.02 69.0984C425.02 71.4106 426.865 73.285 429.14 73.285Z" fill="#BFB5FF"/>
<path d="M65.39 257.809C67.6654 257.809 69.51 255.935 69.51 253.623C69.51 251.31 67.6654 249.436 65.39 249.436C63.1146 249.436 61.27 251.31 61.27 253.623C61.27 255.935 63.1146 257.809 65.39 257.809Z" fill="#BFB5FF"/>
<path d="M119.53 87.8873C119.53 90.1939 117.69 92.0738 115.41 92.0738C113.14 92.0738 111.29 90.2041 111.29 87.8873C111.29 85.5704 113.13 83.7007 115.41 83.7007C117.69 83.7007 119.53 85.5806 119.53 87.8873Z" fill="#BFB5FF"/>
<path d="M55.45 308.536C55.45 311.554 53.04 314.003 50.07 314.003C47.1 314.003 44.69 311.554 44.69 308.536C44.69 305.518 47.1 303.069 50.07 303.069C53.05 303.079 55.45 305.518 55.45 308.536Z" fill="#BFB5FF"/>
</g>
<defs>
<linearGradient id="paint0_linear_1342_1166" x1="321.216" y1="298.628" x2="321.216" y2="420.634" gradientUnits="userSpaceOnUse">
<stop stop-color="#3237FF"/>
<stop offset="1" stop-color="#46DDF5"/>
</linearGradient>
<linearGradient id="paint1_linear_1342_1166" x1="400.758" y1="298.628" x2="400.758" y2="420.634" gradientUnits="userSpaceOnUse">
<stop stop-color="#3237FF"/>
<stop offset="1" stop-color="#46DDF5"/>
</linearGradient>
<linearGradient id="paint2_linear_1342_1166" x1="361.129" y1="298.628" x2="361.129" y2="420.634" gradientUnits="userSpaceOnUse">
<stop stop-color="#3237FF"/>
<stop offset="1" stop-color="#46DDF5"/>
</linearGradient>
<linearGradient id="paint3_linear_1342_1166" x1="107.289" y1="234.277" x2="107.054" y2="279.056" gradientUnits="userSpaceOnUse">
<stop stop-color="#DD24FF"/>
<stop offset="1" stop-color="#5B3EE3"/>
</linearGradient>
<linearGradient id="paint4_linear_1342_1166" x1="125.202" y1="234.371" x2="124.966" y2="279.151" gradientUnits="userSpaceOnUse">
<stop stop-color="#DD24FF"/>
<stop offset="1" stop-color="#5B3EE3"/>
</linearGradient>
<linearGradient id="paint5_linear_1342_1166" x1="116.145" y1="234.323" x2="115.91" y2="279.103" gradientUnits="userSpaceOnUse">
<stop stop-color="#DD24FF"/>
<stop offset="1" stop-color="#5B3EE3"/>
</linearGradient>
<linearGradient id="paint6_linear_1342_1166" x1="133.772" y1="209.555" x2="133.772" y2="221.875" gradientUnits="userSpaceOnUse">
<stop stop-color="#3237FF"/>
<stop offset="1" stop-color="#46DDF5"/>
</linearGradient>
<linearGradient id="paint7_linear_1342_1166" x1="99.6891" y1="209.642" x2="99.6891" y2="221.962" gradientUnits="userSpaceOnUse">
<stop stop-color="#3237FF"/>
<stop offset="1" stop-color="#46DDF5"/>
</linearGradient>
<linearGradient id="paint8_linear_1342_1166" x1="116.488" y1="208.938" x2="116.488" y2="222.713" gradientUnits="userSpaceOnUse">
<stop stop-color="#4D0094"/>
<stop offset="1" stop-color="#6A2678"/>
</linearGradient>
<linearGradient id="paint9_linear_1342_1166" x1="333.071" y1="165.292" x2="315.88" y2="188.131" gradientUnits="userSpaceOnUse">
<stop stop-color="#DD24FF"/>
<stop offset="1" stop-color="#E36DCC"/>
</linearGradient>
<linearGradient id="paint10_linear_1342_1166" x1="352.526" y1="199.247" x2="331.111" y2="176.487" gradientUnits="userSpaceOnUse">
<stop stop-color="#DD24FF"/>
<stop offset="1" stop-color="#E36DCC"/>
</linearGradient>
<linearGradient id="paint11_linear_1342_1166" x1="246.96" y1="182.796" x2="265.175" y2="174.042" gradientUnits="userSpaceOnUse">
<stop stop-color="#3237FF"/>
<stop offset="1" stop-color="#46DDF5"/>
</linearGradient>
<linearGradient id="paint12_linear_1342_1166" x1="232.985" y1="202.426" x2="236.051" y2="154.15" gradientUnits="userSpaceOnUse">
<stop stop-color="#3237FF"/>
<stop offset="1" stop-color="#46DDF5"/>
</linearGradient>
<linearGradient id="paint13_linear_1342_1166" x1="285.836" y1="160.229" x2="285.471" y2="229.664" gradientUnits="userSpaceOnUse">
<stop stop-color="#DD24FF"/>
<stop offset="1" stop-color="#5B3EE3"/>
</linearGradient>
<linearGradient id="paint14_linear_1342_1166" x1="241.799" y1="152.931" x2="255.964" y2="146.059" gradientUnits="userSpaceOnUse">
<stop stop-color="#7831FF"/>
<stop offset="1" stop-color="#446BF5"/>
</linearGradient>
<linearGradient id="paint15_linear_1342_1166" x1="326.566" y1="152.931" x2="312.402" y2="146.059" gradientUnits="userSpaceOnUse">
<stop stop-color="#B81EC9"/>
<stop offset="1" stop-color="#4C2DBF"/>
</linearGradient>
<clipPath id="clip0_1342_1166">
<rect width="535" height="481" fill="white"/>
</clipPath>
</defs>
</svg>
