<svg width="501" height="512" viewBox="0 0 501 512" fill="none" xmlns="http://www.w3.org/2000/svg">
<path opacity="0.3" d="M262.1 420.61H294.03L416.56 349.77L308.99 286.31L232.11 328.53L262.1 420.61Z" fill="#CFC4B8"/>
<path d="M144.98 322.62L150.69 319.3L158.43 323.77L152.72 327.09L144.98 322.62Z" fill="#E4E3EE"/>
<path d="M159.61 320.13L165.32 316.81L159.48 326.36L153.77 329.68L159.61 320.13Z" fill="#B7B6E3"/>
<path d="M173.12 325.95L178.83 322.63L178.82 324.61L173.11 327.93L173.12 325.95Z" fill="#919DD6"/>
<path d="M158.57 317.55L164.28 314.23L178.83 322.63L173.12 325.95L158.57 317.55Z" fill="#E4E3EE"/>
<path d="M173.12 325.95L173.11 327.93L159.61 320.13L153.77 329.68L144.97 324.6L144.98 322.62L152.72 327.09L158.57 317.55L173.12 325.95Z" fill="#919DD6"/>
<path d="M166.19 310.54L171.9 307.22L179.64 311.69L173.93 315.01L166.19 310.54Z" fill="#E4E3EE"/>
<path d="M180.82 308.05L186.53 304.73L180.69 314.28L174.98 317.6L180.82 308.05Z" fill="#B7B6E3"/>
<path d="M194.33 313.87L200.04 310.55L200.03 312.53L194.32 315.85L194.33 313.87Z" fill="#919DD6"/>
<path d="M179.77 305.47L185.48 302.15L200.04 310.55L194.33 313.87L179.77 305.47Z" fill="#E4E3EE"/>
<path d="M194.33 313.87L194.32 315.85L180.82 308.05L174.98 317.6L166.18 312.52L166.19 310.54L173.93 315.01L179.77 305.47L194.33 313.87Z" fill="#919DD6"/>
<path d="M186.5 298.44L192.21 295.12L199.95 299.59L194.24 302.91L186.5 298.44Z" fill="#E4E3EE"/>
<path d="M201.13 295.95L206.84 292.63L201 302.18L195.29 305.5L201.13 295.95Z" fill="#B7B6E3"/>
<path d="M214.64 301.77L220.35 298.45L220.34 300.43L214.63 303.75L214.64 301.77Z" fill="#919DD6"/>
<path d="M200.09 293.37L205.8 290.05L220.35 298.45L214.64 301.77L200.09 293.37Z" fill="#E4E3EE"/>
<path d="M214.64 301.77L214.63 303.75L201.13 295.95L195.29 305.5L186.49 300.42L186.5 298.44L194.24 302.91L200.09 293.37L214.64 301.77Z" fill="#919DD6"/>
<path d="M124.01 335.76L129.72 332.44L137.47 336.91L131.76 340.23L124.01 335.76Z" fill="#E4E3EE"/>
<path d="M138.64 333.27L144.35 329.95L138.51 339.5L132.8 342.82L138.64 333.27Z" fill="#B7B6E3"/>
<path d="M152.15 339.09L157.86 335.77V337.75L152.15 341.07V339.09Z" fill="#919DD6"/>
<path d="M137.6 330.68L143.31 327.37L157.86 335.77L152.15 339.09L137.6 330.68Z" fill="#E4E3EE"/>
<path d="M152.15 339.09V341.07L138.64 333.27L132.8 342.82L124.01 337.74V335.76L131.76 340.23L137.6 330.68L152.15 339.09Z" fill="#919DD6"/>
<path d="M209.08 285.68L214.79 282.36L222.53 286.83L216.82 290.15L209.08 285.68Z" fill="#E4E3EE"/>
<path d="M223.71 283.19L229.42 279.88L223.58 289.42L217.87 292.74L223.71 283.19Z" fill="#B7B6E3"/>
<path d="M237.22 289.01L242.93 285.69L242.92 287.67L237.21 290.99L237.22 289.01Z" fill="#919DD6"/>
<path d="M222.67 280.61L228.38 277.29L242.93 285.69L237.22 289.01L222.67 280.61Z" fill="#E4E3EE"/>
<path d="M237.22 289.01L237.21 290.99L223.71 283.19L217.87 292.74L209.07 287.66L209.08 285.68L216.82 290.15L222.67 280.61L237.22 289.01Z" fill="#919DD6"/>
<path d="M230.78 273.36L236.49 270.04L244.23 274.51L238.52 277.83L230.78 273.36Z" fill="#E4E3EE"/>
<path d="M245.41 270.87L251.12 267.55L245.28 277.1L239.57 280.42L245.41 270.87Z" fill="#B7B6E3"/>
<path d="M258.92 276.69L264.63 273.37L264.62 275.35L258.91 278.67L258.92 276.69Z" fill="#919DD6"/>
<path d="M244.37 268.29L250.08 264.97L264.63 273.37L258.92 276.69L244.37 268.29Z" fill="#E4E3EE"/>
<path d="M258.92 276.69L258.91 278.67L245.41 270.87L239.57 280.42L230.78 275.34V273.36L238.52 277.83L244.37 268.29L258.92 276.69Z" fill="#919DD6"/>
<path d="M377.42 322.91L371.71 319.59L363.97 324.07L369.68 327.38L377.42 322.91Z" fill="#E4E3EE"/>
<path d="M362.79 320.43L357.08 317.11L362.92 326.65L368.63 329.97L362.79 320.43Z" fill="#B7B6E3"/>
<path d="M349.28 326.24L343.57 322.93L343.58 324.9L349.29 328.22L349.28 326.24Z" fill="#919DD6"/>
<path d="M363.83 317.84L358.12 314.52L343.57 322.93L349.28 326.24L363.83 317.84Z" fill="#E4E3EE"/>
<path d="M349.28 326.24L349.29 328.22L362.79 320.43L368.63 329.97L377.43 324.9L377.42 322.91L369.68 327.38L363.83 317.84L349.28 326.24Z" fill="#919DD6"/>
<path d="M356.21 310.83L350.5 307.52L342.76 311.99L348.47 315.3L356.21 310.83Z" fill="#E4E3EE"/>
<path d="M341.58 308.35L335.87 305.03L341.71 314.57L347.42 317.89L341.58 308.35Z" fill="#B7B6E3"/>
<path d="M328.07 314.16L322.36 310.85L322.37 312.83L328.08 316.14L328.07 314.16Z" fill="#919DD6"/>
<path d="M342.63 305.76L336.92 302.44L322.36 310.85L328.07 314.16L342.63 305.76Z" fill="#E4E3EE"/>
<path d="M328.07 314.16L328.08 316.14L341.58 308.35L347.42 317.89L356.22 312.82L356.21 310.83L348.47 315.3L342.63 305.76L328.07 314.16Z" fill="#919DD6"/>
<path d="M335.9 298.73L330.19 295.42L322.45 299.89L328.16 303.21L335.9 298.73Z" fill="#E4E3EE"/>
<path d="M321.27 296.25L315.56 292.93L321.4 302.48L327.11 305.79L321.27 296.25Z" fill="#B7B6E3"/>
<path d="M307.76 302.07L302.05 298.75L302.06 300.73L307.77 304.04L307.76 302.07Z" fill="#919DD6"/>
<path d="M322.31 293.66L316.6 290.34L302.05 298.75L307.76 302.07L322.31 293.66Z" fill="#E4E3EE"/>
<path d="M307.76 302.07L307.77 304.04L321.27 296.25L327.11 305.79L335.9 300.72V298.73L328.16 303.21L322.31 293.66L307.76 302.07Z" fill="#919DD6"/>
<path d="M398.39 336.05L392.68 332.73L384.93 337.21L390.64 340.52L398.39 336.05Z" fill="#E4E3EE"/>
<path d="M383.76 333.57L378.05 330.25L383.89 339.79L389.6 343.11L383.76 333.57Z" fill="#B7B6E3"/>
<path d="M370.25 339.38L364.54 336.06V338.04L370.25 341.36V339.38Z" fill="#919DD6"/>
<path d="M384.8 330.98L379.09 327.66L364.54 336.06L370.25 339.38L384.8 330.98Z" fill="#E4E3EE"/>
<path d="M370.25 339.38V341.36L383.76 333.57L389.6 343.11L398.39 338.03V336.05L390.64 340.52L384.8 330.98L370.25 339.38Z" fill="#919DD6"/>
<path d="M313.32 285.98L307.61 282.66L299.87 287.13L305.58 290.45L313.32 285.98Z" fill="#E4E3EE"/>
<path d="M298.69 283.49L292.98 280.17L298.82 289.72L304.53 293.04L298.69 283.49Z" fill="#B7B6E3"/>
<path d="M285.18 289.31L279.47 285.99L279.48 287.97L285.19 291.29L285.18 289.31Z" fill="#919DD6"/>
<path d="M299.73 280.9L294.02 277.59L279.47 285.99L285.18 289.31L299.73 280.9Z" fill="#E4E3EE"/>
<path d="M285.18 289.31L285.19 291.29L298.69 283.49L304.53 293.04L313.33 287.96L313.32 285.98L305.58 290.45L299.73 280.9L285.18 289.31Z" fill="#919DD6"/>
<path d="M291.62 273.65L285.91 270.34L278.17 274.81L283.88 278.13L291.62 273.65Z" fill="#E4E3EE"/>
<path d="M276.99 271.17L271.28 267.85L277.12 277.4L282.83 280.71L276.99 271.17Z" fill="#B7B6E3"/>
<path d="M263.48 276.98L257.77 273.67V275.65L263.48 278.96V276.98Z" fill="#919DD6"/>
<path d="M278.03 268.58L272.32 265.26L257.77 273.67L263.48 276.98L278.03 268.58Z" fill="#E4E3EE"/>
<path d="M263.48 276.98V278.96L276.99 271.17L282.83 280.71L291.62 275.64V273.65L283.88 278.13L278.03 268.58L263.48 276.98Z" fill="#919DD6"/>
<path d="M384.52 335.82L384.48 349.49L262.1 420.61L262.14 406.93L384.52 335.82Z" fill="#12B0F3"/>
<path d="M262.14 406.93L262.1 420.61L138.93 349.49L138.97 335.82L262.14 406.93Z" fill="#1393F2"/>
<path d="M384.52 335.82L262.14 406.93L138.97 335.82L261.34 264.7L384.52 335.82Z" fill="#05D4F5"/>
<path d="M355.18 332.35L355.17 339.19L262.02 393.32L262.04 386.48L355.18 332.35Z" fill="#D4D5F0"/>
<path d="M262.04 386.48L262.02 393.32L168.26 339.19L168.28 332.35L262.04 386.48Z" fill="#C4C3EC"/>
<path d="M355.18 332.35L262.04 386.48L168.28 332.35L261.43 278.22L355.18 332.35Z" fill="white"/>
<path d="M128.92 371.09L123.21 367.77L128.98 351.52L134.69 354.84L128.92 371.09Z" fill="#C4C3EC"/>
<path d="M134.69 354.84L128.98 351.52L143.53 343.12L149.24 346.44L134.69 354.84Z" fill="#E4E3EE"/>
<path d="M121.17 375.56L115.46 372.24L123.21 367.77L128.92 371.09L121.17 375.56Z" fill="#E4E3EE"/>
<path d="M121.18 377.54L115.47 374.22L115.46 372.24L121.17 375.56L121.18 377.54Z" fill="#B7B6E3"/>
<path d="M149.24 346.44L149.25 348.42L135.74 356.22L129.98 372.46L121.18 377.54L121.17 375.56L128.92 371.09L134.69 354.84L149.24 346.44Z" fill="#919DD6"/>
<path d="M150.39 383.38L144.68 380.06L150.45 363.81L156.16 367.13L150.39 383.38Z" fill="#C4C3EC"/>
<path d="M156.16 367.13L150.45 363.81L165 355.41L170.71 358.73L156.16 367.13Z" fill="#E4E3EE"/>
<path d="M142.64 387.85L136.93 384.53L144.68 380.06L150.39 383.38L142.64 387.85Z" fill="#E4E3EE"/>
<path d="M142.65 389.83L136.94 386.51L136.93 384.53L142.64 387.85L142.65 389.83Z" fill="#B7B6E3"/>
<path d="M170.71 358.73L170.72 360.71L157.21 368.5L151.45 384.75L142.65 389.83L142.64 387.85L150.39 383.38L156.16 367.13L170.71 358.73Z" fill="#919DD6"/>
<path d="M171.69 395.79L165.98 392.47L171.75 376.23L177.46 379.54L171.69 395.79Z" fill="#C4C3EC"/>
<path d="M177.46 379.54L171.75 376.23L186.3 367.82L192.01 371.14L177.46 379.54Z" fill="#E4E3EE"/>
<path d="M163.94 400.26L158.23 396.95L165.98 392.47L171.69 395.79L163.94 400.26Z" fill="#E4E3EE"/>
<path d="M163.95 402.24L158.24 398.93L158.23 396.95L163.94 400.26L163.95 402.24Z" fill="#B7B6E3"/>
<path d="M192.01 371.14L192.02 373.12L178.51 380.92L172.74 397.17L163.95 402.24L163.94 400.26L171.69 395.79L177.46 379.54L192.01 371.14Z" fill="#919DD6"/>
<path d="M192.98 408.12L187.27 404.8L193.04 388.55L198.75 391.87L192.98 408.12Z" fill="#C4C3EC"/>
<path d="M198.75 391.87L193.04 388.55L207.59 380.15L213.3 383.47L198.75 391.87Z" fill="#E4E3EE"/>
<path d="M185.23 412.59L179.52 409.27L187.27 404.8L192.98 408.12L185.23 412.59Z" fill="#E4E3EE"/>
<path d="M185.24 414.57L179.53 411.25L179.52 409.27L185.23 412.59L185.24 414.57Z" fill="#B7B6E3"/>
<path d="M213.3 383.47L213.31 385.45L199.8 393.24L194.03 409.49L185.24 414.57L185.23 412.59L192.98 408.12L198.75 391.87L213.3 383.47Z" fill="#919DD6"/>
<path d="M214.54 420.36L208.83 417.04L214.6 400.79L220.31 404.11L214.54 420.36Z" fill="#C4C3EC"/>
<path d="M220.31 404.11L214.6 400.79L229.15 392.39L234.86 395.71L220.31 404.11Z" fill="#E4E3EE"/>
<path d="M206.79 424.83L201.08 421.51L208.83 417.04L214.54 420.36L206.79 424.83Z" fill="#E4E3EE"/>
<path d="M206.8 426.81L201.09 423.49L201.08 421.51L206.79 424.83L206.8 426.81Z" fill="#B7B6E3"/>
<path d="M234.86 395.71L234.87 397.69L221.36 405.48L215.6 421.73L206.8 426.81L206.79 424.83L214.54 420.36L220.31 404.11L234.86 395.71Z" fill="#919DD6"/>
<path d="M235.69 432.7L229.98 429.38L235.75 413.14L241.46 416.46L235.69 432.7Z" fill="#C4C3EC"/>
<path d="M241.46 416.46L235.75 413.14L250.3 404.73L256.01 408.05L241.46 416.46Z" fill="#E4E3EE"/>
<path d="M227.94 437.18L222.23 433.86L229.98 429.38L235.69 432.7L227.94 437.18Z" fill="#E4E3EE"/>
<path d="M227.95 439.16L222.24 435.84L222.23 433.86L227.94 437.18L227.95 439.16Z" fill="#B7B6E3"/>
<path d="M256.01 408.05L256.02 410.03L242.51 417.83L236.74 434.08L227.95 439.16L227.94 437.18L235.69 432.7L241.46 416.46L256.01 408.05Z" fill="#919DD6"/>
<path d="M394.99 371.31L400.7 367.99L394.93 351.75L389.22 355.07L394.99 371.31Z" fill="#C4C3EC"/>
<path d="M389.22 355.07L394.93 351.75L380.37 343.34L374.66 346.66L389.22 355.07Z" fill="#E4E3EE"/>
<path d="M402.73 375.78L408.44 372.47L400.7 367.99L394.99 371.31L402.73 375.78Z" fill="#E4E3EE"/>
<path d="M402.73 377.77L408.44 374.45V372.47L402.73 375.78V377.77Z" fill="#B7B6E3"/>
<path d="M374.66 346.66V348.64L388.16 356.44L393.93 372.69L402.73 377.77V375.78L394.99 371.31L389.22 355.07L374.66 346.66Z" fill="#919DD6"/>
<path d="M373.52 383.6L379.23 380.28L373.46 364.03L367.75 367.35L373.52 383.6Z" fill="#C4C3EC"/>
<path d="M367.75 367.35L373.46 364.03L358.9 355.63L353.2 358.95L367.75 367.35Z" fill="#E4E3EE"/>
<path d="M381.26 388.07L386.97 384.75L379.23 380.28L373.52 383.6L381.26 388.07Z" fill="#E4E3EE"/>
<path d="M381.26 390.05L386.97 386.74V384.75L381.26 388.07V390.05Z" fill="#B7B6E3"/>
<path d="M353.2 358.95L353.19 360.93L366.7 368.73L372.46 384.98L381.26 390.05V388.07L373.52 383.6L367.75 367.35L353.2 358.95Z" fill="#919DD6"/>
<path d="M352.22 396.02L357.93 392.7L352.16 376.45L346.45 379.77L352.22 396.02Z" fill="#C4C3EC"/>
<path d="M346.45 379.77L352.16 376.45L337.61 368.05L331.9 371.37L346.45 379.77Z" fill="#E4E3EE"/>
<path d="M359.97 400.49L365.68 397.17L357.93 392.7L352.22 396.02L359.97 400.49Z" fill="#E4E3EE"/>
<path d="M359.96 402.47L365.67 399.15L365.68 397.17L359.97 400.49L359.96 402.47Z" fill="#B7B6E3"/>
<path d="M331.9 371.37L331.89 373.35L345.4 381.14L351.16 397.39L359.96 402.47L359.97 400.49L352.22 396.02L346.45 379.77L331.9 371.37Z" fill="#919DD6"/>
<path d="M330.93 408.34L336.64 405.02L330.87 388.78L325.16 392.09L330.93 408.34Z" fill="#C4C3EC"/>
<path d="M325.16 392.09L330.87 388.78L316.32 380.37L310.61 383.69L325.16 392.09Z" fill="#E4E3EE"/>
<path d="M338.67 412.81L344.38 409.49L336.64 405.02L330.93 408.34L338.67 412.81Z" fill="#E4E3EE"/>
<path d="M338.67 414.8L344.38 411.48V409.49L338.67 412.81V414.8Z" fill="#B7B6E3"/>
<path d="M310.61 383.69L310.6 385.67L324.11 393.47L329.87 409.72L338.67 414.8V412.81L330.93 408.34L325.16 392.09L310.61 383.69Z" fill="#919DD6"/>
<path d="M309.37 420.58L315.08 417.26L309.31 401.02L303.6 404.33L309.37 420.58Z" fill="#C4C3EC"/>
<path d="M303.6 404.33L309.31 401.02L294.75 392.61L289.04 395.93L303.6 404.33Z" fill="#E4E3EE"/>
<path d="M317.11 425.05L322.82 421.74L315.08 417.26L309.37 420.58L317.11 425.05Z" fill="#E4E3EE"/>
<path d="M317.11 427.04L322.82 423.72V421.74L317.11 425.05V427.04Z" fill="#B7B6E3"/>
<path d="M289.04 395.93V397.91L302.54 405.71L308.31 421.96L317.11 427.04V425.05L309.37 420.58L303.6 404.33L289.04 395.93Z" fill="#919DD6"/>
<path d="M288.22 432.93L293.93 429.61L288.16 413.36L282.45 416.68L288.22 432.93Z" fill="#C4C3EC"/>
<path d="M282.45 416.68L288.16 413.36L273.61 404.96L267.9 408.28L282.45 416.68Z" fill="#E4E3EE"/>
<path d="M295.97 437.4L301.68 434.08L293.93 429.61L288.22 432.93L295.97 437.4Z" fill="#E4E3EE"/>
<path d="M295.96 439.38L301.67 436.06L301.68 434.08L295.97 437.4L295.96 439.38Z" fill="#B7B6E3"/>
<path d="M267.9 408.28L267.89 410.26L281.4 418.06L287.16 434.3L295.96 439.38L295.97 437.4L288.22 432.93L282.45 416.68L267.9 408.28Z" fill="#919DD6"/>
<path d="M200.62 332.35L205.2 334.99L261.53 367.52V296.95L200.62 332.35Z" fill="#D4D5F0"/>
<path d="M261.53 296.95V367.52L261.93 367.75L318.27 335.01L322.85 332.35L261.53 296.95Z" fill="#C4C3EC"/>
<path d="M318.27 335.01L261.93 367.75L205.2 334.99L261.53 302.25L318.27 335.01Z" fill="#05D4F5"/>
<path d="M318.27 335.01L261.93 367.75L205.2 334.99L261.53 302.25L318.27 335.01Z" fill="#05D4F5"/>
<path d="M292.19 330.13L292.18 333.55L285.49 337.43L285.5 334.01L292.19 330.13Z" fill="#D4D5F0"/>
<path d="M285.5 334.01L285.49 337.43L255.61 320.17L255.62 316.76L285.5 334.01Z" fill="#C4C3EC"/>
<path d="M292.19 330.13L285.5 334.01L255.62 316.76L262.3 312.87L292.19 330.13Z" fill="#EEEFF2"/>
<path d="M258.93 335.76L258.92 339.18C257.17 338.7 255.49 338.24 253.88 337.8C252.27 337.37 250.79 336.98 249.43 336.63C248.07 336.29 246.87 335.99 245.83 335.72C244.79 335.46 243.98 335.26 243.37 335.11L243.38 331.69C243.98 331.83 244.8 332.03 245.84 332.3C246.87 332.56 248.07 332.87 249.44 333.21C250.8 333.55 252.29 333.94 253.89 334.38C255.5 334.82 257.17 335.28 258.93 335.76Z" fill="#1393F2"/>
<mask id="mask0_1343_1401" style="mask-type:luminance" maskUnits="userSpaceOnUse" x="243" y="331" width="16" height="9">
<path d="M258.93 335.76L258.92 339.18C257.17 338.7 255.49 338.24 253.88 337.8C252.27 337.37 250.79 336.98 249.43 336.63C248.07 336.29 246.87 335.99 245.83 335.72C244.79 335.46 243.98 335.26 243.37 335.11L243.38 331.69C243.98 331.83 244.8 332.03 245.84 332.3C246.87 332.56 248.07 332.87 249.44 333.21C250.8 333.55 252.29 333.94 253.89 334.38C255.5 334.82 257.17 335.28 258.93 335.76Z" fill="white"/>
</mask>
<g mask="url(#mask0_1343_1401)">
<path d="M258.93 335.76L258.92 339.18C257.17 338.7 255.49 338.24 253.88 337.8C252.27 337.37 250.79 336.98 249.43 336.63C248.07 336.29 246.87 335.99 245.83 335.72C244.79 335.46 243.98 335.26 243.37 335.11L243.38 331.69C243.98 331.83 244.8 332.03 245.84 332.3C246.87 332.56 248.07 332.87 249.44 333.21C250.8 333.55 252.29 333.94 253.89 334.38C255.5 334.82 257.17 335.28 258.93 335.76Z" fill="#C4C3EC"/>
</g>
<path d="M270.27 339.16L270.26 342.58C268.78 342.17 267.31 341.76 265.85 341.35L265.86 337.93C267.32 338.34 268.79 338.75 270.27 339.16Z" fill="#1393F2"/>
<mask id="mask1_1343_1401" style="mask-type:luminance" maskUnits="userSpaceOnUse" x="265" y="337" width="6" height="6">
<path d="M270.27 339.16L270.26 342.58C268.78 342.17 267.31 341.76 265.85 341.35L265.86 337.93C267.32 338.34 268.79 338.75 270.27 339.16Z" fill="white"/>
</mask>
<g mask="url(#mask1_1343_1401)">
<path d="M270.27 339.16L270.26 342.58C268.78 342.17 267.31 341.76 265.85 341.35L265.86 337.93C267.32 338.34 268.79 338.75 270.27 339.16Z" fill="#C4C3EC"/>
</g>
<path d="M274.53 340.39L274.52 343.81C273.15 343.4 271.73 342.99 270.26 342.58L270.27 339.16C271.74 339.57 273.16 339.98 274.53 340.39Z" fill="#1393F2"/>
<mask id="mask2_1343_1401" style="mask-type:luminance" maskUnits="userSpaceOnUse" x="270" y="339" width="5" height="5">
<path d="M274.53 340.39L274.52 343.81C273.15 343.4 271.73 342.99 270.26 342.58L270.27 339.16C271.74 339.57 273.16 339.98 274.53 340.39Z" fill="white"/>
</mask>
<g mask="url(#mask2_1343_1401)">
<path d="M274.53 340.39L274.52 343.81C273.15 343.4 271.73 342.99 270.26 342.58L270.27 339.16C271.74 339.57 273.16 339.98 274.53 340.39Z" fill="#C4C3EC"/>
</g>
<path d="M281.69 336.23L281.68 339.65L274.52 343.81L274.53 340.39L281.69 336.23Z" fill="#D4D5F0"/>
<path d="M265.86 337.93L265.85 341.35L254.25 348.09L254.26 344.67L265.86 337.93Z" fill="#D4D5F0"/>
<path d="M251.61 353.71L251.6 357.13C249.5 354.62 247.58 352.29 245.85 350.13C244.12 347.97 242.52 345.91 241.07 343.96C239.61 342.01 238.27 340.13 237.03 338.34C235.79 336.55 234.64 334.76 233.57 332.98L233.58 329.56C234.65 331.34 235.8 333.12 237.04 334.92C238.28 336.72 239.63 338.59 241.08 340.54C242.53 342.49 244.13 344.55 245.86 346.71C247.59 348.87 249.51 351.2 251.61 353.71Z" fill="#1393F2"/>
<mask id="mask3_1343_1401" style="mask-type:luminance" maskUnits="userSpaceOnUse" x="233" y="329" width="19" height="29">
<path d="M251.61 353.71L251.6 357.13C249.5 354.62 247.58 352.29 245.85 350.13C244.12 347.97 242.52 345.91 241.07 343.96C239.61 342.01 238.27 340.13 237.03 338.34C235.79 336.55 234.64 334.76 233.57 332.98L233.58 329.56C234.65 331.34 235.8 333.12 237.04 334.92C238.28 336.72 239.63 338.59 241.08 340.54C242.53 342.49 244.13 344.55 245.86 346.71C247.59 348.87 249.51 351.2 251.61 353.71Z" fill="white"/>
</mask>
<g mask="url(#mask3_1343_1401)">
<path d="M251.61 353.71L251.6 357.13C249.5 354.62 247.58 352.29 245.85 350.13C244.12 347.97 242.52 345.91 241.07 343.96C239.61 342.01 238.27 340.13 237.03 338.34C235.79 336.55 234.64 334.76 233.57 332.98L233.58 329.56C234.65 331.34 235.8 333.12 237.04 334.92C238.28 336.72 239.63 338.59 241.08 340.54C242.53 342.49 244.13 344.55 245.86 346.71C247.59 348.87 249.51 351.2 251.61 353.71Z" fill="#C4C3EC"/>
</g>
<path d="M258.55 349.68L258.54 353.09L251.6 357.13L251.61 353.71L258.55 349.68Z" fill="#D4D5F0"/>
<path d="M270.27 339.16C268.79 338.75 267.32 338.34 265.86 337.93L254.26 344.67C254.97 345.52 255.69 346.37 256.41 347.22C257.13 348.07 257.84 348.89 258.55 349.67L251.61 353.7C249.51 351.19 247.59 348.86 245.86 346.7C244.13 344.54 242.53 342.48 241.08 340.53C239.62 338.58 238.28 336.7 237.04 334.91C235.8 333.12 234.65 331.33 233.58 329.55L239.92 325.87C242.97 326.5 246.05 327.16 249.16 327.87C252.28 328.57 255.53 329.34 258.91 330.18C262.28 331.01 265.84 331.93 269.58 332.92C273.32 333.91 277.35 335.01 281.69 336.22L274.53 340.38C273.16 339.98 271.74 339.57 270.27 339.16ZM250.43 340.7L258.92 335.77C257.17 335.29 255.49 334.83 253.88 334.39C252.27 333.96 250.79 333.57 249.43 333.22C248.07 332.88 246.87 332.58 245.83 332.31C244.79 332.05 243.98 331.85 243.37 331.7C243.65 332.04 244.03 332.51 244.49 333.1C244.95 333.7 245.49 334.39 246.1 335.16C246.71 335.94 247.38 336.8 248.1 337.74C248.84 338.7 249.61 339.68 250.43 340.7Z" fill="#EEEFF2"/>
<path d="M262.39 474.62L59.92 357.72L261.09 240.81L463.57 357.71L262.39 474.62ZM65.29 357.71L262.39 471.5L458.19 357.71L261.09 243.92L65.29 357.71Z" fill="#05D4F5"/>
<path d="M91.32 374.29L76.35 382.93C76.13 383.06 75.86 383.06 75.64 382.93L60.29 374.07L10.46 402.84L5.82 405.52C5.71 405.59 5.59 405.61 5.47 405.61C5.22 405.61 4.99 405.48 4.86 405.26C4.67 404.92 4.78 404.49 5.12 404.29L9.04 402.03L59.96 372.63C60.18 372.51 60.45 372.51 60.67 372.63L76.02 381.49L89.93 373.46L91.32 374.29Z" fill="#05D4F5"/>
<path d="M212.04 442.63L209.68 443.99L196.06 451.86C195.84 451.99 195.57 451.99 195.35 451.86L180 443L160.62 454.19L159.2 455L129.76 472L125.52 474.45C125.41 474.52 125.29 474.54 125.17 474.54C124.92 474.54 124.69 474.41 124.56 474.19C124.37 473.85 124.48 473.42 124.82 473.22L128.6 471.04L157.79 454.18L159.21 453.36L179.65 441.56C179.87 441.43 180.14 441.43 180.36 441.56L195.71 450.42L208.27 443.17L210.64 441.8L212.04 442.63Z" fill="#05D4F5"/>
<path d="M165.45 415.73L163.08 417.1L149.84 424.75C149.62 424.87 149.35 424.87 149.13 424.75L133.78 415.89L114.03 427.29L112.61 428.11L84.31 444.45L79.3 447.34C79.19 447.4 79.06 447.43 78.95 447.43C78.7 447.43 78.47 447.3 78.34 447.08C78.15 446.74 78.26 446.3 78.6 446.11L83.18 443.47L111.2 427.29L112.62 426.47L133.44 414.45C133.66 414.32 133.93 414.32 134.15 414.45L149.5 423.31L161.68 416.28L164.05 414.91L165.45 415.73Z" fill="#05D4F5"/>
<path d="M128.29 394.27L125.92 395.64L75.85 424.55L72.08 426.73C71.97 426.8 71.84 426.83 71.73 426.83C71.48 426.83 71.25 426.7 71.11 426.48C70.91 426.14 71.03 425.71 71.37 425.51L74.5 423.7L124.5 394.83L126.87 393.46L128.29 394.27Z" fill="#05D4F5"/>
<path d="M229.17 452.52L226.8 453.88L177.42 482.39L173.6 484.59C173.49 484.65 173.36 484.68 173.25 484.68C173 484.68 172.77 484.55 172.64 484.33C172.44 483.99 172.56 483.55 172.9 483.36L175.99 481.58L225.38 453.06L227.74 451.69L229.17 452.52Z" fill="#05D4F5"/>
<path d="M181.39 424.93L179.02 426.3L145.67 445.56L144.25 446.38L129.13 455.12C129.13 455.12 129.13 455.12 129.12 455.12L125.16 457.4C125.05 457.47 124.93 457.49 124.81 457.49C124.56 457.49 124.33 457.37 124.2 457.14C124.01 456.8 124.12 456.37 124.46 456.18L127.74 454.29L142.84 445.57L144.25 444.75L177.6 425.49L179.96 424.12L181.39 424.93Z" fill="#05D4F5"/>
<path d="M180.66 465.75L161.95 476.55L156.73 479.57L156.02 478.34L160.72 475.63L177.82 465.75L159.2 455L157.78 454.18L144.25 446.37L142.84 445.55L112.61 428.1L111.19 427.28L98.9 420.18L133.42 399.97L135.77 398.6L137.19 399.41L134.84 400.79L101.72 420.18L112.61 426.46L114.03 427.28L144.25 444.74L145.67 445.55L159.2 453.36L160.62 454.18L180.66 465.75Z" fill="#05D4F5"/>
<path d="M9.85 402.43C11.96 403.65 11.96 405.63 9.85 406.85C7.74 408.07 4.31 408.07 2.2 406.85C0.0900004 405.63 0.0900004 403.65 2.2 402.43C4.32 401.21 7.74 401.21 9.85 402.43Z" fill="#05D4F5"/>
<path d="M102.78 400.31C102.78 400.57 102.65 400.8 102.43 400.92L59.52 425.7L55.59 427.97C55.48 428.04 55.36 428.06 55.24 428.06C54.99 428.06 54.76 427.94 54.62 427.71C54.43 427.37 54.54 426.94 54.88 426.75L58.14 424.87L100.65 400.32L84.87 391.21C84.65 391.09 84.52 390.85 84.52 390.6C84.52 390.34 84.65 390.11 84.87 389.99L100.48 380.97L102.84 379.6L104.26 380.42L101.89 381.79L86.63 390.6L102.41 399.71C102.65 399.82 102.78 400.06 102.78 400.31Z" fill="#05D4F5"/>
<path d="M58.79 425.17C60.9 426.39 60.9 428.37 58.79 429.59C56.68 430.81 53.25 430.81 51.14 429.59C49.03 428.37 49.03 426.39 51.14 425.17C53.25 423.95 56.68 423.95 58.79 425.17Z" fill="#05D4F5"/>
<path d="M238.42 477.65C238.42 477.9 238.29 478.14 238.07 478.27L196.28 502.4L191.23 505.31C191.12 505.37 191 505.41 190.88 505.41C190.64 505.41 190.4 505.28 190.27 505.06C190.08 504.72 190.19 504.28 190.53 504.09L194.92 501.55L236.3 477.66L220.52 468.55C220.3 468.42 220.17 468.19 220.17 467.94C220.17 467.69 220.31 467.45 220.52 467.32L235.3 458.79L237.67 457.43L239.08 458.25L236.71 459.61L222.29 467.94L238.07 477.05C238.28 477.17 238.42 477.4 238.42 477.65Z" fill="#05D4F5"/>
<path d="M195.51 501.84C197.62 503.06 197.62 505.04 195.51 506.26C193.4 507.48 189.97 507.48 187.86 506.26C185.75 505.04 185.75 503.06 187.86 501.84C189.97 500.62 193.4 500.62 195.51 501.84Z" fill="#05D4F5"/>
<path d="M75.04 423.95C77.15 425.17 77.15 427.15 75.04 428.37C72.93 429.59 69.5 429.59 67.39 428.37C65.28 427.15 65.28 425.17 67.39 423.95C69.5 422.74 72.92 422.74 75.04 423.95Z" fill="#05D4F5"/>
<path d="M83.16 443.45C85.27 444.67 85.27 446.65 83.16 447.87C81.05 449.09 77.62 449.09 75.51 447.87C73.4 446.65 73.4 444.67 75.51 443.45C77.62 442.23 81.05 442.23 83.16 443.45Z" fill="#05D4F5"/>
<path d="M128.44 454.62C130.55 455.84 130.55 457.82 128.44 459.04C126.33 460.26 122.9 460.26 120.79 459.04C118.68 457.82 118.68 455.84 120.79 454.62C122.9 453.4 126.33 453.4 128.44 454.62Z" fill="#05D4F5"/>
<path d="M128.64 471.06C130.75 472.28 130.75 474.26 128.64 475.48C126.53 476.7 123.1 476.7 120.99 475.48C118.88 474.26 118.88 472.28 120.99 471.06C123.11 469.84 126.53 469.84 128.64 471.06Z" fill="#05D4F5"/>
<path d="M160.93 475.73C163.04 476.95 163.04 478.93 160.93 480.15C158.82 481.37 155.39 481.37 153.28 480.15C151.17 478.93 151.17 476.95 153.28 475.73C155.39 474.51 158.82 474.51 160.93 475.73Z" fill="#05D4F5"/>
<path d="M176.83 481.98C178.94 483.2 178.94 485.18 176.83 486.4C174.72 487.62 171.29 487.62 169.18 486.4C167.07 485.18 167.07 483.2 169.18 481.98C171.29 480.76 174.72 480.76 176.83 481.98Z" fill="#05D4F5"/>
<path d="M474.72 423.18C474.59 423.41 474.35 423.53 474.1 423.53C473.98 423.53 473.86 423.5 473.75 423.44L469.44 420.95L426.92 396.4C426.7 396.27 426.57 396.04 426.57 395.78C426.57 395.52 426.7 395.29 426.92 395.16L442.7 386.05L428.54 377.87L426.18 376.51L427.59 375.69L429.95 377.05L444.47 385.44C444.69 385.57 444.82 385.8 444.82 386.05C444.82 386.31 444.69 386.54 444.47 386.67L428.69 395.78L471.03 420.22L474.46 422.2C474.8 422.41 474.91 422.84 474.72 423.18Z" fill="#05D4F5"/>
<path d="M327.84 508.19C327.71 508.42 327.47 508.54 327.23 508.54C327.11 508.54 326.99 508.51 326.88 508.45L322.7 506.04L280.05 481.41C279.83 481.28 279.7 481.05 279.7 480.79C279.7 480.53 279.84 480.3 280.05 480.18L295.83 471.07L281.96 463.06L279.6 461.7L281.01 460.88L283.37 462.24L297.6 470.46C297.82 470.59 297.95 470.82 297.95 471.07C297.95 471.32 297.82 471.56 297.6 471.69L281.82 480.8L324.35 505.36L327.59 507.23C327.92 507.42 328.04 507.85 327.84 508.19Z" fill="#05D4F5"/>
<path d="M400.26 462.54C400.13 462.77 399.89 462.89 399.64 462.89C399.52 462.89 399.39 462.86 399.29 462.8L395.37 460.53L363.1 441.9C362.88 441.77 362.75 441.54 362.75 441.29C362.75 441.03 362.88 440.8 363.1 440.67L375.07 433.76L364.29 427.42L362.88 426.59L353.85 421.27L351.51 419.89L352.92 419.07L355.26 420.45L364.3 425.77L365.7 426.6L376.83 433.15C377.05 433.28 377.18 433.51 377.18 433.77C377.17 434.03 377.04 434.26 376.83 434.39L364.87 441.29L397.29 460.01L400 461.58C400.33 461.77 400.45 462.2 400.26 462.54Z" fill="#05D4F5"/>
<path d="M458.87 460.66C458.74 460.89 458.5 461.01 458.26 461.01C458.14 461.01 458.02 460.98 457.91 460.91L453.73 458.5L394.89 424.53C394.67 424.4 394.54 424.17 394.54 423.92C394.54 423.67 394.67 423.43 394.89 423.31L416.5 410.84L394.1 397.9L391.74 396.54L393.15 395.72L395.51 397.08L418.28 410.22C418.5 410.35 418.63 410.58 418.63 410.84C418.63 411.1 418.49 411.33 418.28 411.45L396.67 423.92L455.38 457.82L458.62 459.69C458.95 459.89 459.07 460.32 458.87 460.66Z" fill="#05D4F5"/>
<path d="M395.73 478.41C395.6 478.64 395.36 478.76 395.12 478.76C395 478.76 394.88 478.73 394.77 478.67L391.18 476.6L349.53 452.55L326.55 465.82C326.33 465.95 326.06 465.95 325.84 465.82L301.45 451.73L299.09 450.37L300.5 449.55L302.86 450.91L326.2 464.38L349.18 451.11C349.4 450.98 349.67 450.98 349.89 451.11L392.61 475.77L395.49 477.43C395.81 477.64 395.93 478.07 395.73 478.41Z" fill="#05D4F5"/>
<path d="M458.23 421.94C458.1 422.17 457.86 422.29 457.62 422.29C457.5 422.29 457.38 422.26 457.27 422.2L453.22 419.86L404.6 391.79L402.24 390.42L403.65 389.6L406.01 390.96L454.74 419.09L457.98 420.96C458.31 421.17 458.43 421.6 458.23 421.94Z" fill="#05D4F5"/>
<path d="M495.81 399.93C495.68 400.16 495.44 400.28 495.2 400.28C495.08 400.28 494.96 400.25 494.85 400.18L490.39 397.61L442.33 369.86L439.96 368.5L441.37 367.68L443.74 369.04L491.75 396.76L495.55 398.95C495.89 399.15 496 399.59 495.81 399.93Z" fill="#05D4F5"/>
<path d="M414.56 446.79C414.43 447.02 414.19 447.14 413.94 447.14C413.82 447.14 413.69 447.11 413.59 447.04L409.2 444.5L371.94 422.99L370.52 422.17L361.38 416.89L359.02 415.53L360.43 414.71L362.79 416.07L371.94 421.35L373.36 422.17L410.48 443.6L414.3 445.8C414.63 446.02 414.75 446.45 414.56 446.79Z" fill="#05D4F5"/>
<path d="M344.04 487.9C343.91 488.13 343.67 488.25 343.43 488.25C343.31 488.25 343.19 488.22 343.08 488.16L339 485.8C338.99 485.79 338.99 485.8 338.99 485.8L290.75 457.95L288.39 456.59L289.8 455.77L292.16 457.13L340.51 485.04L343.78 486.93C344.12 487.13 344.24 487.57 344.04 487.9Z" fill="#05D4F5"/>
<path d="M396.07 409.08L373.36 422.19L371.94 423.01L365.7 426.61L364.28 427.43L335.81 443.86L331.56 446.32L330.85 445.09L334.64 442.9L362.88 426.6L364.29 425.78L370.52 422.19L371.94 421.36L393.23 409.08L384.01 403.76L381.65 402.39L383.06 401.57L385.42 402.93L396.07 409.08Z" fill="#05D4F5"/>
<path d="M330.45 505.97C332.56 507.19 332.56 509.17 330.45 510.39C328.34 511.61 324.91 511.61 322.8 510.39C320.69 509.17 320.69 507.19 322.8 505.97C324.91 504.75 328.33 504.75 330.45 505.97Z" fill="#05D4F5"/>
<path d="M347.06 485.53C349.17 486.75 349.17 488.73 347.06 489.95C344.95 491.17 341.52 491.17 339.41 489.95C337.3 488.73 337.3 486.75 339.41 485.53C341.52 484.31 344.94 484.31 347.06 485.53Z" fill="#05D4F5"/>
<path d="M334.7 442.94C336.81 444.16 336.81 446.14 334.7 447.36C332.59 448.58 329.16 448.58 327.05 447.36C324.94 446.14 324.94 444.16 327.05 442.94C329.17 441.72 332.59 441.72 334.7 442.94Z" fill="#05D4F5"/>
<path d="M399.44 476.16C401.55 477.38 401.55 479.36 399.44 480.58C397.33 481.8 393.9 481.8 391.79 480.58C389.68 479.36 389.68 477.38 391.79 476.16C393.91 474.94 397.33 474.94 399.44 476.16Z" fill="#05D4F5"/>
<path d="M402.43 460.83C404.54 462.05 404.54 464.03 402.43 465.25C400.32 466.47 396.89 466.47 394.78 465.25C392.67 464.03 392.67 462.05 394.78 460.83C396.89 459.61 400.31 459.61 402.43 460.83Z" fill="#05D4F5"/>
<path d="M417.77 443.81C419.88 445.03 419.88 447.01 417.77 448.23C415.66 449.45 412.23 449.45 410.12 448.23C408.01 447.01 408.01 445.03 410.12 443.81C412.23 442.59 415.66 442.59 417.77 443.81Z" fill="#05D4F5"/>
<path d="M461.52 458.43C463.63 459.65 463.63 461.63 461.52 462.85C459.41 464.07 455.98 464.07 453.87 462.85C451.76 461.63 451.76 459.65 453.87 458.43C455.98 457.21 459.41 457.21 461.52 458.43Z" fill="#05D4F5"/>
<path d="M457.45 424.92C460.438 424.92 462.86 423.523 462.86 421.8C462.86 420.077 460.438 418.68 457.45 418.68C454.462 418.68 452.04 420.077 452.04 421.8C452.04 423.523 454.462 424.92 457.45 424.92Z" fill="#05D4F5"/>
<path d="M477.34 420.79C479.45 422.01 479.45 423.99 477.34 425.21C475.23 426.43 471.8 426.43 469.69 425.21C467.58 423.99 467.58 422.01 469.69 420.79C471.8 419.57 475.23 419.57 477.34 420.79Z" fill="#05D4F5"/>
<path d="M498.79 397.06C500.9 398.28 500.9 400.26 498.79 401.48C496.68 402.7 493.25 402.7 491.14 401.48C489.03 400.26 489.03 398.28 491.14 397.06C493.26 395.84 496.68 395.84 498.79 397.06Z" fill="#05D4F5"/>
<path d="M209.98 226.51C209.98 226.76 209.85 226.99 209.63 227.13L198.4 233.86L197 234.7L182.9 243.15L181.51 243.98L168.29 251.9L205.44 273.35L207.8 274.71L206.39 275.53L204.02 274.17L166.54 252.53C166.32 252.4 166.19 252.17 166.19 251.92C166.19 251.67 166.32 251.43 166.54 251.3L180.11 243.16L181.51 242.32L195.61 233.87L197 233.03L207.88 226.51L187.04 214.48L183.51 212.44C183.17 212.25 183.06 211.81 183.25 211.47C183.45 211.13 183.88 211.01 184.22 211.21L188.4 213.62L209.64 225.88C209.84 226.02 209.97 226.26 209.98 226.51Z" fill="#05D4F5"/>
<path d="M82.98 345.88L46.5 324.82L62.28 315.71C62.5 315.58 62.63 315.35 62.63 315.1C62.63 314.85 62.49 314.61 62.28 314.48L40.84 302.1L36.86 299.8C36.52 299.6 36.09 299.72 35.89 300.06C35.7 300.4 35.81 300.83 36.15 301.03L39.19 302.78L60.51 315.08L44.73 324.19C44.51 324.32 44.38 324.55 44.38 324.8C44.38 325.06 44.51 325.29 44.73 325.41L81.57 346.68L82.98 345.88Z" fill="#05D4F5"/>
<path d="M157.21 304.11L155.8 304.93L153.44 303.57L128.06 288.92C127.84 288.8 127.71 288.56 127.71 288.31C127.71 288.05 127.85 287.82 128.06 287.7L140.03 280.79L110.75 263.56L107.97 261.92C107.63 261.72 107.52 261.29 107.71 260.95C107.91 260.61 108.34 260.5 108.68 260.7L112.22 262.79L141.79 280.19C142.01 280.32 142.14 280.55 142.14 280.8C142.14 281.05 142.01 281.28 141.79 281.41L129.83 288.32L154.85 302.76L157.21 304.11Z" fill="#05D4F5"/>
<path d="M188.91 285.68L187.5 286.5L185.14 285.14L145.67 262.35C145.45 262.22 145.32 261.99 145.32 261.74C145.32 261.48 145.46 261.25 145.67 261.12L163.09 251.06L140.95 238.28L136.27 235.57C135.93 235.38 135.81 234.94 136.01 234.61C136.2 234.27 136.64 234.15 136.98 234.35L142.32 237.43L164.86 250.45C165.08 250.58 165.21 250.81 165.21 251.07C165.21 251.33 165.08 251.56 164.86 251.68L147.44 261.74L186.55 284.32L188.91 285.68Z" fill="#05D4F5"/>
<path d="M139.34 314.49L137.93 315.31L135.57 313.95L109.8 299.07L91.37 309.71C91.15 309.84 90.88 309.84 90.66 309.71L65.73 295.32L62.66 293.55C62.32 293.36 62.21 292.92 62.4 292.58C62.6 292.24 63.03 292.13 63.37 292.32L67.04 294.44L91.01 308.28L109.44 297.64C109.66 297.51 109.93 297.51 110.15 297.64L136.98 313.13L139.34 314.49Z" fill="#05D4F5"/>
<path d="M222.64 266.08L221.23 266.9L218.86 265.53L181.51 243.96L180.1 243.15L168.53 236.46L165.53 234.73C165.19 234.53 165.07 234.1 165.27 233.76C165.46 233.42 165.9 233.31 166.24 233.5L170.11 235.74L181.5 242.31L182.91 243.12L220.29 264.7L222.64 266.08Z" fill="#05D4F5"/>
<path d="M238.4 256.92L236.99 257.74L234.63 256.38L197 234.69L195.6 233.88L152.09 208.78L149.83 207.48C149.49 207.29 149.38 206.85 149.57 206.51C149.76 206.17 150.2 206.05 150.54 206.25L153.85 208.16L196.99 233.04L198.4 233.85L236.04 255.56L238.4 256.92Z" fill="#05D4F5"/>
<path d="M181.24 290.14L179.83 290.96L177.47 289.6L127.61 260.81L124.28 258.88C123.94 258.68 123.82 258.25 124.02 257.91C124.21 257.57 124.65 257.45 124.99 257.65L129.17 260.06L178.89 288.77L181.24 290.14Z" fill="#05D4F5"/>
<path d="M111.16 330.86L109.75 331.68L107.39 330.32L85.13 317.46L79.8 314.38C79.46 314.19 79.35 313.75 79.54 313.41C79.73 313.07 80.17 312.96 80.5 313.15L86.62 316.68L108.81 329.49L111.16 330.86Z" fill="#05D4F5"/>
<path d="M40.74 297.75C42.85 298.97 42.85 300.95 40.74 302.17C38.63 303.39 35.2 303.39 33.09 302.17C30.98 300.95 30.98 298.97 33.09 297.75C35.21 296.53 38.63 296.53 40.74 297.75Z" fill="#05D4F5"/>
<path d="M86.11 312.61C88.22 313.83 88.22 315.81 86.11 317.03C84 318.25 80.57 318.25 78.46 317.03C76.35 315.81 76.35 313.83 78.46 312.61C80.57 311.39 84 311.39 86.11 312.61Z" fill="#05D4F5"/>
<path d="M66.16 290.68C68.27 291.9 68.27 293.88 66.16 295.1C64.05 296.32 60.62 296.32 58.51 295.1C56.4 293.88 56.4 291.9 58.51 290.68C60.63 289.46 64.05 289.46 66.16 290.68Z" fill="#05D4F5"/>
<path d="M111.74 258.68C113.85 259.9 113.85 261.88 111.74 263.1C109.63 264.32 106.2 264.32 104.09 263.1C101.98 261.88 101.98 259.9 104.09 258.68C106.2 257.46 109.62 257.46 111.74 258.68Z" fill="#05D4F5"/>
<path d="M74.55 280.19C76.66 281.41 76.66 283.39 74.55 284.61C72.44 285.83 69.01 285.83 66.9 284.61C64.79 283.39 64.79 281.41 66.9 280.19C69.01 278.97 72.43 278.97 74.55 280.19Z" fill="#05D4F5"/>
<path d="M148.68 309.06L147.27 309.88L144.91 308.52L85.88 274.44L75.18 280.62L71.15 282.95C70.81 283.15 70.38 283.03 70.18 282.69C69.99 282.35 70.1 281.92 70.44 281.72L73.76 279.8L85.54 273C85.76 272.88 86.03 272.88 86.25 273L146.34 307.7L148.68 309.06Z" fill="#05D4F5"/>
<path d="M247.32 251.73L245.91 252.55L243.55 251.19L217.9 236.38C217.68 236.25 217.55 236.02 217.55 235.77C217.55 235.51 217.68 235.28 217.9 235.16L229.87 228.25L200.59 211.02L197.81 209.39C197.47 209.19 197.36 208.76 197.56 208.42C197.76 208.08 198.19 207.97 198.53 208.16L202.07 210.24L231.64 227.64C231.86 227.77 231.99 228 231.99 228.26C231.99 228.52 231.85 228.75 231.64 228.87L219.68 235.77L244.98 250.38L247.32 251.73Z" fill="#05D4F5"/>
<path d="M201.57 206.15C203.68 207.37 203.68 209.35 201.57 210.57C199.46 211.79 196.03 211.79 193.92 210.57C191.81 209.35 191.81 207.37 193.92 206.15C196.03 204.93 199.45 204.93 201.57 206.15Z" fill="#05D4F5"/>
<path d="M128.81 255.87C130.92 257.09 130.92 259.07 128.81 260.29C126.7 261.51 123.27 261.51 121.16 260.29C119.05 259.07 119.05 257.09 121.16 255.87C123.27 254.65 126.7 254.65 128.81 255.87Z" fill="#05D4F5"/>
<path d="M141.58 233.55C143.69 234.77 143.69 236.75 141.58 237.97C139.47 239.19 136.04 239.19 133.93 237.97C131.82 236.75 131.82 234.77 133.93 233.55C136.04 232.33 139.47 232.33 141.58 233.55Z" fill="#05D4F5"/>
<path d="M154.02 203.65C156.13 204.87 156.13 206.85 154.02 208.07C151.91 209.29 148.48 209.29 146.37 208.07C144.26 206.85 144.26 204.87 146.37 203.65C148.48 202.43 151.91 202.43 154.02 203.65Z" fill="#05D4F5"/>
<path d="M187.61 209.78C189.72 211 189.72 212.98 187.61 214.2C185.5 215.42 182.07 215.42 179.96 214.2C177.85 212.98 177.85 211 179.96 209.78C182.07 208.56 185.5 208.56 187.61 209.78Z" fill="#05D4F5"/>
<path d="M169.84 231.5C171.95 232.72 171.95 234.7 169.84 235.92C167.73 237.14 164.3 237.14 162.19 235.92C160.08 234.7 160.08 232.72 162.19 231.5C164.31 230.28 167.73 230.28 169.84 231.5Z" fill="#05D4F5"/>
<path d="M448.8 307.86C448.8 308.11 448.66 308.34 448.45 308.47L413.2 328.82L410.84 330.18L409.42 329.36L411.78 327.99L446.7 307.83L414.66 288.63L413.27 287.79L405.37 283.06C405.15 282.93 405.02 282.7 405.02 282.44C405.02 282.19 405.16 281.96 405.37 281.83L426.61 269.57L430.79 267.16C431.13 266.96 431.56 267.08 431.75 267.42C431.95 267.76 431.83 268.19 431.5 268.39L427.98 270.42L407.13 282.46L414.67 286.98L416.07 287.81L448.47 307.23C448.67 307.38 448.8 307.61 448.8 307.86Z" fill="#05D4F5"/>
<path d="M415.03 263.14L412.25 264.77L382.97 282L394.94 288.91C395.16 289.04 395.29 289.27 395.29 289.53C395.29 289.78 395.15 290.02 394.94 290.14L370.58 304.21L368.22 305.57L366.8 304.75L369.16 303.39L393.17 289.53L381.21 282.63C380.99 282.5 380.86 282.27 380.86 282.01C380.86 281.76 380.99 281.52 381.21 281.4L410.78 264L414.32 261.92C414.66 261.72 415.1 261.83 415.29 262.18C415.48 262.51 415.37 262.94 415.03 263.14Z" fill="#05D4F5"/>
<path d="M384.78 232.4L380.23 235.03L357.37 248.23L375.18 258.51C375.4 258.64 375.53 258.87 375.53 259.12C375.53 259.38 375.4 259.61 375.18 259.74L334.36 283.3L332 284.67L330.58 283.85L332.94 282.49L373.4 259.12L355.59 248.84C355.37 248.71 355.24 248.48 355.24 248.23C355.24 247.98 355.38 247.74 355.59 247.62L378.98 234.12L384.06 231.18C384.4 230.99 384.84 231.1 385.03 231.44C385.23 231.77 385.12 232.2 384.78 232.4Z" fill="#05D4F5"/>
<path d="M486.91 321.87L483.87 323.62L463.3 335.5C463.08 335.63 462.81 335.63 462.59 335.5L447.11 326.56L428.2 337.48L425.83 338.85L424.41 338.03L426.78 336.67L446.75 325.14C446.97 325.01 447.24 325.01 447.46 325.14L462.94 334.08L482.31 322.9L486.2 320.65C486.54 320.46 486.97 320.57 487.17 320.91C487.37 321.24 487.25 321.67 486.91 321.87Z" fill="#05D4F5"/>
<path d="M356.03 236.21L353.03 237.94L304.42 266.01L302.05 267.37L300.63 266.55L302.99 265.19L351.45 237.21L355.32 234.97C355.66 234.77 356.1 234.89 356.29 235.23C356.49 235.58 356.37 236.01 356.03 236.21Z" fill="#05D4F5"/>
<path d="M373.16 208.71L370.91 210.01L289.12 257.18L286.75 258.54L285.33 257.72L287.69 256.36L369.14 209.38L372.45 207.47C372.79 207.28 373.23 207.39 373.42 207.73C373.62 208.08 373.5 208.52 373.16 208.71Z" fill="#05D4F5"/>
<path d="M398.72 260.11L395.38 262.04L346.46 290.29L344.09 291.65L342.67 290.83L345.03 289.47L393.82 261.3L398.01 258.88C398.35 258.69 398.79 258.8 398.98 259.14C399.18 259.48 399.06 259.92 398.72 260.11Z" fill="#05D4F5"/>
<path d="M345.71 259.47L340.38 262.55L319.4 274.66L317.04 276.02L315.62 275.2L317.98 273.84L338.9 261.76L345.01 258.23C345.35 258.04 345.79 258.15 345.98 258.49C346.17 258.84 346.05 259.27 345.71 259.47Z" fill="#05D4F5"/>
<path d="M343.21 263.02C346.198 263.02 348.62 261.623 348.62 259.9C348.62 258.177 346.198 256.78 343.21 256.78C340.222 256.78 337.8 258.177 337.8 259.9C337.8 261.623 340.222 263.02 343.21 263.02Z" fill="#05D4F5"/>
<path d="M482.63 318.67C480.52 319.89 480.52 321.87 482.63 323.09C484.74 324.31 488.17 324.31 490.28 323.09C492.39 321.87 492.39 319.89 490.28 318.67C488.17 317.45 484.75 317.45 482.63 318.67Z" fill="#05D4F5"/>
<path d="M411.26 259.91C409.15 261.13 409.15 263.11 411.26 264.33C413.37 265.55 416.8 265.55 418.91 264.33C421.02 263.11 421.02 261.13 418.91 259.91C416.79 258.69 413.37 258.69 411.26 259.91Z" fill="#05D4F5"/>
<path d="M448.45 281.42C446.34 282.64 446.34 284.62 448.45 285.84C450.56 287.06 453.99 287.06 456.1 285.84C458.21 284.62 458.21 282.64 456.1 281.42C453.98 280.2 450.56 280.2 448.45 281.42Z" fill="#05D4F5"/>
<path d="M452.83 283.92C452.63 284.26 452.2 284.37 451.86 284.18L447.83 281.85L437.12 275.67L416.06 287.83L414.65 288.64L379.13 309.15L376.77 310.51L375.36 309.69L377.72 308.33L413.27 287.8L414.67 286.99L436.77 274.23C436.99 274.1 437.26 274.1 437.48 274.23L449.26 281.03L452.58 282.94C452.9 283.14 453.02 283.58 452.83 283.92Z" fill="#05D4F5"/>
<path d="M325.2 210.61L322.43 212.24L293.14 229.47L305.11 236.38C305.33 236.51 305.46 236.74 305.46 237C305.46 237.25 305.33 237.49 305.11 237.61L280.17 252.01L277.81 253.37L268.92 258.5C268.81 258.57 268.69 258.6 268.57 258.6C268.32 258.6 268.08 258.47 267.95 258.25C267.75 257.91 267.87 257.47 268.21 257.28L276.39 252.56L278.76 251.2L303.33 237L291.37 230.09C291.15 229.96 291.02 229.73 291.02 229.48C291.02 229.23 291.15 228.99 291.37 228.87L320.94 211.47L324.48 209.39C324.82 209.19 325.25 209.3 325.45 209.64C325.65 209.98 325.54 210.42 325.2 210.61Z" fill="#05D4F5"/>
<path d="M321.43 207.38C319.32 208.6 319.32 210.58 321.43 211.8C323.54 213.02 326.97 213.02 329.08 211.8C331.19 210.58 331.19 208.6 329.08 207.38C326.96 206.16 323.54 206.16 321.43 207.38Z" fill="#05D4F5"/>
<path d="M394.18 257.1C392.07 258.32 392.07 260.3 394.18 261.52C396.29 262.74 399.72 262.74 401.83 261.52C403.94 260.3 403.94 258.32 401.83 257.1C399.72 255.88 396.29 255.88 394.18 257.1Z" fill="#05D4F5"/>
<path d="M383.8 235.81C386.788 235.81 389.21 234.413 389.21 232.69C389.21 230.967 386.788 229.57 383.8 229.57C380.812 229.57 378.39 230.967 378.39 232.69C378.39 234.413 380.812 235.81 383.8 235.81Z" fill="#05D4F5"/>
<path d="M368.97 204.88C366.86 206.1 366.86 208.08 368.97 209.3C371.08 210.52 374.51 210.52 376.62 209.3C378.73 208.08 378.73 206.1 376.62 204.88C374.51 203.66 371.08 203.66 368.97 204.88Z" fill="#05D4F5"/>
<path d="M427.38 265.73C425.27 266.95 425.27 268.93 427.38 270.15C429.49 271.37 432.92 271.37 435.03 270.15C437.14 268.93 437.14 266.95 435.03 265.73C432.91 264.51 429.49 264.51 427.38 265.73Z" fill="#05D4F5"/>
<path d="M351.72 232.97C349.61 234.19 349.61 236.17 351.72 237.39C353.83 238.61 357.26 238.61 359.37 237.39C361.48 236.17 361.48 234.19 359.37 232.97C357.25 231.75 353.83 231.75 351.72 232.97Z" fill="#05D4F5"/>
<path d="M189.16 256.97L177.41 250.14C176.12 249.39 175.17 247.91 174.8 245.58L186.55 252.41C186.91 254.74 187.87 256.22 189.16 256.97Z" fill="#DAD9E8"/>
<mask id="mask4_1343_1401" style="mask-type:luminance" maskUnits="userSpaceOnUse" x="174" y="245" width="16" height="12">
<path d="M189.16 256.97L177.41 250.14C176.12 249.39 175.17 247.91 174.8 245.58L186.55 252.41C186.91 254.74 187.87 256.22 189.16 256.97Z" fill="white"/>
</mask>
<g mask="url(#mask4_1343_1401)">
<path d="M189.16 256.97L177.41 250.14C176.13 249.39 175.18 247.93 174.8 245.62L186.55 252.45C186.93 254.76 187.87 256.22 189.16 256.97Z" fill="#DAD9E8"/>
<path d="M186.55 252.45L174.8 245.62C174.8 245.61 174.8 245.59 174.79 245.58L186.54 252.41C186.55 252.42 186.55 252.43 186.55 252.45Z" fill="#DAD9E8"/>
</g>
<path d="M199.26 134.42L211.01 141.25C207.58 139.26 202.83 139.51 197.51 142.58L185.76 135.75C191.08 132.68 195.84 132.43 199.26 134.42Z" fill="#DAD9E8"/>
<mask id="mask5_1343_1401" style="mask-type:luminance" maskUnits="userSpaceOnUse" x="185" y="133" width="27" height="10">
<path d="M199.26 134.42L211.01 141.25C207.58 139.26 202.83 139.51 197.51 142.58L185.76 135.75C191.08 132.68 195.84 132.43 199.26 134.42Z" fill="white"/>
</mask>
<g mask="url(#mask5_1343_1401)">
<path d="M197.51 142.58L185.76 135.75C191.08 132.68 195.83 132.43 199.26 134.42L211.01 141.25C207.58 139.26 202.83 139.51 197.51 142.58Z" fill="#DAD9E8"/>
</g>
<path d="M186.55 252.4L174.8 245.58L163.51 173.97L175.26 180.8L186.55 252.4Z" fill="#DAD9E8"/>
<path d="M193.93 144.65L182.18 137.82L185.76 135.75L197.51 142.58L193.93 144.65Z" fill="#EBEBF1"/>
<path d="M175.26 180.8L163.51 173.97C161.59 161.78 170.48 144.58 182.18 137.82L193.93 144.65C182.22 151.4 173.34 168.61 175.26 180.8Z" fill="#EBEBF1"/>
<mask id="mask6_1343_1401" style="mask-type:luminance" maskUnits="userSpaceOnUse" x="163" y="137" width="31" height="44">
<path d="M175.26 180.8L163.51 173.97C161.59 161.78 170.48 144.58 182.18 137.82L193.93 144.65C182.22 151.4 173.34 168.61 175.26 180.8Z" fill="white"/>
</mask>
<g mask="url(#mask6_1343_1401)">
<path d="M175.26 180.8L163.51 173.97C162.93 170.26 163.34 166.1 164.53 161.9L176.28 168.73C175.09 172.92 174.67 177.09 175.26 180.8Z" fill="#EBEBF1"/>
<path d="M176.28 168.72L164.53 161.89C165.87 157.17 168.19 152.4 171.17 148.22L182.92 155.05C179.94 159.24 177.62 164 176.28 168.72Z" fill="#EBEBF1"/>
<path d="M182.92 155.06L171.17 148.23C173.45 145.04 176.11 142.18 179.02 139.94L190.77 146.77C187.86 149.01 185.2 151.86 182.92 155.06Z" fill="#EBEBF1"/>
<path d="M190.77 146.77L179.02 139.94C180.05 139.15 181.1 138.44 182.18 137.81L193.93 144.64C192.85 145.27 191.79 145.98 190.77 146.77Z" fill="#EBEBF1"/>
</g>
<path d="M197.51 142.58C209.21 135.82 218.17 142.73 216.32 157.09L205.48 241.47C204.62 248.14 200.33 253.7 196.04 256.18C191.74 258.66 187.44 258.06 186.55 252.4L175.26 180.79C173.34 168.6 182.23 151.4 193.93 144.64L197.51 142.58Z" fill="#C4C3EC"/>
<path d="M210.51 143.19L218.69 147.94C215.22 145.92 210.41 146.21 205.1 149.27L196.92 144.52C202.22 141.45 207.03 141.17 210.51 143.19Z" fill="#05D4F5"/>
<mask id="mask7_1343_1401" style="mask-type:luminance" maskUnits="userSpaceOnUse" x="196" y="141" width="23" height="9">
<path d="M210.51 143.19L218.69 147.94C215.22 145.92 210.41 146.21 205.1 149.27L196.92 144.52C202.22 141.45 207.03 141.17 210.51 143.19Z" fill="white"/>
</mask>
<g mask="url(#mask7_1343_1401)">
<path d="M205.1 149.27L196.92 144.52C202.23 141.45 207.04 141.17 210.51 143.19L218.69 147.94C215.21 145.92 210.4 146.21 205.1 149.27Z" fill="#05D4F5"/>
</g>
<path d="M206.99 157.26C214.22 153.08 220.11 156.44 220.13 164.75C220.16 173.05 214.3 183.19 207.08 187.36C199.85 191.54 193.95 188.18 193.94 179.87C193.9 171.58 199.76 161.43 206.99 157.26Z" fill="#05D4F5"/>
<path d="M191.62 194.51L183.44 189.76C180.01 187.77 177.89 183.53 177.87 177.51C177.84 165.38 186.36 150.61 196.92 144.52L205.1 149.27C194.55 155.36 186.02 170.14 186.05 182.26C186.07 188.28 188.19 192.52 191.62 194.51Z" fill="#05D4F5"/>
<mask id="mask8_1343_1401" style="mask-type:luminance" maskUnits="userSpaceOnUse" x="177" y="144" width="29" height="51">
<path d="M191.62 194.51L183.44 189.76C180.01 187.77 177.89 183.53 177.87 177.51C177.84 165.38 186.36 150.61 196.92 144.52L205.1 149.27C194.55 155.36 186.02 170.14 186.05 182.26C186.07 188.28 188.19 192.52 191.62 194.51Z" fill="white"/>
</mask>
<g mask="url(#mask8_1343_1401)">
<path d="M191.62 194.51L183.44 189.76C180.4 187.99 178.38 184.45 177.95 179.46L186.13 184.21C186.56 189.2 188.58 192.74 191.62 194.51Z" fill="#05D4F5"/>
<path d="M186.13 184.22L177.95 179.47C177.9 178.84 177.87 178.19 177.87 177.52C177.84 167.07 184.18 154.64 192.69 147.51L200.87 152.26C192.36 159.39 186.02 171.81 186.05 182.27C186.05 182.93 186.08 183.59 186.13 184.22Z" fill="#05D4F5"/>
<path d="M200.87 152.25L192.69 147.5C194.05 146.36 195.47 145.36 196.92 144.52L205.1 149.27C203.64 150.11 202.23 151.11 200.87 152.25Z" fill="#05D4F5"/>
</g>
<path d="M206.99 157.26L205.09 149.27C215.64 143.18 224.22 148.07 224.26 160.2C224.29 172.33 215.77 187.09 205.22 193.18C194.67 199.27 186.08 194.39 186.05 182.26C186.02 170.13 194.54 155.36 205.1 149.27L206.99 157.26C199.76 161.43 193.9 171.58 193.93 179.88C193.95 188.19 199.85 191.54 207.07 187.37C214.3 183.2 220.15 173.06 220.12 164.76C220.11 156.45 214.22 153.09 206.99 157.26Z" fill="#05D4F5"/>
<mask id="mask9_1343_1401" style="mask-type:luminance" maskUnits="userSpaceOnUse" x="186" y="146" width="39" height="50">
<path d="M206.99 157.26L205.09 149.27C215.64 143.18 224.22 148.07 224.26 160.2C224.29 172.33 215.77 187.09 205.22 193.18C194.67 199.27 186.08 194.39 186.05 182.26C186.02 170.13 194.54 155.36 205.1 149.27L206.99 157.26C199.76 161.43 193.9 171.58 193.93 179.88C193.95 188.19 199.85 191.54 207.07 187.37C214.3 183.2 220.15 173.06 220.12 164.76C220.11 156.45 214.22 153.09 206.99 157.26Z" fill="white"/>
</mask>
<g mask="url(#mask9_1343_1401)">
<path d="M206.99 157.26L205.09 149.27C215.64 143.18 224.22 148.07 224.26 160.2C224.29 172.33 215.77 187.09 205.22 193.18C194.67 199.27 186.08 194.39 186.05 182.26C186.02 170.13 194.54 155.36 205.1 149.27L206.99 157.26C199.76 161.43 193.9 171.58 193.93 179.88C193.95 188.19 199.85 191.54 207.07 187.37C214.3 183.2 220.15 173.06 220.12 164.76C220.11 156.45 214.22 153.09 206.99 157.26Z" fill="#12B0F3"/>
</g>
<path d="M184.693 11.3259L180.706 12.5469L201.907 81.7853L205.895 80.5643L184.693 11.3259Z" fill="#171C29"/>
<path d="M229.16 298.56C209.7 286.54 205.33 270.41 203.46 263.52C204.97 270.13 210.15 276.7 218.97 282.02C241.02 295.29 277.53 295.66 300.52 282.84C310.39 277.34 316.16 270.29 317.79 263C316.29 268.72 314.04 277.36 305.42 287.35C302.16 291.13 294.96 298.17 283.46 302.78C265.97 309.79 244.66 308.14 229.16 298.56Z" fill="#919DD6"/>
<path d="M300.89 140.92C322.39 153.86 321.65 174.48 299.24 186.97C276.83 199.46 241.24 199.11 219.74 186.17C198.24 173.23 198.98 152.61 221.39 140.12C243.8 127.62 279.39 127.98 300.89 140.92Z" fill="#E4E3EE"/>
<path d="M203.41 263.33L186.07 187.58C188.09 196.41 194.81 204.96 206.28 211.86C234.94 229.11 282.38 229.59 312.25 212.93C325.08 205.78 332.58 196.63 334.69 187.15L317.79 263C316.16 270.29 310.39 277.34 300.52 282.84C277.53 295.66 241.02 295.29 218.97 282.02C210.14 276.7 204.97 270.13 203.41 263.33Z" fill="#B7B6E3"/>
<path d="M212.18 138.9C241.46 123.01 282.91 123.48 310.75 140.02C308.27 138.53 304.8 138.64 300.9 140.81C279.4 127.87 243.81 127.51 221.4 140.01C198.99 152.5 198.25 173.12 219.75 186.06C241.25 199 276.84 199.36 299.25 186.86C321.66 174.37 322.39 153.75 300.9 140.81C304.8 138.64 308.27 138.52 310.75 140.01C316.58 143.78 325.39 149.47 331.52 161.46C337.24 172.64 335.5 182.67 334.76 186.95C332.58 196.68 325.08 205.82 312.27 212.96C282.4 229.61 234.96 229.13 206.3 211.89C194.84 204.99 188.12 196.46 186.09 187.64C185.37 183.79 184.7 180.15 185.38 174.45C186.24 167.3 189.09 161.92 189.21 161.69C191.34 157.72 197 147.14 212.18 138.9Z" fill="#DAD9E8"/>
<path d="M291.52 47.4199C308.01 57.3399 307.44 73.1599 290.26 82.7398C273.07 92.3198 245.77 92.0499 229.28 82.1199C212.79 72.1899 213.36 56.3799 230.54 46.7999C247.73 37.2199 275.03 37.4899 291.52 47.4199Z" fill="#EBEBF1"/>
<path d="M207.49 165.75C180.95 149.32 175.12 127.59 174.91 112.24C174.95 124.56 182.86 136.88 198.75 146.44C231.49 166.14 285.69 166.69 319.81 147.67C337.37 137.88 346.19 124.81 346.16 111.74C345.86 119.76 345.42 123.92 342.2 132.9C339.67 139.94 335.15 145.94 332.73 149.15C331.6 150.65 321.07 164.07 300.74 171.99C265.48 185.73 228.5 178.76 207.49 165.75Z" fill="#B7B6E3"/>
<path d="M209.94 44.32C225.48 35.86 242.94 31.69 261.81 31.93C281.2 32.18 298.6 36.79 313.53 45.64C307.94 42.28 300.14 42.6 291.51 47.41C275.02 37.49 247.72 37.21 230.53 46.79C213.34 56.37 212.78 72.19 229.27 82.11C245.76 92.03 273.06 92.31 290.25 82.73C307.44 73.15 308 57.33 291.51 47.41C300.13 42.6 307.94 42.28 313.53 45.64C321.4 50.72 345.35 66.18 346.11 99.15C346.15 112.22 337.33 125.28 319.76 135.08C285.64 154.11 231.44 153.56 198.7 133.86C182.81 124.3 174.9 111.98 174.86 99.66C175.04 94.87 175.24 89.44 177.33 82.81C179.81 74.95 181.95 71.58 185.49 65.99C188.3 61.57 197.01 51.36 209.94 44.32Z" fill="#E4E3EE"/>
<path d="M277.34 148C249.61 151.26 219.74 146.5 198.71 133.85C182.91 124.34 175 112.11 174.87 99.8599C174.85 91.8999 178.12 84.5599 183.64 78.6799C183.75 89.6699 190.85 100.64 205.02 109.17C223.88 120.52 250.67 124.78 275.54 121.86C276.65 130.85 277.32 140.05 277.34 148Z" fill="#042F8F"/>
<path d="M174.91 112.25L174.87 99.6499C174.91 111.97 182.82 124.29 198.71 133.85C231.45 153.55 285.65 154.1 319.77 135.07C337.33 125.28 346.15 112.21 346.12 99.1399L346.16 111.74C346.2 124.8 337.38 137.87 319.81 147.67C285.69 166.7 231.49 166.15 198.75 146.44C182.86 136.89 174.94 124.57 174.91 112.25Z" fill="#DAD9E8"/>
<path d="M188.79 112.61C187.11 117.37 184.22 117.68 182.23 113.33C178.9 106.07 182.29 97.29 186.62 98.54C187.41 98.77 187.82 99.22 188.26 99.7C191.02 103.65 189.53 110.52 188.79 112.61Z" fill="#05D4F5"/>
<path d="M237.32 134.15C236.05 141.29 227.08 142.49 222.55 136.13C217.82 129.48 223 121.83 229.63 122.65C229.87 122.68 230.2 122.75 230.44 122.8C236.27 124.48 237.98 130.45 237.32 134.15Z" fill="#05D4F5"/>
<path d="M317.29 103.44C317.29 99.2099 314.32 97.4999 310.66 99.6099C307 101.72 304.03 106.87 304.03 111.09C304.03 115.32 307 117.03 310.66 114.92C314.32 112.81 317.29 107.66 317.29 103.44Z" fill="#1393F2"/>
<path d="M311.52 109.44C310.89 109.44 310.26 109.15 309.85 108.61C309.16 107.69 309.35 106.38 310.27 105.69L358.6 69.4199C359.52 68.7299 360.83 68.9099 361.52 69.8399C362.21 70.7599 362.02 72.07 361.1 72.76L312.77 109.03C312.39 109.3 311.95 109.44 311.52 109.44Z" fill="#171C29"/>
<path d="M372.12 68.48C372.12 62.27 367.09 57.24 360.88 57.24C354.67 57.24 349.64 62.27 349.64 68.48C349.64 74.69 354.67 79.72 360.88 79.72C367.09 79.72 372.12 74.69 372.12 68.48Z" fill="#1393F2"/>
<path d="M192.91 11.9299C192.91 5.71994 187.88 0.689941 181.67 0.689941C175.46 0.689941 170.43 5.71994 170.43 11.9299C170.43 18.1399 175.46 23.1699 181.67 23.1699C187.88 23.1699 192.91 18.1399 192.91 11.9299Z" fill="#1393F2"/>
<path d="M327.23 183.53L335.41 188.28C331.94 186.26 327.13 186.55 321.82 189.61L313.64 184.86C318.95 181.79 323.76 181.51 327.23 183.53Z" fill="#05D4F5"/>
<mask id="mask10_1343_1401" style="mask-type:luminance" maskUnits="userSpaceOnUse" x="313" y="182" width="23" height="8">
<path d="M327.23 183.53L335.41 188.28C331.94 186.26 327.13 186.55 321.82 189.61L313.64 184.86C318.95 181.79 323.76 181.51 327.23 183.53Z" fill="white"/>
</mask>
<g mask="url(#mask10_1343_1401)">
<path d="M321.82 189.61L313.64 184.86C318.95 181.8 323.76 181.51 327.23 183.53L335.41 188.28C331.94 186.26 327.13 186.55 321.82 189.61Z" fill="#05D4F5"/>
</g>
<path d="M323.72 197.6C330.95 193.42 336.84 196.79 336.86 205.09C336.89 213.39 331.03 223.53 323.81 227.7C316.58 231.88 310.68 228.52 310.67 220.22C310.63 211.92 316.49 201.77 323.72 197.6Z" fill="#05D4F5"/>
<path d="M308.35 234.85L300.17 230.1C296.74 228.11 294.62 223.87 294.6 217.85C294.57 205.73 303.09 190.95 313.65 184.86L321.83 189.61C311.28 195.7 302.75 210.48 302.78 222.6C302.79 228.62 304.92 232.86 308.35 234.85Z" fill="#05D4F5"/>
<mask id="mask11_1343_1401" style="mask-type:luminance" maskUnits="userSpaceOnUse" x="294" y="184" width="28" height="51">
<path d="M308.35 234.85L300.17 230.1C296.74 228.11 294.62 223.87 294.6 217.85C294.57 205.73 303.09 190.95 313.65 184.86L321.83 189.61C311.28 195.7 302.75 210.48 302.78 222.6C302.79 228.62 304.92 232.86 308.35 234.85Z" fill="white"/>
</mask>
<g mask="url(#mask11_1343_1401)">
<path d="M308.35 234.85L300.17 230.1C297.12 228.33 295.11 224.79 294.68 219.8L302.86 224.55C303.28 229.54 305.3 233.08 308.35 234.85Z" fill="#05D4F5"/>
<path d="M302.86 224.55L294.68 219.8C294.63 219.17 294.6 218.52 294.6 217.85C294.57 207.4 300.91 194.97 309.42 187.84L317.6 192.59C309.09 199.72 302.75 212.14 302.78 222.6C302.77 223.27 302.8 223.93 302.86 224.55Z" fill="#05D4F5"/>
<path d="M317.59 192.59L309.41 187.84C310.77 186.7 312.18 185.7 313.64 184.86L321.82 189.61C320.37 190.45 318.95 191.45 317.59 192.59Z" fill="#05D4F5"/>
</g>
<path d="M323.72 197.6L321.82 189.61C332.37 183.52 340.95 188.41 340.99 200.54C341.02 212.66 332.5 227.43 321.95 233.52C311.4 239.61 302.81 234.73 302.78 222.6C302.75 210.47 311.27 195.7 321.83 189.61L323.72 197.6C316.49 201.77 310.63 211.92 310.66 220.22C310.68 228.53 316.58 231.88 323.8 227.7C331.03 223.53 336.88 213.39 336.85 205.09C336.84 196.79 330.94 193.43 323.72 197.6Z" fill="#05D4F5"/>
<mask id="mask12_1343_1401" style="mask-type:luminance" maskUnits="userSpaceOnUse" x="302" y="186" width="39" height="51">
<path d="M323.72 197.6L321.82 189.61C332.37 183.52 340.95 188.41 340.99 200.54C341.02 212.66 332.5 227.43 321.95 233.52C311.4 239.61 302.81 234.73 302.78 222.6C302.75 210.47 311.27 195.7 321.83 189.61L323.72 197.6C316.49 201.77 310.63 211.92 310.66 220.22C310.68 228.53 316.58 231.88 323.8 227.7C331.03 223.53 336.88 213.39 336.85 205.09C336.84 196.79 330.94 193.43 323.72 197.6Z" fill="white"/>
</mask>
<g mask="url(#mask12_1343_1401)">
<path d="M323.72 197.6L321.82 189.61C332.37 183.52 340.95 188.41 340.99 200.54C341.02 212.66 332.5 227.43 321.95 233.52C311.4 239.61 302.81 234.73 302.78 222.6C302.75 210.47 311.27 195.7 321.83 189.61L323.72 197.6C316.49 201.77 310.63 211.92 310.66 220.22C310.68 228.53 316.58 231.88 323.8 227.7C331.03 223.53 336.88 213.39 336.85 205.09C336.84 196.79 330.94 193.43 323.72 197.6Z" fill="#12B0F3"/>
</g>
<path d="M327.32 309.75L315.57 302.92C314.28 302.17 313.33 300.69 312.96 298.35L324.71 305.18C325.08 307.52 326.03 309 327.32 309.75Z" fill="#DAD9E8"/>
<mask id="mask13_1343_1401" style="mask-type:luminance" maskUnits="userSpaceOnUse" x="312" y="298" width="16" height="12">
<path d="M327.32 309.75L315.57 302.92C314.28 302.17 313.33 300.69 312.96 298.35L324.71 305.18C325.08 307.52 326.03 309 327.32 309.75Z" fill="white"/>
</mask>
<g mask="url(#mask13_1343_1401)">
<path d="M327.32 309.75L315.57 302.92C314.29 302.17 313.34 300.71 312.96 298.4L324.71 305.23C325.09 307.54 326.04 309 327.32 309.75Z" fill="#DAD9E8"/>
<path d="M324.72 305.23L312.97 298.4C312.97 298.39 312.97 298.37 312.96 298.36L324.71 305.19C324.71 305.2 324.72 305.21 324.72 305.23Z" fill="#DAD9E8"/>
</g>
<path d="M337.43 187.2L349.18 194.03C345.75 192.04 341 192.29 335.68 195.36L323.93 188.53C329.25 185.46 334 185.21 337.43 187.2Z" fill="#DAD9E8"/>
<mask id="mask14_1343_1401" style="mask-type:luminance" maskUnits="userSpaceOnUse" x="323" y="185" width="27" height="11">
<path d="M337.43 187.2L349.18 194.03C345.75 192.04 341 192.29 335.68 195.36L323.93 188.53C329.25 185.46 334 185.21 337.43 187.2Z" fill="white"/>
</mask>
<g mask="url(#mask14_1343_1401)">
<path d="M335.68 195.36L323.93 188.53C329.25 185.46 334 185.21 337.43 187.2L349.18 194.03C345.75 192.04 341 192.29 335.68 195.36Z" fill="#DAD9E8"/>
</g>
<path d="M324.71 305.19L312.96 298.36L301.68 226.75L313.42 233.58L324.71 305.19Z" fill="#DAD9E8"/>
<path d="M332.1 197.43L320.35 190.6L323.93 188.53L335.68 195.36L332.1 197.43Z" fill="#EBEBF1"/>
<path d="M313.42 233.58L301.67 226.75C299.75 214.56 308.64 197.36 320.34 190.6L332.09 197.43C320.39 204.18 311.5 221.39 313.42 233.58Z" fill="#EBEBF1"/>
<mask id="mask15_1343_1401" style="mask-type:luminance" maskUnits="userSpaceOnUse" x="301" y="190" width="32" height="44">
<path d="M313.42 233.58L301.67 226.75C299.75 214.56 308.64 197.36 320.34 190.6L332.09 197.43C320.39 204.18 311.5 221.39 313.42 233.58Z" fill="white"/>
</mask>
<g mask="url(#mask15_1343_1401)">
<path d="M313.42 233.58L301.67 226.75C301.09 223.04 301.5 218.88 302.69 214.68L314.44 221.51C313.25 225.7 312.84 229.87 313.42 233.58Z" fill="#EBEBF1"/>
<path d="M314.44 221.5L302.69 214.67C304.03 209.94 306.35 205.18 309.33 201L321.08 207.83C318.1 212.02 315.78 216.78 314.44 221.5Z" fill="#EBEBF1"/>
<path d="M321.08 207.84L309.33 201.01C311.61 197.82 314.27 194.96 317.18 192.72L328.93 199.55C326.03 201.79 323.36 204.64 321.08 207.84Z" fill="#EBEBF1"/>
<path d="M328.93 199.55L317.18 192.72C318.21 191.93 319.26 191.22 320.34 190.59L332.09 197.42C331.02 198.05 329.96 198.76 328.93 199.55Z" fill="#EBEBF1"/>
</g>
<path d="M335.68 195.36C347.39 188.6 356.34 195.51 354.49 209.87L343.65 294.25C342.79 300.92 338.5 306.48 334.21 308.96C329.91 311.44 325.61 310.84 324.72 305.18L313.43 233.57C311.51 221.38 320.4 204.18 332.1 197.42L335.68 195.36Z" fill="#C4C3EC"/>
</svg>
