<svg width="512" height="512" viewBox="0 0 512 512" fill="none" xmlns="http://www.w3.org/2000/svg">
<g opacity="0.3">
<path d="M232 144V320C231.974 345.453 221.851 369.855 203.853 387.853C185.855 405.851 161.453 415.974 136 416C131.757 416 127.687 414.314 124.686 411.314C121.686 408.313 120 404.243 120 400C120 395.757 121.686 391.687 124.686 388.686C127.687 385.686 131.757 384 136 384C152.974 384 169.253 377.257 181.255 365.255C193.257 353.252 200 336.974 200 320V304H80C71.5131 304 63.3737 300.629 57.3726 294.627C51.3714 288.626 48 280.487 48 272V144C48 135.513 51.3714 127.374 57.3726 121.373C63.3737 115.371 71.5131 112 80 112H200C208.487 112 216.626 115.371 222.627 121.373C228.629 127.374 232 135.513 232 144ZM432 112H312C303.513 112 295.374 115.371 289.373 121.373C283.371 127.374 280 135.513 280 144V272C280 280.487 283.371 288.626 289.373 294.627C295.374 300.629 303.513 304 312 304H432V320C432 336.974 425.257 353.252 413.255 365.255C401.253 377.257 384.974 384 368 384C363.757 384 359.687 385.686 356.686 388.686C353.686 391.687 352 395.757 352 400C352 404.243 353.686 408.313 356.686 411.314C359.687 414.314 363.757 416 368 416C393.453 415.974 417.855 405.851 435.853 387.853C453.851 369.855 463.974 345.453 464 320V144C464 135.513 460.629 127.374 454.627 121.373C448.626 115.371 440.487 112 432 112Z" fill="url(#paint0_linear_114_63)"/>
</g>
<defs>
<linearGradient id="paint0_linear_114_63" x1="256" y1="112" x2="256" y2="416" gradientUnits="userSpaceOnUse">
<stop stop-color="#1389FF" stop-opacity="0.52"/>
<stop offset="0.536458" stop-color="#7EE0FF" stop-opacity="0.43"/>
<stop offset="1" stop-color="#3EAAED" stop-opacity="0"/>
</linearGradient>
</defs>
</svg>
