<svg xmlns="http://www.w3.org/2000/svg" width="28" height="28" viewBox="0 0 28 28" fill="none">
  <path d="M13.9997 19.8333L15.8197 15.8433L19.833 14L15.8197 12.18L13.9997 8.16665L12.168 12.18L8.16635 14L12.168 15.8433L13.9997 19.8333ZM9.53135 3.21998C10.9489 2.63659 12.4667 2.3354 13.9997 2.33331C15.528 2.33331 17.0447 2.63665 18.468 3.21998C19.8797 3.80331 21.163 4.66665 22.248 5.75165C23.333 6.83665 24.1963 8.11998 24.7797 9.53165C25.363 10.955 25.6663 12.4716 25.6663 14C25.6663 17.0916 24.4413 20.0666 22.248 22.2483C21.1659 23.3331 19.8802 24.1935 18.4648 24.7801C17.0493 25.3667 15.5319 25.668 13.9997 25.6666C12.4667 25.6646 10.9489 25.3634 9.53135 24.78C8.11706 24.193 6.83252 23.3327 5.75135 22.2483C4.66657 21.1662 3.80619 19.8805 3.21958 18.4651C2.63297 17.0496 2.33168 15.5322 2.33301 14C2.33301 10.9083 3.55801 7.93331 5.75135 5.75165C6.83635 4.66665 8.11968 3.80331 9.53135 3.21998ZM7.39635 20.6033C9.14635 22.3533 11.5263 23.3333 13.9997 23.3333C16.473 23.3333 18.853 22.3533 20.603 20.6033C22.353 18.8533 23.333 16.4733 23.333 14C23.333 11.5266 22.353 9.14665 20.603 7.39665C18.8506 5.64762 16.4756 4.66572 13.9997 4.66665C11.5263 4.66665 9.14635 5.64665 7.39635 7.39665C5.64732 9.14907 4.66542 11.5241 4.66635 14C4.66635 16.4733 5.64635 18.8533 7.39635 20.6033Z" fill="url(#paint0_linear_1795_1347)"/>
  <defs>
    <linearGradient id="paint0_linear_1795_1347" x1="13.9997" y1="2.33331" x2="13.9997" y2="25.6667" gradientUnits="userSpaceOnUse">
      <stop stop-color="#1666B6"/>
      <stop offset="1" stop-color="#40AEF0"/>
    </linearGradient>
  </defs>
</svg>