<svg width="16" height="313" viewBox="0 0 16 313" fill="none" xmlns="http://www.w3.org/2000/svg">
<path opacity="0.5" d="M8 0.226497L2.2265 6L8 11.7735L13.7735 6L8 0.226497ZM7.29288 312.707C7.6834 313.098 8.31657 313.098 8.70709 312.707L15.0711 306.343C15.4616 305.953 15.4616 305.319 15.0711 304.929C14.6805 304.538 14.0474 304.538 13.6568 304.929L7.99999 310.586L2.34313 304.929C1.95261 304.538 1.31944 304.538 0.928919 304.929C0.538395 305.319 0.538395 305.953 0.928919 306.343L7.29288 312.707ZM7 15.5625C7 16.1148 7.44771 16.5625 8 16.5625C8.55228 16.5625 9 16.1148 9 15.5625L7 15.5625ZM9 34.6875C9 34.1352 8.55228 33.6875 8 33.6875C7.44771 33.6875 7 34.1352 7 34.6875L9 34.6875ZM7 53.8125C7 54.3648 7.44771 54.8125 8 54.8125C8.55228 54.8125 9 54.3648 9 53.8125L7 53.8125ZM9 72.9375C9 72.3852 8.55228 71.9375 8 71.9375C7.44771 71.9375 7 72.3852 7 72.9375L9 72.9375ZM7 92.0625C7 92.6148 7.44771 93.0625 8 93.0625C8.55228 93.0625 9 92.6148 9 92.0625L7 92.0625ZM9 111.188C9 110.635 8.55228 110.188 8 110.188C7.44771 110.187 7 110.635 7 111.187L9 111.188ZM6.99999 130.312C6.99999 130.865 7.44771 131.312 7.99999 131.312C8.55228 131.313 8.99999 130.865 8.99999 130.313L6.99999 130.312ZM8.99999 149.438C8.99999 148.885 8.55228 148.438 7.99999 148.438C7.44771 148.437 6.99999 148.885 6.99999 149.437L8.99999 149.438ZM6.99999 168.562C6.99999 169.115 7.44771 169.562 7.99999 169.562C8.55228 169.563 8.99999 169.115 8.99999 168.563L6.99999 168.562ZM8.99999 187.688C8.99999 187.135 8.55228 186.688 7.99999 186.688C7.44771 186.687 6.99999 187.135 6.99999 187.687L8.99999 187.688ZM6.99999 206.812C6.99999 207.365 7.44771 207.812 7.99999 207.812C8.55228 207.813 8.99999 207.365 8.99999 206.813L6.99999 206.812ZM8.99999 225.938C8.99999 225.385 8.55228 224.938 7.99999 224.938C7.44771 224.937 6.99999 225.385 6.99999 225.937L8.99999 225.938ZM6.99999 245.062C6.99999 245.615 7.4477 246.062 7.99999 246.062C8.55227 246.063 8.99999 245.615 8.99999 245.063L6.99999 245.062ZM8.99999 264.188C8.99999 263.635 8.55227 263.188 7.99999 263.188C7.4477 263.187 6.99999 263.635 6.99999 264.187L8.99999 264.188ZM6.99999 283.312C6.99999 283.865 7.4477 284.312 7.99999 284.312C8.55227 284.313 8.99999 283.865 8.99999 283.313L6.99999 283.312ZM8.99999 302.438C8.99999 301.885 8.55227 301.438 7.99999 301.438C7.4477 301.437 6.99999 301.885 6.99999 302.437L8.99999 302.438ZM7 6L7 15.5625L9 15.5625L9 6L7 6ZM7 34.6875L7 53.8125L9 53.8125L9 34.6875L7 34.6875ZM7 72.9375L7 92.0625L9 92.0625L9 72.9375L7 72.9375ZM7 111.187L6.99999 130.312L8.99999 130.313L9 111.188L7 111.187ZM6.99999 149.437L6.99999 168.562L8.99999 168.563L8.99999 149.438L6.99999 149.437ZM6.99999 187.687L6.99999 206.812L8.99999 206.813L8.99999 187.688L6.99999 187.687ZM6.99999 225.937L6.99999 245.062L8.99999 245.063L8.99999 225.938L6.99999 225.937ZM6.99999 264.187L6.99999 283.312L8.99999 283.313L8.99999 264.188L6.99999 264.187ZM6.99999 302.437L6.99999 312L8.99999 312L8.99999 302.438L6.99999 302.437Z" fill="black"/>
</svg>
