<svg width="420" height="280" viewBox="0 0 420 280" fill="none" xmlns="http://www.w3.org/2000/svg">
<path d="M99.7943 250.892C99.5569 250.892 99.3267 250.77 99.1979 250.551C98.4105 249.21 97.6053 247.786 96.805 246.319C96.6225 245.985 96.7457 245.565 97.0805 245.382C97.4171 245.2 97.8354 245.323 98.018 245.658C98.8109 247.112 99.6089 248.523 100.39 249.851C100.583 250.18 100.472 250.604 100.144 250.797C100.034 250.861 99.9136 250.892 99.7943 250.892ZM346.318 248.26C346.289 248.26 346.26 248.257 346.231 248.254C345.853 248.207 345.584 247.862 345.631 247.483C345.812 246.039 346.047 244.463 346.351 242.666C346.415 242.29 346.771 242.04 347.147 242.1C347.523 242.164 347.777 242.52 347.714 242.897C347.413 244.673 347.18 246.229 347.002 247.654C346.959 248.004 346.661 248.26 346.318 248.26ZM95.1525 242.4C94.901 242.4 94.6591 242.263 94.537 242.024C93.8163 240.616 93.0889 239.154 92.376 237.676C92.2102 237.333 92.3541 236.92 92.6974 236.754C93.0424 236.589 93.4545 236.733 93.6197 237.076C94.3287 238.543 95.0505 239.996 95.7668 241.394C95.9404 241.734 95.8065 242.15 95.4666 242.324C95.3658 242.376 95.2583 242.4 95.1525 242.4ZM347.902 238.711C347.859 238.711 347.814 238.707 347.77 238.698C347.395 238.625 347.15 238.263 347.223 237.888C347.521 236.346 347.842 234.756 348.178 233.135C348.255 232.762 348.622 232.523 348.994 232.598C349.368 232.676 349.608 233.042 349.531 233.415C349.198 235.03 348.878 236.614 348.579 238.151C348.516 238.481 348.227 238.711 347.902 238.711ZM90.9401 233.687C90.6781 233.687 90.4272 233.537 90.3113 233.284C89.6465 231.829 88.9829 230.337 88.3384 228.849C88.1866 228.499 88.3473 228.092 88.6979 227.94C89.0479 227.789 89.455 227.95 89.6062 228.3C90.2469 229.779 90.9071 231.263 91.5685 232.708C91.7269 233.056 91.5741 233.466 91.2274 233.624C91.1339 233.667 91.0359 233.687 90.9401 233.687ZM349.852 229.229C349.805 229.229 349.756 229.225 349.707 229.214C349.334 229.134 349.097 228.767 349.176 228.394L350.19 223.661C350.271 223.289 350.633 223.048 351.011 223.131C351.384 223.21 351.621 223.578 351.541 223.951L350.527 228.682C350.458 229.007 350.171 229.229 349.852 229.229ZM87.0913 224.807C86.8197 224.807 86.5615 224.646 86.4517 224.378C85.8385 222.884 85.2332 221.368 84.6524 219.873C84.5147 219.517 84.6905 219.116 85.0467 218.978C85.4012 218.84 85.8021 219.016 85.9405 219.372C86.5178 220.859 87.1204 222.368 87.7308 223.854C87.8753 224.207 87.7067 224.611 87.3539 224.755C87.2677 224.791 87.1786 224.807 87.0913 224.807ZM351.874 219.762C351.827 219.762 351.779 219.758 351.731 219.747C351.358 219.669 351.119 219.303 351.197 218.929C351.533 217.333 351.86 215.751 352.172 214.196C352.247 213.821 352.611 213.577 352.985 213.654C353.36 213.73 353.602 214.094 353.527 214.468C353.214 216.027 352.886 217.614 352.549 219.214C352.481 219.54 352.194 219.762 351.874 219.762ZM83.5896 215.79C83.3079 215.79 83.0436 215.617 82.9411 215.337C82.3856 213.821 81.8396 212.283 81.3171 210.765C81.1928 210.404 81.3849 210.012 81.7461 209.888C82.105 209.763 82.4998 209.956 82.6241 210.316C83.1433 211.826 83.6865 213.355 84.2386 214.862C84.3697 215.22 84.186 215.617 83.8276 215.748C83.7486 215.777 83.6685 215.79 83.5896 215.79ZM353.767 210.27C353.726 210.27 353.684 210.266 353.641 210.259C353.266 210.19 353.018 209.83 353.087 209.454C353.4 207.744 353.673 206.145 353.896 204.702C353.954 204.325 354.305 204.068 354.684 204.125C355.061 204.183 355.32 204.536 355.261 204.913C355.033 206.39 354.767 207.956 354.446 209.704C354.384 210.037 354.094 210.27 353.767 210.27ZM80.4424 206.64C80.1501 206.64 79.8785 206.453 79.7844 206.16C79.2837 204.601 78.801 203.04 78.3497 201.519C78.241 201.153 78.4493 200.768 78.815 200.66C79.1818 200.552 79.5654 200.759 79.6741 201.126C80.1226 202.636 80.6025 204.188 81.0998 205.737C81.2163 206.1 81.0164 206.489 80.6529 206.606C80.5835 206.629 80.5124 206.64 80.4424 206.64ZM355.209 200.699C355.186 200.699 355.162 200.697 355.138 200.696C354.759 200.656 354.482 200.318 354.521 199.938C354.617 198.995 354.687 198.113 354.729 197.316C354.729 196.656 354.711 195.936 354.676 195.213C354.658 194.832 354.952 194.508 355.332 194.489C355.707 194.462 356.037 194.763 356.056 195.145C356.092 195.891 356.11 196.634 356.11 197.353C356.066 198.208 355.994 199.114 355.896 200.078C355.859 200.434 355.559 200.699 355.209 200.699ZM77.6877 197.358C77.3837 197.358 77.1048 197.156 77.0213 196.848C76.5935 195.273 76.1858 193.691 75.8089 192.145C75.7188 191.775 75.9456 191.401 76.3163 191.31C76.687 191.219 77.0605 191.447 77.1513 191.818C77.5253 193.353 77.9297 194.923 78.3541 196.486C78.4544 196.854 78.2365 197.234 77.8686 197.333C77.8087 197.351 77.7477 197.358 77.6877 197.358ZM354.895 191.059C354.557 191.059 354.262 190.812 354.212 190.467C353.992 188.949 353.695 187.369 353.33 185.77C353.245 185.398 353.478 185.028 353.85 184.943C354.222 184.856 354.592 185.089 354.677 185.462C355.051 187.097 355.354 188.715 355.579 190.269C355.634 190.647 355.372 190.997 354.995 191.052C354.961 191.057 354.928 191.059 354.895 191.059ZM75.4018 187.956C75.0826 187.956 74.7959 187.734 74.727 187.408C74.3832 185.794 74.0685 184.189 73.7907 182.637C73.7235 182.261 73.9733 181.902 74.349 181.836C74.7287 181.77 75.0837 182.018 75.1504 182.394C75.4248 183.931 75.7367 185.521 76.0777 187.121C76.1573 187.494 75.9193 187.861 75.5463 187.94C75.4981 187.951 75.4494 187.956 75.4018 187.956ZM352.764 181.633C352.466 181.633 352.191 181.44 352.102 181.141C351.66 179.671 351.154 178.139 350.595 176.586C350.466 176.227 350.652 175.832 351.011 175.703C351.37 175.571 351.766 175.759 351.895 176.118C352.462 177.694 352.976 179.25 353.426 180.744C353.535 181.109 353.328 181.494 352.962 181.604C352.896 181.624 352.829 181.633 352.764 181.633ZM73.7089 178.43C73.3696 178.43 73.0739 178.18 73.0257 177.835C72.7956 176.183 72.6063 174.555 72.4618 172.999C72.4265 172.618 72.706 172.283 73.0857 172.247C73.4653 172.213 73.8019 172.491 73.8372 172.871C73.9794 174.407 74.167 176.014 74.3938 177.644C74.4464 178.022 74.1833 178.371 73.8047 178.423C73.7728 178.429 73.7403 178.43 73.7089 178.43ZM349.506 172.531C349.233 172.531 348.975 172.368 348.867 172.1C348.767 171.856 348.666 171.611 348.564 171.368C348.023 170.152 347.477 168.922 346.933 167.691C346.779 167.342 346.937 166.934 347.286 166.78C347.635 166.628 348.043 166.785 348.197 167.134C348.74 168.363 349.285 169.592 349.832 170.821C349.941 171.082 350.044 171.331 350.145 171.579C350.29 171.933 350.119 172.335 349.766 172.479C349.681 172.515 349.593 172.531 349.506 172.531ZM72.8331 168.797C72.4629 168.797 72.1566 168.504 72.1426 168.132C72.1101 167.233 72.0933 166.336 72.0928 165.465C72.0928 164.716 72.1051 163.976 72.1297 163.248C72.1426 162.866 72.4473 162.54 72.8437 162.581C73.2251 162.594 73.5236 162.914 73.5107 163.295C73.4866 164.008 73.4743 164.732 73.4743 165.465C73.4749 166.319 73.4911 167.2 73.5236 168.082C73.5376 168.463 73.2397 168.783 72.8583 168.797C72.8499 168.797 72.8415 168.797 72.8331 168.797ZM345.633 163.67C345.365 163.67 345.11 163.513 344.998 163.251C344.361 161.767 343.735 160.276 343.124 158.781C342.98 158.428 343.15 158.024 343.503 157.881C343.858 157.735 344.259 157.905 344.403 158.259C345.01 159.748 345.634 161.23 346.268 162.708C346.418 163.058 346.255 163.464 345.905 163.615C345.816 163.652 345.723 163.67 345.633 163.67ZM73.308 159.156C73.2705 159.156 73.2313 159.152 73.1926 159.146C72.8163 159.083 72.5626 158.727 72.6259 158.35C72.8986 156.728 73.2789 155.115 73.7554 153.559C73.8674 153.194 74.2538 152.989 74.6184 153.101C74.9829 153.212 75.1879 153.598 75.0765 153.964C74.6173 155.463 74.2516 157.016 73.9884 158.58C73.9313 158.917 73.6389 159.156 73.308 159.156ZM341.99 154.711C341.711 154.711 341.448 154.541 341.344 154.265C340.739 152.666 340.201 151.171 339.698 149.694C339.575 149.333 339.768 148.94 340.13 148.818C340.491 148.693 340.883 148.888 341.006 149.249C341.504 150.711 342.037 152.192 342.637 153.776C342.772 154.133 342.591 154.532 342.235 154.667C342.154 154.697 342.071 154.711 341.99 154.711ZM76.1326 149.936C76.0363 149.936 75.9389 149.916 75.8453 149.873C75.4981 149.715 75.3458 149.304 75.5049 148.958C76.1785 147.485 76.962 146.028 77.8339 144.625C78.0355 144.301 78.4611 144.202 78.7853 144.403C79.1096 144.605 79.2087 145.03 79.0071 145.355C78.166 146.707 77.4105 148.113 76.7609 149.533C76.645 149.786 76.3941 149.936 76.1326 149.936ZM338.882 145.555C338.584 145.555 338.309 145.361 338.22 145.061C337.749 143.471 337.321 141.89 336.947 140.362C336.857 139.992 337.083 139.618 337.454 139.527C337.824 139.436 338.199 139.662 338.29 140.034C338.658 141.539 339.081 143.1 339.545 144.668C339.654 145.034 339.445 145.418 339.079 145.527C339.013 145.546 338.947 145.555 338.882 145.555ZM81.2118 141.739C81.0606 141.739 80.9083 141.689 80.7812 141.588C80.4827 141.349 80.4345 140.914 80.6725 140.616C81.6699 139.368 82.7681 138.136 83.9368 136.954C84.2044 136.683 84.6424 136.68 84.9134 136.948C85.1845 137.217 85.1873 137.654 84.919 137.925C83.7845 139.073 82.7188 140.268 81.7522 141.479C81.6156 141.65 81.4145 141.739 81.2118 141.739ZM336.593 136.163C336.267 136.163 335.978 135.933 335.915 135.601C335.722 134.584 335.546 133.546 335.392 132.518C335.329 131.892 335.284 131.305 335.253 130.722C335.233 130.341 335.525 130.016 335.906 129.995C336.259 129.971 336.612 130.266 336.632 130.647C336.663 131.21 336.705 131.776 336.762 132.347C336.91 133.325 337.083 134.344 337.272 135.344C337.342 135.719 337.097 136.08 336.722 136.151C336.679 136.159 336.636 136.163 336.593 136.163ZM88.0483 134.922C87.8534 134.922 87.6597 134.841 87.523 134.68C87.2749 134.391 87.3091 133.955 87.5992 133.707C88.8211 132.661 90.0789 131.617 91.3377 130.604C91.634 130.365 92.0691 130.411 92.3088 130.709C92.5479 131.006 92.5009 131.441 92.2041 131.68C90.9564 132.685 89.7093 133.72 88.4974 134.756C88.3664 134.868 88.2068 134.922 88.0483 134.922ZM95.5825 128.855C95.3737 128.855 95.167 128.76 95.0321 128.582C94.8019 128.277 94.8613 127.844 95.1653 127.614C96.4472 126.642 97.7643 125.675 99.0792 124.737C99.3905 124.516 99.8212 124.588 100.043 124.898C100.264 125.209 100.192 125.64 99.8811 125.862C98.5769 126.792 97.2704 127.752 95.9997 128.715C95.8749 128.809 95.7281 128.855 95.5825 128.855ZM335.941 126.543C335.93 126.543 335.92 126.542 335.91 126.542C335.529 126.525 335.233 126.202 335.25 125.821C335.322 124.186 335.451 122.593 335.586 120.971C335.618 120.591 335.942 120.308 336.332 120.341C336.712 120.372 336.995 120.706 336.962 121.086C336.828 122.695 336.702 124.271 336.63 125.883C336.614 126.253 336.307 126.543 335.941 126.543ZM103.459 123.241C103.237 123.241 103.018 123.133 102.885 122.934C102.672 122.618 102.757 122.189 103.074 121.976C104.407 121.084 105.777 120.194 107.147 119.331C107.47 119.129 107.896 119.225 108.099 119.548C108.302 119.871 108.205 120.297 107.882 120.501C106.524 121.356 105.165 122.238 103.843 123.124C103.725 123.203 103.592 123.241 103.459 123.241ZM111.643 118.088C111.407 118.088 111.177 117.967 111.048 117.749C110.854 117.421 110.963 116.997 111.291 116.803C112.674 115.985 114.091 115.173 115.502 114.389C115.836 114.203 116.257 114.324 116.442 114.657C116.627 114.991 116.507 115.411 116.174 115.597C114.773 116.375 113.366 117.181 111.995 117.992C111.884 118.057 111.763 118.088 111.643 118.088ZM336.644 116.898C336.631 116.898 336.617 116.897 336.603 116.897C336.222 116.874 335.931 116.547 335.954 116.166C336.035 114.798 336.075 113.574 336.076 112.425L335.956 111.469C335.908 111.09 336.175 110.745 336.553 110.696C336.936 110.649 337.279 110.916 337.327 111.294L337.452 112.297C337.456 112.325 337.458 112.354 337.458 112.382C337.458 113.57 337.417 114.835 337.333 116.248C337.312 116.614 337.007 116.898 336.644 116.898ZM120.095 113.39C119.846 113.39 119.605 113.255 119.483 113.019C119.306 112.68 119.437 112.263 119.775 112.087C121.189 111.349 122.645 110.611 124.103 109.895C124.445 109.726 124.859 109.867 125.028 110.21C125.196 110.553 125.055 110.967 124.713 111.135C123.264 111.846 121.818 112.578 120.415 113.311C120.312 113.365 120.203 113.39 120.095 113.39ZM128.773 109.128C128.512 109.128 128.262 108.979 128.146 108.727C127.986 108.38 128.137 107.97 128.483 107.81C129.611 107.289 130.745 106.777 131.886 106.275L132.491 105.67C132.761 105.4 133.198 105.4 133.468 105.67C133.738 105.94 133.738 106.377 133.468 106.647L132.771 107.344C132.711 107.405 132.639 107.453 132.561 107.487C131.388 108.003 130.222 108.528 129.063 109.064C128.969 109.108 128.87 109.128 128.773 109.128ZM335.891 107.296C335.571 107.296 335.282 107.071 335.215 106.744C334.867 105.044 334.437 103.566 333.9 102.226C333.758 101.872 333.93 101.47 334.285 101.328C334.638 101.187 335.041 101.358 335.184 101.712C335.751 103.13 336.204 104.685 336.569 106.466C336.646 106.84 336.404 107.205 336.031 107.281C335.984 107.291 335.937 107.296 335.891 107.296ZM136.859 104.028C136.623 104.028 136.393 103.906 136.263 103.688C136.069 103.359 136.179 102.936 136.507 102.742C138.131 101.785 139.411 100.969 140.535 100.174C140.847 99.9538 141.278 100.028 141.498 100.34C141.718 100.652 141.644 101.082 141.333 101.302C140.176 102.12 138.866 102.955 137.209 103.932C137.099 103.997 136.978 104.028 136.859 104.028ZM332.224 98.4306C332.009 98.4306 331.799 98.3314 331.663 98.1444C331.368 97.7356 331.049 97.3307 330.715 96.9421C330.013 96.1396 329.279 95.3494 328.54 94.599C328.272 94.3274 328.274 93.8901 328.546 93.6224C328.818 93.3547 329.255 93.357 329.523 93.6291C330.282 94.3991 331.035 95.2094 331.76 96.0377C332.122 96.4605 332.465 96.8956 332.783 97.3352C333.006 97.6443 332.937 98.0761 332.628 98.2995C332.506 98.3886 332.365 98.4306 332.224 98.4306ZM144.668 98.3662C144.488 98.3662 144.308 98.2962 144.173 98.1562C143.907 97.8823 143.913 97.445 144.187 97.1795C145.224 96.1743 146.117 95.1406 146.918 94.0183C146.941 93.9875 146.965 93.9584 146.992 93.9315C147.127 93.7971 147.26 93.6689 147.395 93.5462C147.675 93.2881 148.113 93.3082 148.371 93.5899C148.629 93.871 148.609 94.3084 148.327 94.566C148.221 94.6634 148.115 94.7642 148.009 94.8695C147.167 96.0416 146.231 97.1224 145.149 98.1718C145.015 98.3018 144.842 98.3662 144.668 98.3662ZM151.597 91.6854C151.42 91.6854 151.244 91.6182 151.109 91.4832C150.839 91.2133 150.839 90.7759 151.109 90.5066L151.137 90.478C152.026 89.3972 153.009 88.1803 154.098 86.805C154.335 86.5059 154.769 86.4561 155.069 86.6924C155.368 86.9293 155.418 87.3638 155.181 87.6629C154.086 89.0455 153.097 90.2697 152.159 91.4059C152.145 91.4227 152.102 91.4675 152.087 91.4826C151.95 91.6176 151.774 91.6854 151.597 91.6854ZM325.484 91.5235C325.328 91.5235 325.169 91.4703 325.04 91.3611C323.84 90.3503 322.566 89.3742 321.254 88.4603C320.941 88.2419 320.864 87.8118 321.082 87.4988C321.299 87.1852 321.73 87.1079 322.043 87.3263C323.391 88.2643 324.698 89.2662 325.93 90.3044C326.222 90.5497 326.259 90.9859 326.013 91.2777C325.877 91.4401 325.681 91.5235 325.484 91.5235ZM317.565 85.9924C317.448 85.9924 317.329 85.9627 317.22 85.8994C316.087 85.2437 314.89 84.5997 313.66 83.9848C313.466 83.9014 313.238 83.8039 313.011 83.7082C312.659 83.5598 312.495 83.1543 312.644 82.8026C312.792 82.451 313.197 82.2874 313.548 82.4353C313.781 82.5333 314.013 82.633 314.245 82.7338C315.533 83.3766 316.756 84.0346 317.913 84.7044C318.243 84.8954 318.356 85.3182 318.164 85.648C318.036 85.8692 317.804 85.9924 317.565 85.9924ZM157.62 84.1147C157.473 84.1147 157.323 84.0677 157.197 83.9697C156.896 83.7356 156.841 83.3016 157.075 83.0003L158.137 81.6311C158.773 80.8107 159.407 79.9926 160.042 79.1778C160.277 78.8765 160.712 78.8233 161.012 79.0568C161.313 79.2909 161.367 79.7254 161.133 80.0267C160.499 80.841 159.864 81.6586 159.229 82.4778L158.167 83.8482C158.03 84.0229 157.827 84.1147 157.62 84.1147ZM308.771 82.0237C308.695 82.0237 308.618 82.0108 308.542 81.9845C307.079 81.471 305.542 80.9787 303.975 80.5206C303.609 80.4137 303.399 80.0301 303.505 79.6638C303.613 79.2976 303.996 79.0876 304.362 79.194C305.953 79.6582 307.513 80.1583 309 80.6802C309.36 80.8062 309.549 81.2005 309.422 81.5606C309.322 81.8456 309.056 82.0237 308.771 82.0237ZM299.499 79.2987C299.444 79.2987 299.39 79.292 299.334 79.2786C297.848 78.9134 296.313 78.5657 294.641 78.2134C294.268 78.135 294.029 77.7682 294.107 77.3953C294.185 77.0218 294.554 76.7826 294.925 76.861C296.612 77.2161 298.163 77.5672 299.663 77.9362C300.033 78.0275 300.26 78.4016 300.17 78.7718C300.092 79.0876 299.809 79.2987 299.499 79.2987ZM290.039 77.2911C289.997 77.2911 289.954 77.2872 289.911 77.2794C288.333 76.9854 286.749 76.7042 285.159 76.4293C284.783 76.3643 284.532 76.0065 284.596 75.6307C284.661 75.255 285.02 75.0046 285.395 75.0679C286.99 75.3446 288.58 75.6268 290.164 75.9219C290.539 75.9919 290.786 76.3526 290.717 76.7272C290.655 77.0587 290.365 77.2911 290.039 77.2911ZM163.584 76.4926C163.433 76.4926 163.28 76.4433 163.153 76.3414C162.855 76.1022 162.807 75.6682 163.045 75.3703C164.153 73.9871 165.161 72.759 166.126 71.615C166.373 71.3232 166.808 71.2862 167.1 71.5326C167.391 71.7785 167.428 72.2147 167.182 72.5059C166.224 73.6405 165.224 74.8596 164.124 76.2338C163.987 76.4035 163.786 76.4926 163.584 76.4926ZM280.51 75.6234C280.472 75.6234 280.432 75.6201 280.394 75.6134C278.807 75.3423 277.216 75.0696 275.623 74.7868C275.247 74.7202 274.996 74.3612 275.063 73.9854C275.13 73.6097 275.481 73.356 275.864 73.426C277.455 73.7082 279.041 73.9804 280.626 74.2509C281.002 74.3153 281.255 74.672 281.19 75.0478C281.133 75.3854 280.841 75.6234 280.51 75.6234ZM270.987 73.9166C270.943 73.9166 270.899 73.9126 270.855 73.9037C269.154 73.5733 267.599 73.2518 266.1 72.9209C265.728 72.8386 265.492 72.4701 265.575 72.0977C265.658 71.7253 266.023 71.4873 266.399 71.5718C267.885 71.9 269.429 72.2192 271.118 72.5479C271.493 72.6207 271.737 72.9836 271.664 73.3577C271.6 73.6875 271.311 73.9166 270.987 73.9166ZM261.512 71.9834C261.471 71.9834 261.429 71.9795 261.387 71.9722C259.802 71.6827 258.197 71.3142 256.615 70.8786C256.247 70.7772 256.031 70.397 256.133 70.029C256.234 69.6606 256.619 69.445 256.982 69.5469C258.525 69.9719 260.091 70.3309 261.635 70.6131C262.011 70.682 262.259 71.0421 262.19 71.4167C262.13 71.7499 261.839 71.9834 261.512 71.9834ZM252.196 69.4265C252.117 69.4265 252.037 69.4125 251.959 69.3839C250.895 68.9942 249.819 68.5669 248.76 68.1127C248.315 67.9173 247.877 67.7202 247.439 67.5191C247.092 67.3601 246.939 66.9502 247.098 66.6035C247.257 66.2574 247.665 66.1034 248.015 66.263C248.446 66.4613 248.878 66.655 249.31 66.8454C250.341 67.2867 251.394 67.7056 252.434 68.087C252.792 68.218 252.976 68.615 252.846 68.9734C252.742 69.2529 252.477 69.4265 252.196 69.4265ZM169.842 69.1112C169.676 69.1112 169.509 69.0513 169.377 68.9303C169.095 68.6727 169.075 68.2359 169.333 67.9542C170.493 66.6847 171.599 65.5356 172.712 64.4414C172.983 64.1737 173.421 64.1776 173.689 64.4503C173.957 64.7225 173.952 65.1598 173.68 65.427C172.585 66.5038 171.496 67.6356 170.353 68.8866C170.217 69.0356 170.029 69.1112 169.842 69.1112ZM243.368 65.4779C243.263 65.4779 243.157 65.4544 243.057 65.404C241.62 64.6794 240.184 63.9306 238.748 63.1735C238.411 62.9954 238.281 62.5777 238.459 62.24C238.637 61.9023 239.054 61.7735 239.392 61.951C240.82 62.7042 242.248 63.449 243.679 64.1698C244.019 64.3417 244.157 64.7572 243.985 65.0977C243.863 65.339 243.621 65.4779 243.368 65.4779ZM176.756 62.3514C176.561 62.3514 176.367 62.2697 176.23 62.1101C175.982 61.82 176.016 61.3843 176.306 61.1357C177.575 60.0493 178.868 59.0318 180.148 58.1106C180.458 57.8871 180.889 57.9577 181.112 58.2679C181.335 58.577 181.264 59.0088 180.955 59.2317C179.706 60.1305 178.445 61.1245 177.205 62.1857C177.074 62.2966 176.914 62.3514 176.756 62.3514ZM234.795 60.989C234.686 60.989 234.576 60.9632 234.473 60.9089C233.049 60.1574 231.622 59.4114 230.189 58.6862C229.849 58.5138 229.713 58.0977 229.886 57.7578C230.058 57.4178 230.471 57.2812 230.814 57.4537C232.253 58.1828 233.687 58.9321 235.118 59.6875C235.455 59.8656 235.585 60.2834 235.407 60.621C235.282 60.8551 235.043 60.989 234.795 60.989ZM184.602 56.7285C184.364 56.7285 184.133 56.6053 184.005 56.3852C183.813 56.0554 183.925 55.6326 184.255 55.4405C185.676 54.6134 187.144 53.8602 188.618 53.201C188.964 53.0459 189.374 53.2016 189.53 53.5499C189.686 53.8982 189.53 54.307 189.181 54.4622C187.752 55.1011 186.329 55.8325 184.949 56.6344C184.84 56.6982 184.72 56.7285 184.602 56.7285ZM226.154 56.645C226.057 56.645 225.959 56.6243 225.864 56.5812C224.309 55.8605 222.869 55.2372 221.463 54.6755C221.109 54.5344 220.936 54.1323 221.078 53.7778C221.22 53.4228 221.622 53.252 221.976 53.3926C223.405 53.9632 224.867 54.5966 226.446 55.3279C226.792 55.4886 226.942 55.8991 226.782 56.2452C226.665 56.4972 226.415 56.645 226.154 56.645ZM217.17 53.0969C217.102 53.0969 217.032 53.0862 216.963 53.065C215.397 52.5733 213.847 52.1656 212.357 51.8531C211.983 51.7747 211.744 51.409 211.822 51.0355C211.901 50.662 212.267 50.4223 212.64 50.5013C214.174 50.8227 215.768 51.2416 217.377 51.7473C217.74 51.8615 217.943 52.249 217.829 52.613C217.737 52.9076 217.464 53.0969 217.17 53.0969ZM193.411 52.7978C193.118 52.7978 192.847 52.6108 192.753 52.3174C192.636 51.9539 192.836 51.5653 193.199 51.4488C193.779 51.2629 194.367 51.0876 194.963 50.923C195.959 50.6486 196.969 50.415 197.965 50.2297C198.338 50.158 198.701 50.4072 198.771 50.7824C198.841 51.1576 198.593 51.5182 198.218 51.5877C197.261 51.7663 196.289 51.9909 195.331 52.2546C194.753 52.4142 194.183 52.5845 193.621 52.7642C193.551 52.7872 193.48 52.7978 193.411 52.7978ZM207.722 51.1514C207.702 51.1514 207.681 51.1503 207.66 51.1486C206.072 51.0081 204.5 50.9711 202.923 51.0439C202.525 51.0501 202.219 50.7662 202.201 50.3854C202.184 50.004 202.479 49.6809 202.86 49.6635C204.499 49.5885 206.132 49.6266 207.782 49.7722C208.162 49.8058 208.443 50.1406 208.409 50.5209C208.378 50.8804 208.076 51.1514 207.722 51.1514Z" fill="#8EB4FD"/>
<path d="M66.6546 138.288C66.6546 140.004 65.263 141.396 63.5461 141.396C61.8291 141.396 60.4375 140.004 60.4375 138.288C60.4375 136.571 61.8291 135.179 63.5461 135.179C65.263 135.179 66.6546 136.571 66.6546 138.288Z" fill="#8EB4FD"/>
<path d="M358.164 108.945C360.647 105.329 359.729 100.383 356.112 97.8991C352.495 95.4152 347.55 96.3336 345.066 99.9504C342.582 103.567 343.5 108.513 347.117 110.997C350.734 113.481 355.68 112.562 358.164 108.945Z" fill="#8EB4FD"/>
<path d="M349.547 101.328C354.316 101.328 358.182 97.4617 358.182 92.6926C358.182 87.9235 354.316 84.0574 349.547 84.0574C344.778 84.0574 340.912 87.9235 340.912 92.6926C340.912 97.4617 344.778 101.328 349.547 101.328Z" stroke="#8EB4FD" stroke-width="0.690816" stroke-miterlimit="10"/>
<path d="M151.626 50.8983C154.679 50.8983 157.153 48.4239 157.153 45.3716C157.153 42.3193 154.679 39.845 151.626 39.845C148.574 39.845 146.1 42.3193 146.1 45.3716C146.1 48.4239 148.574 50.8983 151.626 50.8983Z" fill="#8EB4FD"/>
<path d="M159.57 52.9709C162.814 52.9709 165.443 50.3418 165.443 47.0987C165.443 43.8556 162.814 41.2266 159.57 41.2266C156.327 41.2266 153.698 43.8556 153.698 47.0987C153.698 50.3418 156.327 52.9709 159.57 52.9709Z" stroke="#8EB4FD" stroke-width="0.690816" stroke-miterlimit="10"/>
<path d="M75.6347 124.816C77.5424 124.816 79.0888 123.269 79.0888 121.362C79.0888 119.454 77.5424 117.908 75.6347 117.908C73.7271 117.908 72.1807 119.454 72.1807 121.362C72.1807 123.269 73.7271 124.816 75.6347 124.816Z" stroke="#8EB4FD" stroke-width="0.690816" stroke-miterlimit="10"/>
<path d="M350.237 146.922C352.336 146.922 354.037 145.221 354.037 143.123C354.037 141.024 352.336 139.323 350.237 139.323C348.139 139.323 346.438 141.024 346.438 143.123C346.438 145.221 348.139 146.922 350.237 146.922Z" stroke="#8EB4FD" stroke-width="0.690816" stroke-miterlimit="10"/>
<path d="M280.464 101.673C280.464 101.673 278.737 61.2601 266.302 51.2429C253.867 41.2261 265.266 94.0745 280.464 101.673Z" fill="#ABC8FF"/>
<path d="M276.9 96.3683C273.109 91.0931 271.743 84.1451 273.254 77.8267C273.588 76.4311 274.101 74.9959 275.195 74.0668C276.397 73.0465 278.119 72.8231 279.67 73.1087C281.22 73.3937 282.647 74.1273 284.047 74.8514C283.523 71.6835 283.619 68.2607 283.633 65.0497C283.646 62.3656 283.874 59.5852 285.162 57.2299C286.45 54.8751 289.043 53.0534 291.703 53.4185C294.754 53.8374 296.731 56.7583 298.31 59.4027C299.187 55.1803 301.392 50.9685 304.232 47.7233C306.891 44.6847 310.922 42.1776 314.805 43.2881C318.069 44.2216 320.219 47.5592 320.639 50.9282C321.06 54.2971 320.055 57.6818 318.773 60.8256C317.377 64.2523 315.638 67.5389 313.59 70.6211C315.978 70.3635 319.324 70.6346 320.783 72.5425C321.834 73.9173 321.95 75.8252 321.529 77.5041C320.873 80.1199 319.058 82.3268 316.911 83.9598C314.764 85.5927 312.284 86.7189 309.827 87.8322C313.402 89.2859 315.45 93.8959 313.926 97.4418C313.03 99.5272 311.212 101.078 309.288 102.282C304.105 105.526 297.686 106.74 291.677 105.615C285.666 104.488 280.469 101.334 276.9 96.3683Z" fill="#6695FF"/>
<path d="M314.545 44.7957L287.948 98.7948" stroke="#0B334C" stroke-width="0.518112" stroke-miterlimit="10" stroke-linecap="round" stroke-linejoin="round"/>
<path d="M290.251 54.4668L300.613 72.8891" stroke="#0B334C" stroke-width="0.518112" stroke-miterlimit="10" stroke-linecap="round" stroke-linejoin="round"/>
<path d="M286.797 56.6548L298.886 76.5734" stroke="#0B334C" stroke-width="0.518112" stroke-miterlimit="10" stroke-linecap="round" stroke-linejoin="round"/>
<path d="M311.435 84.4028L295.086 84.633" stroke="#0B334C" stroke-width="0.518112" stroke-miterlimit="10" stroke-linecap="round" stroke-linejoin="round"/>
<path d="M283.5 99.0915C283.5 99.0915 264.806 68.217 250.779 65.7172C236.753 63.2174 268.349 99.6689 283.5 99.0915Z" fill="#6695FF"/>
<path d="M250.299 68.1682L271.714 89.0081" stroke="#0B334C" stroke-width="0.518112" stroke-miterlimit="10" stroke-linecap="round" stroke-linejoin="round"/>
<path d="M108.333 239.838C108.333 239.838 86.4574 193.553 105.109 182.73C123.762 171.907 111.557 240.069 111.557 240.069L108.333 239.838Z" fill="#ABC8FF"/>
<path d="M107.642 235.002C107.642 235.002 95.668 199.771 85.7666 199.771C75.8647 199.771 83.2338 218.423 104.879 235.924L107.642 235.002Z" fill="#ABC8FF"/>
<path d="M83.751 202.188L99.8129 227.058" stroke="#ABC8FF" stroke-width="0.518112" stroke-miterlimit="10" stroke-linecap="round" stroke-linejoin="round"/>
<path d="M84.5 250.891C84.5 250.891 77.0162 243.753 80.3549 237.19C83.6942 230.627 93.3654 232.7 93.3654 232.7C93.3654 232.7 89.1055 223.719 96.7047 219.689C104.304 215.659 110.521 225.791 110.521 225.791C110.521 225.791 114.666 214.163 131.361 214.508C148.056 214.854 147.02 232.7 147.02 232.7C147.02 232.7 151.165 228.9 156.461 232.354C161.757 235.808 156.461 242.371 156.461 242.371C156.461 242.371 161.642 243.868 161.296 250.776L84.5 250.891Z" fill="#6695FF"/>
<path d="M295.509 200.231H107.911V85.1904C107.911 82.7208 109.913 80.7188 112.383 80.7188H291.038C293.507 80.7188 295.509 82.7208 295.509 85.1904V200.231Z" fill="white" stroke="#1F5B99" stroke-width="0.646016" stroke-miterlimit="10"/>
<path d="M295.509 89.6995H107.911V85.1904C107.911 82.7208 109.913 80.7188 112.383 80.7188H291.038C293.507 80.7188 295.509 82.7208 295.509 85.1904V89.6995Z" fill="#1F5B99"/>
<path d="M250.298 147.129C250.866 144.716 249.369 142.298 246.955 141.731C244.542 141.163 242.124 142.659 241.557 145.073C240.989 147.487 242.485 149.904 244.899 150.472C247.313 151.04 249.73 149.543 250.298 147.129Z" fill="#00A2DD"/>
<path d="M263.833 149.264C265.587 147.51 265.587 144.667 263.833 142.914C262.08 141.16 259.237 141.16 257.484 142.914C255.73 144.667 255.73 147.51 257.484 149.264C259.237 151.017 262.08 151.017 263.833 149.264Z" fill="#A73AFC"/>
<path d="M276.965 150.299C279.293 149.444 280.487 146.863 279.632 144.535C278.776 142.208 276.196 141.014 273.868 141.869C271.54 142.725 270.346 145.305 271.201 147.633C272.056 149.961 274.637 151.154 276.965 150.299Z" fill="#F64652"/>
<path d="M234.096 100.517H166.169V188.032H234.096V100.517Z" stroke="#0B334C" stroke-width="0.646016" stroke-miterlimit="10"/>
<path d="M236.597 141.747H231.542V146.802H236.597V141.747Z" fill="white" stroke="#1F5B99" stroke-width="0.646016" stroke-miterlimit="10"/>
<path d="M236.597 185.505H231.542V190.56H236.597V185.505Z" fill="white" stroke="#1F5B99" stroke-width="0.646016" stroke-miterlimit="10"/>
<path d="M236.597 98.1477H231.542V103.203H236.597V98.1477Z" fill="white" stroke="#1F5B99" stroke-width="0.646016" stroke-miterlimit="10"/>
<path d="M168.67 98.1477H163.615V103.203H168.67V98.1477Z" fill="white" stroke="#1F5B99" stroke-width="0.646016" stroke-miterlimit="10"/>
<path d="M168.433 141.747H163.378V146.802H168.433V141.747Z" fill="white" stroke="#1F5B99" stroke-width="0.646016" stroke-miterlimit="10"/>
<path d="M168.433 185.189H163.378V190.244H168.433V185.189Z" fill="white" stroke="#1F5B99" stroke-width="0.646016" stroke-miterlimit="10"/>
<path d="M197.604 98.306V103.361H202.66V98.306H197.604Z" fill="white" stroke="#1F5B99" stroke-width="0.646016" stroke-miterlimit="10"/>
<path d="M197.604 184.557V189.612H202.66V184.557H197.604Z" fill="white" stroke="#1F5B99" stroke-width="0.646016" stroke-miterlimit="10"/>
<path d="M222.976 131.479C222.976 119.03 213.081 108.893 200.727 108.503C187.957 108.1 177.068 118.579 177 131.355C176.967 137.589 179.417 143.248 183.418 147.406C187.144 151.279 189.343 156.366 189.343 161.74V162.644H210.634V161.748C210.634 156.459 212.674 151.358 216.382 147.588C220.46 143.441 222.976 137.755 222.976 131.479Z" fill="#A73AFC"/>
<path d="M205.188 180.216H194.788C191.81 180.216 189.395 177.802 189.395 174.822V162.366H210.581V174.822C210.582 177.802 208.166 180.216 205.188 180.216Z" fill="#0B334C"/>
<path d="M209.683 173.466L189.595 169.398C188.776 169.232 188.188 168.512 188.188 167.676C188.188 166.565 189.205 165.734 190.293 165.954L210.381 170.022C211.2 170.188 211.789 170.908 211.789 171.744C211.789 172.855 210.771 173.687 209.683 173.466Z" fill="#114D73"/>
<path d="M209.683 169.881L189.595 165.812C188.776 165.647 188.188 164.927 188.188 164.09C188.188 162.98 189.205 162.148 190.293 162.368L210.381 166.437C211.2 166.603 211.789 167.323 211.789 168.159C211.789 169.27 210.771 170.102 209.683 169.881Z" fill="#0B334C"/>
<path d="M209.683 177.051L189.595 172.983C188.776 172.817 188.188 172.097 188.188 171.261C188.188 170.15 189.205 169.319 190.293 169.539L210.381 173.607C211.2 173.773 211.789 174.493 211.789 175.329C211.789 176.44 210.771 177.272 209.683 177.051Z" fill="#0B334C"/>
<path d="M202.363 164.418L201.179 164.265C202.191 156.382 203.41 148.443 204.815 140.579C203.441 141.392 201.812 141.944 199.991 142.193C198.706 142.368 197.044 142.424 195.379 141.996C197.604 148.777 199.144 155.786 199.964 162.877L198.777 163.015C197.931 155.702 196.311 148.477 193.955 141.504C193.556 141.325 193.161 141.112 192.778 140.857C191.505 140.013 190.505 138.709 190.036 137.28C189.777 136.486 190.125 135.683 190.884 135.326C191.644 134.967 192.489 135.212 192.936 135.922C193.552 136.898 193.984 137.996 194.359 139.036C194.546 139.554 194.729 140.075 194.908 140.595C196.325 141.109 198.018 141.258 199.83 141.009C201.241 140.817 203.336 140.307 205.106 138.969C205.452 137.073 205.807 135.181 206.174 133.296C206.259 132.86 206.375 132.263 206.787 131.804C207.066 131.492 207.48 131.298 207.894 131.284C208.238 131.266 208.574 131.393 208.812 131.625C209.138 131.942 209.218 132.364 209.251 132.697C209.368 133.868 209.244 134.937 208.882 135.873C208.315 137.333 207.402 138.589 206.206 139.596C204.714 147.831 203.425 156.154 202.363 164.418ZM191.594 136.359C191.504 136.359 191.428 136.389 191.392 136.407C191.291 136.453 191.07 136.596 191.172 136.907C191.55 138.06 192.348 139.115 193.368 139.814C193.324 139.689 193.279 139.565 193.234 139.441C192.881 138.463 192.479 137.438 191.924 136.558C191.826 136.402 191.701 136.359 191.594 136.359ZM207.945 132.476C207.881 132.476 207.755 132.512 207.675 132.601C207.498 132.798 207.424 133.122 207.346 133.524C207.088 134.853 206.835 136.187 206.587 137.523C207.053 136.931 207.457 136.242 207.767 135.441C208.061 134.681 208.16 133.798 208.062 132.816C208.035 132.555 207.991 132.493 207.978 132.481C207.972 132.478 207.96 132.476 207.945 132.476Z" fill="#0B334C"/>
<path d="M190.656 162.323L210.575 166.525" stroke="white" stroke-width="0.172704" stroke-miterlimit="10" stroke-linecap="round" stroke-linejoin="round"/>
<path d="M189.447 172.857L209.827 177.175" stroke="white" stroke-width="0.172704" stroke-miterlimit="10" stroke-linecap="round" stroke-linejoin="round"/>
<path d="M244.127 236.003L241.144 240.001H244.247L244.127 236.003Z" fill="#8EB4FD"/>
<path d="M268.577 236.003L271.561 240.001H268.458L268.577 236.003Z" fill="#8EB4FD"/>
<path d="M268.592 236.003H244.127V249.071H268.592V236.003Z" fill="#8EB4FD"/>
<path d="M270.263 241.374H242.456L244.127 236.003H268.592L270.263 241.374Z" fill="#8EB4FD"/>
<path d="M268.571 236.046L269.867 239.975H270.946L268.571 236.046Z" fill="#0B334C"/>
<path d="M268.571 241.357H244.124V243.3L268.571 241.357Z" fill="#0B334C"/>
<path d="M214.3 235.274L215.689 238.606H212.079H209.68H204.148C204.148 238.606 202.878 240.529 201.622 242.895C199.696 246.523 201.324 251.023 205.132 252.564C209.801 254.454 215.076 253.94 219.279 251.236C226.942 249.224 236.658 246.037 239.536 242.247C243.237 237.372 214.3 235.274 214.3 235.274Z" fill="#0B334C"/>
<path d="M215.534 238.791C215.534 238.791 213.992 244.961 217.262 245.701C220.532 246.442 232.564 242.678 232.132 239.1" stroke="white" stroke-width="0.18508" stroke-miterlimit="10" stroke-linecap="round" stroke-linejoin="round"/>
<path d="M216.83 238.544L225.283 237.372" stroke="white" stroke-width="0.18508" stroke-miterlimit="10" stroke-linecap="round" stroke-linejoin="round"/>
<path d="M205.91 243.789L211.154 243.974C211.154 243.974 211.339 250.39 208.933 250.576C206.527 250.761 204.614 248.601 205.91 243.789Z" stroke="white" stroke-width="0.18508" stroke-miterlimit="10" stroke-linecap="round" stroke-linejoin="round"/>
<path d="M203.996 239.778C203.996 239.778 209.858 240.58 215.225 240.148" stroke="white" stroke-width="0.18508" stroke-miterlimit="10" stroke-linecap="round" stroke-linejoin="round"/>
<path d="M224.901 252.093C223.205 251.974 222.798 249.659 224.347 248.959C227.589 247.493 231.902 245.79 233.304 246.38C235.221 247.187 231.116 252.531 224.901 252.093Z" fill="#00A2DD"/>
<path d="M230.59 220.729C230.325 219.633 230.044 218.51 229.931 218.085C229.908 218.026 229.894 217.959 229.879 217.9C229.627 217.041 229.375 216.182 229.101 215.331C228.037 211.967 226.787 208.728 225.309 205.504C225.357 204.606 225.437 202.618 225.194 202.579C224.88 202.529 224.509 203.938 224.509 203.938C224.509 203.938 224.73 201.478 224.288 201.49C223.846 201.502 223.77 203.546 223.77 203.546C223.77 203.546 223.209 201.039 222.867 201.265C222.525 201.491 222.911 203.462 222.911 203.462C222.911 203.462 221.984 201.227 221.687 201.442C221.39 201.657 222.348 204.489 222.348 204.489C222.348 204.489 221.093 204.032 220.93 204.406C220.804 204.695 222.023 205.813 222.579 206.302C222.579 206.303 222.579 206.304 222.579 206.305C222.579 206.321 222.586 206.328 222.586 206.342L222.594 206.387C223.046 208.016 223.497 209.696 223.89 211.37C224.289 213.043 224.66 214.716 224.993 216.397C225.17 217.293 225.333 218.196 225.489 219.092C223.209 219.499 220.876 219.751 218.529 219.921C217.971 219.961 217.412 219.987 216.853 220.016C216.979 221.453 217.052 222.894 217.086 224.349C217.099 224.942 217.139 225.53 217.186 226.117C217.831 226.054 218.477 225.994 219.122 225.912C220.921 225.675 222.72 225.386 224.512 225.001C225.089 224.875 225.659 224.742 226.237 224.594C226.811 224.453 227.851 224.141 228.829 223.836C230.142 223.426 230.913 222.067 230.59 220.729Z" fill="#FFCBA1"/>
<path d="M225.453 219.032C225.453 219.032 225.731 221.022 226.101 221.716" stroke="#0B334C" stroke-width="0.18508" stroke-miterlimit="10" stroke-linecap="round" stroke-linejoin="round"/>
<path d="M218.127 226.204C218.127 226.204 207.638 228.117 205.478 225.217C203.319 222.318 206.774 220.034 207.453 219.973C208.132 219.911 217.51 219.85 217.51 219.85L218.127 226.204Z" fill="#1D2550"/>
<path d="M211.493 219.282V213.584H207.014V219.282C207.014 219.968 206.543 220.583 205.857 220.583L205.51 220.652C211.955 225.972 212.779 220.524 212.779 220.524H212.735C212.049 220.524 211.493 219.968 211.493 219.282Z" fill="#FFCBA1"/>
<path d="M211.494 217.075V218.386C210.976 218.149 210.473 217.816 210.065 217.356C209.888 217.156 209.71 216.89 209.532 216.564C210.139 216.831 210.754 216.978 211.265 217.053C211.339 217.068 211.413 217.075 211.494 217.075Z" fill="#0B334C"/>
<path d="M206.694 220.169C206.694 220.169 212.141 220.22 212.82 220.528C213.499 220.837 216.645 223.86 217.077 225.711C217.509 227.562 214.856 233.053 215.165 234.102C215.473 235.151 216.671 238.606 216.671 238.606H203.689C203.689 238.606 205.355 232.19 203.812 228.364C202.27 224.539 202.667 220.303 206.694 220.169Z" fill="#1D2550"/>
<path d="M252.957 240.181C252.907 239.817 249.959 239.325 249.959 239.325C249.959 239.325 250.953 238.434 250.701 238.114C250.506 237.866 248.948 238.411 248.254 238.671C248.24 238.667 248.228 238.66 248.214 238.658L248.17 238.648C246.521 238.276 244.823 237.876 243.167 237.431C241.504 236.993 239.849 236.533 238.215 236.032C234.949 235.032 231.736 233.902 228.735 232.522C225.764 231.14 222.918 229.397 220.154 227.499C219.231 226.869 218.325 226.209 217.425 225.541C217.234 225.894 217.045 226.246 216.864 226.595C216.123 228.025 215.395 229.585 214.562 231.071C215.324 231.58 216.097 232.075 216.883 232.553C218.436 233.493 220.022 234.387 221.66 235.204C223.308 236.005 224.992 236.763 226.737 237.391C228.471 238.008 230.207 238.562 231.957 238.997C232.829 239.233 233.706 239.426 234.58 239.631C235.457 239.816 236.333 240.002 237.211 240.16C240.686 240.805 244.14 241.241 247.678 241.463C248.453 241.934 250.15 242.93 250.298 242.735C250.491 242.482 249.424 241.49 249.424 241.49C249.424 241.49 251.488 242.846 251.686 242.451C251.883 242.055 250.118 241.023 250.118 241.023C250.118 241.023 252.593 241.712 252.555 241.304C252.517 240.896 250.598 240.305 250.598 240.305C250.598 240.305 253.007 240.544 252.957 240.181Z" fill="#FFCBA1"/>
<path d="M216.46 232.683C216.46 232.683 205.724 227.87 206.712 223.243C207.699 218.616 211.894 220.714 213.437 222.38C214.979 224.046 220.154 227.5 220.154 227.5L216.46 232.683Z" fill="#1D2550"/>
<path d="M215.55 232.313C215.55 232.313 208.933 228.426 207.082 226.066" stroke="#0B334C" stroke-width="0.18508" stroke-miterlimit="10" stroke-linecap="round" stroke-linejoin="round"/>
<path d="M217.911 225.881L212.913 221.901" stroke="#0B334C" stroke-width="0.18508" stroke-miterlimit="10" stroke-linecap="round" stroke-linejoin="round"/>
<path d="M215.795 212.758C215.725 212.66 215.624 212.588 215.532 212.509C215.317 212.324 215.163 212.094 215.046 211.839C214.923 210.892 214.674 209.761 214.386 208.659C213.758 206.248 211.244 204.849 208.859 205.577C206.477 206.305 205.17 208.867 205.993 211.216C206.604 212.96 207.334 214.737 208.001 215.494C208.896 216.516 210.289 216.908 211.262 217.056C211.993 217.169 212.733 216.945 213.277 216.443C213.778 215.983 214.38 215.319 214.757 214.504C214.864 214.278 214.944 214.036 215.009 213.788C215.239 213.609 215.47 213.43 215.701 213.252C215.757 213.208 215.814 213.163 215.846 213.099C215.902 212.991 215.867 212.856 215.795 212.758Z" fill="#FFCBA1"/>
<path d="M213.026 213.515C213.026 214.09 212.559 214.557 211.984 214.557C211.409 214.557 210.942 214.09 210.942 213.515C210.942 212.94 211.409 212.473 211.984 212.473C212.559 212.473 213.026 212.939 213.026 213.515Z" fill="#FFB285"/>
<path d="M213.799 210.203C213.581 210.19 213.352 210.172 213.145 210.204C212.937 210.241 212.751 210.343 212.583 210.516L212.577 210.522C212.546 210.554 212.495 210.555 212.463 210.525C212.438 210.5 212.432 210.464 212.445 210.434C212.5 210.311 212.566 210.178 212.679 210.084C212.785 209.983 212.919 209.908 213.059 209.867C213.34 209.778 213.631 209.794 213.894 209.923C213.967 209.958 213.998 210.047 213.962 210.121C213.935 210.176 213.878 210.207 213.82 210.204L213.799 210.203Z" fill="#0B334C"/>
<path d="M213.472 214.746C213.36 214.761 213.259 214.72 213.153 214.694C213.062 214.638 212.953 214.59 212.904 214.484C213.005 214.529 213.086 214.582 213.188 214.608C213.278 214.663 213.379 214.684 213.472 214.746Z" fill="#0B334C"/>
<path d="M214.417 214.398C214.122 214.577 213.744 214.627 213.394 214.508C213.224 214.44 213.069 214.32 212.974 214.165C212.871 214.015 212.83 213.839 212.816 213.668C212.977 213.969 213.164 214.241 213.461 214.335C213.746 214.453 214.079 214.431 214.417 214.398Z" fill="#0B334C"/>
<path d="M213.944 211.926C213.693 211.854 213.495 211.815 213.292 211.829C213.09 211.836 212.892 211.897 212.637 211.961C212.696 211.843 212.786 211.747 212.897 211.675C213.006 211.595 213.143 211.561 213.28 211.549C213.556 211.537 213.836 211.683 213.944 211.926Z" fill="#0B334C"/>
<path d="M214.857 207.332C214.612 206.377 214.02 205.511 213.191 204.992C212.709 204.689 212.161 204.503 211.598 204.407C210.288 204.17 208.896 204.422 207.741 205.088C207.341 205.318 206.971 205.591 206.623 205.888C206.179 206.265 205.764 206.672 205.424 207.147C204.839 207.968 204.698 209.057 204.521 210.049C204.261 211.552 203.617 212.951 202.907 214.299C202.588 214.913 202.248 215.521 202.048 216.187C201.848 216.853 201.796 217.586 202.055 218.23C202.329 218.919 202.958 219.444 203.669 219.666C204.183 219.827 205.692 219.91 206.673 219.997C207.503 220.071 208.355 219.884 209.015 219.374C211.639 217.341 208.039 213.279 208.039 213.279C205.879 211.705 207.699 210.687 207.699 210.687C208.136 210.741 208.551 210.745 208.951 210.72C209.143 211.005 209.35 211.483 209.242 212.168C209.242 212.168 210.197 211.204 210.501 210.447C212.595 209.819 213.921 208.375 214.185 208.067C214.265 208.257 214.336 208.452 214.39 208.657C214.509 209.101 214.62 209.553 214.716 209.997C215.019 209.146 215.078 208.213 214.857 207.332Z" fill="#0B334C"/>
<path d="M233.258 35.9019L239.935 39.701L246.959 26L233.258 35.9019Z" fill="#8EB4FD"/>
<path d="M233.257 35.9019L233.026 40.9676L237.287 38.2046L233.257 35.9019Z" fill="#84D3EB"/>
<path d="M233.027 40.9677L230.609 35.2109L246.959 26L233.258 35.9019L233.027 40.9677Z" fill="#51BAD9"/>
<path d="M246.959 26L225.083 33.2537L230.61 35.2109L246.959 26Z" fill="#8EB4FD"/>
<path d="M333.242 154.723H308.212V125.939H327.062L333.242 132.665V154.723Z" fill="#8EB4FD"/>
<path d="M327.062 125.939L325.341 132.744L333.241 132.665L327.062 125.939Z" fill="#8EB4FD"/>
<path d="M326.979 125.882L325.367 132.79L333.197 132.732" stroke="#0B334C" stroke-width="0.518112" stroke-miterlimit="10" stroke-linecap="round" stroke-linejoin="round"/>
<path d="M124.941 71.8203C126.702 71.2877 128.51 71.5268 130.007 72.3472L125.162 56.3374L110.532 60.7648C110.628 59.9063 110.557 59.0153 110.291 58.1361C109.241 54.6669 105.578 52.7058 102.109 53.7558C98.6399 54.8058 96.6788 58.4688 97.7283 61.938C97.9943 62.8172 98.4294 63.5984 98.9855 64.2592L84.3555 68.6865L89.2006 84.6964C89.9919 83.1838 91.3639 81.982 93.1245 81.4489C96.5903 80.4 100.253 82.3606 101.302 85.8264C102.352 89.2979 100.392 92.9603 96.9258 94.0092C95.1651 94.5417 93.3575 94.3026 91.86 93.4822L96.7051 109.492L111.335 105.065C111.239 105.923 111.31 106.814 111.576 107.693C112.626 111.163 116.289 113.124 119.758 112.074C123.227 111.024 125.188 107.361 124.138 103.891C123.872 103.012 123.437 102.231 122.881 101.57L137.511 97.1429L132.666 81.1331C131.874 82.6456 130.502 83.8474 128.742 84.3805C125.276 85.4294 121.608 83.4705 120.557 79.9991C119.509 76.5332 121.475 72.8692 124.941 71.8203Z" fill="#00A2DD"/>
<path d="M97.4814 107.373L110.435 103.573" stroke="#0B334C" stroke-width="0.518112" stroke-miterlimit="10" stroke-linecap="round" stroke-linejoin="round"/>
<path d="M111.816 62.2967L124.597 58.2378" stroke="#0B334C" stroke-width="0.518112" stroke-miterlimit="10" stroke-linecap="round" stroke-linejoin="round"/>
<path d="M310.855 242.312L311.283 248.982L313.598 248.867C313.598 248.867 314.224 246.151 314.911 242.312H310.855Z" fill="#CC6F49"/>
<path d="M311.225 248.337C311.225 248.337 312.643 249.274 313.711 248.335L313.938 248.955C314.135 249.497 314.237 250.069 314.237 250.646V250.821L306.8 250.827C306.799 250.291 307.136 249.812 307.64 249.63L311.225 248.337Z" fill="#0B334C"/>
<path d="M322.492 242.312L323.199 249.043L325.511 248.867C325.511 248.867 326.028 246.16 326.59 242.312H322.492Z" fill="#CC6F49"/>
<path d="M323.175 248.328C323.175 248.328 324.593 249.266 325.662 248.328L325.887 248.949C326.084 249.491 326.185 250.063 326.185 250.64V250.815L318.748 250.814C318.748 250.278 319.085 249.799 319.59 249.617L323.175 248.328Z" fill="#0B334C"/>
<path d="M308.894 175.666C308.807 175.875 308.725 176.086 308.636 176.294C307.392 179.199 306.004 182.021 304.336 184.619C302.642 187.23 300.654 189.749 298.558 192.191C297.509 193.413 296.423 194.613 295.32 195.801C294.225 196.989 293.075 198.163 291.95 199.29L291.919 199.32C291.395 199.845 291.396 200.697 291.921 201.221C292.394 201.694 293.133 201.74 293.658 201.36C296.401 199.378 298.964 197.264 301.436 194.97C302.056 194.402 302.659 193.812 303.264 193.223C303.856 192.619 304.457 192.024 305.033 191.396C306.207 190.167 307.309 188.851 308.379 187.486C309.452 186.107 310.41 184.655 311.319 183.187C312.211 181.71 313.024 180.199 313.787 178.668C313.994 178.248 314.185 177.822 314.383 177.398C312.527 176.913 310.689 176.365 308.894 175.666Z" fill="#CC6F49"/>
<path d="M292.226 199.283C292.226 199.283 289.706 199.758 289.667 200.14C289.627 200.522 290.868 200.729 290.868 200.729C290.868 200.729 288.768 202.608 288.912 202.922C289.056 203.236 290.853 201.832 290.853 201.832C290.853 201.832 289.623 203.27 289.798 203.614C289.974 203.958 291.597 202.162 291.597 202.162C291.597 202.162 290.712 203.873 291.068 204.088C291.425 204.303 292.384 202.183 292.384 202.183C292.384 202.183 292.035 203.511 292.316 203.615C292.597 203.719 293.948 200.9 293.948 200.9L292.226 199.283Z" fill="#CC6F49"/>
<path d="M317.154 171.256C317.104 171.402 317.054 171.547 317.003 171.693C315.872 174.818 314.108 178.598 314.108 178.598L313.867 178.508L312.193 177.87L311.274 177.517H311.269L311.23 177.5L308.558 176.481L308.323 176.391C308.323 176.391 308.693 175.512 309.18 174.297C309.186 174.291 309.186 174.291 309.186 174.291C309.522 173.457 309.914 172.471 310.289 171.503C310.322 171.407 310.362 171.307 310.401 171.211C310.524 170.887 310.642 170.567 310.754 170.259C310.759 170.254 310.765 170.243 310.765 170.237C310.938 169.767 311.101 169.319 311.23 168.927C311.353 168.579 311.448 168.271 311.521 168.019C311.739 167.23 312.21 166.653 312.747 166.222C313.486 165.628 314.36 165.32 314.909 165.152C314.92 165.147 314.931 165.147 314.942 165.141C314.948 165.141 314.954 165.141 314.954 165.135C315.082 165.096 315.194 165.068 315.278 165.04C315.284 165.04 315.29 165.035 315.295 165.035C315.306 165.029 315.323 165.029 315.34 165.023H315.357C316.018 164.934 317.188 166.115 317.748 167.521C317.754 167.532 317.754 167.538 317.754 167.543C317.793 167.633 317.826 167.723 317.854 167.812C317.86 167.823 317.86 167.835 317.866 167.846C318.034 168.367 317.692 169.699 317.154 171.256Z" fill="#8EBDF4"/>
<path d="M321.046 165.365C320.592 166.037 320.15 166.547 319.724 166.922C319.5 167.123 319.276 167.28 319.063 167.409C318.862 167.532 318.66 167.622 318.47 167.689C318.257 167.756 318.055 167.795 317.854 167.812C317.798 167.818 317.736 167.818 317.68 167.818C317.406 167.818 317.148 167.773 316.907 167.683C316.532 167.56 316.191 167.359 315.888 167.112C315.871 167.107 315.86 167.095 315.849 167.084C315.519 166.815 315.244 166.513 315.02 166.233C314.908 166.087 314.807 165.947 314.729 165.824C314.611 165.656 314.533 165.522 314.488 165.443C314.46 165.393 314.443 165.365 314.443 165.365H314.483C314.527 165.365 314.572 165.365 314.611 165.359C314.88 165.326 315.115 165.208 315.295 165.035C315.317 165.018 315.334 165.001 315.351 164.979L315.356 164.973C315.541 164.766 315.653 164.491 315.653 164.195V158.824H319.875V160.342C319.875 160.347 319.875 160.347 319.875 160.347V164.195C319.875 164.413 319.937 164.62 320.043 164.799C320.122 164.934 320.234 165.051 320.363 165.141C320.447 165.208 320.547 165.259 320.648 165.292C320.771 165.343 320.906 165.365 321.046 165.365Z" fill="#CC6F49"/>
<path d="M319.876 160.347V160.482C319.68 160.896 319.478 161.238 319.282 161.473C318.481 162.47 317.182 162.884 316.269 163.063C316.062 163.103 315.861 163.114 315.653 163.097V162.207C315.973 162.285 316.314 162.302 316.645 162.235C317.557 162.061 318.857 161.641 319.663 160.644C319.73 160.56 319.803 160.459 319.876 160.347Z" fill="#0B334C"/>
<path d="M322.451 177.103C322.132 178.38 321.975 179.41 322.211 179.903C322.905 181.342 323.482 182.641 323.482 182.641H310.036C310.036 182.641 310.77 181.779 311.38 180.592C311.666 180.032 311.929 179.404 312.075 178.76V178.755C312.142 178.464 312.187 178.167 312.192 177.87C312.209 177.484 312.17 177.108 312.052 176.744C312.047 176.728 312.041 176.711 312.035 176.694C311.369 174.723 310.451 173.06 310.299 171.66C310.294 171.604 310.288 171.553 310.288 171.503C310.26 171.144 310.294 170.803 310.395 170.478C310.529 170.052 310.831 169.509 311.229 168.927C311.789 168.115 312.539 167.23 313.284 166.491C313.396 166.379 313.508 166.272 313.615 166.177C313.917 165.897 314.208 165.651 314.488 165.444C314.527 165.416 314.572 165.388 314.611 165.36C314.723 165.276 314.835 165.208 314.942 165.141C314.947 165.141 314.953 165.141 314.953 165.136C314.987 165.119 315.015 165.102 315.043 165.091L315.059 165.08L315.362 164.94L315.356 164.973V165.024C315.334 165.326 315.317 166.39 315.866 167.084C315.871 167.096 315.877 167.101 315.888 167.112C316.101 167.381 316.403 167.588 316.829 167.672C316.857 167.678 316.885 167.684 316.907 167.684C317.204 167.728 317.484 167.667 317.753 167.544C317.764 167.538 317.775 167.532 317.781 167.527C318.979 166.95 319.898 165.068 320.015 164.822L320.01 164.85C319.993 164.94 320.015 165.102 320.335 165.214C320.413 165.248 320.519 165.27 320.648 165.292C320.783 165.309 320.939 165.326 321.135 165.326C321.18 165.332 321.225 165.332 321.275 165.332C321.763 165.332 322.244 165.432 322.67 165.668C323.504 166.132 324.663 167.135 324.529 169.084C324.529 169.128 324.523 169.173 324.518 169.224C324.327 171.077 323.319 173.956 322.664 176.308C322.636 176.425 322.603 176.537 322.575 176.655C322.53 176.806 322.491 176.957 322.451 177.103Z" fill="#8EBDF4"/>
<path d="M327.077 224.148C328.36 230.566 327.99 238.025 327.357 243.608H321.281L317.305 204.291L317.289 204.112L317.277 204.308L315.967 224.204C316.941 229.558 316.23 237.605 315.424 243.608H309.953C309.314 233.12 308.194 214.83 307.477 203.86C307.477 203.837 307.472 203.82 307.472 203.798C307.349 201.883 307.231 200.192 307.136 198.808C307.024 197.162 306.934 195.952 306.873 195.303C306.71 193.522 307.018 191.411 307.533 189.294C307.623 188.924 307.718 188.555 307.819 188.191C308.228 186.69 308.721 185.223 309.202 183.896C309.325 183.56 309.443 183.24 309.566 182.927C309.913 181.997 310.249 181.163 310.524 180.48C310.854 179.645 311.101 179.035 311.19 178.727C311.274 178.436 311.28 178.01 311.229 177.5C311.229 177.484 311.224 177.461 311.224 177.444V177.439C311.19 177.131 311.14 176.789 311.073 176.436C310.905 175.557 310.658 174.583 310.417 173.743C310.227 173.054 310.188 172.343 310.3 171.66C310.328 171.508 310.356 171.357 310.401 171.212C310.485 170.881 310.602 170.562 310.753 170.26C310.759 170.254 310.765 170.243 310.765 170.237C310.877 170.019 311.005 169.806 311.151 169.604L313.374 166.513L313.615 166.177L314.069 165.544L314.444 165.365H314.449L314.909 165.152L315.043 165.091L315.06 165.08L315.362 164.94L315.357 164.973L315.351 164.979L315.34 165.024L315.021 166.233L314.858 166.855L313.777 170.954L317.154 171.256L317.636 171.301L318.924 167.79L319.064 167.409L320.01 164.85L320.016 164.822L320.027 164.794L320.044 164.8L321.147 165.253L321.136 165.326L321.013 165.987L320.621 168.182L319.937 171.99L322.043 176.268L322.228 176.638L322.452 177.103L323.891 180.026C323.891 180.026 324.059 180.53 324.384 181.476C325.117 183.599 326.618 187.933 328.69 193.752C331.681 202.157 327.077 224.148 327.077 224.148Z" fill="#0B334C"/>
<path d="M314.844 165.426L313.074 171.385L317.997 171.773L320.414 164.994" stroke="white" stroke-width="0.172704" stroke-miterlimit="10" stroke-linecap="round" stroke-linejoin="round"/>
<path d="M315.406 205.408L319.378 203.076" stroke="white" stroke-width="0.172704" stroke-miterlimit="10" stroke-linecap="round" stroke-linejoin="round"/>
<path d="M316.399 189.044H326.503" stroke="white" stroke-width="0.172704" stroke-miterlimit="10" stroke-linecap="round" stroke-linejoin="round"/>
<path d="M323.264 189.087C323.264 189.087 323.609 196.773 327.624 197.161" stroke="white" stroke-width="0.172704" stroke-miterlimit="10" stroke-linecap="round" stroke-linejoin="round"/>
<path d="M325.077 189.087C325.077 189.087 327.884 195.132 327.711 198.5C327.538 201.867 325.552 224.621 325.552 224.621V242.533" stroke="white" stroke-width="0.172704" stroke-miterlimit="10" stroke-linecap="round" stroke-linejoin="round"/>
<path d="M316.096 204.89L315.103 224.19C315.103 224.19 314.85 233.478 314.247 242.811" stroke="white" stroke-width="0.172704" stroke-miterlimit="10" stroke-linecap="round" stroke-linejoin="round"/>
<path d="M297.563 156.416L259.7 180.978L284.262 218.841L322.125 194.279L297.563 156.416Z" fill="white"/>
<path d="M296.275 162.464L265.751 182.265L285.552 212.789L316.076 192.988L296.275 162.464Z" fill="#8EB4FD"/>
<path d="M312.502 187.458L316.092 192.993L285.567 212.794L280.18 204.489C281.239 201.298 283.201 198.37 286.067 196.643C288.486 195.181 291.342 194.671 294.123 194.184C298.947 193.344 306.803 189.244 312.502 187.458Z" fill="#2CD0D1"/>
<path d="M293.941 176.62C295.118 178.433 294.602 180.858 292.788 182.034C290.974 183.211 288.55 182.695 287.373 180.881C286.197 179.067 286.713 176.643 288.527 175.466C290.34 174.289 292.764 174.806 293.941 176.62Z" fill="#8EBDF4"/>
<path d="M297.603 156.406L259.75 180.977L284.185 218.893L322.181 194.366L297.603 156.406Z" stroke="#0B334C" stroke-width="0.172704" stroke-miterlimit="10" stroke-linecap="round" stroke-linejoin="round"/>
<path d="M319.076 175.872C319.077 176.587 319.073 177.301 319.054 178.013C319.027 179.112 318.978 180.203 318.903 181.287C317.099 181.204 315.276 181.045 313.452 180.845C311.849 180.666 310.247 180.452 308.644 180.21C307.041 179.975 305.425 179.685 303.863 179.395L303.822 179.388C303.808 179.388 303.801 179.381 303.787 179.388H303.786C303.285 178.907 302.133 177.844 301.87 177.987C301.533 178.169 302.061 179.312 302.061 179.312C302.061 179.312 299.326 178.637 299.147 178.933C298.968 179.229 301.141 179.921 301.141 179.921C301.141 179.921 299.26 179.716 299.075 180.055C298.889 180.394 301.288 180.722 301.288 180.722C301.288 180.722 299.376 180.956 299.399 181.371C299.422 181.787 301.715 181.384 301.715 181.384C301.715 181.384 300.421 181.845 300.494 182.136C300.549 182.36 302.393 182.13 303.238 182.013C306.375 183.139 309.526 184.051 312.774 184.791C313.596 184.984 314.425 185.15 315.254 185.316C316.083 185.468 316.912 185.627 317.755 185.744C317.976 185.779 318.19 185.814 318.411 185.841C318.954 185.923 319.766 186.011 320.584 186.09C322.263 186.253 323.802 185.113 324.099 183.452C324.1 183.443 324.102 183.433 324.104 183.423C324.221 182.711 324.325 181.994 324.408 181.282C324.539 180.287 324.636 179.299 324.719 178.311C324.772 177.654 324.803 176.997 324.834 176.34C322.904 176.392 320.92 176.226 319.076 175.872Z" fill="#CC6F49"/>
<path d="M325.178 168.663C325.178 168.921 325.161 169.123 325.161 169.223C325.161 169.828 324.948 176.739 324.948 176.739L324.814 176.733L322.574 176.655L322.227 176.638L319.074 176.526L318.9 176.52C318.9 176.52 319.556 171.659 320.407 168.131C320.597 167.319 320.804 166.58 321.012 165.987C321.101 165.74 321.185 165.522 321.275 165.331C324.82 165.27 325.167 167.532 325.178 168.663Z" fill="#8EBDF4"/>
<path d="M322.24 157.576C322.021 158.102 321.254 158.707 320.672 158.662C320.414 159.329 320.145 159.922 319.876 160.342C319.876 160.348 319.876 160.348 319.876 160.348C319.804 160.46 319.731 160.561 319.663 160.645C318.857 161.641 317.558 162.061 316.645 162.235C316.309 162.302 315.973 162.291 315.654 162.213C315.318 162.129 314.999 161.966 314.73 161.731C314.237 161.311 313.649 160.712 313.268 159.956C313.089 159.62 312.96 159.256 312.893 158.858C312.86 158.657 312.848 158.41 312.854 158.136C312.871 157.145 313.112 155.767 313.408 154.44C313.912 152.144 316.231 150.738 318.499 151.343C320.599 151.897 321.887 153.964 321.517 156.041C321.545 156.053 321.579 156.058 321.607 156.069C322.195 156.31 322.48 156.982 322.24 157.576Z" fill="#CC6F49"/>
<path d="M317.191 158.976C317.191 159.518 317.631 159.958 318.173 159.958C318.715 159.958 319.155 159.518 319.155 158.976C319.155 158.434 318.715 157.995 318.173 157.995C317.631 157.995 317.191 158.434 317.191 158.976Z" fill="#C4533A"/>
<path d="M314.333 158.976C314.333 159.519 313.896 159.961 313.353 159.961C313.325 159.961 313.297 159.961 313.269 159.956C313.09 159.62 312.961 159.256 312.894 158.858C312.86 158.657 312.849 158.41 312.855 158.136C313 158.046 313.168 157.996 313.353 157.996C313.896 157.996 314.333 158.433 314.333 158.976Z" fill="#C4533A"/>
<path d="M315.914 156.751C316.083 157.12 315.998 157.533 315.93 157.873C315.891 158.047 315.844 158.218 315.849 158.343C315.85 158.468 315.954 158.621 316.07 158.78C315.889 158.738 315.67 158.655 315.577 158.414C315.496 158.177 315.55 157.978 315.579 157.797C315.664 157.424 315.797 157.121 315.914 156.751Z" fill="#0B334C"/>
<path d="M316.869 155.592C317.116 155.471 317.39 155.456 317.655 155.539C317.787 155.578 317.913 155.649 318.013 155.743C318.12 155.832 318.182 155.957 318.233 156.073C318.25 156.111 318.233 156.156 318.195 156.173C318.164 156.187 318.131 156.179 318.109 156.157L318.103 156.151C317.946 155.986 317.77 155.891 317.574 155.857C317.379 155.827 317.164 155.844 316.958 155.855L316.937 155.857C316.86 155.861 316.795 155.802 316.79 155.725C316.787 155.667 316.82 155.616 316.869 155.592Z" fill="#0B334C"/>
<path d="M314.809 155.855C314.603 155.844 314.388 155.827 314.193 155.857C313.996 155.891 313.82 155.987 313.663 156.151L313.657 156.157C313.628 156.187 313.58 156.188 313.551 156.159C313.527 156.136 313.521 156.102 313.534 156.073C313.585 155.957 313.647 155.832 313.754 155.743C313.854 155.649 313.98 155.578 314.112 155.539C314.377 155.456 314.651 155.471 314.898 155.592C314.968 155.625 314.996 155.709 314.963 155.779C314.938 155.831 314.884 155.86 314.83 155.857L314.809 155.855Z" fill="#0B334C"/>
<path d="M314.394 157.885C314.599 157.885 314.765 157.619 314.765 157.289C314.765 156.96 314.599 156.694 314.394 156.694C314.189 156.694 314.023 156.96 314.023 157.289C314.023 157.619 314.189 157.885 314.394 157.885Z" fill="#0B334C"/>
<path d="M317.004 157.289C317.004 157.619 317.17 157.886 317.375 157.886C317.58 157.886 317.745 157.619 317.745 157.289C317.745 156.96 317.58 156.694 317.375 156.694C317.17 156.694 317.004 156.96 317.004 157.289Z" fill="#0B334C"/>
<path d="M316.771 159.54C316.858 159.482 316.954 159.462 317.038 159.41C317.134 159.386 317.211 159.336 317.305 159.293C317.26 159.393 317.157 159.438 317.071 159.49C316.972 159.516 316.877 159.555 316.771 159.54Z" fill="#0B334C"/>
<path d="M315.881 159.213C316.199 159.244 316.513 159.264 316.782 159.154C317.062 159.065 317.238 158.809 317.39 158.525C317.377 158.686 317.337 158.852 317.241 158.993C317.152 159.139 317.005 159.251 316.845 159.316C316.515 159.428 316.159 159.381 315.881 159.213Z" fill="#0B334C"/>
<path d="M326.388 163.993C326.092 162.565 325.565 161.137 324.4 160.258C324.714 159.155 324.697 157.945 324.283 156.87C323.868 155.8 323.14 154.837 322.093 154.372C322.205 153.555 319.597 148.593 314.324 150.88C313.132 151.397 312.574 152.816 312.736 154.328C311.907 155.061 311.47 156.17 311.392 157.273C311.313 158.382 311.56 159.485 311.918 160.538C312.12 161.12 312.36 161.736 312.624 162.296C312.192 162.683 311.94 163.254 311.896 163.831C311.851 164.408 311.996 164.99 312.265 165.505C312.394 165.763 312.556 166.004 312.747 166.222C313.486 165.628 314.36 165.32 314.908 165.152L315.043 165.091L315.06 165.08C315.166 165.024 315.267 164.973 315.362 164.94L315.356 164.973C315.541 164.766 315.653 164.492 315.653 164.195V162.212C315.317 162.128 314.998 161.966 314.729 161.731C314.236 161.311 313.648 160.712 313.268 159.956C313.088 159.62 312.96 159.256 312.892 158.858C312.859 158.656 312.848 158.41 312.853 158.136C312.865 157.415 312.997 156.491 313.181 155.53C313.691 155.549 314.776 155.446 315.864 154.427C315.864 154.427 316.284 156.97 319.341 156.69C319.341 156.69 319.154 157.95 319.807 158.044C320.294 158.113 321.129 156.747 321.525 156.045C321.551 156.054 321.581 156.06 321.606 156.07C322.194 156.311 322.48 156.983 322.239 157.576C322.02 158.103 321.253 158.707 320.671 158.663C320.413 159.329 320.144 159.923 319.876 160.343C319.876 160.348 319.876 160.348 319.876 160.348V164.195C319.876 164.414 319.937 164.621 320.044 164.8L321.147 165.254L321.136 165.327C321.18 165.332 321.225 165.332 321.276 165.332C324.82 165.271 325.168 167.533 325.179 168.664C325.817 167.785 326.4 166.844 326.523 165.78C326.59 165.18 326.512 164.581 326.388 163.993Z" fill="#0B334C"/>
</svg>
