<svg width="280" height="280" viewBox="0 0 280 280" fill="none" xmlns="http://www.w3.org/2000/svg">
<path d="M251.945 223.157H233.396V223.297H251.945V223.157Z" fill="#EBEBEB"/>
<path d="M185.483 224.677H180.615V224.817H185.483V224.677Z" fill="#EBEBEB"/>
<path d="M232.835 217.957H222.088V218.097H232.835V217.957Z" fill="#EBEBEB"/>
<path d="M53.565 218.897H29.377V219.037H53.565V218.897Z" fill="#EBEBEB"/>
<path d="M62.0973 218.897H58.5508V219.037H62.0973V218.897Z" fill="#EBEBEB"/>
<path d="M126.084 221.262H73.625V221.402H126.084V221.262Z" fill="#EBEBEB"/>
<path d="M133.504 189.168H25.3684C23.606 189.168 22.1719 187.734 22.1719 185.972V33.9697C22.1719 32.2074 23.606 30.7732 25.3684 30.7732H133.504C135.266 30.7732 136.7 32.2074 136.7 33.9697V185.972C136.7 187.734 135.266 189.168 133.504 189.168ZM25.3684 30.9138C23.6828 30.9138 22.3119 32.2846 22.3119 33.9702V185.972C22.3119 187.658 23.6828 189.029 25.3684 189.029H133.504C135.189 189.029 136.56 187.658 136.56 185.972V33.9697C136.56 32.2846 135.189 30.9132 133.504 30.9132L25.3684 30.9138Z" fill="#EBEBEB"/>
<path d="M254.63 189.168H146.495C144.733 189.168 143.299 187.734 143.299 185.972V33.9697C143.299 32.2074 144.733 30.7732 146.495 30.7732H254.63C256.393 30.7732 257.827 32.2074 257.827 33.9697V185.972C257.827 187.734 256.393 189.168 254.63 189.168ZM146.495 30.9138C144.81 30.9138 143.439 32.2846 143.439 33.9702V185.972C143.439 187.658 144.81 189.029 146.495 189.029H254.63C256.316 189.029 257.687 187.658 257.687 185.972V33.9697C257.687 32.2846 256.316 30.9132 254.63 30.9132L146.495 30.9138Z" fill="#EBEBEB"/>
<path d="M280 214.143H0V214.283H280V214.143Z" fill="#EBEBEB"/>
<path d="M175.751 77.9561C175.82 77.1665 175.83 76.3909 175.795 75.6293L178.844 74.0143C178.745 73.0852 178.579 72.1797 178.354 71.2999L175.028 71.3548C174.559 69.9022 173.889 68.5498 173.049 67.3256L175.007 64.4775C174.452 63.7702 173.845 63.1055 173.192 62.4889L170.194 64.1969C169.053 63.2499 167.769 62.462 166.369 61.8656L166.714 58.5448C165.861 58.243 164.977 57.9983 164.064 57.8174L162.194 60.7249C161.442 60.623 160.671 60.5653 159.882 60.5653C159.092 60.5653 158.311 60.623 157.541 60.7249L156.181 57.8174C155.236 57.9983 154.309 58.2435 153.402 58.5448L153.167 61.8656C151.662 62.462 150.241 63.2499 148.934 64.1969L146.235 62.4889C145.473 63.106 144.751 63.7702 144.072 64.4775L145.531 67.3256C144.477 68.5498 143.571 69.9022 142.847 71.3548L139.531 71.2999C139.153 72.1797 138.828 73.0852 138.566 74.0143L141.333 75.6293C141.164 76.3909 141.039 77.1665 140.97 77.9561C140.901 78.7457 140.89 79.5213 140.926 80.2829L137.877 81.8979C137.977 82.827 138.142 83.7325 138.367 84.6123L141.693 84.5574C142.162 86.01 142.832 87.3624 143.672 88.5866L141.715 91.4347C142.27 92.142 142.876 92.8067 143.53 93.4233L146.527 91.7153C147.669 92.6623 148.952 93.4502 150.353 94.0466L150.007 97.3674C150.861 97.6692 151.744 97.9139 152.658 98.0948L154.527 95.1873C155.28 95.2892 156.05 95.3469 156.84 95.3469C157.629 95.3469 158.41 95.2892 159.18 95.1873L160.541 98.0948C161.485 97.9139 162.412 97.6687 163.318 97.3674L163.554 94.0466C165.059 93.4502 166.48 92.6623 167.787 91.7153L170.486 93.4233C171.247 92.8062 171.97 92.142 172.648 91.4347L171.19 88.5866C172.244 87.3624 173.15 86.01 173.874 84.5574L177.19 84.6123C177.568 83.7325 177.892 82.827 178.154 81.8979L175.388 80.2829C175.556 79.5213 175.681 78.7457 175.751 77.9561ZM157.843 83.8691C154.577 83.8691 152.161 81.222 152.447 77.9561C152.733 74.6902 155.612 72.0431 158.877 72.0431C162.143 72.0431 164.558 74.6902 164.273 77.9561C163.987 81.222 161.108 83.8691 157.843 83.8691Z" fill="#F0F0F0"/>
<path d="M209.042 63.3602C209.086 62.8562 209.101 62.359 209.091 61.869L213.356 59.6099C213.277 58.9749 213.163 58.3533 213.018 57.7446L208.361 57.8213C208.037 56.9034 207.611 56.0382 207.094 55.2391L209.834 51.2514C209.445 50.772 209.029 50.3156 208.587 49.8844L204.39 52.2756C203.642 51.6893 202.821 51.1881 201.938 50.7832L202.422 46.133C201.831 45.9347 201.224 45.7662 200.601 45.6323L197.985 49.6996C197.5 49.647 197.005 49.6178 196.501 49.6178C195.997 49.6178 195.498 49.647 195.003 49.6996L193.1 45.6323C192.453 45.7662 191.816 45.9347 191.191 46.133L190.861 50.7832C189.908 51.1881 188.999 51.6893 188.148 52.2756L184.37 49.8844C183.853 50.3156 183.357 50.772 182.884 51.2514L184.926 55.2391C184.27 56.0382 183.693 56.9034 183.208 57.8213L178.565 57.7446C178.313 58.3533 178.09 58.9749 177.9 59.6099L181.77 61.869C181.674 62.359 181.602 62.8562 181.558 63.3602C181.514 63.8642 181.499 64.3615 181.509 64.8515L177.244 67.1106C177.322 67.7456 177.437 68.3672 177.582 68.9759L182.239 68.8992C182.563 69.817 182.989 70.6822 183.506 71.4814L180.765 75.4691C181.155 75.9485 181.571 76.4049 182.013 76.8361L186.21 74.4449C186.958 75.0312 187.779 75.5324 188.661 75.9373L188.178 80.5875C188.769 80.7858 189.376 80.9549 189.999 81.0882L192.614 77.0209C193.1 77.0735 193.594 77.1026 194.098 77.1026C194.602 77.1026 195.102 77.0735 195.597 77.0209L197.5 81.0882C198.147 80.9543 198.784 80.7858 199.409 80.5875L199.739 75.9373C200.692 75.5324 201.601 75.0318 202.452 74.4449L206.23 76.8361C206.747 76.4049 207.244 75.9485 207.717 75.4691L205.674 71.4814C206.331 70.6822 206.907 69.817 207.392 68.8992L212.036 68.9759C212.287 68.3672 212.511 67.7456 212.7 67.1106L208.83 64.8515C208.926 64.3615 208.998 63.8642 209.042 63.3602ZM194.79 69.1854C191.573 69.1854 189.193 66.5774 189.475 63.3602C189.756 60.143 192.592 57.5351 195.809 57.5351C199.026 57.5351 201.406 60.143 201.125 63.3602C200.844 66.5774 198.007 69.1854 194.79 69.1854Z" fill="#EBEBEB"/>
<path d="M240.315 112.109C240.337 111.864 240.344 111.623 240.339 111.385L242.411 110.287C242.373 109.978 242.317 109.677 242.247 109.38L239.984 109.418C239.826 108.972 239.62 108.552 239.369 108.163L240.7 106.226C240.511 105.993 240.309 105.771 240.094 105.562L238.055 106.724C237.691 106.439 237.292 106.195 236.864 105.998L237.099 103.739C236.811 103.643 236.516 103.561 236.213 103.496L234.943 105.472C234.707 105.446 234.467 105.432 234.221 105.432C233.977 105.432 233.734 105.446 233.493 105.472L232.568 103.496C232.254 103.561 231.945 103.643 231.64 103.739L231.48 105.998C231.017 106.195 230.575 106.439 230.162 106.724L228.326 105.562C228.074 105.771 227.834 105.993 227.603 106.226L228.596 108.163C228.276 108.552 227.996 108.972 227.761 109.418L225.504 109.38C225.382 109.676 225.274 109.978 225.182 110.287L227.062 111.385C227.015 111.623 226.98 111.864 226.959 112.109C226.938 112.354 226.93 112.596 226.935 112.834L224.863 113.931C224.901 114.24 224.957 114.542 225.027 114.838L227.29 114.801C227.448 115.246 227.654 115.667 227.905 116.055L226.574 117.993C226.763 118.226 226.965 118.447 227.179 118.657L229.219 117.495C229.582 117.78 229.982 118.023 230.41 118.22L230.175 120.48C230.462 120.576 230.757 120.658 231.06 120.723L232.331 118.746C232.567 118.772 232.807 118.786 233.052 118.786C233.297 118.786 233.54 118.772 233.78 118.746L234.705 120.723C235.019 120.658 235.329 120.576 235.633 120.48L235.793 118.22C236.256 118.023 236.698 117.78 237.112 117.495L238.948 118.657C239.199 118.447 239.44 118.226 239.67 117.993L238.678 116.055C238.997 115.667 239.277 115.246 239.513 114.801L241.769 114.838C241.891 114.542 242 114.24 242.092 113.931L240.212 112.834C240.259 112.596 240.294 112.354 240.315 112.109ZM233.39 114.94C231.827 114.94 230.671 113.673 230.808 112.11C230.944 110.547 232.322 109.28 233.885 109.28C235.448 109.28 236.605 110.547 236.468 112.11C236.332 113.673 234.954 114.94 233.39 114.94Z" fill="#F0F0F0"/>
<path d="M234.776 84.601C234.815 84.1541 234.828 83.7134 234.819 83.2789L238.601 81.2752C238.531 80.7118 238.43 80.1608 238.301 79.6209L234.172 79.6892C233.884 78.8756 233.507 78.1084 233.049 77.3994L235.479 73.863C235.134 73.438 234.765 73.0331 234.373 72.6512L230.651 74.7713C229.988 74.2511 229.259 73.807 228.477 73.448L228.906 69.3242C228.382 69.1484 227.843 68.9988 227.29 68.8801L224.971 72.4865C224.541 72.4395 224.102 72.4137 223.655 72.4137C223.208 72.4137 222.765 72.4395 222.326 72.4865L220.639 68.8801C220.065 68.9988 219.501 69.1484 218.946 69.3242L218.653 73.448C217.808 73.807 217.002 74.2511 216.248 74.7713L212.897 72.6512C212.439 73.0336 211.998 73.438 211.579 73.863L213.39 77.3994C212.808 78.1084 212.296 78.8756 211.866 79.6892L207.749 79.6209C207.526 80.1608 207.327 80.7124 207.16 81.2752L210.591 83.2789C210.506 83.7134 210.442 84.1541 210.403 84.601C210.364 85.0479 210.351 85.4886 210.36 85.9232L206.578 87.9268C206.648 88.4902 206.749 89.0412 206.878 89.5811L211.007 89.5128C211.295 90.3264 211.672 91.0936 212.13 91.8026L209.7 95.339C210.045 95.764 210.415 96.1689 210.806 96.5508L214.528 94.4307C215.191 94.9509 215.919 95.395 216.702 95.754L216.273 99.8778C216.797 100.054 217.336 100.203 217.888 100.322L220.207 96.7155C220.638 96.7625 221.077 96.7883 221.523 96.7883C221.97 96.7883 222.413 96.7625 222.852 96.7155L224.54 100.322C225.114 100.203 225.678 100.054 226.233 99.8778L226.525 95.754C227.37 95.395 228.177 94.9509 228.931 94.4307L232.282 96.5508C232.741 96.1684 233.181 95.764 233.6 95.339L231.789 91.8026C232.372 91.0936 232.883 90.3264 233.313 89.5128L237.431 89.5811C237.654 89.0412 237.852 88.4902 238.02 87.9268L234.589 85.9232C234.672 85.4886 234.737 85.0479 234.776 84.601ZM221.959 91.8021C217.982 91.8021 215.04 88.5776 215.387 84.6005C215.735 80.6233 219.242 77.3989 223.219 77.3989C227.196 77.3989 230.138 80.6233 229.791 84.6005C229.442 88.5781 225.936 91.8021 221.959 91.8021Z" fill="#F5F5F5"/>
<path d="M140 239.129C199.966 239.129 248.578 236.29 248.578 232.788C248.578 229.286 199.966 226.447 140 226.447C80.0338 226.447 31.4219 229.286 31.4219 232.788C31.4219 236.29 80.0338 239.129 140 239.129Z" fill="#F5F5F5"/>
<path d="M141.616 168.611L130.922 223.628H158.363L169.057 168.611H141.616ZM153 203.801L151.461 211.719C151.036 213.905 148.919 215.677 146.733 215.677C144.547 215.677 143.119 213.905 143.544 211.719L145.083 203.801C145.508 201.615 147.624 199.843 149.811 199.843C151.997 199.843 153.425 201.615 153 203.801Z" fill="#263238"/>
<path opacity="0.3" d="M141.616 168.611L130.922 223.628H158.363L169.057 168.611H141.616ZM153 203.801L151.461 211.719C151.036 213.905 148.919 215.677 146.733 215.677C144.547 215.677 143.119 213.905 143.544 211.719L145.083 203.801C145.508 201.615 147.624 199.843 149.811 199.843C151.997 199.843 153.425 201.615 153 203.801Z" fill="white"/>
<path d="M130.982 223.628H128.576L139.27 168.611H141.677L130.982 223.628Z" fill="#263238"/>
<path opacity="0.6" d="M130.982 223.628H128.576L139.27 168.611H141.677L130.982 223.628Z" fill="white"/>
<path opacity="0.2" d="M141.616 168.611H139.269L133.564 197.96H163.352L169.057 168.611H141.676H141.616Z" fill="black"/>
<path d="M149.81 199.843C149.437 199.843 149.067 199.898 148.706 199.995C150.278 200.463 151.202 201.988 150.85 203.801L149.311 211.719C148.959 213.532 147.442 215.057 145.688 215.526C146.011 215.622 146.359 215.677 146.732 215.677C148.919 215.677 151.035 213.905 151.461 211.719L152.999 203.801C153.424 201.615 151.996 199.843 149.81 199.843Z" fill="#263238"/>
<path opacity="0.6" d="M149.81 199.843C149.437 199.843 149.067 199.898 148.706 199.995C150.278 200.463 151.202 201.988 150.85 203.801L149.311 211.719C148.959 213.532 147.442 215.057 145.688 215.526C146.011 215.622 146.359 215.677 146.732 215.677C148.919 215.677 151.035 213.905 151.461 211.719L152.999 203.801C153.424 201.615 151.996 199.843 149.81 199.843Z" fill="white"/>
<path d="M145.687 223.385H106.307V232.208H145.687V223.385Z" fill="#6695FF"/>
<path opacity="0.4" d="M145.687 223.385H106.307V232.208H145.687V223.385Z" fill="white"/>
<path d="M197.677 223.385H145.688V232.208H197.677V223.385Z" fill="#6695FF"/>
<path opacity="0.6" d="M197.677 223.385H145.688V232.208H197.677V223.385Z" fill="white"/>
<path d="M81.0833 194.695H219.44C221.955 194.742 224.032 192.742 224.079 190.228C224.083 190.027 224.074 189.827 224.051 189.627L215.31 89.6493C215.025 86.809 212.66 84.6317 209.806 84.5819H71.4491C68.9341 84.5343 66.8571 86.5346 66.8095 89.0496C66.8055 89.25 66.8151 89.4505 66.8375 89.6499L75.5847 189.634C75.8708 192.47 78.2329 194.645 81.0833 194.695Z" fill="#263238"/>
<path opacity="0.3" d="M81.0833 194.695H219.44C221.955 194.742 224.032 192.742 224.079 190.228C224.083 190.027 224.074 189.827 224.051 189.627L215.31 89.6493C215.025 86.809 212.66 84.6317 209.806 84.5819H71.4491C68.9341 84.5343 66.8571 86.5346 66.8095 89.0496C66.8055 89.25 66.8151 89.4505 66.8375 89.6499L75.5847 189.634C75.8708 192.47 78.2329 194.645 81.0833 194.695Z" fill="white"/>
<path d="M223.115 178.828L224.059 189.634C224.343 192.133 222.547 194.389 220.047 194.673C219.849 194.695 219.648 194.705 219.448 194.701H81.0851C78.2325 194.651 75.8693 192.473 75.587 189.634L74.6367 178.828H223.115Z" fill="#6695FF"/>
<path opacity="0.6" d="M223.115 178.828L224.059 189.634C224.343 192.133 222.547 194.389 220.047 194.673C219.849 194.695 219.648 194.705 219.448 194.701H81.0851C78.2325 194.651 75.8693 192.473 75.587 189.634L74.6367 178.828H223.115Z" fill="#78BEFF"/>
<path d="M79.5185 175.768H217.697C219.062 175.794 220.188 174.709 220.214 173.345C220.216 173.238 220.211 173.132 220.199 173.025L212.972 90.3974C212.815 88.8596 211.534 87.6819 209.989 87.6545H71.8101C70.446 87.6287 69.3192 88.7135 69.2935 90.0776C69.2912 90.1846 69.2963 90.291 69.308 90.3974L76.5354 173.026C76.6922 174.563 77.9735 175.741 79.5185 175.768Z" fill="#6695FF"/>
<path opacity="0.8" d="M79.5185 175.768H217.697C219.062 175.794 220.188 174.709 220.214 173.345C220.216 173.238 220.211 173.132 220.199 173.025L212.972 90.3974C212.815 88.8596 211.534 87.6819 209.989 87.6545H71.8101C70.446 87.6287 69.3192 88.7135 69.2935 90.0776C69.2912 90.1846 69.2963 90.291 69.308 90.3974L76.5354 173.026C76.6922 174.563 77.9735 175.741 79.5185 175.768Z" fill="#6695FF"/>
<path opacity="0.8" d="M79.5185 175.768H217.697C219.062 175.794 220.188 174.709 220.214 173.345C220.216 173.238 220.211 173.132 220.199 173.025L212.972 90.3974C212.815 88.8596 211.534 87.6819 209.989 87.6545H71.8101C70.446 87.6287 69.3192 88.7135 69.2935 90.0776C69.2912 90.1846 69.2963 90.291 69.308 90.3974L76.5354 173.026C76.6922 174.563 77.9735 175.741 79.5185 175.768Z" fill="white"/>
<g opacity="0.5">
<path d="M178.979 175.769H191.595L172.866 87.6541H160.25L178.979 175.769Z" fill="white"/>
<path d="M170.99 175.769H174.218L155.489 87.6541H152.26L170.99 175.769Z" fill="white"/>
<path d="M123.991 175.769H126.107L107.377 87.6541H105.262L123.991 175.769Z" fill="white"/>
<path d="M116.003 175.769H119.232L100.502 87.6541H97.2734L116.003 175.769Z" fill="white"/>
</g>
<path d="M68.391 84.6015H71.4503C68.9353 84.5539 66.8583 86.5542 66.8107 89.0686C66.8068 89.2691 66.8163 89.4696 66.8387 89.6689L75.5859 189.634C75.8682 192.473 78.2313 194.651 81.084 194.701H78.0247C75.1721 194.651 72.8089 192.473 72.5266 189.634L63.78 89.656C63.5033 87.1562 65.3054 84.905 67.8053 84.6284C67.9996 84.6065 68.1956 84.5976 68.391 84.6015Z" fill="#263238"/>
<path opacity="0.6" d="M68.391 84.6015H71.4503C68.9353 84.5539 66.8583 86.5542 66.8107 89.0686C66.8068 89.2691 66.8163 89.4696 66.8387 89.6689L75.5859 189.634C75.8682 192.473 78.2313 194.651 81.084 194.701H78.0247C75.1721 194.651 72.8089 192.473 72.5266 189.634L63.78 89.656C63.5033 87.1562 65.3054 84.905 67.8053 84.6284C67.9996 84.6065 68.1956 84.5976 68.391 84.6015Z" fill="white"/>
<path d="M98.694 115.722H92.4567C91.9567 115.722 91.5159 115.317 91.4723 114.817C91.4286 114.317 91.7982 113.911 92.2983 113.911H98.5355C99.0356 113.911 99.4763 114.317 99.52 114.817C99.5643 115.317 99.1941 115.722 98.694 115.722Z" fill="#6695FF"/>
<path d="M114.088 108.479H109.461C108.961 108.479 108.52 108.074 108.476 107.574C108.432 107.074 108.802 106.668 109.302 106.668H113.929C114.43 106.668 114.87 107.074 114.914 107.574C114.958 108.074 114.588 108.479 114.088 108.479Z" fill="#6695FF"/>
<path d="M164.887 115.722H158.65C158.15 115.722 157.709 115.317 157.666 114.817C157.622 114.317 157.992 113.911 158.492 113.911H164.729C165.229 113.911 165.67 114.317 165.713 114.817C165.758 115.317 165.387 115.722 164.887 115.722Z" fill="#6695FF"/>
<path d="M152.413 115.722H104.73C104.23 115.722 103.789 115.317 103.746 114.817C103.702 114.317 104.072 113.911 104.572 113.911H152.255C152.755 113.911 153.195 114.317 153.239 114.817C153.283 115.317 152.913 115.722 152.413 115.722Z" fill="#263238"/>
<path d="M99.2409 121.96H93.0036C92.5035 121.96 92.0628 121.554 92.0191 121.054C91.9755 120.554 92.3451 120.149 92.8451 120.149H99.0824C99.5825 120.149 100.023 120.554 100.067 121.054C100.111 121.554 99.741 121.96 99.2409 121.96Z" fill="#6695FF"/>
<path d="M118.152 121.96H105.275C104.775 121.96 104.334 121.554 104.291 121.054C104.247 120.554 104.617 120.149 105.117 120.149H117.993C118.493 120.149 118.934 120.554 118.978 121.054C119.021 121.554 118.652 121.96 118.152 121.96Z" fill="#6695FF"/>
<path d="M141.289 121.96H122.175C121.675 121.96 121.235 121.554 121.191 121.054C121.147 120.554 121.517 120.149 122.017 120.149H141.13C141.63 120.149 142.071 120.554 142.115 121.054C142.159 121.554 141.788 121.96 141.289 121.96Z" fill="#6695FF"/>
<path d="M99.7858 128.196H93.5485C93.0484 128.196 92.6077 127.791 92.5641 127.291C92.5204 126.791 92.89 126.385 93.39 126.385H99.6273C100.127 126.385 100.568 126.791 100.612 127.291C100.656 127.791 100.286 128.196 99.7858 128.196Z" fill="#6695FF"/>
<path d="M131.372 128.196H105.82C105.32 128.196 104.879 127.791 104.836 127.291C104.792 126.791 105.161 126.385 105.662 126.385H131.213C131.713 126.385 132.154 126.791 132.198 127.291C132.242 127.791 131.872 128.196 131.372 128.196Z" fill="#263238"/>
<path d="M100.331 134.434H94.0935C93.5934 134.434 93.1527 134.028 93.109 133.528C93.0653 133.028 93.4349 132.623 93.935 132.623H100.172C100.672 132.623 101.113 133.028 101.157 133.528C101.2 134.028 100.83 134.434 100.331 134.434Z" fill="#6695FF"/>
<path d="M117.131 134.434H106.367C105.867 134.434 105.426 134.028 105.382 133.528C105.339 133.028 105.708 132.623 106.208 132.623H116.972C117.472 132.623 117.913 133.028 117.957 133.528C118.001 134.028 117.631 134.434 117.131 134.434Z" fill="#263238"/>
<path d="M141.775 145.902H131.011C130.511 145.902 130.071 145.496 130.027 144.996C129.983 144.496 130.353 144.091 130.853 144.091H141.617C142.117 144.091 142.557 144.496 142.601 144.996C142.645 145.496 142.275 145.902 141.775 145.902Z" fill="#6695FF"/>
<path d="M197.506 145.902H147.258C146.757 145.902 146.317 145.496 146.273 144.996C146.229 144.496 146.599 144.091 147.099 144.091H197.347C197.847 144.091 198.288 144.496 198.332 144.996C198.376 145.496 198.006 145.902 197.506 145.902Z" fill="#263238"/>
<path d="M179.139 152.139H127.332C126.832 152.139 126.391 151.733 126.347 151.233C126.304 150.733 126.673 150.328 127.173 150.328H178.981C179.481 150.328 179.922 150.733 179.966 151.233C180.009 151.733 179.639 152.139 179.139 152.139Z" fill="#6695FF"/>
<path d="M198.052 152.139H185.578C185.078 152.139 184.637 151.733 184.593 151.233C184.55 150.733 184.919 150.328 185.419 150.328H197.893C198.393 150.328 198.834 150.733 198.878 151.233C198.922 151.733 198.552 152.139 198.052 152.139Z" fill="#6695FF"/>
<path d="M169.926 158.376H164.695C164.195 158.376 163.754 157.971 163.711 157.47C163.667 156.97 164.036 156.565 164.537 156.565H169.768C170.268 156.565 170.708 156.97 170.752 157.47C170.796 157.971 170.426 158.376 169.926 158.376Z" fill="#6695FF"/>
<path d="M198.595 158.376H175.558C175.058 158.376 174.617 157.971 174.574 157.47C174.53 156.97 174.9 156.565 175.4 156.565H198.437C198.937 156.565 199.377 156.97 199.421 157.47C199.465 157.971 199.095 158.376 198.595 158.376Z" fill="#263238"/>
<path d="M133.251 164.613H117.961C117.461 164.613 117.02 164.207 116.976 163.707C116.932 163.207 117.302 162.802 117.802 162.802H133.093C133.593 162.802 134.034 163.207 134.077 163.707C134.121 164.207 133.751 164.613 133.251 164.613Z" fill="#263238"/>
<path d="M199.141 164.613H153.672C153.171 164.613 152.731 164.207 152.687 163.707C152.643 163.207 153.013 162.802 153.513 162.802H198.983C199.483 162.802 199.924 163.207 199.967 163.707C200.012 164.207 199.641 164.613 199.141 164.613Z" fill="#263238"/>
<path d="M150.73 134.434H123.267C122.767 134.434 122.326 134.028 122.283 133.528C122.239 133.028 122.609 132.623 123.109 132.623H150.572C151.072 132.623 151.513 133.028 151.556 133.528C151.6 134.028 151.23 134.434 150.73 134.434Z" fill="#263238"/>
<path d="M105.102 140.67H94.6403C94.1402 140.67 93.6995 140.265 93.6558 139.765C93.6122 139.265 93.9818 138.859 94.4818 138.859H104.944C105.444 138.859 105.885 139.265 105.928 139.765C105.972 140.265 105.602 140.67 105.102 140.67Z" fill="#263238"/>
<path d="M115.193 140.67H109.629C109.129 140.67 108.688 140.265 108.644 139.765C108.6 139.265 108.97 138.859 109.47 138.859H115.034C115.534 138.859 115.975 139.265 116.019 139.765C116.062 140.265 115.693 140.67 115.193 140.67Z" fill="#263238"/>
<path d="M95.3598 104.046L92.6006 105.091L95.5401 106.125C95.7674 106.205 95.9326 106.415 95.9534 106.649L95.9539 106.658C95.9881 107.048 95.6207 107.317 95.2438 107.179L91.8178 105.918C91.4907 105.798 91.255 105.494 91.2253 105.156L91.2141 105.025C91.1844 104.686 91.367 104.383 91.6733 104.263L94.8787 103.002C95.2315 102.863 95.6459 103.133 95.6801 103.523C95.7002 103.756 95.5726 103.965 95.3598 104.046Z" fill="#263238"/>
<path d="M99.3093 100.339C99.7455 100.339 100.089 100.77 99.9807 101.181L97.9227 109.011C97.8561 109.265 97.631 109.435 97.3622 109.435H97.3616C96.9254 109.435 96.5815 109.004 96.6902 108.592L98.7487 100.763C98.8154 100.509 99.0405 100.339 99.3093 100.339Z" fill="#263238"/>
<path d="M105.382 105.024L105.393 105.155C105.423 105.494 105.24 105.797 104.934 105.917L101.728 107.178C101.376 107.317 100.961 107.047 100.927 106.657L100.926 106.649C100.906 106.414 101.035 106.205 101.248 106.125L104.006 105.09L101.064 104.045C100.837 103.965 100.673 103.756 100.653 103.522C100.618 103.131 100.986 102.862 101.363 103L104.789 104.261C105.116 104.382 105.352 104.686 105.382 105.024Z" fill="#263238"/>
<path d="M211.727 151.612C211.75 151.482 211.331 151.298 210.792 151.204C210.441 151.142 210.128 151.133 209.944 151.171C209.894 150.988 209.756 150.717 209.56 150.437C209.246 149.989 208.904 149.687 208.795 149.763C208.686 149.84 208.853 150.265 209.166 150.713C209.433 151.093 209.72 151.367 209.867 151.395C210.015 151.5 210.331 151.61 210.709 151.676C211.248 151.772 211.704 151.743 211.727 151.612Z" fill="#263238"/>
<path d="M208.896 153.011C209.053 152.578 209.113 152.189 209.055 152.05C209.056 151.868 208.964 151.544 208.801 151.195C208.57 150.699 208.285 150.342 208.165 150.398C208.044 150.454 208.134 150.902 208.366 151.397C208.516 151.72 208.689 151.983 208.824 152.112C208.703 152.258 208.561 152.526 208.445 152.847C208.258 153.361 208.207 153.814 208.332 153.86C208.455 153.905 208.708 153.525 208.896 153.011Z" fill="#263238"/>
<path d="M212.354 149.108C212.298 148.987 211.851 149.077 211.355 149.309C211.032 149.459 210.769 149.632 210.64 149.767C210.495 149.646 210.226 149.504 209.905 149.388C209.391 149.201 208.938 149.15 208.892 149.274C208.847 149.399 209.227 149.652 209.741 149.839C210.174 149.996 210.563 150.057 210.702 149.998C210.884 150 211.209 149.907 211.558 149.744C212.054 149.512 212.41 149.227 212.354 149.108Z" fill="#263238"/>
<path d="M203.228 143.113C203.358 143.09 203.541 143.509 203.636 144.048C203.698 144.399 203.707 144.712 203.669 144.896C203.852 144.946 204.123 145.084 204.403 145.28C204.851 145.594 205.153 145.936 205.077 146.045C205 146.154 204.575 145.987 204.127 145.674C203.747 145.407 203.473 145.12 203.445 144.973C203.34 144.825 203.23 144.51 203.164 144.131C203.068 143.592 203.097 143.136 203.228 143.113Z" fill="#263238"/>
<path d="M201.829 145.944C202.262 145.787 202.65 145.726 202.79 145.786C202.972 145.784 203.296 145.877 203.646 146.04C204.142 146.271 204.498 146.556 204.442 146.676C204.386 146.796 203.939 146.706 203.443 146.475C203.12 146.325 202.857 146.152 202.728 146.016C202.582 146.137 202.314 146.279 201.993 146.396C201.479 146.583 201.026 146.634 200.98 146.509C200.934 146.384 201.315 146.131 201.829 145.944Z" fill="#263238"/>
<path d="M205.733 142.485C205.853 142.541 205.763 142.989 205.532 143.484C205.382 143.807 205.209 144.069 205.073 144.199C205.194 144.344 205.336 144.613 205.453 144.933C205.64 145.448 205.691 145.901 205.566 145.946C205.441 145.992 205.188 145.612 205.001 145.098C204.844 144.665 204.784 144.276 204.842 144.137C204.841 143.955 204.933 143.63 205.096 143.281C205.327 142.785 205.612 142.429 205.733 142.485Z" fill="#263238"/>
<path d="M208.544 145.505C208.153 145.505 207.836 145.822 207.836 146.214C207.836 146.604 208.153 146.921 208.544 146.921C208.936 146.921 209.252 146.604 209.252 146.214H208.544V145.505Z" fill="#407BFF"/>
<path opacity="0.2" d="M208.544 145.505C208.153 145.505 207.836 145.822 207.836 146.214C207.836 146.604 208.153 146.921 208.544 146.921C208.936 146.921 209.252 146.604 209.252 146.214H208.544V145.505Z" fill="black"/>
<path d="M204.317 145.383C203.813 145.631 203.33 145.971 202.899 146.403C201.103 148.198 200.869 150.876 202.376 152.383C203.883 153.89 206.56 153.655 208.356 151.86C208.787 151.429 209.128 150.946 209.376 150.442L204.317 145.383Z" fill="#407BFF"/>
<path opacity="0.3" d="M204.317 145.383C203.813 145.631 203.33 145.971 202.899 146.403C201.103 148.198 200.869 150.876 202.376 152.383C203.883 153.89 206.56 153.655 208.356 151.86C208.787 151.429 209.128 150.946 209.376 150.442L204.317 145.383Z" fill="black"/>
<path d="M204.822 145.889L208.869 149.936C209.498 148.659 209.387 147.203 208.471 146.286C207.556 145.371 206.099 145.259 204.822 145.889Z" fill="#407BFF"/>
<path opacity="0.5" d="M204.822 145.889L208.869 149.936C209.498 148.659 209.387 147.203 208.471 146.286C207.556 145.371 206.099 145.259 204.822 145.889Z" fill="black"/>
<path opacity="0.2" d="M204.317 145.383C203.813 145.631 203.33 145.971 202.899 146.403C201.103 148.198 200.869 150.876 202.376 152.383L206.847 147.912L204.317 145.383Z" fill="black"/>
<path d="M206.582 142.11C207.011 142.285 207.431 142.563 207.755 142.891C208.622 143.765 208.449 144.824 207.736 145.747C207.688 145.809 207.775 145.897 207.823 145.834C208.472 144.993 208.776 143.985 208.083 143.075C207.717 142.596 207.17 142.217 206.614 141.991C206.54 141.961 206.51 142.081 206.582 142.11Z" fill="#263238"/>
<path d="M212.767 148.143C212.541 147.587 212.162 147.039 211.683 146.674C210.774 145.981 209.764 146.284 208.924 146.934C208.861 146.982 208.949 147.069 209.011 147.021C209.931 146.31 210.995 146.132 211.867 147.002C212.194 147.328 212.473 147.745 212.647 148.175C212.678 148.247 212.797 148.217 212.767 148.143Z" fill="#263238"/>
<path d="M204.908 147.966C204.625 148.25 204.166 148.25 203.882 147.966C203.599 147.683 203.599 147.224 203.882 146.941C204.166 146.657 204.625 146.657 204.908 146.941C205.192 147.224 205.192 147.683 204.908 147.966Z" fill="#407BFF"/>
<path d="M207.819 150.875C207.535 151.159 207.076 151.159 206.793 150.875C206.509 150.592 206.509 150.133 206.793 149.849C207.076 149.566 207.535 149.566 207.819 149.849C208.102 150.133 208.102 150.592 207.819 150.875Z" fill="#407BFF"/>
<path d="M203.332 150.24C203.049 150.524 202.59 150.524 202.306 150.24C202.023 149.957 202.023 149.498 202.306 149.214C202.59 148.931 203.049 148.931 203.332 149.214C203.616 149.498 203.616 149.957 203.332 150.24Z" fill="#407BFF"/>
<path d="M205.545 152.453C205.262 152.736 204.803 152.736 204.519 152.453C204.236 152.169 204.236 151.71 204.519 151.427C204.803 151.143 205.262 151.143 205.545 151.427C205.828 151.709 205.828 152.169 205.545 152.453Z" fill="#407BFF"/>
<g opacity="0.7">
<path d="M204.908 147.966C204.625 148.25 204.166 148.25 203.882 147.966C203.599 147.683 203.599 147.224 203.882 146.941C204.166 146.657 204.625 146.657 204.908 146.941C205.192 147.224 205.192 147.683 204.908 147.966Z" fill="white"/>
<path d="M207.819 150.875C207.535 151.159 207.076 151.159 206.793 150.875C206.509 150.592 206.509 150.133 206.793 149.849C207.076 149.566 207.535 149.566 207.819 149.849C208.102 150.133 208.102 150.592 207.819 150.875Z" fill="white"/>
<path d="M203.332 150.24C203.049 150.524 202.59 150.524 202.306 150.24C202.023 149.957 202.023 149.498 202.306 149.214C202.59 148.931 203.049 148.931 203.332 149.214C203.616 149.498 203.616 149.957 203.332 150.24Z" fill="white"/>
<path d="M205.545 152.453C205.262 152.736 204.803 152.736 204.519 152.453C204.236 152.169 204.236 151.71 204.519 151.427C204.803 151.143 205.262 151.143 205.545 151.427C205.828 151.709 205.828 152.169 205.545 152.453Z" fill="white"/>
</g>
<path d="M166.543 101.583C166.566 101.452 166.148 101.269 165.609 101.174C165.258 101.112 164.944 101.104 164.76 101.141C164.711 100.959 164.572 100.688 164.376 100.408C164.063 99.9599 163.72 99.658 163.611 99.7342C163.503 99.8103 163.669 100.235 163.983 100.683C164.249 101.064 164.536 101.338 164.683 101.365C164.832 101.471 165.147 101.58 165.525 101.647C166.065 101.742 166.52 101.713 166.543 101.583Z" fill="#263238"/>
<path d="M163.712 102.982C163.87 102.549 163.93 102.16 163.871 102.021C163.873 101.839 163.78 101.514 163.617 101.165C163.386 100.669 163.101 100.313 162.981 100.369C162.861 100.425 162.951 100.872 163.182 101.368C163.332 101.69 163.505 101.953 163.641 102.082C163.52 102.228 163.378 102.497 163.261 102.817C163.074 103.331 163.023 103.785 163.148 103.83C163.273 103.875 163.525 103.496 163.712 102.982Z" fill="#263238"/>
<path d="M167.172 99.0785C167.116 98.9581 166.669 99.0483 166.173 99.2796C165.85 99.4297 165.588 99.6027 165.458 99.7382C165.313 99.6173 165.044 99.475 164.724 99.3585C164.21 99.1715 163.756 99.1205 163.711 99.2454C163.665 99.3703 164.046 99.6228 164.56 99.8099C164.993 99.9672 165.381 100.028 165.521 99.9689C165.702 99.9706 166.027 99.8782 166.376 99.7153C166.872 99.4834 167.228 99.1984 167.172 99.0785Z" fill="#263238"/>
<path d="M158.044 93.0837C158.175 93.0607 158.358 93.479 158.453 94.0178C158.515 94.3689 158.523 94.6825 158.486 94.8662C158.668 94.916 158.939 95.0543 159.219 95.2503C159.667 95.5639 159.969 95.9066 159.893 96.0153C159.817 96.1239 159.392 95.9576 158.944 95.644C158.563 95.3774 158.289 95.0907 158.262 94.944C158.156 94.7956 158.047 94.4803 157.98 94.1018C157.885 93.5625 157.913 93.1072 158.044 93.0837Z" fill="#263238"/>
<path d="M156.646 95.915C157.078 95.7577 157.467 95.6972 157.607 95.7565C157.788 95.7549 158.113 95.8473 158.462 96.0102C158.957 96.2415 159.314 96.5265 159.258 96.6464C159.202 96.7668 158.755 96.6766 158.259 96.4453C157.936 96.2953 157.674 96.1222 157.544 95.9867C157.399 96.1077 157.13 96.2499 156.81 96.3664C156.296 96.5534 155.842 96.6044 155.797 96.4795C155.751 96.3546 156.132 96.1021 156.646 95.915Z" fill="#263238"/>
<path d="M160.549 92.4553C160.67 92.5113 160.579 92.9587 160.348 93.4549C160.198 93.7774 160.025 94.0401 159.89 94.1694C160.01 94.315 160.153 94.5838 160.269 94.9041C160.456 95.4182 160.507 95.8718 160.382 95.9172C160.257 95.9625 160.005 95.5823 159.818 95.0682C159.66 94.6353 159.6 94.2467 159.659 94.1072C159.657 93.9258 159.75 93.601 159.912 93.2516C160.144 92.756 160.429 92.3993 160.549 92.4553Z" fill="#263238"/>
<path d="M163.361 95.4761C162.97 95.4761 162.652 95.793 162.652 96.1839C162.652 96.5748 162.969 96.8923 163.361 96.8923C163.752 96.8923 164.069 96.5754 164.069 96.1839H163.361V95.4761Z" fill="#407BFF"/>
<path opacity="0.2" d="M163.361 95.4761C162.97 95.4761 162.652 95.793 162.652 96.1839C162.652 96.5748 162.969 96.8923 163.361 96.8923C163.752 96.8923 164.069 96.5754 164.069 96.1839H163.361V95.4761Z" fill="black"/>
<path d="M159.134 95.3533C158.629 95.6019 158.147 95.9418 157.715 96.3736C155.92 98.1689 155.686 100.846 157.193 102.353C158.7 103.86 161.377 103.626 163.172 101.831C163.603 101.4 163.944 100.917 164.193 100.412L159.134 95.3533Z" fill="#407BFF"/>
<path opacity="0.3" d="M159.134 95.3533C158.629 95.6019 158.147 95.9418 157.715 96.3736C155.92 98.1689 155.686 100.846 157.193 102.353C158.7 103.86 161.377 103.626 163.172 101.831C163.603 101.4 163.944 100.917 164.193 100.412L159.134 95.3533Z" fill="black"/>
<path d="M159.639 95.8595L163.686 99.9066C164.315 98.6298 164.204 97.1732 163.288 96.2571C162.372 95.3415 160.916 95.23 159.639 95.8595Z" fill="#407BFF"/>
<path opacity="0.5" d="M159.639 95.8595L163.686 99.9066C164.315 98.6298 164.204 97.1732 163.288 96.2571C162.372 95.3415 160.916 95.23 159.639 95.8595Z" fill="black"/>
<path opacity="0.2" d="M159.134 95.3533C158.629 95.6019 158.147 95.9418 157.715 96.3736C155.92 98.1689 155.686 100.846 157.193 102.353L161.663 97.8828L159.134 95.3533Z" fill="black"/>
<path d="M161.401 92.0813C161.829 92.2554 162.249 92.5337 162.573 92.8613C163.44 93.7361 163.267 94.7945 162.554 95.7179C162.507 95.7801 162.593 95.8674 162.641 95.8053C163.291 94.9647 163.595 93.9561 162.901 93.0461C162.536 92.5673 161.989 92.1882 161.432 91.962C161.359 91.9323 161.328 92.0516 161.401 92.0813Z" fill="#263238"/>
<path d="M167.584 98.1142C167.357 97.5581 166.978 97.0104 166.499 96.6453C165.59 95.9515 164.581 96.255 163.74 96.9046C163.678 96.9528 163.766 97.0396 163.828 96.992C164.748 96.2813 165.812 96.1032 166.684 96.9729C167.011 97.2988 167.29 97.716 167.464 98.1456C167.494 98.2178 167.613 98.1876 167.584 98.1142Z" fill="#263238"/>
<path d="M159.725 97.9372C159.441 98.2205 158.982 98.2205 158.699 97.9372C158.415 97.6538 158.415 97.1946 158.699 96.9113C158.982 96.6279 159.441 96.6279 159.725 96.9113C160.008 97.1941 160.008 97.6538 159.725 97.9372Z" fill="#407BFF"/>
<path d="M162.635 100.846C162.352 101.129 161.892 101.129 161.609 100.846C161.326 100.563 161.326 100.103 161.609 99.8199C161.892 99.5366 162.352 99.5366 162.635 99.8199C162.918 100.103 162.918 100.563 162.635 100.846Z" fill="#407BFF"/>
<path d="M158.149 100.211C157.865 100.494 157.406 100.494 157.123 100.211C156.839 99.9275 156.839 99.4683 157.123 99.1849C157.406 98.9016 157.865 98.9016 158.149 99.1849C158.432 99.4683 158.432 99.9275 158.149 100.211Z" fill="#407BFF"/>
<path d="M160.361 102.423C160.078 102.706 159.619 102.706 159.336 102.423C159.052 102.139 159.052 101.68 159.336 101.397C159.619 101.113 160.078 101.113 160.361 101.397C160.645 101.68 160.645 102.139 160.361 102.423Z" fill="#407BFF"/>
<g opacity="0.7">
<path d="M159.725 97.9372C159.441 98.2205 158.982 98.2205 158.699 97.9372C158.415 97.6538 158.415 97.1946 158.699 96.9113C158.982 96.6279 159.441 96.6279 159.725 96.9113C160.008 97.1941 160.008 97.6538 159.725 97.9372Z" fill="white"/>
<path d="M162.635 100.846C162.352 101.129 161.892 101.129 161.609 100.846C161.326 100.563 161.326 100.103 161.609 99.8199C161.892 99.5366 162.352 99.5366 162.635 99.8199C162.918 100.103 162.918 100.563 162.635 100.846Z" fill="white"/>
<path d="M158.149 100.211C157.865 100.494 157.406 100.494 157.123 100.211C156.839 99.9275 156.839 99.4683 157.123 99.1849C157.406 98.9016 157.865 98.9016 158.149 99.1849C158.432 99.4683 158.432 99.9275 158.149 100.211Z" fill="white"/>
<path d="M160.361 102.423C160.078 102.706 159.619 102.706 159.336 102.423C159.052 102.139 159.052 101.68 159.336 101.397C159.619 101.113 160.078 101.113 160.361 101.397C160.645 101.68 160.645 102.139 160.361 102.423Z" fill="white"/>
</g>
<path d="M109.287 160.802C109.156 160.779 108.973 161.198 108.878 161.736C108.816 162.088 108.807 162.401 108.845 162.585C108.662 162.635 108.391 162.773 108.111 162.969C107.663 163.283 107.361 163.625 107.438 163.734C107.514 163.843 107.939 163.676 108.387 163.363C108.768 163.096 109.041 162.809 109.069 162.662C109.174 162.514 109.284 162.198 109.35 161.82C109.446 161.281 109.417 160.826 109.287 160.802Z" fill="#263238"/>
<path d="M110.685 163.634C110.252 163.476 109.864 163.416 109.724 163.475C109.542 163.473 109.217 163.565 108.869 163.728C108.373 163.96 108.016 164.245 108.072 164.365C108.128 164.485 108.576 164.395 109.072 164.164C109.394 164.013 109.657 163.84 109.786 163.705C109.932 163.826 110.2 163.968 110.521 164.085C111.035 164.272 111.489 164.323 111.534 164.198C111.579 164.073 111.199 163.821 110.685 163.634Z" fill="#263238"/>
<path d="M106.784 160.174C106.663 160.23 106.754 160.677 106.985 161.174C107.135 161.496 107.308 161.759 107.444 161.888C107.323 162.034 107.18 162.303 107.064 162.623C106.877 163.137 106.826 163.591 106.951 163.636C107.075 163.681 107.328 163.301 107.515 162.787C107.673 162.354 107.733 161.965 107.674 161.825C107.675 161.644 107.583 161.319 107.42 160.97C107.189 160.475 106.904 160.118 106.784 160.174Z" fill="#263238"/>
<path d="M100.79 169.301C100.767 169.171 101.185 168.988 101.724 168.893C102.075 168.831 102.389 168.823 102.572 168.86C102.622 168.678 102.761 168.407 102.957 168.127C103.27 167.679 103.613 167.377 103.722 167.453C103.83 167.529 103.664 167.954 103.35 168.402C103.084 168.783 102.797 169.057 102.65 169.084C102.501 169.189 102.186 169.299 101.807 169.366C101.268 169.461 100.813 169.432 100.79 169.301Z" fill="#263238"/>
<path d="M103.618 170.7C103.461 170.267 103.401 169.879 103.46 169.739C103.458 169.558 103.551 169.233 103.714 168.884C103.945 168.388 104.23 168.031 104.35 168.087C104.47 168.143 104.38 168.591 104.149 169.086C103.999 169.409 103.826 169.672 103.69 169.801C103.811 169.947 103.953 170.215 104.07 170.536C104.257 171.05 104.308 171.503 104.183 171.549C104.058 171.594 103.805 171.214 103.618 170.7Z" fill="#263238"/>
<path d="M100.16 166.797C100.216 166.677 100.664 166.767 101.16 166.998C101.482 167.148 101.745 167.321 101.874 167.457C102.02 167.336 102.289 167.194 102.609 167.077C103.123 166.89 103.577 166.839 103.622 166.964C103.667 167.089 103.288 167.341 102.773 167.528C102.34 167.686 101.952 167.746 101.812 167.687C101.63 167.689 101.306 167.596 100.956 167.433C100.461 167.202 100.104 166.917 100.16 166.797Z" fill="#263238"/>
<path d="M103.182 163.984C103.182 164.375 103.499 164.693 103.89 164.693C104.281 164.693 104.598 164.376 104.598 163.984C104.598 163.593 104.281 163.276 103.89 163.276V163.984H103.182Z" fill="#407BFF"/>
<path opacity="0.2" d="M103.182 163.984C103.182 164.375 103.499 164.693 103.89 164.693C104.281 164.693 104.598 164.376 104.598 163.984C104.598 163.593 104.281 163.276 103.89 163.276V163.984H103.182Z" fill="black"/>
<path d="M103.059 168.213C103.307 168.717 103.647 169.2 104.079 169.631C105.874 171.427 108.552 171.661 110.059 170.154C111.566 168.647 111.331 165.969 109.536 164.174C109.105 163.743 108.622 163.402 108.118 163.154L103.059 168.213Z" fill="#407BFF"/>
<path opacity="0.3" d="M103.059 168.213C103.307 168.717 103.647 169.2 104.079 169.631C105.874 171.427 108.552 171.661 110.059 170.154C111.566 168.647 111.331 165.969 109.536 164.174C109.105 163.743 108.622 163.402 108.118 163.154L103.059 168.213Z" fill="black"/>
<path d="M103.564 167.707L107.611 163.659C106.335 163.031 104.878 163.141 103.962 164.058C103.046 164.973 102.935 166.43 103.564 167.707Z" fill="#407BFF"/>
<path opacity="0.5" d="M103.564 167.707L107.611 163.659C106.335 163.031 104.878 163.141 103.962 164.058C103.046 164.973 102.935 166.43 103.564 167.707Z" fill="black"/>
<path opacity="0.2" d="M103.059 168.213C103.307 168.717 103.647 169.2 104.079 169.631C105.874 171.427 108.552 171.661 110.059 170.154L105.588 165.683L103.059 168.213Z" fill="black"/>
<path d="M99.7861 165.945C99.9603 165.516 100.239 165.097 100.566 164.773C101.441 163.906 102.499 164.079 103.423 164.792C103.485 164.839 103.572 164.753 103.51 164.705C102.67 164.056 101.661 163.752 100.751 164.446C100.272 164.811 99.8931 165.358 99.6668 165.915C99.6371 165.987 99.7564 166.018 99.7861 165.945Z" fill="#263238"/>
<path d="M105.818 159.762C105.261 159.989 104.714 160.368 104.349 160.847C103.655 161.756 103.958 162.765 104.608 163.606C104.656 163.668 104.743 163.581 104.695 163.518C103.985 162.598 103.807 161.534 104.676 160.662C105.002 160.335 105.419 160.056 105.849 159.882C105.921 159.852 105.891 159.732 105.818 159.762Z" fill="#263238"/>
<path d="M105.641 167.62C105.924 167.903 105.924 168.362 105.641 168.646C105.357 168.929 104.898 168.929 104.615 168.646C104.332 168.362 104.332 167.903 104.615 167.62C104.898 167.336 105.357 167.336 105.641 167.62Z" fill="#407BFF"/>
<path d="M108.549 164.711C108.832 164.994 108.832 165.454 108.549 165.737C108.266 166.02 107.806 166.02 107.523 165.737C107.24 165.454 107.24 164.994 107.523 164.711C107.806 164.428 108.266 164.428 108.549 164.711Z" fill="#407BFF"/>
<path d="M107.914 169.197C108.198 169.48 108.198 169.939 107.914 170.223C107.631 170.506 107.172 170.506 106.888 170.223C106.605 169.939 106.605 169.48 106.888 169.197C107.171 168.913 107.631 168.913 107.914 169.197Z" fill="#407BFF"/>
<path d="M110.125 166.985C110.409 167.268 110.409 167.727 110.125 168.011C109.842 168.294 109.383 168.294 109.099 168.011C108.816 167.727 108.816 167.268 109.099 166.985C109.383 166.701 109.842 166.701 110.125 166.985Z" fill="#407BFF"/>
<g opacity="0.7">
<path d="M105.641 167.62C105.924 167.903 105.924 168.362 105.641 168.646C105.357 168.929 104.898 168.929 104.615 168.646C104.332 168.362 104.332 167.903 104.615 167.62C104.898 167.336 105.357 167.336 105.641 167.62Z" fill="white"/>
<path d="M108.549 164.711C108.832 164.994 108.832 165.454 108.549 165.737C108.266 166.02 107.806 166.02 107.523 165.737C107.24 165.454 107.24 164.994 107.523 164.711C107.806 164.428 108.266 164.428 108.549 164.711Z" fill="white"/>
<path d="M107.914 169.197C108.198 169.48 108.198 169.939 107.914 170.223C107.631 170.506 107.172 170.506 106.888 170.223C106.605 169.939 106.605 169.48 106.888 169.197C107.171 168.913 107.631 168.913 107.914 169.197Z" fill="white"/>
<path d="M110.125 166.985C110.409 167.268 110.409 167.727 110.125 168.011C109.842 168.294 109.383 168.294 109.099 168.011C108.816 167.727 108.816 167.268 109.099 166.985C109.383 166.701 109.842 166.701 110.125 166.985Z" fill="white"/>
</g>
<path d="M192.836 89.6038C192.618 89.5652 192.313 90.2624 192.155 91.1601C192.052 91.7453 192.038 92.2677 192.099 92.5735C191.795 92.6564 191.343 92.8871 190.877 93.2141C190.13 93.7372 189.627 94.3078 189.754 94.4893C189.881 94.6701 190.589 94.3929 191.336 93.8699C191.971 93.4258 192.427 92.9476 192.473 92.7029C192.648 92.4559 192.831 91.9301 192.943 91.2989C193.102 90.4013 193.054 89.6425 192.836 89.6038Z" fill="#263238"/>
<path d="M195.168 94.3218C194.446 94.0592 193.798 93.9589 193.565 94.0569C193.263 94.0547 192.722 94.2081 192.14 94.4797C191.313 94.865 190.719 95.3399 190.812 95.5404C190.906 95.7408 191.651 95.5908 192.478 95.2055C193.015 94.9552 193.453 94.6668 193.668 94.4405C193.911 94.6421 194.358 94.879 194.893 95.0733C195.75 95.3852 196.506 95.4698 196.582 95.262C196.657 95.0554 196.024 94.6337 195.168 94.3218Z" fill="#263238"/>
<path d="M188.661 88.5566C188.461 88.6501 188.611 89.396 188.996 90.222C189.246 90.7596 189.535 91.197 189.761 91.4126C189.56 91.655 189.323 92.1025 189.128 92.6373C188.816 93.4941 188.732 94.2501 188.939 94.3257C189.147 94.4013 189.568 93.7679 189.88 92.9111C190.143 92.1898 190.243 91.5419 190.145 91.309C190.147 91.0066 189.993 90.4656 189.722 89.8832C189.336 89.0572 188.862 88.463 188.661 88.5566Z" fill="#263238"/>
<path d="M178.671 103.768C178.633 103.55 179.33 103.246 180.228 103.087C180.813 102.984 181.335 102.97 181.641 103.032C181.724 102.728 181.955 102.276 182.282 101.809C182.805 101.062 183.375 100.56 183.556 100.687C183.737 100.813 183.461 101.522 182.938 102.269C182.493 102.903 182.015 103.36 181.771 103.405C181.524 103.58 180.998 103.764 180.367 103.875C179.469 104.034 178.71 103.986 178.671 103.768Z" fill="#263238"/>
<path d="M183.388 106.1C183.125 105.378 183.025 104.73 183.123 104.498C183.121 104.195 183.275 103.654 183.546 103.072C183.931 102.245 184.406 101.651 184.607 101.745C184.807 101.838 184.657 102.583 184.272 103.41C184.022 103.948 183.733 104.385 183.507 104.601C183.708 104.843 183.945 105.29 184.14 105.825C184.452 106.682 184.536 107.438 184.329 107.514C184.121 107.59 183.7 106.957 183.388 106.1Z" fill="#263238"/>
<path d="M177.623 99.5948C177.716 99.3943 178.462 99.5444 179.288 99.9296C179.826 100.18 180.263 100.468 180.479 100.695C180.722 100.494 181.169 100.256 181.704 100.062C182.56 99.7499 183.316 99.6653 183.392 99.8731C183.468 100.081 182.834 100.502 181.978 100.814C181.256 101.077 180.608 101.177 180.375 101.079C180.073 101.081 179.532 100.927 178.95 100.655C178.124 100.27 177.529 99.7947 177.623 99.5948Z" fill="#263238"/>
<path d="M182.658 94.9063C182.658 95.5582 183.187 96.0868 183.839 96.0868C184.491 96.0868 185.019 95.5582 185.019 94.9063C185.019 94.2545 184.491 93.7258 183.839 93.7258V94.9063H182.658Z" fill="#1D2550"/>
<path opacity="0.2" d="M182.658 94.9063C182.658 95.5582 183.187 96.0868 183.839 96.0868C184.491 96.0868 185.019 95.5582 185.019 94.9063C185.019 94.2545 184.491 93.7258 183.839 93.7258V94.9063H182.658Z" fill="black"/>
<path d="M182.453 101.954C182.868 102.795 183.434 103.599 184.153 104.318C187.146 107.31 191.608 107.7 194.12 105.188C196.631 102.677 196.241 98.2148 193.249 95.2221C192.53 94.5031 191.726 93.9364 190.885 93.522L182.453 101.954Z" fill="#1D2550"/>
<path opacity="0.3" d="M182.453 101.954C182.868 102.795 183.434 103.599 184.153 104.318C187.146 107.31 191.608 107.7 194.12 105.188C196.631 102.677 196.241 98.2148 193.249 95.2221C192.53 94.5031 191.726 93.9364 190.885 93.522L182.453 101.954Z" fill="black"/>
<path d="M183.297 101.111L190.042 94.3648C187.914 93.3165 185.487 93.5013 183.96 95.0284C182.434 96.5556 182.248 98.9826 183.297 101.111Z" fill="#1D2550"/>
<path opacity="0.5" d="M183.297 101.111L190.042 94.3648C187.914 93.3165 185.487 93.5013 183.96 95.0284C182.434 96.5556 182.248 98.9826 183.297 101.111Z" fill="black"/>
<path opacity="0.2" d="M182.453 101.954C182.868 102.795 183.434 103.599 184.153 104.318C187.146 107.31 191.608 107.7 194.12 105.189L186.669 97.7378L182.453 101.954Z" fill="black"/>
<path d="M177 98.1751C177.29 97.4599 177.754 96.7616 178.3 96.2207C179.758 94.7753 181.522 95.0637 183.061 96.2526C183.164 96.3321 183.311 96.1882 183.206 96.1075C181.805 95.0256 180.124 94.5188 178.608 95.6758C177.81 96.2839 177.178 97.1962 176.801 98.1235C176.751 98.2451 176.951 98.296 177 98.1751Z" fill="#263238"/>
<path d="M187.054 87.87C186.127 88.2469 185.214 88.8791 184.606 89.6766C183.45 91.1925 183.956 92.8736 185.038 94.2753C185.119 94.3794 185.263 94.2333 185.183 94.1302C183.998 92.5964 183.702 90.8229 185.151 89.3691C185.694 88.8242 186.389 88.36 187.106 88.0688C187.227 88.0195 187.176 87.8202 187.054 87.87Z" fill="#263238"/>
<path d="M186.76 100.966C187.232 101.438 187.232 102.204 186.76 102.676C186.288 103.148 185.522 103.148 185.049 102.676C184.577 102.204 184.577 101.439 185.049 100.966C185.521 100.494 186.288 100.494 186.76 100.966Z" fill="#1D2550"/>
<path d="M191.607 96.1177C192.079 96.5898 192.079 97.3553 191.607 97.828C191.135 98.3 190.369 98.3 189.897 97.828C189.425 97.3559 189.425 96.5904 189.897 96.1177C190.369 95.6457 191.135 95.6457 191.607 96.1177Z" fill="#1D2550"/>
<path d="M190.549 103.594C191.021 104.066 191.021 104.832 190.549 105.305C190.077 105.777 189.311 105.777 188.838 105.305C188.366 104.832 188.366 104.066 188.838 103.594C189.311 103.122 190.077 103.122 190.549 103.594Z" fill="#1D2550"/>
<path d="M194.236 99.9073C194.708 100.379 194.708 101.145 194.236 101.618C193.764 102.09 192.999 102.09 192.526 101.618C192.054 101.145 192.054 100.379 192.526 99.9073C192.999 99.4352 193.764 99.4352 194.236 99.9073Z" fill="#1D2550"/>
<g opacity="0.7">
<path d="M186.76 100.966C187.232 101.438 187.232 102.204 186.76 102.676C186.288 103.148 185.522 103.148 185.049 102.676C184.577 102.204 184.577 101.439 185.049 100.966C185.521 100.494 186.288 100.494 186.76 100.966Z" fill="white"/>
<path d="M191.607 96.1177C192.079 96.5898 192.079 97.3553 191.607 97.828C191.135 98.3 190.369 98.3 189.897 97.828C189.425 97.3559 189.425 96.5904 189.897 96.1177C190.369 95.6457 191.135 95.6457 191.607 96.1177Z" fill="white"/>
<path d="M190.549 103.594C191.021 104.066 191.021 104.832 190.549 105.305C190.077 105.777 189.311 105.777 188.838 105.305C188.366 104.832 188.366 104.066 188.838 103.594C189.311 103.122 190.077 103.122 190.549 103.594Z" fill="white"/>
<path d="M194.236 99.9073C194.708 100.379 194.708 101.145 194.236 101.618C193.764 102.09 192.999 102.09 192.526 101.618C192.054 101.145 192.054 100.379 192.526 99.9073C192.999 99.4352 193.764 99.4352 194.236 99.9073Z" fill="white"/>
</g>
<path d="M191.441 110.978L188.664 111.468L189.154 114.245L191.931 113.755L191.441 110.978Z" fill="black"/>
<path opacity="0.5" d="M191.441 110.978L188.664 111.468L189.154 114.245L191.931 113.755L191.441 110.978Z" fill="white"/>
<path d="M193.698 129.413L192.863 129.56C191.975 129.717 191.128 129.124 190.971 128.235L188.656 115.105C188.499 114.217 189.092 113.37 189.981 113.213L190.815 113.066C191.704 112.909 192.551 113.502 192.708 114.391L195.023 127.52C195.179 128.409 194.586 129.256 193.698 129.413Z" fill="black"/>
<path opacity="0.1" d="M192.81 87.0071C192.883 87.3145 192.949 87.6253 193.005 87.9406C194.582 96.8799 188.613 105.405 179.673 106.981C179.357 107.037 179.043 107.08 178.729 107.118C181.525 110.06 185.695 111.591 189.992 110.833C196.806 109.632 201.355 103.134 200.154 96.3204C199.396 92.023 196.531 88.6288 192.81 87.0071Z" fill="black"/>
<path d="M185.328 84.388C177.537 85.7616 172.335 93.1917 173.708 100.983C175.082 108.774 182.512 113.977 190.303 112.603C198.095 111.229 203.298 103.799 201.923 96.008C200.55 88.2167 193.12 83.0143 185.328 84.388ZM189.813 109.823C183.558 110.926 177.592 106.749 176.489 100.493C175.385 94.2372 179.563 88.2716 185.819 87.1684C192.075 86.0652 198.04 90.2428 199.143 96.4985C200.247 102.754 196.07 108.72 189.813 109.823Z" fill="#1D2550"/>
<path d="M232.939 114.389C233.487 115.245 233.956 116.066 234.437 116.916C234.915 117.759 235.369 118.615 235.807 119.481C236.684 121.213 237.489 122.991 238.204 124.831C238.571 125.745 238.884 126.693 239.186 127.65L239.244 127.835L239.32 128.136C239.372 128.333 239.403 128.542 239.426 128.752C239.479 129.169 239.459 129.597 239.403 130.007C239.278 130.83 238.961 131.543 238.588 132.12C237.823 133.274 236.896 133.985 235.969 134.561C235.501 134.842 235.031 135.093 234.544 135.296C234.05 135.507 233.595 135.684 233.038 135.841L231.978 133.582C232.607 133.059 233.294 132.447 233.832 131.852C234.379 131.261 234.829 130.623 234.99 130.124C235.074 129.878 235.093 129.687 235.061 129.568C235.041 129.508 235.025 129.461 234.999 129.413C234.987 129.39 234.979 129.365 234.957 129.338C234.949 129.325 234.942 129.312 234.937 129.298L234.876 129.149C234.547 128.328 234.186 127.512 233.807 126.692C233.046 125.056 232.211 123.43 231.337 121.817L230.009 119.404L228.652 117.041L232.939 114.389Z" fill="#FFC3BD"/>
<path d="M233.136 133.274L230.669 132.633L230.527 136.616C230.527 136.616 232.458 136.903 233.639 135.723L233.136 133.274Z" fill="#FFC3BD"/>
<path d="M227.172 131.961L227.729 135.458L230.527 136.616L230.669 132.633L227.172 131.961Z" fill="#FFC3BD"/>
<path d="M216.966 98.3167C216.91 98.5895 216.721 98.781 216.542 98.7451C216.364 98.7087 216.265 98.4584 216.32 98.1857C216.375 97.913 216.565 97.7215 216.743 97.7579C216.921 97.7937 217.021 98.044 216.966 98.3167Z" fill="#263238"/>
<path d="M216.746 98.7866C216.746 98.7866 215.806 100.234 214.969 100.854C215.36 101.402 216.222 101.363 216.222 101.363L216.746 98.7866Z" fill="#ED847E"/>
<path d="M218.27 97.0059C218.31 97.0059 218.35 96.9914 218.381 96.9628C218.447 96.9018 218.452 96.7982 218.39 96.7321C217.776 96.0679 217.032 96.1861 216.999 96.1911C216.91 96.2063 216.85 96.2908 216.866 96.3798C216.881 96.4689 216.966 96.5282 217.053 96.5137C217.078 96.5098 217.66 96.4241 218.15 96.9539C218.182 96.988 218.226 97.0059 218.27 97.0059Z" fill="#263238"/>
<path d="M224.734 102.152C224.239 104.676 223.746 109.301 225.511 110.985C225.511 110.985 224.821 113.545 220.132 113.545C214.975 113.545 217.667 110.985 217.667 110.985C220.482 110.313 220.409 108.225 219.919 106.264L224.734 102.152Z" fill="#FFC3BD"/>
<path d="M226.527 111.453C226.903 110.752 227.319 109.949 226.46 109.698C225.515 109.421 219.446 108.908 217.663 109.427C218.211 110.402 217.283 111.599 217.283 111.599L226.527 111.453Z" fill="#1D2550"/>
<path opacity="0.3" d="M226.527 111.453C226.903 110.752 227.319 109.949 226.46 109.698C225.515 109.421 219.446 108.908 217.663 109.427C218.211 110.402 217.283 111.599 217.283 111.599L226.527 111.453Z" fill="black"/>
<path d="M221.168 229.516H217.719L217.375 221.527H220.825L221.168 229.516Z" fill="#FFC3BD"/>
<path d="M246.491 227.919L243.12 228.649L239.734 221.208L243.106 220.478L246.491 227.919Z" fill="#FFC3BD"/>
<path d="M242.795 228.311L246.583 227.49C246.721 227.461 246.861 227.531 246.92 227.658L248.235 230.511C248.371 230.807 248.191 231.154 247.871 231.218C246.544 231.482 245.884 231.543 244.218 231.904C243.194 232.126 240.88 232.689 239.465 232.996C238.08 233.295 237.562 231.943 238.113 231.69C240.588 230.56 241.622 229.564 242.292 228.636C242.413 228.469 242.593 228.354 242.795 228.311Z" fill="#263238"/>
<path d="M217.742 229.117H221.509C221.651 229.117 221.773 229.215 221.803 229.352L222.485 232.419C222.556 232.737 222.314 233.038 221.989 233.033C220.63 233.01 218.666 232.93 216.958 232.93C214.96 232.93 213.235 233.038 210.893 233.038C209.477 233.038 209.084 231.606 209.677 231.477C212.375 230.887 214.579 230.824 216.911 229.386C217.164 229.229 217.444 229.117 217.742 229.117Z" fill="#263238"/>
<path d="M231.686 111.765C234.919 112.506 237.586 120.761 237.586 120.761L231.092 125.71C231.092 125.71 228.71 123.463 227.648 119.334C226.537 115.008 228.38 111.007 231.686 111.765Z" fill="#1D2550"/>
<path opacity="0.2" d="M228.915 117.835C230.672 119.573 231.245 122.738 231.381 125.49L231.094 125.71C231.094 125.71 228.709 123.461 227.648 119.333C227.582 119.075 227.526 118.816 227.479 118.563L228.915 117.835Z" fill="black"/>
<path d="M212.36 111.943C212.36 111.943 208.688 116.09 212.156 141.762C217.716 141.762 227.903 141.762 230.608 141.762C230.736 138.929 228.956 125.111 231.688 111.765C231.688 111.765 228.525 111.13 225.511 110.985C223.153 110.871 219.739 110.796 217.667 110.985C214.934 111.234 212.36 111.943 212.36 111.943Z" fill="#1D2550"/>
<path opacity="0.2" d="M210.745 119.789L210.816 119.728L215.01 120.732C215.249 123.569 212.333 126.96 210.83 128.509C210.623 124.889 210.628 122.033 210.745 119.789Z" fill="black"/>
<path opacity="0.2" d="M217.377 221.529L217.553 225.648H221.005L220.828 221.529H217.377Z" fill="black"/>
<path opacity="0.2" d="M243.108 220.48L239.734 221.21L241.481 225.045L244.854 224.315L243.108 220.48Z" fill="black"/>
<path d="M226.178 99.5875C225.291 102.895 224.941 104.876 222.9 106.25C219.83 108.319 216.008 105.945 215.888 102.44C215.781 99.2845 217.248 94.4058 220.797 93.7394C224.294 93.0831 227.064 96.2807 226.178 99.5875Z" fill="#FFC3BD"/>
<path d="M218.701 141.762C218.701 141.762 222.616 168.126 224.766 178.004C227.12 188.82 239.741 224.606 239.741 224.606L245.917 223.268C245.917 223.268 237.091 194.105 235.116 178.984C234.467 174.015 233.548 169.287 232.71 162.298C232.399 159.712 232.66 154.4 232.389 152.119C232.104 149.717 231.291 147.572 231.09 145.865C230.792 143.329 230.608 141.761 230.608 141.761L218.701 141.762Z" fill="#1D2550"/>
<path d="M238.262 222.544C238.236 222.55 239.413 224.778 239.413 224.778L246.361 223.274L245.776 221.185L238.262 222.544Z" fill="#1D2550"/>
<path opacity="0.3" d="M238.262 222.544C238.236 222.55 239.413 224.778 239.413 224.778L246.361 223.274L245.776 221.185L238.262 222.544Z" fill="black"/>
<path opacity="0.3" d="M221.175 151.155C225.702 152.043 225.224 168.925 224.679 177.608C223.373 171.471 221.462 159.66 220.156 151.277C220.456 151.127 220.795 151.08 221.175 151.155Z" fill="black"/>
<path d="M212.154 141.762C212.154 141.762 211.679 167.556 212.054 178.077C212.445 189.02 216.267 224.85 216.267 224.85H222.111C222.111 224.85 222.325 189.659 222.585 178.912C222.869 167.196 224.283 141.762 224.283 141.762H212.154V141.762Z" fill="#1D2550"/>
<path d="M215.144 222.522C215.117 222.522 215.474 224.948 215.474 224.948H222.583L222.775 222.783L215.144 222.522Z" fill="#1D2550"/>
<path opacity="0.3" d="M215.144 222.522C215.117 222.522 215.474 224.948 215.474 224.948H222.583L222.775 222.783L215.144 222.522Z" fill="black"/>
<path d="M210.738 115.138C210.206 115.969 209.6 116.895 208.996 117.755C208.38 118.622 207.76 119.483 207.114 120.319C206.467 121.149 205.809 121.972 205.117 122.738C204.783 123.139 204.42 123.491 204.073 123.871C203.711 124.216 203.356 124.591 202.985 124.91L202.432 125.401L201.867 125.843L201.635 126.025C201.48 126 201.268 125.942 201.043 125.844C200.674 125.685 200.259 125.472 199.848 125.217C198.192 124.181 196.492 122.744 194.895 121.342L192.953 122.911C194.21 124.914 195.591 126.728 197.477 128.391C197.957 128.8 198.469 129.207 199.083 129.568C199.701 129.923 200.402 130.286 201.424 130.435C201.933 130.501 202.549 130.487 203.184 130.285C203.494 130.193 203.82 130.03 204.077 129.872L204.475 129.611C204.738 129.435 205.008 129.262 205.265 129.081L206.004 128.518C207.949 126.989 209.548 125.248 211.051 123.452C211.78 122.54 212.497 121.624 213.157 120.669C213.824 119.704 214.453 118.78 215.074 117.709L210.738 115.138ZM201.845 126.034C201.816 126.045 201.753 126.042 201.677 126.032C201.696 126.026 201.717 126.02 201.731 126.017C201.839 125.998 201.886 126.018 201.845 126.034Z" fill="#FFC3BD"/>
<path d="M217.434 117.161C218.538 121.786 210.168 126.316 210.168 126.316L204.732 119.947C204.732 119.947 207.207 116.196 210.286 113.242C214.089 109.592 216.594 113.64 217.434 117.161Z" fill="#1D2550"/>
<path d="M193.437 123.447L190.309 120.476L193.31 118.191C193.31 118.191 195.789 119.96 195.171 122.396L193.437 123.447Z" fill="#FFC3BD"/>
<path d="M189.322 119.316L191.42 116.955L193.31 118.191L190.308 120.476L189.322 119.316Z" fill="#FFC3BD"/>
<path d="M219.13 98.7868C219.13 98.7868 217.265 96.6342 217.544 94.6019C217.544 94.6019 215.805 91.6888 217.43 90.6606C219.054 89.6325 220.069 91.8378 220.069 91.8378C220.069 91.8378 221.119 89.5625 222.625 89.8425C224.13 90.1225 223.762 92.1178 223.762 92.1178C223.762 92.1178 225.775 90.3599 227.035 90.9065C228.295 91.453 227.56 93.413 227.56 93.413C227.56 93.413 229.619 93.0233 230.094 94.3029C230.57 95.583 229.341 96.3631 229.341 96.3631C229.341 96.3631 231.193 97.0558 231.249 98.7868C231.305 100.518 229.31 100.338 229.31 100.338C229.31 100.338 228.97 102.91 225.011 105.103C224.762 105.241 224.461 105.276 224.189 105.189C223.865 105.085 223.331 104.996 222.623 105.154C222.212 105.246 221.787 105.081 221.533 104.746C220.993 104.032 220.141 102.868 219.896 102.302C219.536 101.477 219.13 98.7868 219.13 98.7868Z" fill="#263238"/>
<path opacity="0.3" d="M227.594 100.798C226.369 103.003 224.864 99.4268 224.864 99.4268C223.732 102.296 221.644 98.4177 221.644 98.4177C221.119 100.448 219.131 98.7868 219.131 98.7868C219.131 98.7868 219.537 101.478 219.894 102.303C220.139 102.869 220.99 104.033 221.531 104.747C221.785 105.082 222.211 105.246 222.621 105.155C223.33 104.995 223.863 105.085 224.188 105.189C224.46 105.277 224.76 105.242 225.01 105.104C228.968 102.911 229.309 100.339 229.309 100.339C228.784 102.082 227.594 100.798 227.594 100.798Z" fill="white"/>
<path d="M215.204 99.6322C215.152 99.6322 215.101 99.6249 215.05 99.6104C214.881 99.5616 214.753 99.4474 214.679 99.2805C214.35 98.5363 215.23 96.7107 215.331 96.5046L215.432 96.2991L219.24 98.6068L219.022 98.9664L216.511 97.4443C216.401 97.922 216.061 99.2094 215.512 99.542C215.413 99.6014 215.309 99.6322 215.204 99.6322ZM215.61 96.8977C215.276 97.6268 214.892 98.7228 215.063 99.1108C215.093 99.1775 215.132 99.1971 215.167 99.2066C215.197 99.2161 215.235 99.2195 215.295 99.1831C215.656 98.9636 215.998 97.866 216.132 97.2141L215.61 96.8977Z" fill="#1D2550"/>
<path d="M220.551 99.7264C220.326 100.594 219.756 101.341 219.159 101.785C218.262 102.453 217.591 101.796 217.655 100.779C217.712 99.8647 218.248 98.4155 219.239 98.1444C220.214 97.8773 220.809 98.7335 220.551 99.7264Z" fill="#FFC3BD"/>
<path d="M114.736 208.703H87.5932C86.2178 208.703 84.9836 207.858 84.4858 206.576L73.9919 179.584C72.9789 176.978 70.0456 175.688 67.4399 176.701C67.4399 176.701 39.8386 175.688 37.233 176.701L35.1699 177.503L48.7835 212.519C49.5938 214.604 51.6014 215.977 53.8386 215.977H84.0456H89.5907H119.798V213.764C119.798 210.969 117.532 208.703 114.736 208.703Z" fill="#1D2550"/>
<path opacity="0.3" d="M114.736 208.703H87.5932C86.2178 208.703 84.9836 207.858 84.4858 206.576L73.9919 179.584C72.9789 176.978 70.0456 175.688 67.4399 176.701C67.4399 176.701 39.8386 175.688 37.233 176.701L35.1699 177.503L48.7835 212.519C49.5938 214.604 51.6014 215.977 53.8386 215.977H84.0456H89.5907H119.798V213.764C119.798 210.969 117.532 208.703 114.736 208.703Z" fill="white"/>
<path opacity="0.2" d="M54.2788 206.576L43.785 179.584C42.7719 176.978 39.8386 175.688 37.233 176.701L35.1699 177.503L48.7835 212.519C49.5938 214.604 51.6014 215.977 53.8386 215.977H89.5907V213.764C89.5907 210.969 87.3244 208.702 84.5289 208.702H57.3862C56.0114 208.702 54.7772 207.858 54.2788 206.576Z" fill="black"/>
<path d="M115.031 218.958H78.2044L74.3477 232.902H76.5115L80.6729 224.068H112.562L116.723 232.902H118.887L115.031 218.958Z" fill="#263238"/>
<path opacity="0.2" d="M115.031 218.958H78.2044L74.3477 232.902H76.5115L80.6729 224.068H112.562L116.723 232.902H118.887L115.031 218.958Z" fill="white"/>
<path d="M113.282 218.958H76.4569L72.5996 232.902H74.764L78.9254 224.068H110.815L114.976 232.902H117.14L113.282 218.958Z" fill="#263238"/>
<path opacity="0.3" d="M113.282 218.958H76.4569L72.5996 232.902H74.764L78.9254 224.068H110.815L114.976 232.902H117.14L113.282 218.958Z" fill="white"/>
<path d="M88.804 218.958H51.9784L48.1211 232.902H50.2855L54.4469 224.068H86.3355L90.4974 232.902H92.6613L88.804 218.958Z" fill="#263238"/>
<path opacity="0.2" d="M88.804 218.958H51.9784L48.1211 232.902H50.2855L54.4469 224.068H86.3355L90.4974 232.902H92.6613L88.804 218.958Z" fill="white"/>
<path d="M87.0559 218.958H50.2298L46.373 232.902H48.5369L52.6983 224.068H84.5874L88.7488 232.902H90.9126L87.0559 218.958Z" fill="#263238"/>
<path opacity="0.4" d="M87.0559 218.958H50.2298L46.373 232.902H48.5369L52.6983 224.068H84.5874L88.7488 232.902H90.9126L87.0559 218.958Z" fill="white"/>
<path d="M86.2293 215.978H52.5273V218.957H86.2293V215.978Z" fill="#263238"/>
<path opacity="0.2" d="M86.2293 215.978H52.5273V218.957H86.2293V215.978Z" fill="white"/>
<path d="M112.652 215.978H86.2305V218.957H112.652V215.978Z" fill="#263238"/>
<path opacity="0.1" d="M112.652 215.978H86.2305V218.957H112.652V215.978Z" fill="white"/>
<path d="M91.6598 204.539L98.1093 207.165L97.3807 209.892L90.4961 208.473L91.6598 204.539Z" fill="#CE7A63"/>
<path d="M69.6353 195.232C69.6353 195.232 100.505 184.538 103.051 194.363C105.596 204.188 82.2023 210.965 69.9456 210.553C57.6877 210.141 69.6353 195.232 69.6353 195.232Z" fill="#263238"/>
<path opacity="0.3" d="M69.6353 195.232C69.6353 195.232 100.505 184.538 103.051 194.363C105.596 204.188 82.2023 210.965 69.9456 210.553C57.6877 210.141 69.6353 195.232 69.6353 195.232Z" fill="black"/>
<path opacity="0.7" d="M92.5844 196.227L77.6056 205.775L79.9968 209.699C79.9968 209.699 78.5486 210.18 76.5449 205.387L85.8163 199.259C85.8163 199.259 82.9127 198.967 82.9877 198.512C83.1098 197.772 89.4792 196.351 92.3868 195.739C92.6785 195.678 92.8359 196.067 92.5844 196.227Z" fill="black"/>
<path opacity="0.7" d="M77.0604 205.354L79.6571 209.758C76.133 210.365 72.7478 210.648 69.945 210.554C68.6391 210.51 67.6098 210.3 66.8096 209.963L65.8984 208.216L67.8629 204.075L77.0604 205.354Z" fill="black"/>
<path d="M77.3247 206.031L74.4082 208.475L75.7477 210.554L80.1868 209.861L77.3247 206.031Z" fill="#CE7A63"/>
<path d="M80.9672 209.934L77.9197 205.131L76.5449 206.114L79.1803 210.259L80.9672 209.934Z" fill="#1D2550"/>
<path d="M58.7847 205.459C57.1243 202.644 53.92 194.172 61.6244 192.698C69.3284 191.223 94.6359 205.459 94.6359 205.459L93.4576 209.163L69.4947 205.21C69.4947 205.21 76.157 211.239 68.8697 210.49C63.0888 209.896 60.3986 208.196 58.7847 205.459Z" fill="#263238"/>
<path d="M94.0117 204.539L92.5137 209.376L94.0117 209.584L95.3618 205.406L94.0117 204.539Z" fill="#1D2550"/>
<path d="M74.2287 207.83L76.5359 210.573C76.6227 210.677 76.6266 210.826 76.5449 210.934L74.7304 213.306C74.5708 213.518 74.2701 213.56 74.0584 213.401C74.031 213.38 74.0064 213.357 73.984 213.331C73.1692 212.328 72.4837 211.403 71.4466 210.174C70.2241 208.721 70.3602 209.236 68.8992 207.548C68.02 206.53 69.0313 205.358 69.4558 205.746C71.3872 207.532 72.1645 207.232 73.5276 207.401C73.8059 207.454 74.0551 207.607 74.2287 207.83Z" fill="#1D2550"/>
<path opacity="0.3" d="M74.2287 207.83L76.5359 210.573C76.6227 210.677 76.6266 210.826 76.5449 210.934L74.7304 213.306C74.5708 213.518 74.2701 213.56 74.0584 213.401C74.031 213.38 74.0064 213.357 73.984 213.331C73.1692 212.328 72.4837 211.403 71.4466 210.174C70.2241 208.721 70.3602 209.236 68.8992 207.548C68.02 206.53 69.0313 205.358 69.4558 205.746C71.3872 207.532 72.1645 207.232 73.5276 207.401C73.8059 207.454 74.0551 207.607 74.2287 207.83Z" fill="black"/>
<path d="M97.5875 206.819L96.4619 210.231C96.4194 210.36 96.472 210.5 96.5879 210.57L99.16 212.102C99.3874 212.24 99.683 212.167 99.8208 211.94C99.8387 211.911 99.8527 211.881 99.8639 211.848C100.249 210.611 100.542 209.495 101.049 207.964C101.646 206.158 101.711 206.688 102.443 204.573C102.882 203.299 101.504 202.585 101.254 203.103C100.122 205.484 99.286 205.494 98.0809 206.159C97.8406 206.311 97.6654 206.545 97.5875 206.819Z" fill="#1D2550"/>
<path opacity="0.3" d="M97.5875 206.819L96.4619 210.231C96.4194 210.36 96.472 210.5 96.5879 210.57L99.16 212.102C99.3874 212.24 99.683 212.167 99.8208 211.94C99.8387 211.911 99.8527 211.881 99.8639 211.848C100.249 210.611 100.542 209.495 101.049 207.964C101.646 206.158 101.711 206.688 102.443 204.573C102.882 203.299 101.504 202.585 101.254 203.103C100.122 205.484 99.286 205.494 98.0809 206.159C97.8406 206.311 97.6654 206.545 97.5875 206.819Z" fill="black"/>
<path d="M79.2382 174.677C79.2382 174.677 81.2749 184.7 82.6475 186.362C84.0206 188.025 90.0042 192.496 90.0042 192.496L93.5597 191.75L96.1082 193.877L94.4422 195.192L92.4693 194.45C92.4693 194.45 91.0503 194.732 89.2118 194.732C87.3733 194.732 79.9108 190.341 78.4313 187.876C76.9517 185.41 74.8809 176.139 74.8809 176.139L79.2382 174.677Z" fill="#CE7A63"/>
<path d="M74.8236 177.609C74.8236 177.609 72.2403 169.789 75.644 167.144C79.0477 164.499 80.6437 176.16 80.6437 176.16L74.8236 177.609Z" fill="#1D2550"/>
<path d="M74.127 176.939L74.6483 178.279L81.1673 176.603L80.9063 175.263L74.127 176.939Z" fill="#1D2550"/>
<path d="M57.1278 196.471C57.1278 196.471 52.9228 183.722 58.5082 167.144C58.5082 167.144 65.7563 163.771 76.0922 166.245C77.2777 166.529 77.9962 167.728 77.6921 168.908C76.6578 172.929 75.059 182.515 78.9196 194.632C78.9208 194.632 69.2972 196.233 57.1278 196.471Z" fill="#1D2550"/>
<path opacity="0.8" d="M57.1278 196.471C57.1278 196.471 52.9228 183.722 58.5082 167.144C58.5082 167.144 65.7563 163.771 76.0922 166.245C77.2777 166.529 77.9962 167.728 77.6921 168.908C76.6578 172.929 75.059 182.515 78.9196 194.632C78.9208 194.632 69.2972 196.233 57.1278 196.471Z" fill="white"/>
<path d="M68.9098 167.836C68.9098 167.836 70.2163 169.283 71.3598 167.836L71.9898 167.743C71.9898 167.743 71.9434 169.283 71.1034 169.796C71.1034 169.796 72.8041 177.326 73.984 188.46L72.8377 189.265L71.4472 188.46C71.4472 188.46 71.7899 183.605 70.2505 169.913C70.2505 169.913 68.5604 169.376 68.0469 167.743L68.9098 167.836Z" fill="#263238"/>
<path d="M66.75 165.415L70.2494 168.446L72.2817 166.646C71.5134 166.074 71.7239 164.783 72.1529 163.389L67.1902 159.471C67.4416 161.311 67.632 163.836 66.75 165.415Z" fill="#CE7A63"/>
<path d="M62.2528 172.142C62.2528 172.142 64.4855 183.13 65.9908 184.953C67.4961 186.775 74.0559 191.677 74.0559 191.677L77.9541 190.859L80.7485 193.19L78.9218 194.632L76.759 193.819C76.759 193.819 75.2034 194.128 73.1879 194.128C71.1725 194.128 62.9914 189.314 61.3691 186.611C59.7474 183.908 57.4766 173.744 57.4766 173.744L62.2528 172.142Z" fill="#CE7A63"/>
<path d="M65.459 165.491L66.8483 164.685L70.2492 168.446C70.2492 168.446 68.3794 167.682 67.8541 167.992C67.3798 168.27 67.7107 169.475 67.1608 169.485C65.9372 169.505 65.459 165.491 65.459 165.491Z" fill="#1D2550"/>
<path d="M70.25 168.446L72.0241 164.944L73.4739 165.727C73.4739 165.727 74.823 169.126 73.792 169.484C73.1648 169.702 72.9246 168.113 72.3018 167.882C71.8029 167.698 70.25 168.446 70.25 168.446Z" fill="#1D2550"/>
<path d="M57.6869 177.609C57.6869 177.609 55.1036 169.789 58.5073 167.144C61.911 164.499 63.507 176.16 63.507 176.16L57.6869 177.609Z" fill="#1D2550"/>
<path d="M56.9922 176.939L57.5135 178.279L64.0319 176.603L63.7715 175.263L56.9922 176.939Z" fill="#1D2550"/>
<path opacity="0.1" d="M67.2712 160.123C67.2455 159.899 67.218 159.68 67.1895 159.471L72.1522 163.389C71.9679 163.986 71.8302 164.562 71.7854 165.074C68.7877 165.1 67.6526 161.787 67.2712 160.123Z" fill="black"/>
<path d="M68.1251 153.754C67.0919 157.254 66.5773 158.729 67.6709 161.086C69.3123 164.675 73.8371 165.178 75.894 162.057C77.7336 159.245 79.1465 153.999 76.2709 151.415C74.2392 149.564 71.0909 149.711 69.2395 151.742C68.7159 152.317 68.3345 153.006 68.1251 153.754Z" fill="#CE7A63"/>
<path d="M72.3274 157.871C72.2288 158.15 72.2927 158.428 72.4763 158.496C72.6595 158.564 72.8891 158.39 72.9876 158.11C73.0862 157.831 73.0257 157.554 72.8426 157.486C72.6589 157.418 72.4293 157.592 72.3274 157.871Z" fill="#263238"/>
<path d="M75.4797 159.015C75.3773 159.294 75.4445 159.575 75.6248 159.64C75.8051 159.704 76.0375 159.534 76.14 159.255C76.2425 158.976 76.1747 158.698 75.9949 158.631C75.8152 158.563 75.5822 158.736 75.4797 159.015Z" fill="#263238"/>
<path d="M74.0681 158.562C74.086 159.288 74.2025 160.008 74.4142 160.702C74.0524 160.804 73.6643 160.741 73.3535 160.529L74.0681 158.562Z" fill="#BA4D3C"/>
<path d="M71.9587 155.406C71.9945 155.472 72.069 155.509 72.1441 155.496C72.9454 155.375 73.6762 156.121 73.6813 156.128C73.7479 156.198 73.8588 156.2 73.9288 156.134C73.9988 156.067 74.0016 155.956 73.9349 155.886C73.8918 155.865 73.0714 155.001 72.0937 155.147C71.999 155.163 71.9341 155.251 71.9469 155.346C71.9464 155.367 71.9503 155.387 71.9587 155.406Z" fill="#263238"/>
<path d="M77.2468 157.663C77.3062 157.683 77.3711 157.671 77.4193 157.631C77.4904 157.568 77.4988 157.459 77.4383 157.386C77.0855 156.944 76.5395 156.702 75.9751 156.737C75.8787 156.748 75.8099 156.836 75.8216 156.932C75.8334 157.028 75.9207 157.097 76.0171 157.086C76.4634 157.067 76.8918 157.263 77.1684 157.613C77.1908 157.636 77.2171 157.653 77.2468 157.663Z" fill="#263238"/>
<path d="M67.443 155.795C67.443 155.795 68.7556 155.765 68.5719 154.266C68.5719 154.266 70.7436 154.205 70.8354 152.614C70.8354 152.614 72.7322 154.296 73.4053 152.981C73.4053 152.981 75.7304 155.061 76.0362 153.685C76.0362 153.685 78.4531 156.682 78.3305 154.847C78.3305 154.847 81.0532 154.572 78.606 152.216C78.606 152.216 80.8393 150.259 77.2295 149.463C77.2295 149.463 77.5454 147.142 75.0035 148.164C75.0035 148.164 74.415 145.64 72.2125 147.109C72.2125 147.109 71.0225 145.335 69.721 147.72C69.721 147.72 67.8008 146.62 67.1893 149.098C67.1893 149.098 63.7139 149.521 65.1475 151.804C65.1475 151.804 66.2199 159.471 67.1893 159.471C67.8484 159.471 67.443 155.795 67.443 155.795Z" fill="#263238"/>
<path d="M72.3714 161.628C72.4946 161.664 72.6206 161.689 72.7483 161.704C72.7892 161.711 72.8284 161.683 72.8351 161.642C72.8351 161.641 72.8351 161.641 72.8357 161.64C72.8385 161.597 72.8071 161.561 72.7651 161.556C72.1116 161.486 71.5303 161.11 71.1982 160.543C71.1798 160.505 71.1338 160.489 71.0958 160.508C71.0577 160.526 71.042 160.572 71.0605 160.61C71.3422 161.112 71.8148 161.479 72.3714 161.628Z" fill="#263238"/>
<path d="M95.4834 195.891H81.5932C80.9385 195.891 80.4082 195.36 80.4082 194.706H96.6689C96.6684 195.36 96.138 195.891 95.4834 195.891Z" fill="#263238"/>
<path opacity="0.2" d="M95.4834 195.891H81.5932C80.9385 195.891 80.4082 195.36 80.4082 194.706H96.6689C96.6684 195.36 96.138 195.891 95.4834 195.891Z" fill="white"/>
<path d="M85.258 195.891H75.1674C74.5127 195.891 73.9824 195.36 73.9824 194.706H86.443C86.443 195.36 85.9127 195.891 85.258 195.891Z" fill="#263238"/>
<path opacity="0.5" d="M85.258 195.891H75.1674C74.5127 195.891 73.9824 195.36 73.9824 194.706H86.443C86.443 195.36 85.9127 195.891 85.258 195.891Z" fill="white"/>
<path d="M95.5797 195.529H86.4371C86.2439 195.529 86.1084 195.338 86.1722 195.155L90.2389 183.538C90.3509 183.218 90.6528 183.004 90.9921 183.004H100.135C100.328 183.004 100.464 183.195 100.4 183.377L96.3334 194.994C96.2209 195.314 95.919 195.529 95.5797 195.529Z" fill="#263238"/>
<path opacity="0.5" d="M95.5797 195.529H86.4371C86.2439 195.529 86.1084 195.338 86.1722 195.155L90.2389 183.538C90.3509 183.218 90.6528 183.004 90.9921 183.004H100.135C100.328 183.004 100.464 183.195 100.4 183.377L96.3334 194.994C96.2209 195.314 95.919 195.529 95.5797 195.529Z" fill="white"/>
<path d="M95.9396 195.529H86.7965C86.6033 195.529 86.4678 195.338 86.5316 195.155L90.5983 183.538C90.7103 183.218 91.0127 183.004 91.3515 183.004H100.494C100.687 183.004 100.823 183.195 100.759 183.377L96.6922 194.994C96.5808 195.314 96.279 195.529 95.9396 195.529Z" fill="#263238"/>
<path opacity="0.7" d="M95.9396 195.529H86.7965C86.6033 195.529 86.4678 195.338 86.5316 195.155L90.5983 183.538C90.7103 183.218 91.0127 183.004 91.3515 183.004H100.494C100.687 183.004 100.823 183.195 100.759 183.377L96.6922 194.994C96.5808 195.314 96.279 195.529 95.9396 195.529Z" fill="white"/>
<path d="M94.4198 189.266C94.3252 189.711 94.0172 190.072 93.7322 190.072C93.4471 190.072 93.2926 189.711 93.3872 189.266C93.4818 188.821 93.7898 188.46 94.0749 188.46C94.3599 188.46 94.5145 188.821 94.4198 189.266Z" fill="white"/>
<path opacity="0.3" d="M68.1164 152.973C68.1164 152.973 67.4164 153.324 66.9264 152.973C66.4364 152.622 67.0614 151.644 67.0614 151.644C65.8199 152.367 65.1484 151.804 65.1484 151.804C65.1484 151.804 66.2208 159.471 67.1902 159.471C67.8499 159.471 67.4444 155.795 67.4444 155.795C67.4444 155.795 68.7571 155.765 68.5734 154.266C67.3974 154.041 68.1164 152.973 68.1164 152.973Z" fill="white"/>
<path d="M77.4604 158.049C77.3266 157.644 77.0584 157.35 76.7044 157.221C76.0179 156.97 75.2132 157.429 74.8497 158.25L74.1783 157.978C74.2488 157.626 74.2214 157.266 74.0864 156.94C73.9151 156.524 73.5976 156.214 73.1927 156.066C72.4781 155.804 71.6812 156.129 71.2601 156.797L70.4005 156.45L68.114 155.184L67.9785 155.429L70.2807 156.703L71.1324 157.047C71.1168 157.083 71.096 157.115 71.0826 157.152C70.9224 157.589 70.9286 158.057 71.0994 158.471C71.2708 158.887 71.5883 159.197 71.9932 159.345C72.1606 159.407 72.3348 159.437 72.5095 159.437C72.757 159.437 73.0056 159.376 73.2397 159.255C73.6373 159.05 73.9442 158.696 74.1038 158.259C74.1049 158.257 74.1049 158.254 74.106 158.251L74.7534 158.513C74.6364 158.908 74.6296 159.314 74.7484 159.672C74.8822 160.077 75.1504 160.371 75.5044 160.5C75.6326 160.547 75.7664 160.57 75.902 160.57C76.1405 160.57 76.3852 160.498 76.6165 160.356C76.9749 160.137 77.2594 159.777 77.419 159.342C77.5769 158.907 77.5926 158.448 77.4604 158.049ZM73.1742 159.13C72.8102 159.318 72.4076 159.347 72.0402 159.213C71.6728 159.079 71.3844 158.796 71.2276 158.417C71.0703 158.036 71.0652 157.604 71.2131 157.2C71.4567 156.536 72.0587 156.115 72.6792 156.115C72.8348 156.115 72.9922 156.141 73.1451 156.197C73.5124 156.331 73.8008 156.614 73.9576 156.993C74.115 157.374 74.12 157.806 73.9722 158.21C73.8238 158.615 73.5404 158.941 73.1742 159.13ZM77.2863 159.293C77.1373 159.699 76.8736 160.034 76.542 160.237C76.2161 160.437 75.865 160.483 75.5514 160.368C75.2384 160.254 75.0004 159.991 74.88 159.628C74.7579 159.26 74.7724 158.833 74.9208 158.428C75.1728 157.741 75.7485 157.292 76.3085 157.292C76.4261 157.292 76.5426 157.312 76.6557 157.353C76.9688 157.468 77.2068 157.731 77.3272 158.094C77.4492 158.462 77.4352 158.888 77.2863 159.293Z" fill="#1D2550"/>
<path opacity="0.5" d="M77.4604 158.049C77.3266 157.644 77.0584 157.35 76.7044 157.221C76.0179 156.97 75.2132 157.429 74.8497 158.25L74.1783 157.978C74.2488 157.626 74.2214 157.266 74.0864 156.94C73.9151 156.524 73.5976 156.214 73.1927 156.066C72.4781 155.804 71.6812 156.129 71.2601 156.797L70.4005 156.45L68.114 155.184L67.9785 155.429L70.2807 156.703L71.1324 157.047C71.1168 157.083 71.096 157.115 71.0826 157.152C70.9224 157.589 70.9286 158.057 71.0994 158.471C71.2708 158.887 71.5883 159.197 71.9932 159.345C72.1606 159.407 72.3348 159.437 72.5095 159.437C72.757 159.437 73.0056 159.376 73.2397 159.255C73.6373 159.05 73.9442 158.696 74.1038 158.259C74.1049 158.257 74.1049 158.254 74.106 158.251L74.7534 158.513C74.6364 158.908 74.6296 159.314 74.7484 159.672C74.8822 160.077 75.1504 160.371 75.5044 160.5C75.6326 160.547 75.7664 160.57 75.902 160.57C76.1405 160.57 76.3852 160.498 76.6165 160.356C76.9749 160.137 77.2594 159.777 77.419 159.342C77.5769 158.907 77.5926 158.448 77.4604 158.049ZM73.1742 159.13C72.8102 159.318 72.4076 159.347 72.0402 159.213C71.6728 159.079 71.3844 158.796 71.2276 158.417C71.0703 158.036 71.0652 157.604 71.2131 157.2C71.4567 156.536 72.0587 156.115 72.6792 156.115C72.8348 156.115 72.9922 156.141 73.1451 156.197C73.5124 156.331 73.8008 156.614 73.9576 156.993C74.115 157.374 74.12 157.806 73.9722 158.21C73.8238 158.615 73.5404 158.941 73.1742 159.13ZM77.2863 159.293C77.1373 159.699 76.8736 160.034 76.542 160.237C76.2161 160.437 75.865 160.483 75.5514 160.368C75.2384 160.254 75.0004 159.991 74.88 159.628C74.7579 159.26 74.7724 158.833 74.9208 158.428C75.1728 157.741 75.7485 157.292 76.3085 157.292C76.4261 157.292 76.5426 157.312 76.6557 157.353C76.9688 157.468 77.2068 157.731 77.3272 158.094C77.4492 158.462 77.4352 158.888 77.2863 159.293Z" fill="white"/>
<path d="M66.2471 156.155C66.2684 156.861 66.5697 157.53 67.0838 158.014C67.7664 158.652 68.5454 158.143 68.705 157.273C68.8534 156.49 68.6809 155.215 67.8224 154.909C67.1952 154.698 66.5154 155.035 66.3043 155.663C66.2516 155.821 66.232 155.989 66.2471 156.155Z" fill="#CE7A63"/>
</svg>
