<svg width="280" height="280" viewBox="0 0 280 280" fill="none" xmlns="http://www.w3.org/2000/svg">
<path d="M49.0519 209.858L41.7019 210.014L37.9717 210.077C36.7252 210.104 35.4724 210.098 34.2225 210.108L33.9739 210.11L33.9728 209.859L33.9425 203.592L33.9414 203.311L34.2225 203.312L41.6369 203.348C44.1082 203.35 46.58 203.41 49.0513 203.44L49.2059 203.441L49.2042 203.592C49.1936 204.656 49.156 205.713 49.1308 206.759L49.0519 209.858ZM49.0519 209.858L48.9724 206.692C48.9472 205.649 48.9096 204.617 48.899 203.592L49.0519 203.745C46.5806 203.773 44.1088 203.834 41.6375 203.837L34.2231 203.872L34.5025 203.592L34.4723 209.859L34.2225 209.609C35.4444 209.619 36.663 209.614 37.8883 209.64L41.5725 209.703L49.0519 209.858Z" fill="#EBEBEB"/>
<path d="M40.7804 217.759L33.4304 217.916L29.7002 217.978C28.4537 218.005 27.201 218 25.951 218.009L25.7024 218.011L25.7013 217.76L25.671 211.494L25.6699 211.212L25.951 211.214L33.3654 211.249C35.8367 211.252 38.3086 211.312 40.7798 211.341L40.9344 211.342L40.9327 211.494C40.9221 212.557 40.8846 213.614 40.8594 214.66L40.7804 217.759ZM40.7804 217.759L40.7009 214.593C40.6757 213.55 40.6382 212.518 40.6275 211.493L40.7804 211.646C38.3091 211.674 35.8373 211.735 33.366 211.738L25.9516 211.773L26.231 211.494L26.2008 217.76L25.951 217.51C27.173 217.52 28.3915 217.515 29.6168 217.541L33.301 217.604L40.7804 217.759Z" fill="#EBEBEB"/>
<path d="M57.2111 217.759L49.8611 217.916L46.1309 217.978C44.8843 218.005 43.6316 218 42.3817 218.009L42.1331 218.011L42.1319 217.76L42.1017 211.494L42.1006 211.212L42.3817 211.214L49.7961 211.249C52.2674 211.252 54.7392 211.312 57.2105 211.341L57.3651 211.342L57.3634 211.494C57.3527 212.557 57.3152 213.614 57.29 214.66L57.2111 217.759ZM57.2111 217.759L57.1315 214.593C57.1063 213.55 57.0688 212.518 57.0582 211.493L57.2111 211.646C54.7398 211.674 52.2679 211.735 49.7967 211.738L42.3823 211.773L42.6617 211.494L42.6315 217.76L42.3817 217.51C43.6036 217.52 44.8222 217.515 46.0475 217.541L49.7317 217.604L57.2111 217.759Z" fill="#EBEBEB"/>
<path d="M68.7618 119.949L61.4118 120.105L57.6817 120.168C56.4351 120.194 55.1824 120.189 53.9325 120.199L53.6838 120.201L53.6827 119.949L53.6525 113.683L53.6514 113.402L53.9325 113.403L61.3469 113.438C63.8182 113.441 66.29 113.501 68.7613 113.53L68.9158 113.532L68.9142 113.683C68.9035 114.746 68.866 115.803 68.8408 116.849L68.7618 119.949ZM68.7618 119.949L68.6823 116.783C68.6571 115.74 68.6196 114.708 68.609 113.683L68.7618 113.836C66.2906 113.864 63.8187 113.925 61.3474 113.927L53.933 113.963L54.2125 113.683L54.1822 119.95L53.9325 119.7C55.1544 119.71 56.373 119.704 57.5982 119.731L61.2825 119.793L68.7618 119.949Z" fill="#EBEBEB"/>
<path d="M60.4894 127.851L53.1394 128.007L49.4092 128.07C48.1627 128.096 46.91 128.09 45.66 128.101L45.4114 128.102L45.4103 127.851L45.38 121.584L45.3789 121.303L45.66 121.304L53.0744 121.34C55.5457 121.342 58.0175 121.402 60.4888 121.431L60.6434 121.433L60.6417 121.584C60.6311 122.648 60.5935 123.705 60.5683 124.751L60.4894 127.851ZM60.4894 127.851L60.4099 124.684C60.3847 123.641 60.3471 122.61 60.3365 121.584L60.4894 121.737C58.0181 121.766 55.5463 121.826 53.075 121.829L45.6606 121.864L45.94 121.585L45.9098 127.851L45.66 127.602C46.8819 127.612 48.1005 127.606 49.3258 127.632L53.01 127.695L60.4894 127.851Z" fill="#EBEBEB"/>
<path d="M254.049 145.38L246.699 145.536L242.969 145.599C241.722 145.625 240.47 145.619 239.22 145.63L238.971 145.631L238.97 145.38L238.94 139.113L238.938 138.832L239.22 138.833L246.634 138.869C249.105 138.871 251.577 138.932 254.048 138.961L254.203 138.962L254.201 139.113C254.191 140.177 254.153 141.234 254.128 142.28L254.049 145.38ZM254.049 145.38L253.969 142.214C253.944 141.17 253.907 140.139 253.896 139.113L254.049 139.266C251.578 139.295 249.106 139.355 246.635 139.358L239.22 139.393L239.5 139.114L239.469 145.38L239.22 145.131C240.442 145.141 241.66 145.135 242.885 145.161L246.57 145.224L254.049 145.38Z" fill="#EBEBEB"/>
<path d="M245.776 34.2389L238.426 34.3952L234.696 34.4579C233.45 34.4842 232.197 34.4786 230.947 34.4887L230.699 34.4904L230.697 34.2389L230.667 27.9725L230.666 27.6914L230.947 27.6925L238.362 27.7278C240.833 27.7306 243.305 27.7905 245.776 27.8196L245.93 27.8213L245.929 27.9725C245.918 29.036 245.881 30.0932 245.855 31.1388L245.776 34.2389ZM245.776 34.2389L245.697 31.0727C245.672 30.0294 245.634 28.9979 245.624 27.9725L245.776 28.1254C243.305 28.154 240.833 28.2144 238.362 28.2172L230.948 28.2525L231.227 27.9731L231.197 34.2395L230.947 33.9897C232.169 33.9998 233.388 33.9942 234.613 34.0205L238.297 34.0832L245.776 34.2389Z" fill="#EBEBEB"/>
<path d="M254.049 42.1405L246.699 42.2967L242.969 42.3594C241.722 42.3857 240.47 42.3801 239.22 42.3902L238.971 42.3925L238.97 42.141L238.94 35.8746L238.938 35.5935L239.22 35.5946L246.634 35.6299C249.105 35.6327 251.577 35.6932 254.048 35.7217L254.203 35.7234L254.201 35.8746C254.191 36.9381 254.153 37.9953 254.128 39.0409L254.049 42.1405ZM254.049 42.1405L253.969 38.9742C253.944 37.9309 253.907 36.8994 253.896 35.8741L254.049 36.0269C251.578 36.0555 249.106 36.116 246.635 36.1188L239.22 36.1541L239.5 35.8746L239.469 42.141L239.22 41.8913C240.442 41.9013 241.66 41.8957 242.885 41.9221L246.57 41.9848L254.049 42.1405Z" fill="#EBEBEB"/>
<path d="M49.0523 34.2389L41.7029 34.3952L37.9727 34.4579C36.7261 34.4842 35.4734 34.4786 34.2235 34.4887L33.9749 34.4904L33.9737 34.2389L33.9435 27.9725L33.9424 27.6914L34.2235 27.6925L41.6379 27.7278C44.1092 27.7306 46.581 27.7905 49.0523 27.8196L49.2069 27.8213L49.2052 27.9725C49.1945 29.036 49.157 30.0932 49.1318 31.1388L49.0523 34.2389ZM49.0523 34.2389L48.9728 31.0727C48.9476 30.0294 48.9101 28.9979 48.8994 27.9725L49.0523 28.1254C46.581 28.154 44.1092 28.2144 41.6379 28.2172L34.2235 28.2525L34.5029 27.9731L34.4727 34.2395L34.2229 33.9897C35.4449 33.9998 36.6634 33.9942 37.8887 34.0205L41.5729 34.0832L49.0523 34.2389Z" fill="#EBEBEB"/>
<path d="M218.648 212.672L211.298 212.828L207.567 212.891C206.321 212.917 205.068 212.912 203.818 212.922L203.57 212.924L203.568 212.673L203.538 206.406L203.537 206.125L203.818 206.126L211.233 206.162C213.704 206.164 216.176 206.224 218.647 206.253L218.802 206.255L218.8 206.406C218.789 207.47 218.752 208.527 218.727 209.573L218.648 212.672ZM218.648 212.672L218.568 209.506C218.543 208.463 218.505 207.431 218.495 206.406L218.648 206.559C216.176 206.587 213.704 206.648 211.233 206.651L203.819 206.686L204.098 206.406L204.068 212.673L203.819 212.423C205.041 212.433 206.259 212.427 207.485 212.454L211.169 212.517L218.648 212.672Z" fill="#EBEBEB"/>
<path d="M243.022 146.977L246.105 142.008L244.583 141.065C244.135 140.787 243.893 140.281 243.938 139.756C243.962 139.466 243.972 139.175 243.965 138.882C243.954 138.357 244.228 137.869 244.691 137.621L246.268 136.774L243.504 131.619L241.926 132.465C241.464 132.713 240.905 132.671 240.474 132.372C240.233 132.204 239.985 132.051 239.73 131.911C239.268 131.658 238.981 131.176 238.997 130.65L239.054 128.86L233.209 128.678L233.154 130.474C233.139 131.001 232.816 131.459 232.34 131.685C232.21 131.746 232.082 131.811 231.955 131.878C231.828 131.947 231.703 132.018 231.581 132.092C231.132 132.363 230.574 132.378 230.129 132.102L228.596 131.153L225.513 136.122L227.038 137.068C227.485 137.346 227.728 137.853 227.682 138.378C227.657 138.667 227.647 138.957 227.653 139.248C227.664 139.773 227.39 140.261 226.928 140.509L225.35 141.355L228.114 146.511L229.692 145.664C230.154 145.416 230.713 145.458 231.144 145.757C231.383 145.924 231.631 146.077 231.885 146.215C232.347 146.468 232.636 146.95 232.62 147.476L232.564 149.27L238.409 149.451L238.465 147.656C238.482 147.132 238.804 146.675 239.278 146.451C239.408 146.389 239.538 146.324 239.666 146.255C239.793 146.187 239.918 146.116 240.04 146.042C240.491 145.769 241.051 145.754 241.499 146.032L243.022 146.977ZM238.073 143.287C235.742 144.537 232.841 143.661 231.59 141.33C230.34 138.999 231.213 136.093 233.545 134.844C235.876 133.593 238.783 134.471 240.033 136.802C241.284 139.133 240.404 142.036 238.073 143.287Z" fill="#ABBDFF"/>
<path d="M48.279 89.3574L46.2316 85.8087L45.1458 86.4359C44.8266 86.6207 44.4335 86.6028 44.1243 86.4012C43.9535 86.2897 43.7766 86.1872 43.5935 86.0943C43.2659 85.9274 43.0547 85.5964 43.0547 85.2285V83.9741H38.9567V85.2285C38.9567 85.5964 38.7455 85.9274 38.4179 86.0943C38.2354 86.1872 38.0579 86.2897 37.8871 86.4012C37.5785 86.6028 37.1854 86.6201 36.8656 86.4359L35.7798 85.8087L33.7324 89.3574L34.8233 89.9857C35.1431 90.17 35.3195 90.5211 35.3004 90.8896C35.2954 90.9898 35.2926 91.09 35.2926 91.1914C35.2926 91.2922 35.2954 91.393 35.3004 91.4927C35.3195 91.8595 35.1442 92.2089 34.8261 92.3926L33.7324 93.0248L35.7798 96.5736L36.869 95.9458C37.1887 95.7616 37.5813 95.7795 37.8904 95.9816C38.0607 96.0925 38.2365 96.195 38.4185 96.2874C38.7461 96.4543 38.9567 96.7852 38.9567 97.1526V98.407H43.0547V97.1526C43.0547 96.7852 43.2653 96.4543 43.5929 96.2874C43.7749 96.195 43.9513 96.0925 44.121 95.9816C44.4301 95.7795 44.8227 95.7616 45.1424 95.9458L46.2316 96.5736L48.279 93.0248L47.1898 92.3965C46.8711 92.2128 46.6959 91.8628 46.7143 91.4955C46.7194 91.3952 46.7222 91.2939 46.7222 91.192C46.7222 91.0912 46.7194 90.9904 46.7143 90.8901C46.6953 90.5216 46.8711 90.1705 47.1915 89.9857L48.279 89.3574ZM44.3618 91.1908C44.3618 93.0439 42.8604 94.5452 41.0074 94.5452C39.1543 94.5452 37.6496 93.0444 37.6496 91.1908C37.6496 89.3372 39.1538 87.8331 41.0074 87.8331C42.8604 87.8331 44.3618 89.3372 44.3618 91.1908Z" fill="#ABBDFF"/>
<path d="M90.2417 91.4607C81.4278 91.4607 74.2861 98.6024 74.2861 107.416C74.2861 116.226 81.4278 123.372 90.2417 123.372C99.0516 123.372 106.197 116.226 106.197 107.416C106.197 98.6024 99.0516 91.4607 90.2417 91.4607ZM90.2417 114.866C86.1257 114.866 82.7886 111.533 82.7886 107.416C82.7886 103.3 86.1257 99.9632 90.2417 99.9632C94.3577 99.9632 97.6947 103.3 97.6947 107.416C97.6947 111.533 94.3577 114.866 90.2417 114.866Z" fill="#6764FB"/>
<path d="M93.3088 92.1222H87.1729L87.5122 87.7788H92.9694L93.3088 92.1222Z" fill="#6764FB"/>
<path d="M81.6302 94.1898L77.2913 98.5286L74.46 95.2174L78.3189 91.3584L81.6302 94.1898Z" fill="#6764FB"/>
<path d="M74.8342 103.91V110.046L70.4902 109.706V104.249L74.8342 103.91Z" fill="#6764FB"/>
<path d="M76.9007 115.588L81.2396 119.927L77.9283 122.759L74.0693 118.9L76.9007 115.588Z" fill="#6764FB"/>
<path d="M86.6211 122.385H92.757L92.4177 126.728H86.9605L86.6211 122.385Z" fill="#6764FB"/>
<path d="M98.2998 120.318L102.639 115.979L105.47 119.29L101.611 123.149L98.2998 120.318Z" fill="#6764FB"/>
<path d="M105.097 110.598V104.462L109.44 104.8V110.258L105.097 110.598Z" fill="#6764FB"/>
<path d="M103.029 98.9188L98.6904 94.5799L102.002 91.7485L105.861 95.6075L103.029 98.9188Z" fill="#6764FB"/>
<path d="M212.183 22.5488C203.369 22.5488 196.228 29.6905 196.228 38.5044C196.228 47.3143 203.369 54.4599 212.183 54.4599C220.993 54.4599 228.139 47.3143 228.139 38.5044C228.139 29.69 220.993 22.5488 212.183 22.5488ZM212.183 45.9535C208.067 45.9535 204.729 42.6204 204.729 38.5038C204.729 34.3878 208.067 31.0507 212.183 31.0507C216.299 31.0507 219.636 34.3878 219.636 38.5038C219.636 42.6204 216.299 45.9535 212.183 45.9535Z" fill="#6764FB"/>
<path d="M215.251 23.2103H209.115L209.455 18.8669H214.912L215.251 23.2103Z" fill="#6764FB"/>
<path d="M203.573 25.2772L199.234 29.616L196.402 26.3048L200.261 22.4458L203.573 25.2772Z" fill="#6764FB"/>
<path d="M196.776 34.9971V41.133L192.433 40.7942V35.3364L196.776 34.9971Z" fill="#6764FB"/>
<path d="M198.843 46.676L203.182 51.0149L199.871 53.8463L196.012 49.9873L198.843 46.676Z" fill="#6764FB"/>
<path d="M208.563 53.4727H214.699L214.36 57.816H208.902L208.563 53.4727Z" fill="#6764FB"/>
<path d="M220.241 51.4052L224.58 47.0669L227.411 50.3776L223.552 54.2366L220.241 51.4052Z" fill="#6764FB"/>
<path d="M227.038 41.6852V35.5493L231.381 35.8887V41.3459L227.038 41.6852Z" fill="#6764FB"/>
<path d="M224.971 30.0064L220.633 25.6675L223.944 22.8362L227.802 26.6951L224.971 30.0064Z" fill="#6764FB"/>
<path d="M227.424 204.206C227.901 206.233 228.405 208.228 228.503 210.308C228.448 210.41 228.459 210.787 228.52 210.685C228.532 211.02 229.042 210.959 229.042 210.628C229.037 210.413 229.032 210.197 229.021 209.988C230.214 208.508 231.945 207.57 233.344 206.283C234.475 205.242 235.285 204.001 235.713 202.513C236.874 198.513 235.786 194.274 237.182 190.284C238.385 186.844 240.543 183.853 242.37 180.737C244.298 177.44 245.721 173.977 245.863 170.116C245.977 167.16 245.624 163.22 243.373 161.006C240.986 158.656 238.028 160.417 236.199 162.513C230.901 168.594 228.449 176.278 227.458 184.135C226.911 188.484 226.344 192.859 226.475 197.249C226.55 199.608 226.889 201.915 227.424 204.206Z" fill="#2770FF"/>
<path d="M228.48 211.904C228.205 207.795 228.223 203.678 228.625 199.584C228.619 199.569 228.605 199.56 228.605 199.54C228.539 196.209 228.274 192.892 228.405 189.559C228.547 185.937 229.077 182.387 229.871 178.853C229.88 178.812 229.944 178.821 229.936 178.863C229.283 182.31 228.903 185.828 228.777 189.333C228.709 191.214 228.723 193.097 228.822 194.977C228.854 195.589 228.911 196.205 228.952 196.822C228.952 196.82 228.952 196.818 228.952 196.816C230.295 187.445 233.754 178.554 238.86 170.597C238.93 170.489 239.121 170.604 239.054 170.715C235.377 176.719 232.666 183.314 230.989 190.156C233.537 185.436 237.385 181.554 240.24 177.018C240.256 176.993 240.297 177.018 240.284 177.044C237.719 182.094 233.482 186.076 230.781 191.051C230.312 193.079 229.928 195.126 229.643 197.185C229.251 200.012 229.067 202.858 229.029 205.706C230.58 202.805 232.191 200.03 233.461 196.962C233.495 196.88 233.612 196.936 233.585 197.017C232.504 200.204 231.052 203.638 229.02 206.355C229.009 208.372 229.069 210.39 229.188 212.405C229.505 217.784 230.423 223.09 230.848 228.452C230.861 228.613 230.633 228.632 230.602 228.478C229.484 223.068 228.847 217.415 228.48 211.904Z" fill="#263238"/>
<path d="M234.192 170.425C234.208 170.386 234.265 170.413 234.251 170.452C233.269 173.169 232.714 175.921 232.004 178.706C231.972 178.833 231.788 178.806 231.801 178.673C232.09 175.848 233.098 173.029 234.192 170.425Z" fill="#263238"/>
<path d="M209.245 181.811C209.882 183.407 210.672 184.952 211.505 186.453C213.274 189.666 215.119 192.609 215.453 196.35C215.602 198.02 215.655 199.698 216.164 201.307C216.603 202.701 217.317 203.986 218.139 205.188C220.057 207.981 222.453 210.388 224.23 213.286C226.079 216.298 227.442 219.612 228.277 223.044C228.321 223.232 228.617 223.181 228.573 222.994C228.566 222.979 228.564 222.967 228.562 222.951C228.568 222.941 228.578 222.932 228.579 222.911C228.861 214.89 228.221 206.806 225.774 199.123C224.704 195.763 223.384 192.421 221.887 189.228C220.577 186.442 218.943 183.764 216.642 181.682C215.15 180.337 211.912 177.789 209.786 179.137C208.767 179.786 208.843 180.81 209.245 181.811Z" fill="#2770FF"/>
<path d="M217.305 199.994C218.681 202.346 220.312 204.535 221.966 206.694C222.743 207.708 223.53 208.714 224.305 209.729C224.672 210.209 225.082 210.686 225.419 211.201C225.206 210.358 225 209.514 224.785 208.671C223.75 204.619 222.755 200.53 221.214 196.634C219.707 192.825 217.703 189.248 215.644 185.716C215.59 185.623 215.74 185.556 215.795 185.646C217.49 188.433 219.21 191.217 220.635 194.156C221.431 195.797 222.1 197.486 222.689 199.204C221.995 195.52 221.166 191.983 219.954 188.417C219.944 188.385 219.989 188.362 220.002 188.394C221.48 191.892 222.544 195.825 222.84 199.616C222.841 199.623 222.838 199.628 222.835 199.633C223.183 200.675 223.502 201.727 223.8 202.786C225.064 207.274 226.173 211.808 227.202 216.358C227.184 213.353 226.995 210.403 226.428 207.439C226.415 207.371 226.517 207.355 226.533 207.421C227.278 210.474 227.616 213.687 227.308 216.823C227.696 218.554 228.075 220.286 228.444 222.018C229.233 225.715 230.202 229.479 230.662 233.233C230.674 233.33 230.539 233.351 230.514 233.258C229.964 231.234 229.632 229.137 229.181 227.088C228.73 225.033 228.265 222.981 227.787 220.932C227.09 217.948 226.361 214.972 225.618 211.999C225.121 210.909 224.16 209.941 223.441 209.027C222.651 208.024 221.862 207.02 221.093 206.001C219.662 204.102 218.35 202.129 217.234 200.028C217.211 199.982 217.281 199.952 217.305 199.994Z" fill="#263238"/>
<path d="M216.964 196.564C218.704 198.797 220.283 201.268 221.525 203.812C221.542 203.844 221.491 203.879 221.471 203.847C219.935 201.442 218.426 199.017 216.894 196.609C216.867 196.568 216.935 196.526 216.964 196.564Z" fill="#263238"/>
<path d="M251.108 189.416C250.068 191.206 248.882 193.356 249.328 195.505C249.611 196.866 250.607 197.97 250.786 199.358C251.189 202.422 248.136 204.446 245.926 205.894C240.419 209.507 232.866 212.729 231.864 220.108C231.826 220.369 231.374 220.304 231.407 220.048C231.407 220.032 231.413 220.016 231.418 219.999C231.407 219.983 231.391 219.978 231.391 219.956C230.678 216.217 230.694 212.408 231.494 208.685C232.316 204.881 233.976 201.463 235.935 198.123C239.249 192.468 242.759 186.678 247.772 182.346C249.159 181.149 252 178.994 253.105 181.699C254.177 184.327 252.381 187.233 251.108 189.416Z" fill="#2770FF"/>
<path d="M246.067 201.404C242.415 205.357 236.61 207.573 233.467 212.001C235.329 205.214 238.412 199.112 243.151 193.811C243.272 193.675 243.082 193.482 242.95 193.609C239.48 196.944 236.911 200.842 235.036 205.07C235.879 202.051 237.058 199.195 238.444 196.356C238.496 196.249 238.344 196.156 238.283 196.261C236.518 199.27 235.344 202.649 234.61 206.057C230.468 216.083 230.084 227.842 230.952 238.41C230.965 238.561 231.195 238.565 231.19 238.41C230.952 230.082 231.087 221.608 233.083 213.475C233.124 213.305 233.171 213.138 233.214 212.969C236.633 208.202 242.414 205.993 246.13 201.467C246.165 201.424 246.106 201.361 246.067 201.404Z" fill="#263238"/>
<path d="M246.912 198.009C244.995 199.767 243.108 201.566 241.189 203.324C241.169 203.341 241.195 203.375 241.217 203.36C243.307 201.946 245.429 200.077 247.027 198.123C247.092 198.044 246.991 197.938 246.912 198.009Z" fill="#263238"/>
<path d="M247.216 190.39C245.475 193.181 243.649 195.797 241.481 198.279C241.452 198.312 241.497 198.358 241.529 198.327C243.857 196.085 245.924 193.373 247.319 190.45C247.351 190.381 247.257 190.324 247.216 190.39Z" fill="#263238"/>
<path d="M238.585 245.864H221.795L224.058 223.274H235.999L238.585 245.864Z" fill="#455A64"/>
<path d="M236.421 226.946H223.688L224.057 223.274H236.001L236.421 226.946Z" fill="#263238"/>
<path d="M238.059 220.771H222.32V224.378H238.059V220.771Z" fill="#455A64"/>
<path d="M26.5684 245.863L54.9262 245.727L83.284 245.678L140 245.584L196.717 245.678L225.074 245.727L253.432 245.863L225.074 246.001L196.717 246.05L140 246.143L83.284 246.049L54.9262 246L26.5684 245.863Z" fill="#263238"/>
<path d="M203.652 37.304H111.561C106.418 37.304 102.245 41.5476 102.245 46.7937V236.374C102.245 241.609 106.418 245.864 111.561 245.864H203.652C208.8 245.864 212.978 241.61 212.978 236.374V46.7937C212.978 41.5476 208.8 37.304 203.652 37.304ZM207.155 230.512C207.155 235.503 203.418 239.539 198.809 239.539H116.42C111.801 239.539 108.064 235.503 108.064 230.512V53.9791C108.064 43.814 111.801 43.3184 116.42 43.3184H132.921C133.88 43.3184 134.664 44.4081 134.664 45.7588V46.3418C134.664 49.5069 136.397 49.5176 138.526 49.5176H176.692C178.839 49.5176 180.554 49.5069 180.554 46.3418V45.7588C180.554 44.4081 181.328 43.3184 182.303 43.3184H198.809C203.418 43.3184 207.155 44.6696 207.155 53.9791V230.512Z" fill="#263238"/>
<path d="M162.815 45.5638H152.405C152.05 45.5638 151.762 45.276 151.762 44.921C151.762 44.5659 152.05 44.2781 152.405 44.2781H162.815C163.17 44.2781 163.458 44.5659 163.458 44.921C163.458 45.276 163.171 45.5638 162.815 45.5638Z" fill="white"/>
<path d="M207.156 53.9791V230.513C207.156 235.503 203.419 239.54 198.811 239.54H116.422C111.802 239.54 108.065 235.503 108.065 230.513V53.9791C108.065 43.814 111.802 43.3184 116.422 43.3184H132.922C133.881 43.3184 134.665 44.4081 134.665 45.7588V46.3418C134.665 49.5069 136.398 49.5176 138.528 49.5176H176.693C178.84 49.5176 180.556 49.5069 180.556 46.3418V45.7588C180.556 44.4081 181.329 43.3184 182.304 43.3184H198.81C203.419 43.3184 207.156 44.6691 207.156 53.9791Z" fill="white"/>
<path d="M116.872 59.7991L115.108 58.1471L116.872 56.4951L117.146 56.7869L115.694 58.1471L117.146 59.5079L116.872 59.7991Z" fill="#DBDBDB"/>
<path d="M195.444 57.5715C195.762 57.5715 196.02 57.8291 196.02 58.1472C196.02 58.4653 195.762 58.7229 195.444 58.7229C195.126 58.7229 194.868 58.4653 194.868 58.1472C194.868 57.8297 195.126 57.5715 195.444 57.5715Z" fill="#DBDBDB"/>
<path d="M197.493 57.5715C197.811 57.5715 198.069 57.8291 198.069 58.1472C198.069 58.4653 197.811 58.7229 197.493 58.7229C197.175 58.7229 196.917 58.4653 196.917 58.1472C196.916 57.8297 197.175 57.5715 197.493 57.5715Z" fill="#DBDBDB"/>
<path d="M199.541 57.5715C199.859 57.5715 200.117 57.8291 200.117 58.1472C200.117 58.4653 199.859 58.7229 199.541 58.7229C199.222 58.7229 198.965 58.4653 198.965 58.1472C198.964 57.8297 199.222 57.5715 199.541 57.5715Z" fill="#DBDBDB"/>
<path d="M130.076 47.2833C130.023 47.3359 129.969 47.3885 129.916 47.4417C129.886 47.472 129.856 47.5022 129.826 47.5325C129.398 47.1169 128.887 46.8952 128.29 46.8946C127.693 46.8946 127.183 47.1158 126.752 47.5341C126.723 47.5045 126.694 47.4742 126.665 47.4445C126.613 47.3913 126.561 47.3393 126.508 47.2861C126.507 47.2849 126.505 47.2844 126.503 47.2833C126.503 47.2821 126.503 47.2805 126.503 47.2793C126.507 47.276 126.511 47.2732 126.515 47.2698C126.582 47.2105 126.647 47.1483 126.716 47.0912C126.859 46.973 127.016 46.8756 127.182 46.7938C127.379 46.6969 127.585 46.6258 127.8 46.5861C127.902 46.567 128.006 46.5575 128.109 46.5452C128.144 46.5407 128.372 46.5401 128.379 46.5407C128.449 46.5457 128.52 46.5491 128.59 46.5564C128.784 46.5771 128.973 46.6247 129.157 46.6919C129.289 46.7406 129.417 46.8005 129.54 46.8717C129.67 46.9461 129.793 47.0313 129.907 47.1281C129.964 47.1769 130.019 47.2289 130.075 47.2799C130.075 47.2799 130.076 47.2821 130.076 47.2833Z" fill="#C7C7C7"/>
<path d="M127.258 48.0332C127.173 47.9497 127.091 47.8674 127.006 47.7834C127.293 47.5017 127.632 47.3225 128.031 47.2688C128.628 47.1881 129.139 47.369 129.573 47.78C129.487 47.8652 129.404 47.948 129.32 48.032C129.035 47.7554 128.691 47.6059 128.289 47.6059C127.887 47.6059 127.545 47.7554 127.258 48.0332Z" fill="#C7C7C7"/>
<path d="M129.068 48.2851C128.985 48.3679 128.902 48.4514 128.817 48.5354C128.672 48.3943 128.496 48.3164 128.289 48.3164C128.083 48.317 127.907 48.3943 127.761 48.5365C127.677 48.4525 127.594 48.3696 127.511 48.2862C127.909 47.8684 128.626 47.8354 129.068 48.2851Z" fill="#C7C7C7"/>
<path d="M128.516 48.7629C128.516 48.8877 128.414 48.9891 128.289 48.9891C128.164 48.9891 128.062 48.8877 128.062 48.7629C128.062 48.638 128.164 48.5366 128.289 48.5366C128.414 48.5366 128.516 48.638 128.516 48.7629Z" fill="#C7C7C7"/>
<path d="M114.526 47.7648C114.526 47.4019 114.82 47.1079 115.183 47.1079C115.546 47.1079 115.84 47.4019 115.84 47.7648C115.84 48.1277 115.546 48.4217 115.183 48.4217C114.82 48.4217 114.526 48.1277 114.526 47.7648Z" fill="#C7C7C7"/>
<path d="M116.595 47.7648C116.595 47.4019 116.889 47.1079 117.252 47.1079C117.614 47.1079 117.908 47.4019 117.908 47.7648C117.908 48.1277 117.614 48.4217 117.252 48.4217C116.889 48.4217 116.595 48.1277 116.595 47.7648Z" fill="#C7C7C7"/>
<path d="M118.663 47.7648C118.663 47.4019 118.957 47.1079 119.32 47.1079C119.683 47.1079 119.977 47.4019 119.977 47.7648C119.977 48.1277 119.683 48.4217 119.32 48.4217C118.957 48.4217 118.663 48.1277 118.663 47.7648Z" fill="#C7C7C7"/>
<path d="M120.731 47.7648C120.731 47.4019 121.025 47.1079 121.388 47.1079C121.751 47.1079 122.045 47.4019 122.045 47.7648C122.045 48.1277 121.751 48.4217 121.388 48.4217C121.025 48.4217 120.731 48.1277 120.731 47.7648Z" fill="#C7C7C7"/>
<path d="M122.8 47.7648C122.8 47.4019 123.094 47.1079 123.457 47.1079C123.82 47.1079 124.114 47.4019 124.114 47.7648C124.114 48.1277 123.82 48.4217 123.457 48.4217C123.094 48.4217 122.8 48.1277 122.8 47.7648Z" fill="#C7C7C7"/>
<path d="M199.726 49.2024H194.372V46.7183H199.726V49.2024ZM194.653 48.9224H199.446V46.9983H194.653V48.9224Z" fill="#C7C7C7"/>
<path d="M198.267 47.1428H194.82V48.778H198.267V47.1428Z" fill="#C7C7C7"/>
<path d="M200.201 47.2979H199.726V48.6223H200.201V47.2979Z" fill="#C7C7C7"/>
<path d="M154.985 84.5949C154.985 86.2183 156.301 87.5343 157.924 87.5343C159.548 87.5343 160.863 86.2183 160.863 84.5949C160.863 82.9714 159.547 81.656 157.924 81.656C156.301 81.656 154.985 82.972 154.985 84.5949Z" fill="#5E8DEC"/>
<path opacity="0.9" d="M140.89 88.3963C140.89 89.9396 142.141 91.1912 143.685 91.1912C145.228 91.1912 146.48 89.9402 146.48 88.3963C146.48 86.8529 145.229 85.6013 143.685 85.6013C142.141 85.6019 140.89 86.8529 140.89 88.3963Z" fill="#5E8DEC"/>
<path opacity="0.8" d="M132.128 98.0999C132.128 99.5638 133.315 100.75 134.778 100.75C136.242 100.75 137.429 99.5638 137.429 98.0999C137.429 96.6361 136.242 95.4495 134.778 95.4495C133.315 95.45 132.128 96.6361 132.128 98.0999Z" fill="#5E8DEC"/>
<path opacity="0.7" d="M131.734 113.647C133.118 113.647 134.24 112.525 134.24 111.141C134.24 109.756 133.118 108.635 131.734 108.635C130.35 108.635 129.228 109.756 129.228 111.141C129.228 112.525 130.35 113.647 131.734 113.647Z" fill="#5E8DEC"/>
<path opacity="0.6" d="M132.19 123.44C132.19 124.745 133.248 125.802 134.552 125.802C135.856 125.802 136.913 124.745 136.913 123.44C136.913 122.136 135.856 121.079 134.552 121.079C133.248 121.079 132.19 122.136 132.19 123.44Z" fill="#5E8DEC"/>
<path opacity="0.5" d="M140.961 133.502C140.961 134.727 141.954 135.719 143.178 135.719C144.403 135.719 145.395 134.727 145.395 133.502C145.395 132.278 144.402 131.285 143.178 131.285C141.953 131.285 140.961 132.278 140.961 133.502Z" fill="#5E8DEC"/>
<path opacity="0.4" d="M155.943 137.711C155.943 138.856 156.871 139.784 158.016 139.784C159.161 139.784 160.089 138.856 160.089 137.711C160.089 136.566 159.161 135.638 158.016 135.638C156.871 135.638 155.943 136.566 155.943 137.711Z" fill="#5E8DEC"/>
<path opacity="0.3" d="M171.12 133.179C171.12 134.244 171.984 135.108 173.049 135.108C174.114 135.108 174.977 134.244 174.977 133.179C174.977 132.114 174.114 131.251 173.049 131.251C171.983 131.251 171.12 132.114 171.12 133.179Z" fill="#5E8DEC"/>
<path opacity="0.2" d="M179.829 122.626C179.829 123.612 180.628 124.41 181.613 124.41C182.598 124.41 183.397 123.612 183.397 122.626C183.397 121.641 182.599 120.842 181.613 120.842C180.628 120.842 179.829 121.641 179.829 122.626Z" fill="#5E8DEC"/>
<path opacity="0.1" d="M182.714 110.878C182.714 111.784 183.448 112.518 184.354 112.518C185.259 112.518 185.993 111.784 185.993 110.878C185.993 109.973 185.259 109.239 184.354 109.239C183.448 109.239 182.714 109.973 182.714 110.878Z" fill="#5E8DEC"/>
<path opacity="0.05" d="M180.11 97.247C180.936 97.247 181.606 96.5776 181.606 95.7518C181.606 94.926 180.936 94.2566 180.11 94.2566C179.285 94.2566 178.615 94.926 178.615 95.7518C178.615 96.5776 179.285 97.247 180.11 97.247Z" fill="#5E8DEC"/>
<path opacity="0.01" d="M168.586 87.2453C168.586 87.9912 169.191 88.596 169.937 88.596C170.683 88.596 171.287 87.9912 171.287 87.2453C171.287 86.4993 170.683 85.8945 169.937 85.8945C169.191 85.8945 168.586 86.4993 168.586 87.2453Z" fill="#5E8DEC"/>
<path d="M157.411 117.408C161.028 117.387 163.939 114.438 163.918 110.825C163.896 107.205 160.949 104.297 157.332 104.319C153.719 104.339 150.811 107.284 150.832 110.901C150.852 114.514 153.798 117.429 157.411 117.408ZM151.628 110.898C151.609 107.721 154.165 105.133 157.339 105.114C160.512 105.096 163.1 107.652 163.119 110.829C163.137 114.002 160.581 116.59 157.404 116.608C154.234 116.627 151.646 114.072 151.628 110.898ZM157.411 117.408C161.028 117.387 163.939 114.438 163.918 110.825C163.896 107.205 160.949 104.297 157.332 104.319C153.719 104.339 150.811 107.284 150.832 110.901C150.852 114.514 153.798 117.429 157.411 117.408ZM151.628 110.898C151.609 107.721 154.165 105.133 157.339 105.114C160.512 105.096 163.1 107.652 163.119 110.829C163.137 114.002 160.581 116.59 157.404 116.608C154.234 116.627 151.646 114.072 151.628 110.898ZM157.411 117.408C161.028 117.387 163.939 114.438 163.918 110.825C163.896 107.205 160.949 104.297 157.332 104.319C153.719 104.339 150.811 107.284 150.832 110.901C150.852 114.514 153.798 117.429 157.411 117.408ZM151.628 110.898C151.609 107.721 154.165 105.133 157.339 105.114C160.512 105.096 163.1 107.652 163.119 110.829C163.137 114.002 160.581 116.59 157.404 116.608C154.234 116.627 151.646 114.072 151.628 110.898ZM157.451 124.658C165.075 124.612 171.21 118.395 171.167 110.782C171.122 103.165 164.911 97.0229 157.291 97.0689C149.677 97.1148 143.535 103.329 143.581 110.945C143.624 118.559 149.838 124.704 157.451 124.658ZM149.813 110.909C149.788 106.737 153.158 103.325 157.327 103.3C161.496 103.276 164.908 106.646 164.934 110.818C164.958 114.99 161.584 118.4 157.416 118.424C153.25 118.448 149.837 115.078 149.813 110.909ZM150.832 110.901C150.852 114.514 153.798 117.429 157.411 117.408C161.028 117.387 163.939 114.438 163.918 110.825C163.896 107.205 160.949 104.297 157.332 104.319C153.719 104.34 150.81 107.284 150.832 110.901ZM151.628 110.898C151.609 107.721 154.165 105.133 157.339 105.114C160.512 105.096 163.1 107.652 163.119 110.829C163.137 114.002 160.581 116.59 157.404 116.608C154.234 116.627 151.646 114.072 151.628 110.898ZM157.411 117.408C161.028 117.387 163.939 114.438 163.918 110.825C163.896 107.205 160.949 104.297 157.332 104.319C153.719 104.339 150.811 107.284 150.832 110.901C150.852 114.514 153.798 117.429 157.411 117.408ZM151.628 110.898C151.609 107.721 154.165 105.133 157.339 105.114C160.512 105.096 163.1 107.652 163.119 110.829C163.137 114.002 160.581 116.59 157.404 116.608C154.234 116.627 151.646 114.072 151.628 110.898ZM157.411 117.408C161.028 117.387 163.939 114.438 163.918 110.825C163.896 107.205 160.949 104.297 157.332 104.319C153.719 104.339 150.811 107.284 150.832 110.901C150.852 114.514 153.798 117.429 157.411 117.408ZM151.628 110.898C151.609 107.721 154.165 105.133 157.339 105.114C160.512 105.096 163.1 107.652 163.119 110.829C163.137 114.002 160.581 116.59 157.404 116.608C154.234 116.627 151.646 114.072 151.628 110.898Z" fill="#5E8DEC"/>
<path d="M154.644 97.6575L159.947 97.6261L159.632 93.8735L154.915 93.9015L154.644 97.6575Z" fill="#5E8DEC"/>
<path d="M164.749 99.3844L168.522 103.113L170.952 100.236L167.597 96.9204L164.749 99.3844Z" fill="#5E8DEC"/>
<path d="M170.673 107.752L170.705 113.056L174.457 112.74L174.429 108.023L170.673 107.752Z" fill="#5E8DEC"/>
<path d="M168.946 117.858L165.218 121.63L168.094 124.061L171.41 120.705L168.946 117.858Z" fill="#5E8DEC"/>
<path d="M160.579 123.782L155.275 123.814L155.591 127.566L160.308 127.538L160.579 123.782Z" fill="#5E8DEC"/>
<path d="M150.474 122.055L146.701 118.327L144.271 121.204L147.626 124.52L150.474 122.055Z" fill="#5E8DEC"/>
<path d="M144.549 113.688L144.517 108.384L140.765 108.7L140.793 113.417L144.549 113.688Z" fill="#5E8DEC"/>
<path d="M146.276 103.582L150.004 99.8095L147.127 97.3792L143.812 100.735L146.276 103.582Z" fill="#5E8DEC"/>
<path d="M190.518 150.999H124.703V156.229H190.518V150.999Z" stroke="#5E8DEC" stroke-width="0.5" stroke-miterlimit="10"/>
<path d="M128.288 151.993H125.917V155.235H128.288V151.993Z" fill="#5E8DEC"/>
<path d="M131.561 151.993H129.189V155.235H131.561V151.993Z" fill="#5E8DEC"/>
<path d="M134.834 151.993H132.463V155.235H134.834V151.993Z" fill="#5E8DEC"/>
<path d="M138.106 151.993H135.735V155.235H138.106V151.993Z" fill="#5E8DEC"/>
<path d="M141.38 151.993H139.009V155.235H141.38V151.993Z" fill="#5E8DEC"/>
<path d="M144.652 151.993H142.281V155.235H144.652V151.993Z" fill="#5E8DEC"/>
<path d="M147.925 151.993H145.554V155.235H147.925V151.993Z" fill="#5E8DEC"/>
<path d="M151.198 151.993H148.827V155.235H151.198V151.993Z" fill="#5E8DEC"/>
<path d="M154.472 151.993H152.101V155.235H154.472V151.993Z" fill="#5E8DEC"/>
<path d="M157.744 151.993H155.373V155.235H157.744V151.993Z" fill="#5E8DEC"/>
<path d="M161.018 151.993H158.646V155.235H161.018V151.993Z" fill="#5E8DEC"/>
<path d="M164.291 151.993H161.92V155.235H164.291V151.993Z" fill="#5E8DEC"/>
<path d="M182.992 152.826L182.169 154.771C182.143 154.84 182.077 154.879 182.001 154.879C181.981 154.879 181.955 154.876 181.932 154.866C181.84 154.824 181.797 154.718 181.833 154.63L182.544 152.942H181.695C181.595 152.942 181.514 152.856 181.514 152.758C181.514 152.655 181.595 152.577 181.695 152.577H182.823C182.833 152.577 182.843 152.577 182.856 152.58C182.879 152.583 182.902 152.596 182.925 152.606C182.929 152.61 182.932 152.613 182.935 152.616C182.942 152.62 182.945 152.623 182.948 152.629C182.951 152.636 182.958 152.639 182.961 152.642C182.964 152.649 182.967 152.652 182.971 152.655C182.974 152.658 182.978 152.668 182.978 152.672C182.981 152.679 182.984 152.682 182.99 152.688C182.99 152.691 182.994 152.701 182.994 152.704C182.997 152.711 182.997 152.714 183 152.721C183.004 152.744 183.004 152.77 183 152.793C182.998 152.807 182.994 152.817 182.992 152.826Z" fill="#5E8DEC"/>
<path d="M183.382 153.729C183.385 153.426 183.461 153.153 183.605 152.942C183.744 152.732 183.958 152.577 184.217 152.577C184.47 152.577 184.688 152.732 184.826 152.942C184.968 153.153 185.047 153.426 185.047 153.729C185.047 154.028 184.968 154.304 184.826 154.514C184.688 154.721 184.47 154.879 184.217 154.879C183.958 154.879 183.744 154.721 183.605 154.514C183.46 154.304 183.385 154.028 183.382 153.729ZM184.681 153.729C184.681 153.491 184.616 153.284 184.523 153.143C184.428 153.004 184.319 152.939 184.217 152.942C184.115 152.939 184.003 153.004 183.905 153.143C183.812 153.284 183.747 153.491 183.747 153.729C183.747 153.962 183.812 154.173 183.905 154.31C184.003 154.452 184.115 154.514 184.217 154.514C184.319 154.514 184.428 154.452 184.523 154.31C184.616 154.173 184.681 153.962 184.681 153.729Z" fill="#5E8DEC"/>
<path d="M185.683 153.146V153.139C185.683 152.817 185.903 152.55 186.229 152.55C186.555 152.55 186.768 152.817 186.768 153.133V153.139C186.768 153.458 186.551 153.729 186.222 153.729C185.9 153.729 185.683 153.461 185.683 153.146ZM186.476 153.146V153.139C186.476 152.955 186.37 152.803 186.222 152.803C186.068 152.803 185.975 152.955 185.975 153.133V153.139C185.975 153.327 186.081 153.475 186.229 153.475C186.383 153.474 186.476 153.324 186.476 153.146ZM186.061 154.682L187.571 152.619C187.594 152.58 187.636 152.56 187.682 152.56C187.755 152.56 187.814 152.616 187.814 152.689C187.814 152.722 187.801 152.751 187.784 152.774L186.275 154.837C186.248 154.876 186.205 154.896 186.159 154.896C186.087 154.896 186.031 154.84 186.031 154.767C186.031 154.734 186.045 154.705 186.061 154.682ZM187.074 154.323V154.317C187.074 153.995 187.295 153.728 187.621 153.728C187.943 153.728 188.161 153.995 188.161 154.31V154.317C188.161 154.636 187.941 154.906 187.614 154.906C187.291 154.906 187.074 154.64 187.074 154.323ZM187.867 154.323V154.317C187.867 154.132 187.762 153.981 187.614 153.981C187.459 153.981 187.368 154.132 187.368 154.31V154.317C187.368 154.504 187.472 154.653 187.621 154.653C187.775 154.653 187.867 154.501 187.867 154.323Z" fill="#5E8DEC"/>
<path d="M141.286 162.445C141.286 162.289 141.408 162.168 141.563 162.168C141.715 162.168 141.846 162.289 141.846 162.445V165.419C141.846 165.575 141.715 165.696 141.563 165.696C141.408 165.696 141.286 165.575 141.286 165.419V162.445Z" fill="#C7C7C7"/>
<path d="M143.343 165.419C143.343 165.571 143.216 165.696 143.071 165.696C142.914 165.696 142.793 165.57 142.793 165.419V162.49C142.793 162.49 142.793 162.49 142.793 162.485C142.788 162.4 142.829 162.309 142.904 162.253C143.03 162.168 143.202 162.193 143.287 162.313L144.916 164.567V162.49C144.916 162.344 145.037 162.218 145.188 162.218C145.339 162.218 145.465 162.344 145.465 162.49V165.419C145.465 165.57 145.339 165.696 145.188 165.696C145.107 165.696 145.032 165.655 144.981 165.595C144.971 165.585 144.961 165.575 144.956 165.564L143.343 163.326V165.419Z" fill="#C7C7C7"/>
<path d="M146.563 164.819C146.654 164.708 146.82 164.693 146.931 164.784C147.153 164.965 147.536 165.177 147.894 165.172C148.146 165.172 148.372 165.096 148.524 164.986C148.675 164.875 148.741 164.749 148.741 164.623C148.741 164.558 148.726 164.512 148.695 164.461C148.665 164.411 148.62 164.361 148.544 164.31C148.398 164.215 148.151 164.129 147.854 164.073H147.844C147.606 164.028 147.385 163.967 147.193 163.876C147.001 163.786 146.835 163.66 146.724 163.483C146.648 163.362 146.608 163.221 146.608 163.07C146.608 162.767 146.78 162.505 147.011 162.334C147.249 162.163 147.556 162.067 147.884 162.067C148.368 162.067 148.726 162.304 148.983 162.47C149.099 162.551 149.134 162.713 149.054 162.829C148.978 162.949 148.817 162.984 148.695 162.904C148.438 162.732 148.192 162.582 147.884 162.582C147.657 162.582 147.455 162.652 147.319 162.753C147.183 162.854 147.127 162.965 147.127 163.07C147.127 163.131 147.137 163.171 147.163 163.212C147.188 163.252 147.234 163.297 147.299 163.343C147.43 163.433 147.657 163.514 147.929 163.564H147.94C148.197 163.615 148.434 163.681 148.635 163.777C148.842 163.877 149.023 164.008 149.139 164.195C149.215 164.316 149.26 164.467 149.26 164.623C149.26 164.946 149.079 165.223 148.827 165.404C148.58 165.586 148.252 165.692 147.894 165.692C147.35 165.687 146.891 165.415 146.604 165.188C146.492 165.096 146.477 164.93 146.563 164.819Z" fill="#C7C7C7"/>
<path d="M152.117 162.727H151.316V165.42C151.316 165.576 151.194 165.697 151.039 165.697C150.888 165.697 150.762 165.576 150.762 165.42V162.727H149.965C149.808 162.727 149.688 162.596 149.688 162.445C149.688 162.289 149.808 162.168 149.965 162.168H152.117C152.269 162.168 152.395 162.289 152.395 162.445C152.395 162.596 152.269 162.727 152.117 162.727Z" fill="#C7C7C7"/>
<path d="M154.547 164.865H153.322L153.075 165.52C153.03 165.631 152.923 165.696 152.813 165.696C152.778 165.696 152.747 165.691 152.717 165.681C152.571 165.626 152.5 165.464 152.55 165.318L153.665 162.349C153.71 162.238 153.82 162.167 153.932 162.172C154.048 162.167 154.154 162.238 154.2 162.349L155.313 165.318C155.364 165.464 155.293 165.626 155.147 165.681C155.122 165.691 155.087 165.696 155.051 165.696C154.94 165.696 154.834 165.631 154.794 165.52L154.547 164.865ZM154.341 164.31L153.932 163.226L153.524 164.31H154.341Z" fill="#C7C7C7"/>
<path d="M156.004 165.419V162.445C156.004 162.293 156.125 162.168 156.281 162.168C156.437 162.168 156.563 162.294 156.563 162.445V165.137H157.929C158.076 165.137 158.206 165.263 158.206 165.42C158.206 165.571 158.076 165.697 157.929 165.697H156.296C156.286 165.697 156.286 165.697 156.286 165.697C156.281 165.697 156.281 165.697 156.281 165.697C156.125 165.696 156.004 165.571 156.004 165.419Z" fill="#C7C7C7"/>
<path d="M158.841 165.419V162.445C158.841 162.293 158.962 162.168 159.118 162.168C159.274 162.168 159.4 162.294 159.4 162.445V165.137H160.767C160.913 165.137 161.044 165.263 161.044 165.42C161.044 165.571 160.913 165.697 160.767 165.697H159.133C159.123 165.697 159.123 165.697 159.123 165.697C159.118 165.697 159.118 165.697 159.118 165.697C158.962 165.696 158.841 165.571 158.841 165.419Z" fill="#C7C7C7"/>
<path d="M161.738 162.445C161.738 162.289 161.86 162.168 162.015 162.168C162.167 162.168 162.298 162.289 162.298 162.445V165.419C162.298 165.575 162.167 165.696 162.015 165.696C161.86 165.696 161.738 165.575 161.738 165.419V162.445Z" fill="#C7C7C7"/>
<path d="M163.795 165.419C163.795 165.571 163.668 165.696 163.523 165.696C163.366 165.696 163.246 165.57 163.246 165.419V162.49C163.246 162.49 163.246 162.49 163.246 162.485C163.24 162.4 163.281 162.309 163.356 162.253C163.482 162.168 163.654 162.193 163.739 162.313L165.368 164.567V162.49C165.368 162.344 165.489 162.218 165.64 162.218C165.791 162.218 165.917 162.344 165.917 162.49V165.419C165.917 165.57 165.791 165.696 165.64 165.696C165.559 165.696 165.484 165.655 165.433 165.595C165.423 165.585 165.413 165.575 165.408 165.564L163.795 163.326V165.419Z" fill="#C7C7C7"/>
<path d="M166.719 163.886C166.719 162.873 167.555 162.067 168.579 162.067C169.007 162.067 169.416 162.213 169.729 162.46C169.859 162.556 169.88 162.742 169.784 162.868C169.688 162.99 169.502 163.015 169.376 162.914C169.159 162.747 168.882 162.641 168.58 162.641C168.217 162.641 167.899 162.778 167.672 163.009C167.435 163.236 167.294 163.544 167.294 163.886C167.294 164.22 167.435 164.527 167.672 164.754C167.899 164.986 168.217 165.122 168.58 165.122C168.832 165.122 169.069 165.046 169.27 164.93V164.24H168.549C168.393 164.24 168.262 164.109 168.262 163.952C168.262 163.791 168.393 163.67 168.549 163.67H169.542C169.547 163.67 169.547 163.67 169.547 163.67C169.552 163.67 169.552 163.67 169.552 163.67C169.714 163.67 169.845 163.791 169.845 163.952V165.066C169.845 165.102 169.835 165.122 169.83 165.151C169.825 165.161 169.825 165.166 169.819 165.177V165.182C169.804 165.228 169.774 165.267 169.723 165.303C169.406 165.55 169.007 165.696 168.579 165.696C167.555 165.696 166.719 164.895 166.719 163.886Z" fill="#C7C7C7"/>
<path d="M171.239 164.98C171.446 164.98 171.618 165.152 171.618 165.358C171.618 165.565 171.446 165.732 171.239 165.732C171.033 165.732 170.866 165.565 170.866 165.358C170.866 165.152 171.033 164.98 171.239 164.98Z" fill="#C7C7C7"/>
<path d="M172.398 164.98C172.605 164.98 172.777 165.152 172.777 165.358C172.777 165.565 172.605 165.732 172.398 165.732C172.192 165.732 172.025 165.565 172.025 165.358C172.025 165.152 172.192 164.98 172.398 164.98Z" fill="#C7C7C7"/>
<path d="M173.558 164.98C173.764 164.98 173.936 165.152 173.936 165.358C173.936 165.565 173.764 165.732 173.558 165.732C173.351 165.732 173.185 165.565 173.185 165.358C173.185 165.152 173.351 164.98 173.558 164.98Z" fill="#C7C7C7"/>
<path d="M47.109 246.048L127.95 246.396C147.599 230.967 149.628 208.107 135.611 194.252C127.127 185.871 116.354 187.561 106.095 186.229C106.085 186.229 106.076 186.223 106.066 186.223C102.493 185.758 98.9885 184.925 95.6604 183.17C85.0983 177.597 79.1432 164.452 70.2571 153.395C69.1495 152.008 67.9931 150.66 66.7773 149.361C59.4699 141.558 44.925 141.304 37.3179 152.274C17.9884 180.147 26.8426 221.634 47.109 246.048Z" fill="#1D2550"/>
<path opacity="0.5" d="M47.109 246.048L127.95 246.396C147.599 230.967 149.628 208.107 135.611 194.252C127.127 185.871 116.354 187.561 106.095 186.229C106.085 186.229 106.076 186.223 106.066 186.223C102.493 185.758 98.9885 184.925 95.6604 183.17C85.0983 177.597 79.1432 164.452 70.2571 153.395C69.1495 152.008 67.9931 150.66 66.7773 149.361C59.4699 141.558 44.925 141.304 37.3179 152.274C17.9884 180.147 26.8426 221.634 47.109 246.048Z" fill="#5E8DEC"/>
<path d="M45.3149 182.273C47.4322 215.44 85.7357 227.821 109.658 217.886C130.459 209.245 123.652 189.527 106.095 186.229C106.085 186.229 106.075 186.223 106.065 186.223C102.493 185.758 98.9881 184.925 95.66 183.17C85.0978 177.597 79.1428 164.452 70.2567 153.395C57.0194 146.518 43.7614 157.988 45.3149 182.273Z" fill="#1D2550"/>
<path d="M119.886 251.272C118.639 250.815 90.4656 228.299 89.9336 226.761C89.7287 226.179 92.7689 221.884 96.5892 216.8C97.4141 215.702 98.2726 214.573 99.1512 213.432C104.845 206.013 111.059 198.275 111.059 198.275L129.948 213.282L117.52 228.025L114.795 231.264C114.795 231.264 121.725 244.709 122.128 246.458C122.524 248.202 121.133 251.729 119.886 251.272Z" fill="#AD6359"/>
<path d="M120.749 251.613C119.452 251.166 89.9826 228.455 89.4114 226.878C89.1835 226.283 92.2427 221.796 96.0944 216.48C96.1353 216.425 96.1762 216.37 96.2171 216.315L115.393 230.755L115.137 231.072C115.137 231.072 122.529 244.81 122.976 246.611C123.415 248.401 122.043 252.063 120.749 251.613Z" fill="#263238"/>
<path d="M121.295 250.213C116.422 246.262 96.3917 230.789 91.2739 227.255C91.2324 227.226 91.2111 227.253 91.2498 227.286C95.9947 231.307 116.15 246.617 121.233 250.294C121.34 250.372 121.398 250.296 121.295 250.213Z" fill="white"/>
<path d="M116.689 232.36C115.015 230.489 112.393 228.946 109.826 229.187C109.726 229.197 109.741 229.338 109.82 229.367C112.217 230.245 114.319 231.243 116.49 232.6C116.644 232.696 116.809 232.494 116.689 232.36Z" fill="white"/>
<path d="M117.444 234.297C115.771 232.426 113.149 230.883 110.582 231.125C110.482 231.134 110.497 231.275 110.575 231.304C112.973 232.183 115.075 233.18 117.246 234.537C117.399 234.634 117.564 234.432 117.444 234.297Z" fill="white"/>
<path d="M118.201 236.235C116.528 234.364 113.905 232.822 111.338 233.064C111.239 233.073 111.254 233.214 111.333 233.243C113.73 234.121 115.832 235.119 118.004 236.477C118.156 236.572 118.32 236.369 118.201 236.235Z" fill="white"/>
<path d="M122.013 250.903C122.384 251.512 120.904 253.196 120.414 253.045C119.924 252.893 87.9018 227.989 87.4499 227.446C86.998 226.903 88.7088 225.098 89.4206 225.486C90.1323 225.874 122.013 250.903 122.013 250.903Z" fill="#1D2550"/>
<path d="M98.5383 223.365C97.2251 220.65 93.0038 222.687 94.3193 225.406C95.6325 228.121 99.8538 226.084 98.5383 223.365Z" fill="white"/>
<path d="M149.027 184.425C147.733 194.239 123.547 222.57 120.752 225.819C120.34 226.298 120.115 226.559 120.115 226.559L100.109 211.184L100.339 210.887L117.956 187.82C117.956 187.82 88.8239 204.82 74.2477 197.103C67.7047 193.639 62.8506 187.48 62.8506 187.48L81.8743 177.337C81.8743 177.337 87.1383 179.039 90.5028 178.548C102.1 176.85 128.086 166.984 134.252 167.233C142.207 167.56 150.215 175.421 149.027 184.425Z" fill="#263238"/>
<path d="M124.285 179.246C123.602 179.938 123.056 180.803 122.468 181.575C121.845 182.391 121.212 183.2 120.59 184.017C120.584 184.025 120.578 184.033 120.572 184.041C120.682 183.802 120.79 183.561 120.905 183.325C121.297 182.511 121.611 181.672 122.076 180.895C122.104 180.847 122.031 180.803 122.002 180.85C121.525 181.622 120.972 182.355 120.564 183.167C120.371 183.55 120.189 183.936 120.02 184.329C119.927 184.544 119.832 184.76 119.748 184.979C119.71 185.078 119.662 185.185 119.634 185.293C119.355 185.672 119.08 186.053 118.812 186.44C118.219 187.299 117.696 188.208 117.095 189.061C117.063 189.106 117.135 189.149 117.168 189.105C117.776 188.304 118.458 187.557 119.076 186.761C119.704 185.952 120.301 185.119 120.889 184.28C121.464 183.462 122.027 182.635 122.601 181.816C123.179 180.992 123.865 180.178 124.333 179.286C124.351 179.254 124.312 179.218 124.285 179.246Z" fill="#37474F"/>
<path d="M104.117 207.69C105.215 208.708 106.397 209.65 107.556 210.599C108.72 211.551 109.889 212.498 111.063 213.437C113.412 215.318 115.751 217.215 118.125 219.063C119.43 220.078 120.744 221.08 122.102 222.024C122.162 222.066 122.23 221.97 122.177 221.921C119.953 219.898 117.58 218.048 115.232 216.172C112.881 214.292 110.523 212.419 108.144 210.574C106.842 209.565 105.546 208.525 104.184 207.597C104.129 207.56 104.07 207.646 104.117 207.69Z" fill="#37474F"/>
<path d="M72.9036 158.182C77.1758 168.299 90.4932 178.403 94.8203 178.673C99.8709 178.988 112.731 172.847 117.574 165.704C118.722 164.01 107.833 156.402 106.063 157.688C102.43 160.326 95.5494 163.961 94.9513 164.023C93.7641 164.146 85.4196 159.633 78.9779 155.379C70.9626 150.087 71.2012 154.15 72.9036 158.182Z" fill="#AD6359"/>
<path d="M116.089 167.601C116.089 167.601 120.574 162.71 120.939 158.207C121.192 155.093 120.645 146.865 113.023 141.493C111.214 140.219 107.735 139.685 109.932 142.839C111.493 145.079 113.159 146.028 113.83 147.496C113.83 147.496 109.323 147.343 108.117 149.204C107.578 150.036 106.16 152.341 105.312 154.292C105.312 154.292 105.688 154.591 106.218 154.902C106.218 154.902 105.256 156.747 106.042 159.811L116.089 167.601Z" fill="#AD6359"/>
<path d="M104.255 138.537L99.5828 154.942C99.3913 155.422 99.6232 155.824 100.1 155.838L108.631 156.1C109.107 156.114 109.65 155.736 109.841 155.256L114.513 138.851C114.705 138.371 114.473 137.97 113.997 137.955L105.466 137.694C104.989 137.679 104.447 138.056 104.255 138.537Z" fill="#455A64"/>
<path d="M105.268 138.559L100.596 154.964C100.404 155.444 100.635 155.845 101.112 155.86L109.644 156.121C110.12 156.136 110.662 155.758 110.854 155.279L115.526 138.874C115.717 138.392 115.485 137.992 115.009 137.978L106.478 137.716C106.002 137.701 105.459 138.078 105.268 138.559Z" fill="#37474F"/>
<path d="M107.584 139.386C107.563 139.786 107.222 140.094 106.822 140.072C106.422 140.051 106.115 139.71 106.136 139.31C106.157 138.91 106.498 138.603 106.898 138.624C107.298 138.645 107.605 138.986 107.584 139.386Z" fill="#263238"/>
<path d="M120.365 153.805C119.391 152.489 117.281 149.733 114.77 148.079C111.982 146.241 106.115 143.454 104.78 145.527C103.801 147.047 105.948 148.308 105.948 148.308C105.948 148.308 103.28 147.667 102.696 149.233C102.164 150.66 103.882 151.536 103.882 151.536C103.882 151.536 102.197 151.425 101.949 152.899C101.651 154.672 105.232 154.612 106.481 156.668C106.762 157.13 120.365 153.805 120.365 153.805Z" fill="#AD6359"/>
<path d="M113.321 151.349C112.202 150.261 109.027 148.441 106.009 148.275C105.94 148.271 105.901 148.321 105.962 148.338C109.247 149.227 112.121 150.684 113.303 151.375C113.319 151.384 113.333 151.361 113.321 151.349Z" fill="#263238"/>
<path d="M111.385 154.11C110.323 153.27 106.967 151.541 103.903 151.478C103.834 151.476 103.798 151.529 103.86 151.543C107.33 152.33 110.147 153.517 111.369 154.137C111.385 154.146 111.398 154.121 111.385 154.11Z" fill="#263238"/>
<path d="M105.882 155.959C105.923 156.949 105.96 157.911 106.077 158.864C106.132 159.341 106.22 159.81 106.321 160.279C106.432 160.746 106.58 161.201 106.749 161.67C106.095 160.908 105.777 159.901 105.652 158.916C105.598 158.419 105.58 157.919 105.618 157.422C105.653 156.927 105.727 156.433 105.882 155.959Z" fill="#263238"/>
<path d="M78.605 168.615L86.2272 159.614C86.2272 159.614 79.8258 154.425 75.2377 152.522C70.6497 150.618 70.093 153.561 72.2059 157.914C74.3188 162.266 78.605 168.615 78.605 168.615Z" fill="#455A64"/>
<path d="M79.8664 155.036C79.6928 154.924 79.5192 154.818 79.3456 154.711C79.5248 155.07 79.7264 155.417 79.9896 155.736C79.9672 155.495 79.9224 155.266 79.8664 155.036ZM85.4104 158.967H85.4048C84.9624 159.051 84.5368 159.191 84.1224 159.354C83.5904 159.583 83.0752 159.835 82.6048 160.216C83.204 160.16 83.7528 159.981 84.2904 159.774C84.7328 159.589 85.1696 159.376 85.5728 159.091C85.5224 159.057 85.472 159.012 85.4104 158.967ZM75.3752 160.323C75.1624 160.855 74.9776 161.403 74.916 162.003C75.3024 161.538 75.56 161.023 75.7952 160.496C76.008 159.964 76.1928 159.415 76.2544 158.816C75.868 159.281 75.6104 159.796 75.3752 160.323Z" fill="white"/>
<path d="M84.2035 162L78.6046 168.615C78.6046 168.615 74.3184 162.268 72.2044 157.913C70.6173 154.639 70.5356 152.164 72.5465 151.949L84.2035 162Z" fill="#263238"/>
<path d="M83.942 158.341C82.645 159.63 79.233 163.233 77.3374 165.878C77.3262 165.894 77.3838 165.947 77.3973 165.934C79.3198 163.987 82.8534 159.822 84.0277 158.421C84.0501 158.394 83.9661 158.317 83.942 158.341Z" fill="#263238"/>
<path d="M53.7197 191.911C54.8375 192.271 86.6416 183.069 86.6416 183.069L82.8862 172.027C82.8862 172.027 84.7404 168.476 83.8791 165.061C82.7288 160.498 74.2824 152.996 73.6188 152.554C70.9537 150.788 68.4556 150.818 66.2486 151.991C57.0528 156.876 53.7197 191.911 53.7197 191.911Z" fill="#455A64"/>
<path d="M84.0948 166.617C83.8428 166.477 83.5796 166.354 83.3164 166.236C82.7844 166.018 82.2356 165.833 81.6364 165.771C82.1012 166.158 82.6164 166.415 83.1428 166.651C83.4564 166.774 83.7756 166.891 84.106 166.975C84.106 166.858 84.106 166.735 84.0948 166.617ZM69.042 165.01C68.51 164.791 67.9612 164.607 67.362 164.545C67.8268 164.931 68.342 165.189 68.8684 165.424C69.4004 165.637 69.9492 165.822 70.5484 165.883C70.0836 165.503 69.5684 165.239 69.042 165.01ZM76.3948 184.963C75.8628 184.744 75.314 184.559 74.7148 184.498C75.1796 184.884 75.6892 185.142 76.2212 185.377C76.574 185.517 76.938 185.651 77.3188 185.735H77.3244C77.4308 185.707 77.5372 185.674 77.6436 185.646C77.2516 185.36 76.826 185.153 76.3948 184.963ZM60.2164 184.257C59.6844 184.044 59.1412 183.854 58.542 183.792C59.0012 184.179 59.5164 184.442 60.0428 184.671C60.5804 184.89 61.1236 185.075 61.7228 185.136C61.258 184.75 60.7484 184.492 60.2164 184.257ZM68.7676 177.744C68.5492 178.276 68.3644 178.819 68.3028 179.419C68.6892 178.959 68.9524 178.444 69.182 177.918C69.4004 177.386 69.5852 176.837 69.6468 176.238C69.2604 176.703 68.9972 177.218 68.7676 177.744ZM75.3756 160.323C75.1628 160.855 74.978 161.403 74.9164 162.003C75.3028 161.538 75.5604 161.023 75.7956 160.496C76.0084 159.964 76.1932 159.415 76.2548 158.816C75.8684 159.281 75.6108 159.796 75.3756 160.323ZM81.1548 176.77C80.6228 176.999 80.1076 177.251 79.6372 177.632C80.2364 177.576 80.7852 177.397 81.3228 177.19C81.8548 176.966 82.37 176.708 82.8404 176.327C82.2412 176.383 81.6924 176.563 81.1548 176.77ZM60.3396 174.149C59.8076 174.379 59.2924 174.631 58.822 175.011C59.4212 174.955 59.97 174.776 60.5076 174.569C61.0396 174.345 61.5548 174.087 62.0252 173.707C61.426 173.763 60.8772 173.942 60.3396 174.149ZM65.8948 155.753C65.3628 155.977 64.8476 156.229 64.3772 156.61C64.9764 156.554 65.5252 156.375 66.0628 156.167C66.5948 155.943 67.11 155.691 67.5804 155.311C66.9812 155.361 66.4324 155.54 65.8948 155.753ZM67.6532 187.908C67.67 188.082 67.698 188.255 67.7316 188.423C67.81 188.401 67.894 188.379 67.9724 188.356C67.8772 188.205 67.7708 188.054 67.6532 187.908ZM60.6308 165.127C60.4068 164.601 60.1492 164.08 59.774 163.615C59.8244 164.215 60.0036 164.763 60.2164 165.301C60.4404 165.827 60.6924 166.348 61.0732 166.813C61.0228 166.214 60.8436 165.665 60.6308 165.127ZM75.7956 170.873C75.5716 170.347 75.314 169.826 74.9332 169.361C74.9892 169.96 75.1684 170.509 75.3756 171.041C75.5996 171.573 75.8572 172.094 76.238 172.559C76.182 171.959 76.0028 171.411 75.7956 170.873Z" fill="white"/>
<path d="M73.3665 172.157C74.7346 171.922 76.12 171.73 77.5094 171.699C78.201 171.683 78.8881 171.7 79.5786 171.731C79.923 171.746 80.2657 171.75 80.6101 171.753C80.9635 171.755 81.3392 171.744 81.6842 171.659C81.715 171.651 81.7273 171.698 81.6965 171.707C81.3667 171.81 81.0503 171.907 80.7087 171.964C80.3839 172.019 80.0518 172.04 79.7225 172.05C79.0214 172.072 78.3197 172.062 77.6186 172.077C76.204 172.108 74.79 172.139 73.3805 172.272C73.3155 172.278 73.3015 172.169 73.3665 172.157Z" fill="#263238"/>
<path d="M70.4007 174.263C71.463 173.845 72.5611 173.472 73.6643 173.177C74.2193 173.028 74.7787 172.913 75.3438 172.812C75.6137 172.764 75.8842 172.721 76.1558 172.68C76.4543 172.636 76.7589 172.632 77.0563 172.584C77.0871 172.579 77.1005 172.626 77.0691 172.632C76.7897 172.686 76.5181 172.787 76.2426 172.857C75.9654 172.928 75.6882 172.996 75.411 173.067C74.856 173.208 74.3033 173.355 73.7472 173.491C72.6339 173.762 71.5279 174.045 70.4247 174.354C70.3648 174.371 70.3458 174.284 70.4007 174.263Z" fill="#263238"/>
<path d="M68.1328 152.438C68.3047 153.003 71.2873 156.548 73.9019 156.252C74.7531 156.155 74.4283 151.485 74.4283 151.485L74.4832 151.135L75.2465 146.231L68.4789 142.533C68.4789 142.533 68.0634 152.197 68.1328 152.438Z" fill="#FFBE9D"/>
<path d="M75.2473 146.229L74.4829 151.134C73.0711 150.707 70.013 149.392 68.3447 145.834C68.4091 144.16 68.4679 142.767 68.4741 142.562C68.478 142.545 68.4774 142.534 68.4774 142.534L69.3326 142.961L75.2473 146.229Z" fill="#263238"/>
<path d="M65.3058 137.95C65.5533 138.125 65.6832 138.438 65.6104 138.753C65.5186 139.15 65.1344 139.401 64.7385 139.341C64.7575 139.447 64.7547 139.559 64.729 139.668C64.6287 140.1 64.2154 140.38 63.7848 140.32C63.7988 140.41 63.7949 140.501 63.773 140.595C63.6767 141.011 63.259 141.272 62.8429 141.175C62.6648 141.134 62.5153 141.033 62.4106 140.899C62.2879 141.281 61.8954 141.507 61.4983 141.415C61.3886 141.39 61.2878 141.341 61.2049 141.275C61.2026 141.298 61.197 141.322 61.192 141.344C61.0957 141.76 60.6813 142.019 60.2624 141.922C60.0104 141.864 59.8144 141.688 59.722 141.465C59.5742 141.791 59.2113 141.976 58.8501 141.892C58.5656 141.826 58.355 141.613 58.2794 141.354C58.1109 141.433 57.9149 141.459 57.7172 141.414C57.4842 141.36 57.2961 141.216 57.1841 141.025C56.9987 141.141 56.7719 141.187 56.5418 141.133C56.1638 141.046 55.9017 140.72 55.8838 140.349C55.788 140.365 55.6844 140.364 55.5802 140.34C55.1972 140.251 54.9452 139.893 54.9844 139.513C54.8657 139.54 54.738 139.542 54.6098 139.513C54.15 139.406 53.8627 138.951 53.9691 138.491C53.9904 138.398 54.0285 138.308 54.0778 138.233C54.0341 138.235 53.9898 138.227 53.9434 138.216C53.5273 138.12 53.2658 137.705 53.3621 137.288C53.3957 137.143 53.4679 137.019 53.5654 136.92C53.1526 136.784 52.9029 136.354 53.0031 135.922C53.0406 135.76 53.1218 135.62 53.2305 135.513C52.9432 135.322 52.7858 134.966 52.8687 134.607C52.9303 134.342 53.1112 134.132 53.343 134.028C53.2215 133.855 53.1745 133.634 53.2254 133.415C53.2775 133.19 53.4192 133.013 53.6074 132.912C53.4422 132.716 53.3688 132.447 53.4315 132.176C53.5178 131.804 53.8342 131.546 54.1948 131.519C54.164 131.403 54.159 131.275 54.1881 131.149C54.2766 130.766 54.6344 130.516 55.0152 130.553C54.9872 130.437 54.9878 130.31 55.0163 130.187C55.1227 129.727 55.5808 129.443 56.0378 129.549C56.1033 129.564 56.1671 129.587 56.2237 129.618C56.2254 129.572 56.2332 129.527 56.2438 129.481C56.3497 129.024 56.8078 128.737 57.2653 128.843C57.3364 128.859 57.403 128.883 57.4641 128.918C57.4568 128.839 57.4635 128.759 57.4826 128.677C57.589 128.218 58.0476 127.931 58.5074 128.038C58.7431 128.092 58.9335 128.24 59.0494 128.437C59.2482 128.227 59.5512 128.126 59.8525 128.196C60.077 128.248 60.259 128.383 60.3744 128.559C60.5334 128.258 60.8806 128.091 61.2284 128.171C61.4994 128.234 61.705 128.432 61.789 128.678C61.967 128.544 62.1994 128.488 62.4318 128.542C62.7628 128.619 62.993 128.896 63.0254 129.218C63.2153 129.083 63.4583 129.03 63.7019 129.086C64.1046 129.179 64.375 129.542 64.3644 129.937C64.4568 129.924 64.5514 129.926 64.6478 129.948C65.0638 130.044 65.322 130.462 65.2257 130.878C65.2044 130.971 65.1669 131.057 65.1148 131.132C65.1322 131.133 65.1484 131.137 65.1646 131.14C65.6244 131.247 65.9106 131.705 65.8042 132.165C65.7851 132.247 65.7554 132.327 65.7134 132.395C65.7806 132.391 65.8512 132.398 65.9195 132.414C66.3356 132.511 66.5943 132.925 66.498 133.342C66.4498 133.55 66.3205 133.722 66.1497 133.827C66.353 134.006 66.4543 134.292 66.3888 134.577C66.3412 134.782 66.2163 134.949 66.05 135.055C66.3658 135.235 66.5417 135.61 66.4549 135.985C66.372 136.344 66.0702 136.6 65.7213 136.638C65.9072 136.819 65.9951 137.087 65.9324 137.358C65.8607 137.672 65.6065 137.898 65.3058 137.95Z" fill="#263238"/>
<path d="M77.8708 129.539C78.1189 129.715 78.2483 130.027 78.1755 130.342C78.0836 130.739 77.6995 130.99 77.3035 130.93C77.3226 131.036 77.3198 131.148 77.294 131.257C77.1938 131.689 76.7805 131.969 76.3499 131.909C76.3639 131.999 76.3599 132.091 76.3381 132.184C76.2418 132.6 75.824 132.861 75.4079 132.764C75.2299 132.723 75.0803 132.622 74.9756 132.488C74.853 132.87 74.4599 133.096 74.0628 133.004C73.9536 132.979 73.8523 132.929 73.7694 132.864C73.7671 132.886 73.7615 132.911 73.7565 132.933C73.6602 133.349 73.2458 133.608 72.8269 133.511C72.5749 133.453 72.3789 133.277 72.2865 133.054C72.1387 133.38 71.7763 133.565 71.4146 133.481C71.1301 133.415 70.9195 133.202 70.8439 132.942C70.6754 133.022 70.4788 133.048 70.2817 133.003C70.0487 132.949 69.8606 132.805 69.7486 132.614C69.5632 132.73 69.3364 132.775 69.1063 132.722C68.7283 132.635 68.4662 132.309 68.4483 131.938C68.3525 131.953 68.2489 131.953 68.1447 131.929C67.7617 131.84 67.5097 131.482 67.5489 131.102C67.4302 131.129 67.3025 131.131 67.1743 131.102C66.7145 130.995 66.4272 130.539 66.5336 130.08C66.5549 129.987 66.593 129.897 66.6423 129.822C66.5986 129.823 66.5543 129.816 66.5079 129.805C66.0918 129.709 65.8303 129.294 65.9266 128.877C65.9602 128.732 66.0324 128.607 66.1299 128.509C65.7171 128.373 65.4674 127.943 65.5676 127.51C65.6051 127.349 65.6863 127.209 65.795 127.102C65.5071 126.911 65.3503 126.554 65.4332 126.196C65.4948 125.931 65.6757 125.721 65.9075 125.616C65.786 125.444 65.739 125.223 65.7894 125.004C65.8415 124.779 65.9831 124.602 66.1713 124.501C66.0061 124.304 65.9327 124.036 65.9955 123.765C66.0817 123.393 66.3981 123.135 66.7587 123.108C66.7279 122.992 66.7229 122.863 66.752 122.737C66.8405 122.354 67.1983 122.105 67.5791 122.142C67.5511 122.026 67.5517 121.899 67.5803 121.775C67.6867 121.316 68.1442 121.032 68.6017 121.138C68.6672 121.153 68.7311 121.176 68.7876 121.206C68.7893 121.161 68.7971 121.116 68.8078 121.07C68.9136 120.613 69.3723 120.326 69.8292 120.432C69.9003 120.448 69.967 120.472 70.028 120.507C70.0207 120.427 70.0275 120.349 70.0465 120.266C70.1529 119.806 70.6115 119.52 71.0713 119.627C71.3071 119.681 71.4975 119.829 71.6134 120.026C71.8122 119.815 72.1151 119.715 72.4164 119.785C72.641 119.837 72.823 119.971 72.9383 120.147C73.0974 119.847 73.4446 119.679 73.7923 119.759C74.0634 119.822 74.2689 120.02 74.3529 120.267C74.531 120.132 74.7634 120.076 74.9958 120.13C75.3273 120.207 75.5569 120.485 75.5894 120.807C75.7792 120.672 76.0223 120.618 76.2659 120.674C76.6685 120.767 76.939 121.13 76.9283 121.526C77.0207 121.512 77.1154 121.514 77.2117 121.536C77.6278 121.633 77.8859 122.05 77.7896 122.466C77.7678 122.559 77.7308 122.646 77.6787 122.72C77.6955 122.721 77.7123 122.725 77.7286 122.729C78.1883 122.835 78.4745 123.294 78.3681 123.753C78.3491 123.836 78.3188 123.915 78.2774 123.983C78.3446 123.979 78.4151 123.986 78.4835 124.003C78.8995 124.099 79.1583 124.513 79.0619 124.929C79.0138 125.138 78.8844 125.31 78.7136 125.414C78.9169 125.593 79.0183 125.879 78.9522 126.164C78.9046 126.37 78.7797 126.537 78.6139 126.642C78.9298 126.822 79.1056 127.197 79.0188 127.573C78.9359 127.931 78.6341 128.187 78.2852 128.225C78.4711 128.406 78.5591 128.675 78.4963 128.946C78.4258 129.26 78.1715 129.487 77.8708 129.539Z" fill="#263238"/>
<path d="M80.841 137.405C83.4864 145.703 78.8149 148.224 77.0246 148.793C75.3994 149.308 69.8011 150.859 66.3129 142.879C62.8246 134.899 65.8464 131.046 69.5004 129.669C73.1544 128.292 78.1955 129.107 80.841 137.405Z" fill="#FFBE9D"/>
<path d="M79.3475 136.516C79.1437 136.541 78.951 136.53 78.7461 136.534C78.5153 136.539 78.3322 136.566 78.1295 136.436C78.0209 136.366 77.9828 136.18 78.0405 136.069C78.1749 135.808 78.4565 135.732 78.7337 135.715C79.035 135.697 79.2719 135.76 79.5166 135.936C79.7541 136.106 79.6169 136.482 79.3475 136.516Z" fill="#263238"/>
<path d="M73.7136 138.591C73.9068 138.519 74.0725 138.421 74.2562 138.331C74.4634 138.229 74.6387 138.169 74.7591 137.961C74.8235 137.849 74.772 137.667 74.6689 137.594C74.4298 137.424 74.1448 137.486 73.8905 137.598C73.6145 137.72 73.433 137.885 73.2964 138.154C73.1642 138.414 73.4588 138.685 73.7136 138.591Z" fill="#263238"/>
<path d="M75.2209 139.567C75.2108 139.546 75.1834 139.606 75.1907 139.629C75.3626 140.197 75.4634 140.876 74.9964 141.205C74.9818 141.215 74.9913 141.244 75.0098 141.236C75.618 140.977 75.4746 140.077 75.2209 139.567Z" fill="#263238"/>
<path d="M74.5488 139.106C73.6091 139.283 74.0319 141.15 74.9027 140.986C75.76 140.824 75.3367 138.957 74.5488 139.106Z" fill="#263238"/>
<path d="M74.2042 139.287C74.0653 139.43 73.9477 139.652 73.7557 139.716C73.5333 139.79 73.3172 139.634 73.1257 139.479C73.1061 139.463 73.0937 139.483 73.0988 139.508C73.1744 139.867 73.3956 140.202 73.7909 140.169C74.1521 140.138 74.3313 139.765 74.3392 139.385C74.3403 139.315 74.2602 139.23 74.2042 139.287Z" fill="#263238"/>
<path d="M78.5986 138.646C78.5981 138.623 78.6502 138.663 78.6546 138.687C78.7627 139.271 78.985 139.921 79.5512 139.998C79.5686 140.001 79.5736 140.03 79.5534 140.032C78.8943 140.082 78.6082 139.216 78.5986 138.646Z" fill="#263238"/>
<path d="M78.9841 137.928C79.9002 137.654 80.3818 139.506 79.5329 139.761C78.6979 140.011 78.2163 138.158 78.9841 137.928Z" fill="#263238"/>
<path d="M79.4019 137.949C79.5738 138.009 79.7648 138.15 79.9429 138.116C80.1489 138.077 80.2469 137.837 80.3265 137.612C80.3349 137.588 80.3533 137.6 80.3606 137.625C80.4625 137.976 80.4413 138.375 80.1187 138.532C79.8247 138.675 79.5173 138.43 79.3414 138.099C79.309 138.038 79.333 137.925 79.4019 137.949Z" fill="#263238"/>
<path d="M76.1892 144.499C76.3504 144.615 76.519 144.783 76.7346 144.769C76.9412 144.755 77.1664 144.627 77.3428 144.526C77.3601 144.516 77.382 144.533 77.3724 144.552C77.2543 144.8 76.9552 144.99 76.6758 144.983C76.4036 144.977 76.2373 144.767 76.1365 144.534C76.1225 144.501 76.1656 144.482 76.1892 144.499Z" fill="#263238"/>
<path d="M78.1818 141.7C78.1818 141.7 78.4831 142.542 78.5687 142.951C78.5766 142.989 78.4814 143.028 78.3442 143.065C78.338 143.068 78.3347 143.072 78.3285 143.069C77.6302 143.333 76.8507 143.236 76.2884 142.738C76.2515 142.704 76.2946 142.652 76.3371 142.669C76.9593 142.952 77.5759 142.929 78.2187 142.806C78.2238 142.686 77.6543 141.381 77.7181 141.363C77.9376 141.296 78.4097 141.356 78.6908 141.378C78.1135 139.606 77.2572 137.942 76.709 136.169C76.6905 136.105 76.7795 136.067 76.8103 136.12C77.8318 137.802 78.5402 139.826 79.1836 141.64C79.2659 141.866 78.3599 141.736 78.1818 141.7Z" fill="#263238"/>
<path d="M78.2908 142.907C78.2908 142.907 78.0651 143.559 77.588 143.918C77.4127 144.052 77.2083 144.146 76.9664 144.157C76.4697 144.18 76.3263 143.763 76.2972 143.377C76.2725 143.059 76.3297 142.761 76.3297 142.761C76.3297 142.761 77.1966 143.177 78.2908 142.907Z" fill="#263238"/>
<path d="M77.5877 143.918C77.4124 144.052 77.208 144.146 76.9661 144.157C76.4694 144.18 76.326 143.763 76.2969 143.377C76.8048 143.273 77.3962 143.453 77.5877 143.918Z" fill="#FF9CBD"/>
<path d="M72.9043 130.883C72.9043 130.883 73.5388 132.109 73.3002 133.15C72.8096 135.29 70.3652 135.303 69.7403 136.246C69.1545 137.131 69.7481 138.557 69.2324 139.426C68.5189 140.628 67.7243 140.058 67.7198 140.762C67.7153 141.465 67.7484 143.692 66.9571 144.154C66.1658 144.615 59.0852 131.343 70.3199 129.29C70.3199 129.29 71.7333 128.231 74.3463 128.986C78.0658 130.06 79.612 134.313 79.612 134.313C79.612 134.313 78.9064 134.319 78.4505 134.069C77.8065 133.715 77.4621 133.421 76.9996 133.202C76.2727 132.858 75.968 133.285 75.2193 132.959C74.0792 132.463 72.9043 130.883 72.9043 130.883Z" fill="#263238"/>
<path d="M72.6975 130.434C72.9943 130.95 73.2362 131.498 73.4042 132.063C73.5756 132.621 73.6792 133.223 73.5375 133.772C73.3902 134.307 72.959 134.746 72.4825 135.052C71.9964 135.366 71.4252 135.552 70.9061 135.908C70.6552 136.094 70.4161 136.322 70.285 136.636C70.1574 136.944 70.1495 137.266 70.1495 137.565C70.1596 138.162 70.1652 138.752 69.8774 139.244C69.5962 139.735 69.0995 140.104 68.525 140.206C67.9644 140.332 67.3086 140.314 66.8164 140.683C67.3372 140.355 67.9543 140.427 68.5502 140.341C69.1611 140.262 69.729 139.887 70.0622 139.356C70.4194 138.814 70.4015 138.144 70.4049 137.566C70.4082 137.273 70.4256 136.984 70.532 136.74C70.6334 136.501 70.8411 136.298 71.0685 136.137C71.5299 135.807 72.1062 135.606 72.6202 135.268C72.8773 135.1 73.1181 134.896 73.3163 134.655C73.5118 134.42 73.691 134.137 73.7475 133.823C73.8769 133.2 73.7346 132.583 73.5342 132.02C73.3191 131.456 73.0335 130.926 72.6975 130.434Z" fill="#263238"/>
<path d="M73.0244 130.893C73.2507 131.4 73.5508 131.872 73.9075 132.307C74.2603 132.742 74.7386 133.113 75.2997 133.283C75.5808 133.372 75.881 133.382 76.1369 133.41C76.3827 133.44 76.656 133.529 76.8285 133.678C77.0189 133.851 77.2138 134.079 77.4602 134.227C77.7066 134.374 77.9832 134.459 78.2593 134.481C77.9961 134.396 77.743 134.287 77.5397 134.113C77.3241 133.952 77.1751 133.739 76.9791 133.521C76.7512 133.286 76.4645 133.208 76.175 133.149C75.8854 133.107 75.6284 133.1 75.382 133.016C74.8819 132.861 74.4491 132.545 74.0761 132.155C73.6953 131.769 73.3565 131.335 73.0244 130.893Z" fill="#263238"/>
<path d="M67.8348 143.096C67.8348 143.096 65.382 140.863 64.3281 141.796C63.2741 142.728 65.536 146.258 67.0676 146.464C68.5992 146.671 68.8181 145.257 68.8181 145.257L67.8348 143.096Z" fill="#FFBE9D"/>
<path d="M65.0014 142.791C64.9785 142.794 64.9813 142.827 65.0025 142.83C66.0833 143.008 66.8125 143.809 67.3926 144.679C67.0152 144.379 66.5689 144.268 66.1573 144.73C66.1354 144.754 66.1696 144.789 66.1959 144.777C66.5817 144.598 66.8909 144.603 67.2381 144.866C67.4839 145.052 67.6827 145.313 67.8815 145.547C67.9481 145.625 68.0971 145.542 68.0405 145.448C68.0366 145.441 68.0316 145.434 68.0277 145.426C67.7667 144.158 66.3863 142.612 65.0014 142.791Z" fill="#263238"/>
<path d="M64.1758 159.673C66.3536 173.004 72.4811 182.744 75.0218 183.163C81.8611 184.291 93.4246 173.109 96.873 170.484C98.2674 169.424 86.895 159.905 85.5493 161.208C82.3791 164.277 78.1786 168.387 77.9512 168.387C77.4668 168.387 75.8372 165.074 69.8844 157.252C64.9043 150.708 63.2854 154.221 64.1758 159.673Z" fill="#FFBE9D"/>
<path d="M103.205 148.356C104.15 149.796 100.403 151.826 100.403 151.826C100.403 151.826 101.592 151.797 102.431 152.574C103.391 153.464 102.416 155.36 102.416 155.36C102.416 155.36 103.626 155.58 104.429 156.49C105.263 157.434 104.551 159.488 104.551 159.488C104.551 159.488 105.541 160.315 105.695 161.596C106.135 165.237 98.1769 170.447 95.5959 171.453L85.167 162.033C85.167 162.033 89.0349 153.382 92.1871 151.148C93.936 149.908 101.76 146.156 103.205 148.356Z" fill="#FFBE9D"/>
<path d="M100.346 151.804C98.1025 152.48 96.0244 153.693 94.0325 154.885C93.9882 154.911 94.0302 154.981 94.0745 154.953C96.0417 153.745 98.3797 153.034 100.391 151.906C100.447 151.875 100.407 151.786 100.346 151.804Z" fill="#FFBE9D"/>
<path d="M102.269 155.247C101.766 155.416 101.32 155.75 100.882 156.041C100.412 156.356 99.9467 156.679 99.4864 157.009C98.5652 157.67 97.6586 158.351 96.7732 159.059C96.734 159.091 96.7721 159.158 96.8152 159.127C97.7347 158.471 98.6638 157.828 99.6102 157.21C100.083 156.901 100.56 156.596 101.038 156.294C101.483 156.014 101.976 155.755 102.35 155.379C102.405 155.325 102.345 155.221 102.269 155.247Z" fill="#FFBE9D"/>
<path d="M104.511 159.514C104.068 159.643 103.666 160.023 103.301 160.296C102.888 160.605 102.472 160.913 102.056 161.218C101.222 161.828 100.388 162.438 99.5335 163.018C99.4909 163.048 99.5324 163.116 99.5755 163.087C100.447 162.501 101.325 161.928 102.192 161.334C102.617 161.043 103.041 160.749 103.463 160.453C103.822 160.202 104.299 159.928 104.544 159.554C104.558 159.534 104.534 159.507 104.511 159.514Z" fill="#FFBE9D"/>
<path d="M105.288 160.406C105.679 160.948 105.845 161.65 105.778 162.33C105.722 163.016 105.398 163.659 105.023 164.211C104.269 165.331 103.337 166.307 102.353 167.214C101.365 168.119 100.3 168.937 99.1821 169.674C98.0632 170.409 96.8782 171.045 95.6451 171.563L95.6754 171.544C94.8936 172.191 89.7399 176.64 88.915 176.978C89.6447 176.271 94.7665 172.045 95.5146 171.36L95.5258 171.349L95.5454 171.34C96.736 170.765 97.8683 170.08 98.9581 169.339C100.047 168.595 101.09 167.782 102.074 166.905C103.051 166.022 103.991 165.088 104.783 164.042C105.182 163.52 105.486 162.946 105.6 162.305C105.717 161.671 105.608 160.989 105.288 160.406Z" fill="#FFBE9D"/>
<path d="M65.9254 170.893L76.2131 165.122C76.2131 165.122 72.0288 158.024 68.395 154.638C64.7611 151.251 63.2116 153.813 63.6702 158.63C64.1283 163.446 65.9254 170.893 65.9254 170.893Z" fill="#455A64"/>
<path d="M65.8946 155.753C65.3626 155.977 64.8474 156.229 64.377 156.61C64.9762 156.554 65.525 156.375 66.0626 156.167C66.5946 155.943 67.1098 155.691 67.5802 155.311C66.981 155.361 66.4322 155.54 65.8946 155.753ZM69.0418 165.01C68.5098 164.791 67.961 164.607 67.3618 164.545C67.8266 164.931 68.3418 165.189 68.8682 165.424C69.4002 165.637 69.949 165.822 70.5482 165.883C70.0834 165.503 69.5682 165.239 69.0418 165.01Z" fill="white"/>
<path d="M74.4723 163.134C72.8063 163.888 68.351 166.072 65.6506 167.887C65.6344 167.898 65.6697 167.968 65.6876 167.96C68.169 166.808 72.9351 164.141 74.5255 163.237C74.5552 163.221 74.5037 163.12 74.4723 163.134Z" fill="#263238"/>
<path d="M66.9226 170.333C66.6095 170.555 66.287 170.759 65.9683 170.97L65.872 171.034L65.839 170.913C65.4201 169.363 65.0494 167.8 64.7324 166.227C64.5722 165.441 64.4188 164.653 64.2922 163.86C64.1562 163.069 64.0335 162.276 63.9434 161.478C64.1836 162.249 64.3908 163.025 64.5851 163.804C64.789 164.58 64.9659 165.362 65.1356 166.145C65.4789 167.709 65.769 169.284 66.0103 170.874L65.881 170.817C66.2282 170.654 66.5709 170.485 66.9226 170.333Z" fill="#263238"/>
<path d="M64.5243 164.467C64.3177 164.202 64.1587 163.911 63.9957 163.622C63.8473 163.326 63.695 163.031 63.5908 162.712C63.798 162.977 63.9565 163.268 64.1195 163.557C64.2679 163.853 64.4196 164.148 64.5243 164.467Z" fill="#263238"/>
<path d="M75.8209 165.409C75.9278 165.281 76.046 165.17 76.1597 165.051L76.1345 165.165C75.4115 164.082 74.7115 162.988 74.0048 161.9L71.8818 158.625C72.817 159.545 73.619 160.589 74.3486 161.673C75.0738 162.761 75.7386 163.89 76.289 165.08L76.3271 165.162L76.2638 165.194C76.1171 165.266 75.9749 165.346 75.8209 165.409Z" fill="#263238"/>
<path d="M73.7704 161.013C73.5962 160.725 73.4719 160.418 73.3437 160.113C73.2306 159.801 73.1135 159.491 73.0469 159.161C73.2216 159.448 73.3459 159.756 73.4736 160.062C73.5873 160.374 73.7038 160.684 73.7704 161.013Z" fill="#263238"/>
<path d="M192.919 225.753C192.458 226.999 169.852 255.099 168.312 255.626C167.729 255.829 163.445 252.775 158.373 248.939C157.277 248.11 156.151 247.248 155.013 246.366C147.613 240.648 139.895 234.409 139.895 234.409L154.962 215.568L169.665 228.043L172.895 230.779C172.895 230.779 186.362 223.891 188.112 223.495C189.858 223.105 193.381 224.507 192.919 225.753Z" fill="#AD6359"/>
<path d="M192.822 225.248C192.319 226.523 168.339 254.969 166.738 255.471C166.133 255.673 161.784 252.42 156.643 248.339C156.59 248.296 156.537 248.253 156.483 248.209L171.75 229.685L172.055 229.955C172.055 229.955 186.105 223.172 187.923 222.806C189.731 222.444 193.33 223.975 192.822 225.248Z" fill="#263238"/>
<path d="M191.448 224.64C187.288 229.336 170.952 248.668 167.196 253.626C167.165 253.666 167.192 253.688 167.226 253.651C171.452 249.087 187.631 229.623 191.527 224.706C191.609 224.602 191.536 224.541 191.448 224.64Z" fill="white"/>
<path d="M173.41 228.459C171.468 230.049 169.811 232.601 169.941 235.176C169.946 235.276 170.087 235.267 170.12 235.19C171.103 232.833 172.191 230.778 173.643 228.667C173.745 228.519 173.55 228.345 173.41 228.459Z" fill="white"/>
<path d="M175.38 227.789C173.436 229.379 171.781 231.931 171.909 234.506C171.914 234.606 172.056 234.597 172.088 234.52C173.071 232.164 174.159 230.108 175.611 227.997C175.714 227.848 175.519 227.675 175.38 227.789Z" fill="white"/>
<path d="M177.349 227.119C175.406 228.709 173.75 231.261 173.879 233.836C173.884 233.936 174.026 233.927 174.058 233.85C175.041 231.493 176.129 229.438 177.581 227.328C177.683 227.179 177.488 227.005 177.349 227.119Z" fill="white"/>
<path d="M192.168 223.954C192.793 223.61 194.411 225.161 194.238 225.645C194.065 226.127 167.78 257.027 167.218 257.455C166.655 257.883 164.927 256.094 165.346 255.4C165.765 254.706 192.168 223.954 192.168 223.954Z" fill="#1D2550"/>
<path d="M163.628 246.198C160.858 247.391 162.707 251.698 165.482 250.503C168.251 249.31 166.402 245.003 163.628 246.198Z" fill="white"/>
<path d="M168.879 225.201L153.199 246.356L100.288 209.641L95.1856 206.098C95.1856 206.098 93.7413 207.071 91.5663 208.274C88.5457 209.943 84.1189 212.057 80.2028 212.634C73.634 213.606 62.6664 213.502 57.1302 206.098C52.4677 199.865 55 191.732 55 191.732L62.2122 188.634C62.2122 188.634 79.2805 174.414 90.336 173.985C95.0316 173.799 101.87 177.358 108.202 181.075C114.529 184.789 168.879 225.201 168.879 225.201Z" fill="#263238"/>
<path d="M95.1852 206.099C95.1852 206.099 93.741 207.071 91.5659 208.274C87.7215 203.672 79.5819 195.312 79.335 195.016L95.1852 206.099Z" fill="#37474F"/>
<path d="M68.4653 183.875C67.445 184.583 66.4583 185.336 65.4519 186.063C64.4619 186.779 63.4399 187.451 62.4985 188.232C61.5415 189.026 60.6343 189.874 59.7327 190.73C59.2975 191.143 58.8658 191.559 58.4452 191.987C58.0286 192.411 57.5621 192.836 57.2166 193.321C57.1847 193.365 57.2491 193.419 57.2916 193.392C57.7788 193.08 58.2167 192.651 58.6591 192.279C59.1368 191.878 59.6089 191.47 60.0843 191.065C61.0016 190.286 61.9368 189.528 62.8524 188.745C63.7619 187.969 64.6041 187.118 65.5046 186.331C66.4683 185.489 67.4847 184.705 68.486 183.907C68.5045 183.893 68.486 183.86 68.4653 183.875Z" fill="#37474F"/>
<path d="M163.506 223.045C162.556 224.203 161.688 225.44 160.812 226.655C159.932 227.875 159.058 229.099 158.192 230.328C156.458 232.788 154.708 235.237 153.007 237.72C152.073 239.084 151.153 240.457 150.294 241.87C150.256 241.932 150.356 241.995 150.401 241.938C152.285 239.595 153.986 237.114 155.717 234.656C157.45 232.194 159.176 229.727 160.873 227.24C161.8 225.878 162.76 224.522 163.603 223.106C163.636 223.05 163.547 222.995 163.506 223.045Z" fill="#37474F"/>
<path d="M121.774 224.657C119.141 222.583 116.411 220.624 113.682 218.678C110.966 216.742 108.252 214.801 105.495 212.923C104.704 212.383 103.906 211.856 103.108 211.326C102.312 210.796 101.484 210.308 100.704 209.759C100.659 209.727 100.618 209.802 100.663 209.834C101.379 210.347 102.055 210.923 102.759 211.455C103.431 211.964 104.097 212.479 104.775 212.98C106.096 213.959 107.432 214.919 108.765 215.883C111.468 217.837 114.191 219.767 116.942 221.654C118.504 222.725 120.059 223.8 121.655 224.819C121.751 224.88 121.864 224.729 121.774 224.657Z" fill="#37474F"/>
<path d="M138.695 202.829C136.261 200.812 133.654 198.999 131.105 197.136C128.526 195.25 125.96 193.347 123.371 191.475C120.802 189.618 118.233 187.761 115.665 185.904C113.174 184.104 110.696 182.275 108.067 180.681C106.627 179.809 105.151 179.001 103.634 178.273C102.16 177.565 100.628 176.846 99.0522 176.401C99.0052 176.388 98.9789 176.457 99.0214 176.48C100.318 177.204 101.679 177.813 102.991 178.512C104.288 179.202 105.566 179.929 106.822 180.691C109.433 182.274 111.899 184.071 114.375 185.853C119.519 189.552 124.652 193.266 129.832 196.914C132.731 198.955 135.57 201.109 138.58 202.985C138.673 203.045 138.781 202.9 138.695 202.829Z" fill="#37474F"/>
<path d="M35.4163 115.454C36.1331 122.307 42.2735 127.285 49.1274 126.568C51.8971 126.278 54.3594 125.102 56.2662 123.347L62.5097 124.263L59.386 118.866C60.1437 117.022 60.4634 114.97 60.2422 112.857C59.5254 106.003 53.385 101.026 46.5312 101.742C39.6768 102.459 34.6995 108.6 35.4163 115.454Z" fill="white"/>
<path d="M39.151 105.148C40.5062 103.826 42.1599 102.804 43.9636 102.197C45.7696 101.596 47.7156 101.424 49.6068 101.675C51.4962 101.931 53.3414 102.603 54.9324 103.673C56.5244 104.741 57.8735 106.173 58.8406 107.835C60.781 111.154 61.122 115.396 59.6095 118.958L59.5949 118.745L62.7001 124.153L62.9292 124.551L62.4767 124.482L56.2394 123.524L56.3872 123.479C54.6596 125.045 52.4969 126.114 50.2132 126.527C49.6426 126.632 49.0658 126.693 48.4862 126.707C47.9077 126.758 47.3298 126.705 46.7524 126.674C45.6078 126.536 44.4592 126.321 43.3924 125.872C42.3206 125.451 41.2947 124.9 40.3819 124.196C39.9031 123.873 39.4988 123.459 39.0648 123.081C38.6823 122.652 38.2612 122.255 37.9336 121.779C36.5084 119.965 35.6756 117.732 35.4147 115.453C35.0109 111.696 36.3958 107.767 39.151 105.148ZM37.9722 121.751C38.3015 122.222 38.7243 122.615 39.1073 123.04C39.5419 123.413 39.9468 123.822 40.4256 124.14C41.335 124.838 42.3676 125.363 43.4356 125.763C44.4996 126.189 45.6386 126.38 46.7687 126.496C47.3388 126.517 47.9083 126.559 48.4767 126.499C49.0462 126.477 49.6118 126.405 50.1696 126.293C52.4028 125.848 54.4933 124.766 56.1453 123.215L56.2069 123.157L56.2932 123.17L62.5422 124.045L62.3188 124.374L59.1766 118.988L59.1172 118.886L59.162 118.774C59.8553 117.057 60.1572 115.186 60.0407 113.338C59.8923 111.495 59.4023 109.66 58.457 108.058C57.5291 106.452 56.2456 105.054 54.7229 103.985C53.1969 102.918 51.4122 102.232 49.5692 101.948C47.7246 101.671 45.8094 101.804 44.0191 102.365C42.2316 102.932 40.5751 103.912 39.2064 105.204C36.4501 107.788 35.0378 111.693 35.4175 115.454C35.6924 117.73 36.5397 119.953 37.9722 121.751Z" fill="#263238"/>
<path d="M45.9779 121.05L40.7783 115.787L42.525 114.061L45.563 117.135L51.8736 107.242L53.9439 108.562L45.9779 121.05Z" fill="#1D2550"/>
</svg>
