<svg width="280" height="280" viewBox="0 0 280 280" fill="none" xmlns="http://www.w3.org/2000/svg">
<path d="M280 214.143H0V214.283H280V214.143Z" fill="#EBEBEB"/>
<path d="M251.945 223.157H233.396V223.297H251.945V223.157Z" fill="#EBEBEB"/>
<path d="M185.483 224.677H180.615V224.817H185.483V224.677Z" fill="#EBEBEB"/>
<path d="M232.835 217.957H222.088V218.097H232.835V217.957Z" fill="#EBEBEB"/>
<path d="M53.565 218.897H29.377V219.037H53.565V218.897Z" fill="#EBEBEB"/>
<path d="M62.0973 218.897H58.5508V219.037H62.0973V218.897Z" fill="#EBEBEB"/>
<path d="M126.084 221.262H73.625V221.402H126.084V221.262Z" fill="#EBEBEB"/>
<path d="M132.726 189.168H24.591C22.8287 189.168 21.3945 187.734 21.3945 185.972V33.9697C21.3945 32.2074 22.8287 30.7732 24.591 30.7732H132.726C134.488 30.7732 135.922 32.2074 135.922 33.9697V185.972C135.922 187.734 134.488 189.168 132.726 189.168ZM24.591 30.9138C22.9054 30.9138 21.5345 32.2846 21.5345 33.9702V185.972C21.5345 187.658 22.9054 189.029 24.591 189.029H132.726C134.411 189.029 135.782 187.658 135.782 185.972V33.9697C135.782 32.2846 134.411 30.9132 132.726 30.9132L24.591 30.9138Z" fill="#EBEBEB"/>
<path d="M253.854 189.168H145.719C143.957 189.168 142.523 187.734 142.523 185.972V33.9697C142.523 32.2074 143.958 30.7732 145.719 30.7732H253.854C255.617 30.7732 257.051 32.2074 257.051 33.9697V185.972C257.051 187.734 255.617 189.168 253.854 189.168ZM145.719 30.9138C144.034 30.9138 142.663 32.2846 142.663 33.9702V185.972C142.663 187.658 144.034 189.029 145.719 189.029H253.854C255.54 189.029 256.911 187.658 256.911 185.972V33.9697C256.911 32.2846 255.54 30.9132 253.854 30.9132L145.719 30.9138Z" fill="#EBEBEB"/>
<path d="M62.7598 70.2936C69.3853 67.2653 72.3014 59.4393 69.2731 52.8138C66.2448 46.1884 58.4189 43.2722 51.7934 46.3005C45.1679 49.3288 42.2518 57.1547 45.2801 63.7802C48.3083 70.4057 56.1343 73.3218 62.7598 70.2936Z" fill="#E0E0E0"/>
<path d="M61.3593 68.7446C67.1271 66.4875 69.9731 59.9821 67.716 54.2143C65.4589 48.4465 58.9535 45.6005 53.1857 47.8575C47.4179 50.1146 44.5719 56.6201 46.829 62.3879C49.086 68.1557 55.5915 71.0017 61.3593 68.7446Z" fill="#F0F0F0"/>
<path d="M57.8047 50.6067V58.4467L63.0004 55.5067" fill="#F0F0F0"/>
<path d="M57.8047 50.6067V58.4467L63.0004 55.5067" stroke="#E0E0E0" stroke-width="2" stroke-miterlimit="10" stroke-linecap="round" stroke-linejoin="round"/>
<path d="M140 239.434C199.966 239.434 248.578 236.595 248.578 233.093C248.578 229.591 199.966 226.752 140 226.752C80.0338 226.752 31.4219 229.591 31.4219 233.093C31.4219 236.595 80.0338 239.434 140 239.434Z" fill="#F5F5F5"/>
<path d="M51.1088 215.401C51.0237 214.828 49.0637 201.305 52.9898 196.636C53.8589 195.603 54.9554 195.063 56.2496 195.031C64.1753 194.845 65.2594 201.211 65.2689 201.276L64.3343 201.42C64.2979 201.192 63.3582 195.805 56.2725 195.976C55.2472 196.001 54.41 196.416 53.7133 197.244C50.0582 201.591 52.0233 215.125 52.044 215.261L51.1088 215.401Z" fill="#407BFF"/>
<path d="M50.6297 214.785L49.6844 214.755C49.6884 214.631 49.9986 202.295 43.9204 199.747C37.9636 197.251 35.284 202.382 35.1732 202.602L34.3281 202.177C34.3589 202.115 37.5033 196.03 44.286 198.875C50.9629 201.674 50.6465 214.251 50.6297 214.785Z" fill="#407BFF"/>
<path d="M50.6575 215.754C50.6575 215.557 50.601 196.048 46.7969 190.341C43.1446 184.863 37.2528 187.442 37.0042 187.555L36.6133 186.694C36.6816 186.663 43.4806 183.662 47.5837 189.816C51.5457 195.76 51.6028 214.939 51.6034 215.753L50.6575 215.754Z" fill="#407BFF"/>
<path d="M57.3843 195.499C57.3843 195.499 53.9241 196.775 54.9528 199.787C55.9815 202.798 66.9239 207.756 66.9239 207.756C66.9239 207.756 71.507 203.555 67.298 196.724C63.0896 189.892 57.4778 193.344 57.3843 195.499Z" fill="#407BFF"/>
<path d="M46.6258 189.314C46.6258 189.314 49.0826 189.05 48.8849 187.554C48.6872 186.058 39.3346 182.206 33.8164 188.434C33.8164 188.434 37.3494 194.504 42.4572 194.583C47.565 194.662 46.6258 189.314 46.6258 189.314Z" fill="#407BFF"/>
<path d="M44.1029 199.311C44.1029 199.311 45.7986 197.942 43.9685 197.273C42.1384 196.605 33.1599 196.795 33.0664 205.689C33.0664 205.689 43.5233 207.427 44.818 204.039C46.1127 200.651 44.1029 199.311 44.1029 199.311Z" fill="#407BFF"/>
<path opacity="0.2" d="M57.3843 195.499C57.3843 195.499 53.9241 196.775 54.9528 199.787C55.9815 202.798 66.9239 207.756 66.9239 207.756C66.9239 207.756 71.507 203.555 67.298 196.724C63.0896 189.892 57.4778 193.344 57.3843 195.499Z" fill="white"/>
<path opacity="0.2" d="M46.6258 189.314C46.6258 189.314 49.0826 189.05 48.8849 187.554C48.6872 186.058 39.3346 182.206 33.8164 188.434C33.8164 188.434 37.3494 194.504 42.4572 194.583C47.565 194.662 46.6258 189.314 46.6258 189.314Z" fill="white"/>
<path opacity="0.2" d="M44.1029 199.311C44.1029 199.311 45.7986 197.942 43.9685 197.273C42.1384 196.605 33.1599 196.795 33.0664 205.689C33.0664 205.689 43.5233 207.427 44.818 204.039C46.1127 200.651 44.1029 199.311 44.1029 199.311Z" fill="white"/>
<path d="M59.2433 233.52H43.0162L41.2656 215.753H60.9944L59.2433 233.52Z" fill="#407BFF"/>
<path opacity="0.5" d="M59.2433 233.52H43.0162L41.2656 215.753H60.9944L59.2433 233.52Z" fill="white"/>
<path d="M61.8599 213.793H40.3984V217.714H61.8599V213.793Z" fill="#407BFF"/>
<path opacity="0.2" d="M61.8599 213.793H40.3984V217.714H61.8599V213.793Z" fill="white"/>
<path d="M218.767 233.52H124.724C121.506 233.52 118.898 230.912 118.898 227.695V49.2409C118.898 46.0237 121.506 43.4158 124.724 43.4158H218.767C221.984 43.4158 224.592 46.0237 224.592 49.2409V227.694C224.592 230.912 221.984 233.52 218.767 233.52Z" fill="#263238"/>
<path d="M221.06 49.784V226.811C221.06 228.267 219.89 229.398 218.434 229.398H124.846C123.508 229.398 122.5 228.362 122.5 227.024V49.5712C122.5 48.412 123.351 47.3984 124.51 47.3984H147.907C148.568 47.3984 149.167 47.8296 149.414 48.4512L150.382 50.8368C150.629 51.4528 151.228 51.8784 151.889 51.8784H191.722C192.382 51.8784 192.982 51.4696 193.228 50.8536L194.197 48.4568C194.443 47.8352 195.042 47.3984 195.703 47.3984H218.764C220.041 47.3984 221.06 48.5072 221.06 49.784Z" fill="#1F1F1F"/>
<path opacity="0.3" d="M221.06 58.4585H122.5V202.518H221.06V58.4585Z" fill="white"/>
<path opacity="0.6" d="M169.546 48.9845C170.294 48.9845 170.899 48.3787 170.899 47.6315C170.899 46.8843 170.294 46.2786 169.546 46.2786C168.799 46.2786 168.193 46.8843 168.193 47.6315C168.193 48.3787 168.799 48.9845 169.546 48.9845Z" fill="white"/>
<path opacity="0.6" d="M173.638 47.6315C173.638 48.1103 173.25 48.4984 172.771 48.4984C172.292 48.4984 171.904 48.1103 171.904 47.6315C171.904 47.1527 172.292 46.7646 172.771 46.7646C173.25 46.7646 173.638 47.1533 173.638 47.6315Z" fill="white"/>
<path opacity="0.6" d="M133.615 54.533H134.832V52.9101H133.615V54.533Z" fill="white"/>
<path opacity="0.6" d="M131.632 54.5325H132.85V52.3681H131.632V54.5325Z" fill="white"/>
<path opacity="0.6" d="M129.648 54.5325H130.865V51.8266H129.648V54.5325Z" fill="white"/>
<path opacity="0.6" d="M127.663 54.5327H128.881V51.2853H127.663V54.5327Z" fill="white"/>
<path opacity="0.6" d="M210.159 52.3176H209.438V53.9405H210.159V52.3176Z" fill="white"/>
<path opacity="0.6" d="M210.655 54.5327H216.404V51.7249H210.655V54.5327Z" fill="white"/>
<path opacity="0.4" d="M158.317 88.9168C158.317 94.5 155.332 99.3832 150.869 102.06C148.567 103.443 145.873 104.238 142.989 104.238C140.38 104.238 137.927 103.589 135.777 102.441C130.949 99.8592 127.662 94.7744 127.662 88.9168C127.662 80.4496 134.522 73.5896 142.989 73.5896C151.457 73.5896 158.317 80.4496 158.317 88.9168Z" fill="white"/>
<path opacity="0.3" d="M150.87 102.06C148.568 103.443 145.874 104.238 142.99 104.238C140.381 104.238 137.928 103.589 135.778 102.441C135.974 102.407 136.164 102.385 136.354 102.362C136.366 102.362 136.377 102.362 136.382 102.357C136.371 102.351 136.36 102.346 136.349 102.334C137.816 100.727 137.749 97.4009 137.29 94.4553C137.178 94.2705 137.082 94.0801 136.998 93.8953C136.668 93.3969 136.097 92.3777 135.66 90.7873C135.022 90.2665 134.546 89.5609 134.31 88.7545C134.064 87.8865 134.35 87.0241 134.988 86.5761C134.949 86.1225 134.926 85.6577 134.921 85.1929H134.915C134.915 85.1929 133.067 83.5353 134.221 82.6449C135.374 81.7545 135.632 80.4833 136.338 78.9881C137.049 77.4929 140.185 75.5553 143.517 77.8233C143.517 77.8233 145.286 77.2185 146.07 77.6609C146.854 78.1033 147.476 79.2681 147.476 79.2681C147.476 79.2681 148.361 78.2657 149.268 79.2121C150.175 80.1529 149.458 83.5297 150.231 84.3585C150.942 85.1201 149.548 86.0777 149.307 86.2345C149.218 86.6713 149.083 87.1249 148.91 87.5729C148.943 89.7513 148.456 91.9969 147.734 93.6769C147.644 93.8785 147.549 94.0745 147.442 94.2593C146.653 95.6761 145.365 96.6617 143.942 97.1097C143.595 97.2217 143.237 97.2945 142.878 97.3393C142.845 98.0169 142.89 98.6777 143.086 99.2657C143.472 100.419 144.413 101.321 146.339 101.64C146.35 101.651 146.35 101.657 146.356 101.668C146.759 101.674 147.162 101.713 147.56 101.713C148.602 101.774 149.593 101.881 150.45 101.987C150.59 102.004 150.735 102.026 150.87 102.06Z" fill="black"/>
<path d="M157.411 104.063H153.411C152.678 104.063 152.084 103.468 152.084 102.736V98.7358C152.084 98.0028 152.678 97.4092 153.411 97.4092H157.411C158.144 97.4092 158.738 98.0033 158.738 98.7358V102.736C158.738 103.468 158.144 104.063 157.411 104.063Z" fill="#1F1F1F"/>
<path opacity="0.3" d="M157.058 100.736C157.058 101.646 156.32 102.383 155.411 102.383C154.501 102.383 153.764 101.645 153.764 100.736C153.764 99.8261 154.501 99.0886 155.411 99.0886C156.32 99.0886 157.058 99.8261 157.058 100.736Z" fill="black"/>
<path opacity="0.5" d="M193.057 80.6357H171.702C170.512 80.6357 169.547 79.6708 169.547 78.4802C169.547 77.2897 170.512 76.3242 171.702 76.3242H193.057C194.248 76.3242 195.213 77.2891 195.213 78.4802C195.213 79.6708 194.248 80.6357 193.057 80.6357Z" fill="white"/>
<path opacity="0.5" d="M204.768 88.9142H170.84C170.126 88.9142 169.547 88.3352 169.547 87.6212C169.547 86.9072 170.126 86.3281 170.84 86.3281H204.768C205.482 86.3281 206.061 86.9072 206.061 87.6212C206.061 88.3352 205.482 88.9142 204.768 88.9142Z" fill="white"/>
<path opacity="0.5" d="M193.568 94.5141H170.84C170.126 94.5141 169.547 93.935 169.547 93.221C169.547 92.507 170.126 91.928 170.84 91.928H193.568C194.282 91.928 194.861 92.507 194.861 93.221C194.861 93.935 194.282 94.5141 193.568 94.5141Z" fill="white"/>
<path opacity="0.3" d="M178.194 225.114H165.11C164.38 225.114 163.787 224.522 163.787 223.792V220.793C163.787 220.063 164.379 219.471 165.11 219.471H178.194C178.924 219.471 179.517 220.063 179.517 220.793V223.792C179.517 224.521 178.924 225.114 178.194 225.114Z" fill="black"/>
<path opacity="0.5" d="M199.816 210.067H143.488C142.774 210.067 142.195 209.488 142.195 208.774C142.195 208.06 142.774 207.481 143.488 207.481H199.817C200.531 207.481 201.11 208.06 201.11 208.774C201.109 209.488 200.531 210.067 199.816 210.067Z" fill="white"/>
<path opacity="0.5" d="M191.417 215.667H151.889C151.175 215.667 150.596 215.088 150.596 214.374C150.596 213.66 151.175 213.081 151.889 213.081H191.417C192.131 213.081 192.71 213.66 192.71 214.374C192.71 215.088 192.131 215.667 191.417 215.667Z" fill="white"/>
<path opacity="0.4" d="M216.811 107.088H126.488V135.926H216.811V107.088Z" fill="white"/>
<path opacity="0.5" d="M186.704 112.439H169.96C169.282 112.439 168.732 111.889 168.732 111.211C168.732 110.533 169.282 109.984 169.96 109.984H186.704C187.383 109.984 187.932 110.533 187.932 111.211C187.932 111.889 187.383 112.439 186.704 112.439Z" fill="white"/>
<path opacity="0.5" d="M202.384 117.477H169.96C169.282 117.477 168.732 116.928 168.732 116.249C168.732 115.571 169.282 115.022 169.96 115.022H202.384C203.063 115.022 203.612 115.572 203.612 116.249C203.612 116.927 203.063 117.477 202.384 117.477Z" fill="white"/>
<path opacity="0.3" d="M163.155 109.984H129.828V132.792H163.155V109.984Z" fill="black"/>
<path opacity="0.3" d="M129.828 127.443L137.729 119.973L144.441 126.514L150.269 120.859L163.154 132.792H129.828V127.443Z" fill="black"/>
<path opacity="0.5" d="M157.222 117.856C158.448 117.856 159.442 116.862 159.442 115.636C159.442 114.41 158.448 113.417 157.222 113.417C155.996 113.417 155.002 114.41 155.002 115.636C155.002 116.862 155.996 117.856 157.222 117.856Z" fill="white"/>
<path opacity="0.4" d="M216.811 138.728H126.488V167.566H216.811V138.728Z" fill="white"/>
<path opacity="0.5" d="M186.704 144.079H169.96C169.282 144.079 168.732 143.529 168.732 142.852C168.732 142.173 169.282 141.624 169.96 141.624H186.704C187.383 141.624 187.932 142.173 187.932 142.852C187.932 143.529 187.383 144.079 186.704 144.079Z" fill="white"/>
<path opacity="0.5" d="M202.384 149.117H169.96C169.282 149.117 168.732 148.567 168.732 147.889C168.732 147.211 169.282 146.662 169.96 146.662H202.384C203.063 146.662 203.612 147.211 203.612 147.889C203.612 148.567 203.063 149.117 202.384 149.117Z" fill="white"/>
<path opacity="0.3" d="M163.155 141.624H129.828V164.432H163.155V141.624Z" fill="black"/>
<path opacity="0.3" d="M129.828 159.083L137.729 151.613L144.441 158.154L150.269 152.499L163.154 164.432H129.828V159.083Z" fill="black"/>
<path opacity="0.5" d="M157.222 149.496C158.448 149.496 159.442 148.502 159.442 147.276C159.442 146.05 158.448 145.056 157.222 145.056C155.996 145.056 155.002 146.05 155.002 147.276C155.002 148.502 155.996 149.496 157.222 149.496Z" fill="white"/>
<path opacity="0.4" d="M216.811 170.368H126.488V199.206H216.811V170.368Z" fill="white"/>
<path opacity="0.5" d="M186.704 175.719H169.96C169.282 175.719 168.732 175.169 168.732 174.491C168.732 173.813 169.282 173.264 169.96 173.264H186.704C187.383 173.264 187.932 173.814 187.932 174.491C187.932 175.169 187.383 175.719 186.704 175.719Z" fill="white"/>
<path opacity="0.5" d="M202.384 180.757H169.96C169.282 180.757 168.732 180.207 168.732 179.529C168.732 178.851 169.282 178.302 169.96 178.302H202.384C203.063 178.302 203.612 178.851 203.612 179.529C203.612 180.207 203.063 180.757 202.384 180.757Z" fill="white"/>
<path opacity="0.3" d="M163.155 173.263H129.828V196.072H163.155V173.263Z" fill="black"/>
<path opacity="0.3" d="M129.828 190.723L137.729 183.253L144.441 189.793L150.269 184.139L163.154 196.072H129.828V190.723Z" fill="black"/>
<path opacity="0.5" d="M157.222 181.136C158.448 181.136 159.442 180.142 159.442 178.916C159.442 177.69 158.448 176.696 157.222 176.696C155.996 176.696 155.002 177.69 155.002 178.916C155.002 180.142 155.996 181.136 157.222 181.136Z" fill="white"/>
<path opacity="0.3" d="M221.06 58.4585H122.5V71.4158H221.06V58.4585Z" fill="black"/>
<path d="M131.632 60.2993L127.594 62.5712L131.632 64.8426L135.67 62.5712L131.632 60.2993Z" fill="white"/>
<path d="M131.632 65.7578L128.8 64.1646L127.594 64.8427L131.632 67.1146L135.67 64.8427L134.464 64.1646L131.632 65.7578Z" fill="white"/>
<path d="M131.632 68.0296L128.8 66.4358L127.594 67.1145L131.632 69.3864L135.67 67.1145L134.464 66.4364L131.632 68.0296Z" fill="white"/>
<path d="M196.007 67.6644H182.922C182.192 67.6644 181.6 67.0724 181.6 66.3416V63.3434C181.6 62.6132 182.192 62.0212 182.922 62.0212H196.007C196.737 62.0212 197.329 62.6132 197.329 63.3434V66.3416C197.329 67.0724 196.737 67.6644 196.007 67.6644Z" fill="#1F1F1F"/>
<path d="M215.046 67.6644H201.961C201.231 67.6644 200.639 67.0724 200.639 66.3416V63.3434C200.639 62.6132 201.231 62.0212 201.961 62.0212H215.046C215.776 62.0212 216.369 62.6132 216.369 63.3434V66.3416C216.369 67.0724 215.776 67.6644 215.046 67.6644Z" fill="#1F1F1F"/>
<path opacity="0.2" d="M196.007 67.6644H182.922C182.192 67.6644 181.6 67.0724 181.6 66.3416V63.3434C181.6 62.6132 182.192 62.0212 182.922 62.0212H196.007C196.737 62.0212 197.329 62.6132 197.329 63.3434V66.3416C197.329 67.0724 196.737 67.6644 196.007 67.6644Z" fill="white"/>
<path opacity="0.2" d="M215.046 67.6644H201.961C201.231 67.6644 200.639 67.0724 200.639 66.3416V63.3434C200.639 62.6132 201.231 62.0212 201.961 62.0212H215.046C215.776 62.0212 216.369 62.6132 216.369 63.3434V66.3416C216.369 67.0724 215.776 67.6644 215.046 67.6644Z" fill="white"/>
<path d="M115.304 114.037C112.426 115.196 109.99 112.312 109.878 108.879C109.878 108.879 107.251 107.182 104.278 105.374C101.758 103.839 98.9855 102.226 97.3615 101.498C96.9807 101.33 96.6559 101.05 96.3815 100.698V100.692C94.0855 97.7127 95.1439 89.1279 95.1439 89.1279C100.464 89.7215 111.093 99.3591 115.746 104.007C120.4 108.661 118.182 112.872 115.304 114.037Z" fill="#1D2550"/>
<path opacity="0.2" d="M104.279 105.374C101.759 103.839 98.9868 102.226 97.3628 101.498C96.982 101.33 96.6572 101.05 96.3828 100.698V100.692L100.101 97.3823C100.101 97.3823 103.422 101.706 104.279 105.374Z" fill="black"/>
<path d="M97.7871 229.348L102.33 229.828L103.183 220.03L98.64 219.55L97.7871 229.348Z" fill="#E4897B"/>
<path d="M75.1191 229.017H79.5207L79.8847 218.82H75.4775L75.1191 229.017Z" fill="#E4897B"/>
<path d="M80.1308 228.508H74.7828C74.6025 228.509 74.4468 228.635 74.4076 228.81L73.5397 232.73C73.4652 233.082 73.6897 233.426 74.0408 233.5C74.0879 233.51 74.1361 233.515 74.1837 233.514C75.9141 233.486 77.1741 233.38 79.3469 233.38C80.6853 233.38 84.7228 233.52 86.5709 233.52C88.4188 233.52 88.6597 231.694 87.9037 231.526C84.5101 230.787 81.9565 229.762 80.8701 228.788C80.669 228.603 80.4041 228.503 80.1308 228.508Z" fill="#263238"/>
<path d="M80.4332 229.118C80.3912 229.107 80.3604 229.072 80.3548 229.029C80.3481 228.988 80.3682 228.947 80.4052 228.928C80.562 228.827 81.9844 227.954 82.4716 228.206C82.5836 228.259 82.6542 228.373 82.6508 228.497C82.6805 228.708 82.5976 228.921 82.4324 229.057C82.1843 229.226 81.8858 229.305 81.5868 229.281C81.1976 229.27 80.8106 229.215 80.4332 229.118ZM80.7356 228.973C81.2491 229.146 81.8097 229.118 82.3036 228.894C82.4089 228.8 82.4615 228.66 82.4436 228.519C82.438 228.435 82.4044 228.396 82.3764 228.396C82.3355 228.374 82.2885 228.364 82.242 228.368C81.7061 228.472 81.1948 228.677 80.7356 228.973Z" fill="#1D2550"/>
<path d="M80.4059 229.141C80.374 229.119 80.3549 229.083 80.3555 229.045C80.3611 228.984 80.4675 227.718 80.9771 227.304C81.098 227.197 81.2593 227.148 81.4195 227.169C81.5824 227.169 81.7236 227.284 81.7555 227.444C81.8451 227.909 80.9659 228.877 80.5123 229.124H80.4619C80.4456 229.135 80.426 229.141 80.4059 229.141ZM81.1115 227.427C80.8018 227.822 80.6204 228.303 80.5907 228.805C81.0443 228.463 81.6043 227.729 81.5483 227.444C81.5427 227.416 81.5315 227.337 81.3971 227.337H81.3467C81.2599 227.338 81.1764 227.37 81.1115 227.427Z" fill="#1D2550"/>
<path d="M102.811 228.368H97.4625C97.2822 228.369 97.1265 228.494 97.0873 228.67L96.2193 232.59C96.1449 232.941 96.3694 233.286 96.7205 233.36C96.7676 233.37 96.8157 233.375 96.8633 233.374C98.5937 233.346 99.8537 233.24 102.027 233.24C103.365 233.24 107.403 233.38 109.251 233.38C111.099 233.38 111.339 231.554 110.583 231.386C107.19 230.647 104.636 229.622 103.55 228.648C103.349 228.463 103.084 228.363 102.811 228.368Z" fill="#263238"/>
<path d="M103.113 228.978C103.071 228.967 103.04 228.932 103.034 228.889C103.028 228.848 103.048 228.807 103.085 228.788C103.242 228.687 104.664 227.813 105.151 228.065C105.263 228.119 105.334 228.233 105.33 228.357C105.36 228.568 105.277 228.781 105.112 228.917C104.864 229.086 104.566 229.165 104.266 229.141C103.877 229.129 103.49 229.075 103.113 228.978ZM103.415 228.833C103.929 229.006 104.489 228.978 104.983 228.754C105.089 228.66 105.141 228.52 105.123 228.379C105.118 228.295 105.084 228.256 105.056 228.256C105.015 228.233 104.968 228.224 104.922 228.228C104.386 228.331 103.874 228.536 103.415 228.833Z" fill="#1D2550"/>
<path d="M103.086 229.001C103.054 228.979 103.035 228.944 103.035 228.906C103.041 228.844 103.147 227.578 103.657 227.164C103.778 227.058 103.939 227.008 104.099 227.03C104.262 227.029 104.403 227.144 104.435 227.304C104.525 227.769 103.646 228.738 103.192 228.984H103.142C103.125 228.995 103.106 229.001 103.086 229.001ZM103.791 227.287C103.481 227.682 103.3 228.163 103.27 228.665C103.724 228.323 104.284 227.59 104.228 227.304C104.222 227.276 104.211 227.198 104.077 227.198H104.026C103.94 227.198 103.856 227.23 103.791 227.287Z" fill="#1D2550"/>
<path opacity="0.2" d="M98.6408 219.55L103.184 220.03L102.74 225.084L98.1973 224.604L98.6408 219.55Z" fill="black"/>
<path opacity="0.2" d="M75.4775 218.825H79.8847L79.6943 224.084H75.2871L75.4775 218.825Z" fill="black"/>
<path d="M77.2948 129.373H100.66C102.882 141.504 109.836 184.434 104.847 222.684L96.9363 221.704C96.9363 221.704 97.6688 170.925 90.6844 152.152C89.8814 162.199 88.9277 172.889 88.0989 178.577C86.0661 192.577 81.7149 223.173 81.7149 223.173H73.6621C73.6621 223.173 75.3085 193.886 76.0701 180.127C76.9034 165.19 77.2623 132.44 77.2948 129.373Z" fill="#263238"/>
<path opacity="0.2" d="M73.6641 223.173H81.7169C81.7169 223.173 86.0681 192.574 88.1009 178.574C88.9297 172.89 89.8817 162.2 90.6881 152.154C91.7185 154.92 92.5753 158.375 93.2977 162.262C97.4697 184.779 96.9377 221.706 96.9377 221.706L104.845 222.826C109.834 184.572 102.885 141.413 100.662 129.653H77.2985C77.2649 132.453 76.9065 165.33 76.0721 180.266C75.3105 194.025 73.6641 223.173 73.6641 223.173Z" fill="white"/>
<path d="M105.751 224.527L95.9609 223.071L96.26 220.359L106.444 221.697L105.751 224.527Z" fill="#1D2550"/>
<path d="M82.6851 223.238H73.1875V220.399L83.0435 220.214L82.6851 223.238Z" fill="#1D2550"/>
<path opacity="0.2" d="M90.6875 152.154C91.7179 154.92 92.5747 158.375 93.2971 162.262C93.9506 153.321 91.3371 143.839 91.3371 143.839L90.6875 152.154Z" fill="black"/>
<path d="M64.5854 118.486C64.5854 118.486 75.4774 128.6 76.505 129.653C77.5326 130.705 77.471 138.238 76.505 138.57C75.539 138.902 72.4371 139.456 72.3268 138.57C72.2159 137.684 72.5486 132.809 72.5486 132.809L73.2491 131.813L61.25 123.184L64.5854 118.486Z" fill="#E4897B"/>
<path d="M73.2483 91.0183C65.569 92.3791 54.5303 106.647 55.9695 116.028C56.9294 122.286 63.2434 125.72 63.2434 125.72L68.3511 120.391C68.3511 120.391 65.1194 117.544 64.4742 115.739C62.554 110.368 69.5652 102.128 75.3214 100.429L76.5053 95.6321L73.2483 91.0183Z" fill="#1D2550"/>
<path d="M73.248 91.0184C74.5416 95.7672 75.4768 100.611 76.048 105.506C76.2328 107.006 76.384 108.479 76.5072 109.907C76.6696 111.722 76.7816 113.469 76.8712 115.126C76.9832 117.226 77.0168 119.707 77.0112 122.149C77 127.76 76.776 133.153 76.776 133.153C81.256 134.273 94.2032 133.528 101.276 133.013C102.194 125.828 102.273 118.806 101.926 112.623C101.646 107.438 101.069 102.846 100.442 99.2224C99.8928 96.0472 99.3104 93.6224 98.8624 92.2112C98.3304 90.5424 96.88 89.3384 95.144 89.1256C94.2872 89.0192 93.296 88.9128 92.2544 88.8512C91.8512 88.8512 91.448 88.812 91.0392 88.8064C87.696 88.8456 84.364 89.0752 81.0488 89.5008C80.4216 89.5736 79.7832 89.6688 79.1672 89.7696C76.0144 90.2512 73.248 91.0184 73.248 91.0184Z" fill="#1D2550"/>
<path opacity="0.7" d="M101.276 133.015C94.2035 133.53 81.2563 134.275 76.7763 133.155C76.7763 133.155 77.0003 127.762 77.0115 122.151C77.0171 119.709 76.9835 117.229 76.8715 115.129C76.7819 113.471 76.6699 111.724 76.5075 109.909C76.3843 108.481 76.2331 107.009 76.0483 105.508C76.0035 105.105 75.9531 104.696 75.8971 104.293C75.7347 102.999 75.5387 101.711 75.3203 100.429C75.3203 100.429 75.3259 100.417 75.3427 100.395L77.5211 97.2589L81.8499 91.0205C81.8499 91.0205 89.0515 93.9325 92.0419 89.7773C92.0419 89.7773 96.8411 93.2829 100.1 97.3821C100.218 97.9645 100.33 98.5805 100.442 99.2245C101.069 102.848 101.646 107.44 101.926 112.625C102.273 118.808 102.195 125.83 101.276 133.015Z" fill="white"/>
<path d="M94.1349 69.9663C94.1349 69.9663 94.8814 74.9598 91.6614 77.2928C88.4414 79.6257 88.4414 68.3328 88.4414 68.3328L94.1349 69.9663Z" fill="#263238"/>
<path d="M81.0449 89.4729C83.1897 91.4217 88.4442 90.701 88.4442 90.701C88.4442 90.701 91.7241 89.8033 91.0353 88.7785C89.1033 88.4593 88.1681 87.5577 87.7817 86.4041C87.5577 85.7321 87.5241 84.9761 87.5857 84.1977C87.6137 83.7889 87.6753 83.3745 87.7481 82.9657L81.2521 78.1553C82.1028 81.3305 83.1449 87.1713 81.0449 89.4729Z" fill="#E4897B"/>
<path opacity="0.2" d="M82.752 81.2129C83.0096 85.1105 86.2128 86.1857 87.7808 86.4041C87.5568 85.7321 87.5231 84.9761 87.5847 84.1977L82.752 81.2129Z" fill="black"/>
<path d="M82.3142 82.1144C83.8766 84.36 86.4246 84.948 88.6366 84.248C90.059 83.8 91.3414 82.8144 92.1366 81.3976C92.243 81.2128 92.3382 81.0168 92.4278 80.8152C94.0126 77.108 94.5166 70.6232 90.5966 68.1928C87.8134 66.44 84.1286 67.2744 82.3758 70.0632C81.8718 70.8528 81.5694 71.7544 81.4798 72.6896C80.9982 77.024 80.511 79.5496 82.3142 82.1144Z" fill="#E4897B"/>
<path d="M87.798 75.0056C87.7145 75.3483 87.8724 75.6692 88.1048 75.7084C88.3372 75.7476 88.5669 75.4923 88.6285 75.1445C88.6901 74.7962 88.5484 74.4792 88.321 74.4417C88.0948 74.4031 87.8613 74.6517 87.798 75.0056Z" fill="#263238"/>
<path d="M91.7565 75.681C91.6731 76.0238 91.8366 76.3463 92.0639 76.3838C92.2907 76.4219 92.5259 76.1677 92.5875 75.8199C92.6491 75.4716 92.5075 75.1546 92.2801 75.1171C92.0527 75.079 91.8142 75.349 91.7565 75.681Z" fill="#263238"/>
<path d="M90.4691 75.6384C90.7032 76.7797 91.0935 77.8835 91.63 78.9183C91.084 79.1832 90.4484 79.1927 89.8945 78.9452L90.4691 75.6384Z" fill="#DE5753"/>
<path d="M86.7902 73.515C86.8641 73.5385 86.9453 73.5211 87.003 73.4691C87.381 73.0972 87.9119 72.9253 88.4361 73.0054C88.5469 73.0328 88.6595 72.965 88.6869 72.8536C88.7144 72.7427 88.6466 72.6302 88.5352 72.6027H88.5341C87.8744 72.4846 87.1979 72.6934 86.7202 73.1638C86.6345 73.24 86.6267 73.3705 86.7023 73.4562C86.7034 73.4573 86.7045 73.459 86.7057 73.4601C86.7309 73.4825 86.7594 73.501 86.7902 73.515Z" fill="#263238"/>
<path d="M89.0159 80.6607C87.9731 80.6411 87.0055 80.1147 86.4231 79.2495C86.3928 79.1968 86.4102 79.1296 86.4623 79.0982C86.5115 79.0663 86.5776 79.0809 86.609 79.1302C86.6107 79.1324 86.6118 79.1347 86.6135 79.1375C87.1684 79.9265 88.0627 80.4075 89.0271 80.4366C89.0859 80.4361 89.134 80.4837 89.134 80.5425C89.134 80.5464 89.134 80.5503 89.1335 80.5543C89.134 80.6131 89.0864 80.6606 89.0276 80.6612C89.0237 80.6612 89.0198 80.6607 89.0159 80.6607Z" fill="#263238"/>
<path d="M93.6888 74.6071C93.7247 74.6289 93.7667 74.6395 93.8087 74.6362C93.919 74.6059 93.9839 74.4917 93.9537 74.3814C93.9531 74.3797 93.9531 74.3786 93.9526 74.3769C93.7795 73.7267 93.3013 73.202 92.6702 72.9696C92.5604 72.9366 92.4451 72.9982 92.412 73.1079C92.3818 73.2177 92.4428 73.3319 92.5509 73.3672C93.0437 73.5649 93.4139 73.9843 93.5494 74.4979C93.5768 74.5533 93.6283 74.5931 93.6888 74.6071Z" fill="#263238"/>
<path d="M87.8893 65.7255C87.3735 65.6555 86.8566 65.595 86.337 65.5681C84.8418 65.4908 83.2855 65.6773 81.997 66.4395C79.0004 68.213 79.5173 72.7602 79.9031 75.7058C80.4166 79.6258 81.9566 81.3993 81.9566 81.3993C81.0231 79.5328 81.3031 75.8928 81.9102 75.7993C82.5166 75.7058 82.4702 76.4058 82.4702 76.4058C83.8226 75.5636 85.0366 73.1858 84.6166 71.5058C84.2952 70.2189 85.7366 69.2658 86.9502 69.8723C87.0717 69.9328 87.1932 69.9927 87.3158 70.0515C87.4945 70.1366 87.6888 70.2273 87.8898 70.3186L87.8893 65.7255Z" fill="#263238"/>
<path d="M79.0007 75.8934C79.3115 76.9473 80.0272 77.8349 80.9915 78.3618C82.2734 79.0501 83.231 77.9788 83.1442 76.6023C83.0551 75.3798 82.2946 73.51 80.875 73.4025C79.4554 73.295 78.6356 74.5947 79.0007 75.8934Z" fill="#E4897B"/>
<path d="M89.6244 69.45C89.3393 69.9473 90.0483 71.5545 88.4428 71.1669C86.8367 70.7794 86.7202 71.466 85.5817 72.5703C84.4433 73.6741 82.1293 71.998 82.1293 71.998L79.6054 72.3301C79.6054 72.3301 77.7613 70.673 78.9144 69.7826C80.0674 68.8922 80.3228 67.6227 81.0323 66.1275C81.7418 64.6323 84.8756 62.6936 88.2104 64.9644C88.2104 64.9644 89.9789 64.3551 90.7623 64.7981C91.5452 65.241 92.1673 66.4041 92.1673 66.4041C92.1673 66.4041 93.0538 65.4073 93.961 66.3487C94.8682 67.2901 94.1481 70.6685 94.9237 71.4996C95.6993 72.3301 93.961 73.3969 93.961 73.3969C93.961 73.3969 92.6008 73.0704 92.6008 72.0719C92.6008 70.2995 92.3393 69.6622 91.4724 69.3397C90.9264 69.1364 90.5669 69.6163 90.5669 69.6163C90.5669 69.6163 90.0757 68.6615 89.6244 69.45Z" fill="#263238"/>
<path opacity="0.2" d="M75.8971 104.293C75.7347 102.999 75.5387 101.711 75.3203 100.429C75.3203 100.429 75.3259 100.418 75.3427 100.395C75.5331 100.076 77.0955 97.4607 77.2523 95.5903C77.2523 95.5903 77.4259 96.2455 77.5211 97.2591C77.6835 99.0455 77.6051 101.946 75.8971 104.293Z" fill="black"/>
<path d="M83.9055 100.202L84.4487 104.706C84.5254 105.34 85.0753 105.809 85.7137 105.784L95.1016 105.423C95.7993 105.396 96.3336 104.793 96.277 104.098L95.9052 99.5454C95.8514 98.8885 95.2886 98.3918 94.63 98.4198L85.0708 98.8292C84.3568 98.86 83.8198 99.4922 83.9055 100.202Z" fill="#1D2550"/>
<path opacity="0.7" d="M88.4434 100.511L92.4031 101.805L88.6444 103.686L89.6636 102.099L88.4434 100.511Z" fill="white"/>
<path d="M96.4392 97.7872L98.9648 87.7335C99.0628 87.3443 99.4128 87.071 99.8143 87.071H105.111C105.441 87.071 105.683 87.3802 105.605 87.6999L103.135 97.7519C103.039 98.1434 102.688 98.4189 102.284 98.4189H96.9315C96.6016 98.4189 96.3591 98.1075 96.4392 97.7872Z" fill="#263238"/>
<path opacity="0.3" d="M101.543 91.0183C101.049 91.0183 100.525 91.5173 100.372 92.1333C100.219 92.7493 100.495 93.2482 100.989 93.2482C101.482 93.2482 102.006 92.7493 102.159 92.1333C102.312 91.5173 102.036 91.0183 101.543 91.0183Z" fill="white"/>
<path d="M115.58 107.755C115.58 107.755 109.28 97.4702 107.529 95.8932C105.778 94.3163 99.1564 93.1694 98.9112 93.119C98.6653 93.068 97.29 98.9603 97.9155 99.4744C98.541 99.9885 104.38 100.555 104.756 100.395C105.133 100.234 105.79 99.9902 105.79 99.9902L111.435 111.085C111.435 111.085 114.686 110.888 115.58 107.755Z" fill="#E4897B"/>
</svg>
