<svg width="280" height="280" viewBox="0 0 280 280" fill="none" xmlns="http://www.w3.org/2000/svg">
<path d="M231.403 138.517C231.403 141.436 229.036 143.803 226.117 143.803C223.198 143.803 220.831 141.436 220.831 138.517C220.831 135.598 223.198 133.231 226.117 133.231C229.036 133.231 231.403 135.597 231.403 138.517Z" fill="#D1E1FF"/>
<path d="M214.4 142.499C216.599 140.3 216.599 136.735 214.4 134.536C212.201 132.337 208.636 132.337 206.437 134.536C204.238 136.735 204.238 140.3 206.437 142.499C208.636 144.698 212.201 144.698 214.4 142.499Z" fill="#D1E1FF"/>
<path d="M198.357 134.532C201.658 134.532 204.334 131.856 204.334 128.555C204.334 125.254 201.658 122.578 198.357 122.578C195.056 122.578 192.38 125.254 192.38 128.555C192.38 131.856 195.056 134.532 198.357 134.532Z" fill="#D1E1FF"/>
<path d="M202.063 114.339C202.672 110.946 200.415 107.701 197.021 107.091C193.627 106.482 190.382 108.739 189.773 112.133C189.164 115.527 191.421 118.772 194.815 119.381C198.209 119.99 201.454 117.733 202.063 114.339Z" fill="#D1E1FF"/>
<path d="M203.552 106.281C207.116 106.281 210.004 103.393 210.004 99.8294C210.004 96.2662 207.116 93.3777 203.552 93.3777C199.989 93.3777 197.101 96.2662 197.101 99.8294C197.101 103.393 199.989 106.281 203.552 106.281Z" fill="#D1E1FF"/>
<path d="M220.964 101.031C224.547 99.5333 226.238 95.4147 224.741 91.8316C223.243 88.2485 219.125 86.5577 215.542 88.0551C211.958 89.5525 210.268 93.6711 211.765 97.2542C213.262 100.837 217.381 102.528 220.964 101.031Z" fill="#D1E1FF"/>
<path d="M242.764 129.595C243.41 126.85 241.708 124.102 238.963 123.456C236.218 122.811 233.469 124.513 232.824 127.258C232.178 130.003 233.881 132.751 236.625 133.397C239.37 134.042 242.119 132.34 242.764 129.595Z" fill="#D1E1FF"/>
<path d="M242.211 117.505C244.655 116.569 245.878 113.829 244.942 111.385C244.006 108.941 241.266 107.718 238.822 108.654C236.378 109.59 235.155 112.33 236.091 114.774C237.027 117.219 239.767 118.441 242.211 117.505Z" fill="#D1E1FF"/>
<path d="M236.899 100.356C237.281 97.996 235.677 95.7732 233.318 95.3912C230.958 95.0092 228.735 96.6125 228.353 98.9724C227.971 101.332 229.574 103.555 231.934 103.937C234.294 104.319 236.517 102.716 236.899 100.356Z" fill="#D1E1FF"/>
<path fill-rule="evenodd" clip-rule="evenodd" d="M79.6667 74.2185C80.9699 75.6112 82.0635 77.1568 82.9343 78.8055L88.1558 78.7853L90.0962 87.2044L85.3927 89.4729C85.3323 91.336 85.0265 93.2048 84.4637 95.0287L88.1692 98.7056L83.5879 106.03L78.6604 104.31C77.2677 105.614 75.721 106.707 74.0723 107.577L74.0919 112.799L65.674 114.74L63.4049 110.036C61.5418 109.975 59.6736 109.669 57.8491 109.105L54.1727 112.811L46.8463 108.23L48.5677 103.302C47.2629 101.909 46.1709 100.364 45.3007 98.7146L40.0781 98.7342L38.1377 90.3152L42.8423 88.0472C42.9033 86.184 43.2096 84.3159 43.7719 82.492L40.0675 78.815L44.6483 71.4896L49.5757 73.2111C50.9684 71.9063 52.5151 70.8132 54.1638 69.9435L54.1442 64.7209L62.5621 62.7805L64.8307 67.4845C66.6938 67.545 68.5619 67.8513 70.3864 68.4141L74.0628 64.7092L81.3876 69.2894L79.6667 74.2185ZM69.3639 81.1104C65.0244 78.3967 59.3057 79.7144 56.5914 84.0549C53.8776 88.3949 55.1964 94.1136 59.5353 96.8268C63.8759 99.5406 69.5935 98.2224 72.3078 93.8829C75.0221 89.5424 73.7044 83.8248 69.3639 81.1104Z" fill="#D1E1FF"/>
<path fill-rule="evenodd" clip-rule="evenodd" d="M84.7538 38.8091C85.4751 39.5802 86.0804 40.4359 86.5626 41.3487L89.4533 41.3375L90.5274 45.9984L87.9234 47.2545C87.8898 48.286 87.7207 49.3209 87.4087 50.3306L89.46 52.3662L86.9232 56.4217L84.1949 55.4691C83.4238 56.1915 82.5675 56.7963 81.6547 57.2779L81.6659 60.1692L77.0056 61.2438L75.7495 58.6398C74.718 58.6062 73.6837 58.4366 72.674 58.1246L70.6384 60.1765L66.5823 57.6402L67.5355 54.9119C66.8131 54.1408 66.2083 53.2851 65.7267 52.3718L62.8354 52.3824L61.7607 47.721L64.3653 46.4654C64.3989 45.4339 64.5691 44.3996 64.8799 43.3899L62.8287 41.3543L65.3649 37.2982L68.0932 38.2514C68.8643 37.529 69.7206 36.9236 70.6334 36.442L70.6222 33.5507L75.2825 32.4761L76.5386 35.0806C77.5701 35.1142 78.6044 35.2839 79.6147 35.5953L81.6503 33.544L85.7058 36.0797L84.7538 38.8091ZM79.0496 42.625C76.6472 41.1225 73.481 41.8522 71.9785 44.2551C70.476 46.6581 71.2063 49.8238 73.6087 51.3262C76.0116 52.8287 79.1773 52.099 80.6798 49.6961C82.1823 47.2931 81.4526 44.1274 79.0496 42.625Z" fill="#D1E1FF"/>
<path d="M44.2004 47.4247C44.2048 47.4169 44.2849 47.4617 44.4333 47.5552C44.5834 47.6454 44.7917 47.8027 45.0292 48.0379C45.5001 48.4966 46.0971 49.3472 46.2248 50.5607C46.2836 51.1588 46.2292 51.8392 45.9672 52.5045C45.7045 53.1631 45.2711 53.825 44.631 54.3167C44.3191 54.5703 43.9568 54.777 43.5653 54.931C43.1756 55.0906 42.7516 55.1914 42.3148 55.2205C41.4407 55.2983 40.5156 55.0732 39.7232 54.5871C38.9386 54.0876 38.331 53.354 38.0185 52.5336C37.8533 52.1276 37.7587 51.702 37.7312 51.282C37.6982 50.8626 37.7256 50.4459 37.8169 50.0545C37.9788 49.2632 38.3836 48.5839 38.8613 48.0592C39.3452 47.5328 39.9326 47.1856 40.4965 46.9767C41.6434 46.5607 42.6699 46.7242 43.2881 46.9471C43.6034 47.0574 43.8364 47.1761 43.9825 47.2713C44.1298 47.3648 44.2054 47.4175 44.2004 47.4247C44.1852 47.4522 43.8795 47.2388 43.2551 47.0456C42.6419 46.8575 41.649 46.7315 40.5609 47.152C40.0261 47.3631 39.4723 47.7019 39.0209 48.2082C38.5752 48.7127 38.1988 49.359 38.0532 50.106C37.9698 50.4756 37.9474 50.8682 37.981 51.263C38.009 51.6583 38.1003 52.0582 38.2576 52.439C38.555 53.209 39.1256 53.8944 39.862 54.3643C40.6068 54.8201 41.4726 55.0335 42.2947 54.9635C42.7057 54.9383 43.105 54.8453 43.4729 54.6975C43.8425 54.5552 44.1852 54.3631 44.4809 54.1263C45.0891 53.6687 45.5052 53.0471 45.7633 52.4255C46.0204 51.7983 46.0831 51.1521 46.0388 50.5787C45.9408 49.4161 45.3932 48.5783 44.9547 48.1096C44.5078 47.6319 44.1819 47.4499 44.2004 47.4247Z" fill="#E0E0E0"/>
<path d="M48.8216 44.3329C48.8182 44.3334 48.8311 44.2864 48.8602 44.1923C48.8944 44.0876 48.9392 43.9481 48.9963 43.7706C49.1262 43.3831 49.3122 42.8276 49.553 42.108L49.5703 42.1573C48.7247 41.6359 47.6142 40.951 46.2714 40.1233L46.3542 40.1138C45.8564 40.6195 45.3037 41.1817 44.7123 41.7832L44.6798 41.8162L44.6345 41.8028C43.8818 41.5737 43.048 41.4242 42.1626 41.3985L42.1106 41.3968L42.0876 41.3492C41.7684 40.6923 41.4229 39.9817 41.0634 39.2419L41.1686 39.2923C39.9803 39.5695 38.7186 39.8635 37.3948 40.1726L37.4754 40.0713C37.4799 40.7965 37.4844 41.595 37.4894 42.4137L37.49 42.4798L37.4318 42.5106C36.7452 42.8741 36.0362 43.3635 35.4006 43.9633L35.3508 44.0103L35.2853 43.9879C34.5998 43.7499 33.8438 43.4867 33.0738 43.2196L33.2122 43.1709C32.5682 44.2041 31.8738 45.3179 31.162 46.4597L31.1446 46.308C31.6626 46.8209 32.2316 47.3849 32.8084 47.9555L32.8622 48.0087L32.8398 48.0809C32.6096 48.828 32.4573 49.6758 32.4304 50.5405L32.4282 50.6172L32.3587 50.6508C31.6979 50.97 30.9772 51.3183 30.2492 51.67L30.3186 51.5249C30.5947 52.7205 30.891 54.0018 31.1911 55.301L31.0629 55.1997C31.8026 55.1969 32.6012 55.1935 33.4059 55.1901L33.4854 55.1896L33.5224 55.2601C33.8914 55.9607 34.3809 56.6641 34.9666 57.2879L34.9672 57.2885L34.9678 57.289C34.9806 57.3489 34.9398 57.1557 34.9963 57.4229L34.9958 57.4251L34.9941 57.4296L34.9913 57.4385L34.9851 57.4559L34.9728 57.4906L34.9482 57.5601L34.8994 57.6989L34.8026 57.9767L34.6088 58.5311C34.48 58.9001 34.3518 59.2675 34.2235 59.6332L34.1692 59.4786C35.2797 60.1736 36.375 60.859 37.4553 61.5344L37.2934 61.5534C37.849 60.994 38.3989 60.4401 38.9432 59.8919L38.9986 59.8365L39.0731 59.8594C39.879 60.1086 40.7083 60.2453 41.531 60.2727L41.6082 60.2755L41.6418 60.3449C41.9857 61.0589 42.3239 61.7617 42.6577 62.4556L42.5166 62.3878C43.8057 62.0921 45.0657 61.8032 46.2938 61.5215L46.1997 61.6402C46.198 60.8456 46.1958 60.0644 46.1941 59.2977V59.2261L46.2574 59.193C47.0122 58.796 47.696 58.3054 48.2924 57.7488L48.3428 57.7017L48.4078 57.7247C49.1654 57.9907 49.8996 58.2489 50.617 58.5009L50.4882 58.5462C51.2139 57.3921 51.8988 56.3023 52.5506 55.2652L52.5652 55.3901C51.9822 54.8082 51.4351 54.2628 50.9076 53.7364L50.8667 53.6955L50.8835 53.6412C51.149 52.7883 51.275 51.9623 51.3041 51.1744L51.3063 51.1217L51.3534 51.0993C52.1217 50.7325 52.8133 50.4021 53.4668 50.0897L53.4242 50.1759C53.0944 48.7115 52.8133 47.4638 52.5725 46.3953L52.6302 46.4413C51.695 46.4379 50.9278 46.4357 50.2877 46.4334H50.2619L50.2502 46.411C49.857 45.6561 49.4762 45.1477 49.2175 44.8184C49.0898 44.6633 48.9918 44.544 48.919 44.4549C48.849 44.3726 48.8182 44.3334 48.8216 44.3329C48.825 44.3323 48.8642 44.3693 48.9353 44.4404C49.007 44.5154 49.115 44.6297 49.2511 44.7904C49.5216 45.1118 49.9164 45.6158 50.3246 46.3707L50.2871 46.3483C50.9272 46.3416 51.6944 46.3332 52.6296 46.3225L52.6766 46.322L52.6878 46.3685C52.9393 47.4347 53.2322 48.6801 53.5766 50.1406L53.5906 50.2011L53.534 50.2285C52.8827 50.5455 52.1934 50.8815 51.4278 51.2539L51.4766 51.1789C51.4525 51.9813 51.3293 52.8241 51.0633 53.6961L51.0398 53.6009C51.5701 54.1245 52.12 54.6677 52.7063 55.2461L52.7634 55.3027L52.7209 55.3716C52.0735 56.4121 51.3931 57.5046 50.673 58.6621L50.627 58.7361L50.5442 58.7075C49.8262 58.4583 49.0904 58.2029 48.3322 57.9397L48.4475 57.9151C47.8382 58.488 47.1388 58.9931 46.3666 59.4019L46.4293 59.2972C46.4332 60.0644 46.4371 60.845 46.441 61.6397L46.4416 61.7365L46.347 61.7584C45.1194 62.0429 43.8606 62.3346 42.572 62.6331L42.4746 62.6555L42.4309 62.5653C42.0954 61.8721 41.7561 61.1698 41.4111 60.4564L41.522 60.5286C40.677 60.5017 39.8241 60.3623 38.9958 60.1069L39.1258 60.0745C38.5814 60.6233 38.0321 61.1777 37.4777 61.7377L37.4043 61.8116L37.3158 61.7561C36.2356 61.0813 35.1397 60.3965 34.0286 59.7021L33.9396 59.6461L33.9743 59.5469C34.102 59.1813 34.2302 58.8139 34.359 58.4449L34.5528 57.8905L34.6497 57.6127L34.6984 57.4733L34.7225 57.4038L34.7348 57.3691L34.741 57.3517L34.7438 57.3433L34.7454 57.3389L34.746 57.3366C34.8026 57.6032 34.7617 57.4105 34.774 57.4699L34.7734 57.4693L34.7723 57.4682C34.1703 56.827 33.6669 56.1035 33.2883 55.3833L33.4048 55.4533C32.6006 55.4561 31.8021 55.4589 31.0618 55.4617L30.957 55.4623L30.9335 55.3604C30.6345 54.0612 30.3399 52.7793 30.065 51.5832L30.042 51.4824L30.135 51.4376C30.8635 51.087 31.5848 50.7398 32.2462 50.4217L32.1739 50.5321C32.2025 49.6439 32.361 48.7737 32.5984 48.0076L32.6298 48.133C32.0546 47.5607 31.4868 46.9962 30.9699 46.4821L30.9005 46.4127L30.9526 46.3298C31.6677 45.1902 32.3649 44.0775 33.0117 43.0465L33.0615 42.967L33.15 42.9978C33.9194 43.2677 34.6743 43.5332 35.3592 43.7734L35.2444 43.7981C35.8979 43.1865 36.6254 42.6876 37.3293 42.3191L37.271 42.4154C37.2699 41.5967 37.2682 40.7981 37.2671 40.0729V39.9895L37.3478 39.971C38.6733 39.6692 39.9361 39.3813 41.1261 39.1103L41.1994 39.0935L41.2319 39.1607C41.587 39.9021 41.928 40.6156 42.2433 41.2741L42.1682 41.2254C43.0698 41.2579 43.9171 41.4164 44.6804 41.6549L44.6037 41.6751C45.2001 41.0793 45.7584 40.5221 46.2602 40.0203L46.2982 39.9822L46.343 40.0108C47.6753 40.8558 48.7768 41.5541 49.6157 42.0867L49.6442 42.1052L49.633 42.1365C49.3766 42.8427 49.1783 43.3876 49.04 43.7684C48.9734 43.9459 48.9213 44.0848 48.8821 44.1895C48.8457 44.2836 48.8255 44.3323 48.8216 44.3329Z" fill="#E0E0E0"/>
<path d="M182.875 23.338L166.41 23.2624C164.203 23.2524 162.404 25.1155 162.395 27.4232L162.381 30.4097C162.372 32.718 160.574 34.5812 158.366 34.5711L126.273 34.4227C124.065 34.4126 122.283 32.5332 122.292 30.2249L122.305 27.2384C122.315 24.9301 120.532 23.0502 118.325 23.0407L112.534 23.0138L98.1236 22.9472C90.9668 22.9147 85.1389 28.6905 85.1087 35.8479L84.2306 243.652C84.2003 250.806 89.9728 256.63 97.1257 256.663L181.877 257.053C189.033 257.087 194.861 251.31 194.892 244.153L195.771 36.3485C195.8 29.1951 190.027 23.3716 182.875 23.338Z" fill="white"/>
<path d="M182.875 23.3379C182.875 23.3379 183.024 23.3413 183.318 23.3547C183.611 23.3844 184.057 23.3525 184.631 23.4639C185.778 23.6051 187.523 23.9859 189.481 25.1647C190.47 25.728 191.474 26.5378 192.424 27.5715C193.37 28.607 194.247 29.9 194.873 31.4473C195.506 32.9895 195.845 34.7882 195.819 36.7068C195.813 38.6198 195.807 40.6565 195.8 42.8142C195.738 60.0767 195.648 85.0516 195.537 115.912C195.416 146.774 195.271 183.52 195.11 224.324C195.089 229.424 195.069 234.588 195.047 239.812C195.042 241.117 195.037 242.427 195.031 243.74C195.011 245.055 194.921 246.404 194.52 247.681C194.142 248.958 193.608 250.203 192.855 251.316C192.104 252.429 191.193 253.434 190.151 254.292C188.043 255.97 185.407 257.034 182.678 257.158C181.994 257.203 181.321 257.194 180.645 257.189L178.614 257.18C177.258 257.174 175.9 257.168 174.538 257.162C169.089 257.137 163.588 257.113 158.038 257.088C146.938 257.037 135.641 256.986 124.176 256.934C118.444 256.907 112.67 256.881 106.857 256.854C103.95 256.841 101.034 256.827 98.1096 256.814C95.1757 256.951 92.145 256.166 89.7023 254.456C87.2495 252.758 85.4446 250.198 84.6091 247.362C84.1594 245.947 84.0816 244.443 84.0872 242.987C84.0933 241.529 84.0995 240.073 84.1057 238.619C84.1303 232.805 84.1549 227.029 84.1796 221.295C84.2289 209.827 84.277 198.527 84.3252 187.424C84.4221 165.218 84.5156 143.798 84.6046 123.393C84.6953 102.988 84.7821 83.599 84.8628 65.4527C84.9042 56.3796 84.944 47.6173 84.9821 39.1949C84.9871 38.1421 84.9916 37.0943 84.9966 36.0522C85.0061 35.5303 85.0453 35.0044 85.0756 34.4836C85.1685 33.9695 85.2105 33.4465 85.3461 32.9436C85.8271 30.9215 86.7713 29.0303 88.0873 27.4763C89.4128 25.9307 91.0721 24.7077 92.8965 23.9114C94.7199 23.0971 96.7185 22.8155 98.6494 22.8468C102.507 22.8664 106.273 22.8855 109.943 22.9039C111.778 22.9135 113.589 22.9224 115.376 22.9319C116.269 22.9364 117.157 22.9409 118.038 22.9454C118.926 22.9051 119.845 23.1515 120.572 23.6639C121.298 24.1763 121.855 24.9121 122.14 25.7398C122.467 26.5686 122.384 27.4618 122.391 28.2917C122.389 28.7134 122.387 29.1339 122.385 29.5528C122.384 29.9728 122.368 30.39 122.421 30.791C122.521 31.5974 122.859 32.3713 123.385 32.975C123.9 33.5882 124.608 34.0272 125.371 34.2193C125.755 34.3167 126.141 34.3459 126.544 34.3397C126.943 34.3419 127.341 34.3436 127.738 34.3459C129.322 34.3543 130.881 34.3621 132.414 34.3705C138.543 34.403 144.246 34.4338 149.497 34.4618C152.122 34.4763 154.634 34.4898 157.029 34.5027C157.624 34.4948 158.227 34.5346 158.795 34.487C159.367 34.4243 159.914 34.2288 160.389 33.9331C161.346 33.3423 161.998 32.359 162.222 31.3202C162.343 30.8005 162.324 30.2702 162.329 29.7443C162.332 29.2202 162.335 28.7033 162.338 28.1948C162.346 27.6891 162.317 27.1807 162.411 26.6862C162.498 26.1945 162.666 25.7258 162.903 25.3041C163.372 24.4557 164.131 23.8162 164.972 23.4891C165.821 23.1235 166.724 23.2388 167.542 23.2248C170.863 23.2455 173.673 23.2635 175.946 23.2775C178.215 23.2943 179.947 23.3071 181.113 23.3155C182.278 23.3251 182.875 23.3379 182.875 23.3379C182.875 23.3379 182.278 23.3452 181.114 23.3447C179.947 23.3424 178.216 23.3396 175.946 23.3351C173.673 23.3284 170.863 23.32 167.542 23.3105C166.716 23.3262 165.83 23.2164 165.007 23.5748C164.186 23.8963 163.446 24.5218 162.991 25.3517C162.76 25.7639 162.596 26.2219 162.513 26.7024C162.422 27.1812 162.451 27.6841 162.444 28.1937C162.442 28.7027 162.441 29.2191 162.439 29.7432C162.435 30.2635 162.455 30.8072 162.332 31.3426C162.105 32.4094 161.438 33.4224 160.452 34.0328C159.963 34.3386 159.398 34.5413 158.808 34.6074C158.212 34.6572 157.629 34.6175 157.028 34.627C154.633 34.618 152.121 34.6085 149.496 34.5984C144.245 34.5777 138.541 34.5553 132.412 34.5318C130.88 34.5256 129.321 34.5195 127.736 34.5127C127.339 34.5111 126.942 34.5094 126.542 34.5077C126.147 34.515 125.725 34.4859 125.329 34.3839C124.531 34.184 123.791 33.7254 123.252 33.087C122.704 32.4575 122.35 31.6517 122.245 30.8117C122.189 30.3878 122.207 29.9667 122.206 29.5506C122.208 29.1317 122.21 28.7117 122.211 28.2895C122.204 27.4455 122.281 26.5887 121.967 25.7991C121.693 25.0062 121.159 24.3028 120.465 23.8145C119.764 23.3262 118.91 23.0932 118.036 23.1319C117.155 23.1279 116.268 23.1246 115.374 23.1207C113.587 23.1134 111.776 23.1055 109.941 23.0983C106.271 23.0831 102.506 23.0675 98.6477 23.0512C96.7303 23.0227 94.7759 23.3004 92.9794 24.1035C91.1857 24.8886 89.5539 26.0931 88.2513 27.6141C86.9583 29.144 86.0321 31.0038 85.5605 32.9918C85.4273 33.4857 85.3875 34.0003 85.2957 34.5055C85.2671 35.019 85.2279 35.5308 85.2189 36.0511C85.215 37.0932 85.2111 38.141 85.2066 39.1938C85.1736 47.6167 85.1394 56.3791 85.1041 65.4516C85.0313 83.5979 84.9541 102.987 84.8729 123.392C84.7894 143.797 84.7015 165.217 84.6108 187.423C84.5643 198.526 84.5173 209.826 84.4697 221.294C84.4456 227.028 84.4215 232.804 84.3969 238.619C84.3907 240.072 84.3845 241.528 84.3784 242.987C84.3733 244.439 84.4484 245.89 84.8885 247.279C85.7056 250.051 87.4701 252.555 89.8686 254.215C92.2671 255.887 95.197 256.654 98.1101 256.52C101.035 256.534 103.951 256.547 106.857 256.561C112.67 256.587 118.444 256.614 124.176 256.641C135.641 256.695 146.938 256.748 158.039 256.8C163.589 256.826 169.09 256.852 174.538 256.878C175.9 256.884 177.259 256.89 178.615 256.897L180.645 256.907C181.322 256.912 181.998 256.921 182.662 256.876C185.333 256.757 187.912 255.715 189.976 254.074C190.996 253.234 191.888 252.25 192.623 251.162C193.361 250.072 193.884 248.854 194.254 247.604C194.647 246.351 194.735 245.042 194.756 243.738C194.761 242.425 194.767 241.115 194.773 239.809C194.796 234.586 194.819 229.422 194.841 224.321C195.025 183.519 195.191 146.771 195.331 115.91C195.481 85.0499 195.602 60.0751 195.686 42.8131C195.697 40.6554 195.709 38.6187 195.719 36.7057C195.749 34.7961 195.417 33.0136 194.792 31.4792C194.175 29.9409 193.307 28.6529 192.37 27.6203C191.429 26.5893 190.433 25.7795 189.45 25.2151C187.506 24.0335 185.77 23.6437 184.626 23.4936C184.054 23.3777 183.61 23.4051 183.318 23.3704C183.024 23.3514 182.875 23.3379 182.875 23.3379Z" fill="#263238"/>
<path d="M167.659 88.7676L166.386 87.2567L170.174 85.2273L152.585 79.2739L158.538 96.3214L160.703 93.48C160.703 93.48 172.084 113.507 160.703 125.681C149.401 137.772 136.079 135.152 136.079 135.152L138.649 143.541C138.649 143.541 159.621 145.029 170.851 126.087C182.08 107.146 167.659 88.7676 167.659 88.7676Z" fill="#3D599E"/>
<path d="M114.916 130.786L116.189 132.297L112.4 134.326L129.989 140.28L124.036 123.232L121.871 126.074C121.871 126.074 110.49 106.047 121.871 93.8726C133.174 81.7822 146.495 84.4014 146.495 84.4014L143.925 76.0126C143.925 76.0126 122.953 74.5241 111.723 93.4661C100.494 112.408 114.916 130.786 114.916 130.786Z" fill="#3D599E"/>
<path d="M167.659 88.7676L166.386 87.2567L170.174 85.2273L152.585 79.2739L158.538 96.3214L160.703 93.48C160.703 93.48 172.084 113.507 160.703 125.681C149.401 137.772 136.079 135.152 136.079 135.152L138.649 143.541C138.649 143.541 159.621 145.029 170.851 126.087C182.08 107.146 167.659 88.7676 167.659 88.7676Z" fill="#3D599E"/>
<path d="M114.916 130.786L116.189 132.297L112.4 134.326L129.989 140.28L124.036 123.232L121.871 126.074C121.871 126.074 110.49 106.047 121.871 93.8726C133.174 81.7822 146.495 84.4014 146.495 84.4014L143.925 76.0126C143.925 76.0126 122.953 74.5241 111.723 93.4661C100.494 112.408 114.916 130.786 114.916 130.786Z" fill="#3D599E"/>
<g opacity="0.8">
<path d="M167.659 88.7676L166.386 87.2567L170.174 85.2273L152.585 79.2739L158.538 96.3214L160.703 93.48C160.703 93.48 172.084 113.507 160.703 125.681C149.401 137.772 136.079 135.152 136.079 135.152L138.649 143.541C138.649 143.541 159.621 145.029 170.851 126.087C182.08 107.146 167.659 88.7676 167.659 88.7676Z" fill="white"/>
</g>
<g opacity="0.8">
<path d="M114.916 130.786L116.189 132.297L112.4 134.326L129.989 140.28L124.036 123.232L121.871 126.074C121.871 126.074 110.49 106.047 121.871 93.8726C133.174 81.7822 146.495 84.4014 146.495 84.4014L143.925 76.0126C143.925 76.0126 122.953 74.5241 111.723 93.4661C100.494 112.408 114.916 130.786 114.916 130.786Z" fill="white"/>
</g>
<path fill-rule="evenodd" clip-rule="evenodd" d="M151.317 99.8326C152.16 100.734 152.868 101.735 153.432 102.802L156.811 102.789L158.067 108.238L155.023 109.707C154.984 110.913 154.786 112.122 154.422 113.303L156.82 115.683L153.855 120.424L150.665 119.31C149.763 120.154 148.763 120.862 147.695 121.425L147.708 124.805L142.259 126.061L140.79 123.017C139.584 122.978 138.375 122.779 137.195 122.415L134.815 124.813L130.073 121.848L131.187 118.658C130.343 117.757 129.636 116.756 129.072 115.688L125.692 115.701L124.436 110.252L127.481 108.784C127.52 107.577 127.719 106.368 128.082 105.188L125.684 102.808L128.65 98.0664L131.839 99.1808C132.74 98.3363 133.742 97.629 134.808 97.0657L134.796 93.6855L140.244 92.4294L141.713 95.4742C142.919 95.5134 144.128 95.7116 145.309 96.0762L147.688 93.6777L152.43 96.6423L151.317 99.8326ZM144.648 104.294C141.839 102.537 138.137 103.39 136.38 106.2C134.624 109.009 135.477 112.71 138.286 114.467C141.096 116.224 144.797 115.37 146.553 112.561C148.31 109.752 147.457 106.051 144.648 104.294Z" fill="#3D599E"/>
<g opacity="0.6">
<path fill-rule="evenodd" clip-rule="evenodd" d="M144.648 104.294C141.839 102.537 138.137 103.39 136.38 106.2C134.623 109.009 135.477 112.71 138.286 114.467C141.095 116.224 144.796 115.37 146.553 112.561C148.31 109.752 147.457 106.051 144.648 104.294Z" fill="white"/>
</g>
<path d="M123.026 165.083V161.493H123.689V165.056C123.689 166.543 124.387 167.223 125.605 167.223C126.831 167.223 127.529 166.543 127.529 165.056V161.493H128.174V165.083C128.174 166.883 127.207 167.814 125.604 167.814C124.002 167.814 123.026 166.883 123.026 165.083Z" fill="#263238"/>
<path d="M135.074 163.642C135.074 164.976 134.108 165.782 132.514 165.782H130.83V167.761H130.168V161.493H132.514C134.108 161.493 135.074 162.299 135.074 163.642ZM134.412 163.642C134.412 162.639 133.749 162.067 132.496 162.067H130.83V165.2H132.496C133.749 165.2 134.412 164.627 134.412 163.642Z" fill="#263238"/>
<path d="M136.503 161.493H139.055C141.06 161.493 142.413 162.783 142.413 164.627C142.413 166.471 141.061 167.76 139.055 167.76H136.503V161.493ZM139.019 167.188C140.684 167.188 141.759 166.131 141.759 164.627C141.759 163.123 140.684 162.067 139.019 162.067H137.166V167.188H139.019Z" fill="#263238"/>
<path d="M147.735 166.086H144.244L143.492 167.76H142.803L145.668 161.493H146.321L149.186 167.76H148.488L147.735 166.086ZM147.494 165.549L145.99 162.183L144.486 165.549H147.494Z" fill="#263238"/>
<path d="M151.126 162.066H148.923V161.493H153.99V162.066H151.787V167.761H151.125V162.066H151.126Z" fill="#263238"/>
<path d="M159.476 167.188V167.761H155.044V161.493H159.341V162.066H155.707V164.295H158.948V164.86H155.707V167.188H159.476Z" fill="#263238"/>
<path d="M187.787 43.4996C187.787 43.5584 185.518 43.6256 182.718 43.6485C179.918 43.6715 177.647 43.6429 177.647 43.5836C177.647 43.5248 179.916 43.4576 182.717 43.4346C185.515 43.4116 187.786 43.4408 187.787 43.4996Z" fill="#263238"/>
<path d="M187.808 46.094C187.809 46.1528 185.539 46.2195 182.74 46.243C179.939 46.2665 177.669 46.2369 177.669 46.1781C177.668 46.1193 179.938 46.0526 182.738 46.0291C185.538 46.0061 187.808 46.0352 187.808 46.094Z" fill="#263238"/>
<path d="M187.83 48.6885C187.83 48.7473 185.561 48.814 182.761 48.8375C179.961 48.8604 177.69 48.8313 177.69 48.7725C177.69 48.7137 179.959 48.6471 182.76 48.6236C185.559 48.6 187.829 48.6297 187.83 48.6885Z" fill="#263238"/>
<path d="M95.5622 51.6499C95.5661 51.646 95.6384 51.6415 95.7728 51.6359C95.9391 51.6303 96.1317 51.6242 96.3591 51.6163C96.9124 51.6034 97.6359 51.5861 98.5241 51.5648L98.4641 51.6258C98.4563 51.1459 98.4479 50.6218 98.4389 50.0562C98.4417 49.7644 98.4137 49.4894 98.4423 49.1523C98.5005 48.8163 98.8001 48.5195 99.1686 48.4848C99.5175 48.4781 99.8249 48.4624 100.203 48.4798C100.593 48.5274 100.925 48.9026 100.913 49.3158C100.921 50.0478 100.93 50.8127 100.939 51.6057L100.839 51.5071C101.716 51.4982 102.629 51.4892 103.57 51.4791L103.466 51.585C103.457 50.4851 103.446 49.3472 103.436 48.1818C103.434 47.8912 103.431 47.6022 103.429 47.315C103.427 47.0478 103.265 46.8692 103.044 46.6698C102.64 46.2717 102.242 45.8791 101.85 45.4927C101.46 45.1069 101.075 44.7278 100.699 44.3559C100.51 44.17 100.324 43.9863 100.14 43.8043C99.9481 43.6195 99.7975 43.4286 99.5752 43.3826C99.3596 43.3244 99.1221 43.3703 98.9485 43.5025C98.7833 43.6425 98.6069 43.8402 98.4401 44.0026C98.1035 44.3419 97.777 44.6718 97.4601 44.991C96.8435 45.631 96.2017 46.2162 95.7347 46.769C95.5381 47.0742 95.6115 47.4482 95.5975 47.7882C95.5969 48.1264 95.5964 48.4478 95.5953 48.7502C95.5919 49.3405 95.5885 49.8574 95.5857 50.3003C95.5813 50.6962 95.5779 51.0238 95.5745 51.2915C95.5717 51.5211 95.5673 51.6443 95.5622 51.6499C95.5572 51.655 95.551 51.5424 95.5432 51.3218C95.5359 51.058 95.5269 50.736 95.5157 50.3457C95.5057 49.8988 95.4939 49.378 95.4805 48.7827C95.4749 48.4742 95.4687 48.1466 95.4625 47.8016C95.4597 47.6269 95.4569 47.4477 95.4541 47.2646C95.4525 47.0708 95.5023 46.8703 95.6048 46.6928C96.1099 46.0734 96.713 45.5258 97.3341 44.8666C97.6482 44.5446 97.973 44.212 98.3062 43.8704C98.4815 43.6985 98.6249 43.5271 98.8332 43.3479C99.0516 43.1799 99.3517 43.12 99.625 43.1922C99.9157 43.2561 100.105 43.4946 100.281 43.6615C100.466 43.8424 100.653 44.0255 100.841 44.2103C101.219 44.5805 101.605 44.9585 101.997 45.3432C102.389 45.7285 102.788 46.1199 103.193 46.5175C103.289 46.6189 103.404 46.7051 103.498 46.8479C103.586 46.984 103.637 47.1453 103.641 47.3082C103.644 47.5966 103.646 47.8873 103.649 48.179C103.658 49.3444 103.667 50.4823 103.675 51.5822L103.676 51.6869L103.571 51.6874C102.631 51.6936 101.717 51.6992 100.84 51.7048L100.74 51.7054L100.739 51.6057C100.736 50.8127 100.732 50.0478 100.728 49.3158C100.739 48.986 100.482 48.6948 100.176 48.6528C99.8619 48.636 99.4912 48.6472 99.1854 48.65C98.892 48.6741 98.6467 48.9098 98.5963 49.1809C98.57 49.4553 98.5901 49.7756 98.5845 50.0534C98.5845 50.619 98.5851 51.1431 98.5851 51.6236V51.6852L98.5252 51.6846C97.6219 51.6785 96.8866 51.6729 96.3238 51.669C96.1009 51.665 95.9128 51.6617 95.7504 51.6589C95.6227 51.6572 95.5583 51.6538 95.5622 51.6499Z" fill="#263238"/>
<path d="M162.679 49.4361C162.679 49.5168 154.146 49.5817 143.622 49.5817C133.094 49.5817 124.562 49.5162 124.562 49.4361C124.562 49.3561 133.094 49.2905 143.622 49.2905C154.146 49.29 162.679 49.3555 162.679 49.4361Z" fill="#263238"/>
<path d="M161.69 226.425H121.674C116.564 226.425 112.421 222.282 112.421 217.171C112.421 212.061 116.564 207.917 121.674 207.917H161.69C166.8 207.917 170.943 212.06 170.943 217.171C170.944 222.282 166.801 226.425 161.69 226.425Z" fill="#3D599E"/>
<path d="M134.047 218.525L134.381 217.784C134.74 218.046 135.274 218.228 135.785 218.228C136.368 218.228 136.605 218.034 136.605 217.772C136.605 216.976 134.133 217.523 134.133 215.943C134.133 215.22 134.716 214.619 135.925 214.619C136.459 214.619 137.006 214.746 137.401 214.996L137.097 215.743C136.702 215.518 136.295 215.408 135.919 215.408C135.335 215.408 135.111 215.627 135.111 215.894C135.111 216.678 137.584 216.137 137.584 217.699C137.584 218.409 136.994 219.017 135.779 219.017C135.104 219.017 134.424 218.818 134.047 218.525Z" fill="white"/>
<path d="M140.297 218.787C140.102 218.927 139.817 218.994 139.525 218.994C138.753 218.994 138.304 218.599 138.304 217.821V216.478H137.8V215.748H138.304V214.953H139.251V215.748H140.066V216.478H139.251V217.809C139.251 218.088 139.403 218.24 139.658 218.24C139.798 218.24 139.938 218.198 140.041 218.118L140.297 218.787Z" fill="white"/>
<path d="M143.721 217.079V218.945H142.834V218.538C142.658 218.835 142.317 218.994 141.838 218.994C141.072 218.994 140.616 218.568 140.616 218.003C140.616 217.427 141.023 217.025 142.02 217.025H142.773C142.773 216.618 142.53 216.382 142.02 216.382C141.673 216.382 141.315 216.497 141.078 216.685L140.738 216.023C141.097 215.768 141.625 215.628 142.148 215.628C143.144 215.627 143.721 216.089 143.721 217.079ZM142.773 217.912V217.577H142.123C141.68 217.577 141.54 217.741 141.54 217.96C141.54 218.198 141.74 218.355 142.074 218.355C142.39 218.355 142.664 218.21 142.773 217.912Z" fill="white"/>
<path d="M146.605 215.627V216.503C146.526 216.497 146.466 216.491 146.393 216.491C145.87 216.491 145.524 216.777 145.524 217.402V218.945H144.576V215.677H145.481V216.108C145.712 215.792 146.101 215.627 146.605 215.627Z" fill="white"/>
<path d="M149.392 218.787C149.197 218.927 148.912 218.994 148.62 218.994C147.848 218.994 147.399 218.599 147.399 217.821V216.478H146.895V215.748H147.399V214.953H148.346V215.748H149.16V216.478H148.346V217.809C148.346 218.088 148.498 218.24 148.753 218.24C148.893 218.24 149.033 218.198 149.136 218.118L149.392 218.787Z" fill="white"/>
<path d="M179.711 182.519C179.711 182.599 162.507 182.664 141.289 182.664C120.064 182.664 102.863 182.599 102.863 182.519C102.863 182.438 120.064 182.373 141.289 182.373C162.507 182.373 179.711 182.439 179.711 182.519Z" fill="#263238"/>
<path d="M164.402 187.229C164.402 187.31 154.053 187.375 141.289 187.375C128.52 187.375 118.173 187.309 118.173 187.229C118.173 187.148 128.52 187.083 141.289 187.083C154.052 187.083 164.402 187.148 164.402 187.229Z" fill="#263238"/>
<path d="M58.07 256.616L54.668 269.195L65.7252 270.205L68.0486 258.229L58.07 256.616Z" fill="#3D599E"/>
<path d="M66.0456 269.18C66.0422 269.221 65.4229 269.206 64.4261 269.125C63.4292 269.045 62.0573 268.892 60.5464 268.699C59.0909 268.503 57.7738 268.326 56.6818 268.18C55.694 268.042 55.083 267.948 55.0869 267.904C55.0909 267.863 55.7097 267.881 56.7059 267.963C57.7021 268.046 59.0741 268.199 60.5856 268.393C62.041 268.587 63.3576 268.763 64.4501 268.909C65.4385 269.045 66.0501 269.136 66.0456 269.18Z" fill="#263238"/>
<g opacity="0.6">
<path d="M54.668 269.195L65.7252 270.205L65.9038 269.282L54.9872 267.895L54.6792 269.071" fill="white"/>
</g>
<path d="M60.1611 268.636C60.0917 268.618 60.5621 266.461 61.2122 263.816C61.8629 261.171 62.4465 259.041 62.5159 259.059C62.5853 259.076 62.1149 261.234 61.4642 263.879C60.8146 266.522 60.2311 268.653 60.1611 268.636Z" fill="#263238"/>
<path d="M65.4348 269.098C65.3671 269.095 65.7876 268.195 65.46 266.759C65.2915 266.059 64.9241 265.245 64.2499 264.57C63.5863 263.892 62.5906 263.418 61.498 263.306C60.4032 263.201 59.3364 263.464 58.5368 263.979C57.727 264.486 57.1698 265.18 56.8148 265.808C56.1114 267.098 56.1797 268.068 56.1164 268.052C56.1075 268.052 56.1019 267.994 56.1002 267.885C56.0946 267.775 56.1041 267.614 56.126 267.406C56.1724 266.992 56.3119 266.393 56.6524 265.722C56.9984 265.06 57.5624 264.323 58.408 263.777C59.2446 263.224 60.3713 262.936 61.5232 263.048C62.6735 263.165 63.7252 263.673 64.4196 264.402C65.1224 265.126 65.4864 265.987 65.6387 266.72C65.7843 267.461 65.7333 268.079 65.6426 268.486C65.595 268.69 65.5502 268.845 65.5065 268.947C65.4679 269.049 65.4432 269.101 65.4348 269.098Z" fill="#263238"/>
<path d="M103.725 253.241L102.984 264.417C102.984 264.417 114.108 268.108 114.172 270.187L92.4385 270.344L92.8775 252.883L103.725 253.241Z" fill="#3D599E"/>
<g opacity="0.6">
<path d="M96.2958 263.272C95.8719 263.375 95.5673 263.838 95.6518 264.266C95.7364 264.694 96.2057 265.008 96.6313 264.913C97.0569 264.818 97.4399 264.272 97.3078 263.857C97.1756 263.442 96.605 263.103 96.2146 263.297" fill="white"/>
</g>
<g opacity="0.6">
<path d="M92.4395 270.344L92.4837 268.584L113.475 269.164C113.475 269.164 114.173 269.465 114.283 270.344H92.4395Z" fill="white"/>
</g>
<path d="M103.34 264.317C103.333 264.423 102.801 264.455 102.269 264.78C101.728 265.091 101.445 265.543 101.349 265.498C101.252 265.474 101.429 264.845 102.08 264.462C102.728 264.074 103.366 264.221 103.34 264.317Z" fill="#263238"/>
<path d="M105.59 265.328C105.611 265.432 105.146 265.598 104.772 266.036C104.386 266.463 104.28 266.945 104.175 266.937C104.074 266.951 104.019 266.328 104.495 265.792C104.965 265.253 105.591 265.227 105.59 265.328Z" fill="#263238"/>
<path d="M106.801 268.094C106.704 268.114 106.573 267.579 106.862 267.007C107.148 266.432 107.655 266.218 107.697 266.308C107.754 266.397 107.423 266.699 107.192 267.172C106.951 267.641 106.906 268.087 106.801 268.094Z" fill="#263238"/>
<path d="M103.227 261.751C103.179 261.846 102.697 261.686 102.096 261.708C101.495 261.719 101.023 261.906 100.97 261.813C100.911 261.734 101.378 261.355 102.086 261.339C102.794 261.317 103.281 261.669 103.227 261.751Z" fill="#263238"/>
<path d="M103.334 259.494C103.334 259.538 102.913 259.59 102.247 259.455C101.915 259.387 101.525 259.266 101.119 259.071C100.916 258.973 100.709 258.857 100.505 258.72C100.407 258.653 100.289 258.584 100.184 258.455C100.069 258.34 100.011 258.057 100.152 257.889C100.269 257.726 100.468 257.66 100.624 257.661C100.785 257.66 100.913 257.696 101.031 257.73C101.271 257.796 101.495 257.882 101.7 257.982C102.109 258.183 102.439 258.432 102.683 258.671C103.173 259.153 103.333 259.554 103.297 259.574C103.247 259.607 103.012 259.268 102.511 258.867C102.261 258.668 101.94 258.459 101.557 258.291C101.365 258.207 101.158 258.134 100.939 258.079C100.71 258.012 100.515 258.004 100.452 258.105C100.43 258.143 100.427 258.158 100.473 258.227C100.52 258.291 100.612 258.355 100.708 258.422C100.897 258.553 101.087 258.668 101.273 258.768C101.647 258.967 102.005 259.107 102.313 259.203C102.929 259.394 103.338 259.436 103.334 259.494Z" fill="#263238"/>
<path d="M103.191 259.641C103.153 259.657 102.954 259.27 102.936 258.582C102.929 258.241 102.976 257.829 103.121 257.395C103.194 257.179 103.291 256.959 103.418 256.743C103.552 256.532 103.716 256.25 104.129 256.215C104.344 256.213 104.517 256.386 104.574 256.532C104.641 256.681 104.652 256.807 104.673 256.934C104.706 257.189 104.694 257.437 104.652 257.666C104.57 258.127 104.369 258.506 104.154 258.776C103.712 259.326 103.266 259.44 103.258 259.403C103.224 259.349 103.6 259.155 103.941 258.625C104.109 258.363 104.262 258.015 104.316 257.613C104.344 257.412 104.347 257.199 104.315 256.983C104.288 256.751 104.207 256.563 104.12 256.583C104.012 256.578 103.823 256.747 103.729 256.928C103.611 257.12 103.517 257.316 103.441 257.51C103.294 257.898 103.223 258.272 103.198 258.589C103.148 259.227 103.249 259.627 103.191 259.641Z" fill="#263238"/>
<path d="M103.725 156.146L70.6104 155.897L54.6084 260.997L68.3519 262.741L85.9656 176.324L91.2369 263.049L91.2509 263.307L106.114 263.047L103.725 156.146Z" fill="#263238"/>
<path d="M88.6635 164.663C88.6529 164.653 88.8914 164.638 89.3478 164.619C89.844 164.6 90.5109 164.576 91.3397 164.545C93.1144 164.495 95.5761 164.425 98.4965 164.343L98.6326 164.339L98.6332 164.476C98.6382 166.553 98.6438 168.876 98.65 171.341V171.407L98.6013 171.452C98.2037 171.817 97.7814 172.206 97.3547 172.599C96.0796 173.767 94.8465 174.897 93.6805 175.966L93.5831 176.055L93.4851 175.968C91.664 174.345 90.0025 172.863 88.5862 171.601L88.5459 171.565L88.5465 171.513C88.5722 169.426 88.5929 167.711 88.6086 166.477C88.6209 165.916 88.631 165.464 88.6383 165.12C88.6467 164.812 88.6551 164.654 88.6635 164.663C88.6719 164.671 88.6803 164.845 88.6893 165.165C88.6965 165.516 88.7066 165.976 88.7189 166.548C88.7341 167.765 88.7553 169.455 88.7811 171.513L88.7413 171.425C90.1682 172.675 91.8426 174.142 93.6777 175.749L93.4823 175.751C94.646 174.68 95.8769 173.546 97.1492 172.375C97.5765 171.983 97.9993 171.595 98.3969 171.23L98.3481 171.341C98.3543 168.876 98.3599 166.553 98.3649 164.476L98.5016 164.61C95.6148 164.637 93.1816 164.661 91.4277 164.677C90.586 164.678 89.9084 164.679 89.4044 164.68C89.1882 164.677 89.0096 164.676 88.8606 164.674C88.7357 164.672 88.6685 164.668 88.6635 164.663Z" fill="#455A64"/>
<path d="M73.0781 164.208C73.0692 164.197 73.2814 164.208 73.6891 164.239C74.1365 164.276 74.7324 164.324 75.471 164.385C77.0665 164.529 79.2762 164.73 81.911 164.968L82.0443 164.981L82.0281 165.116C81.7856 167.147 81.5089 169.462 81.2138 171.931L81.2065 171.992L81.1584 172.031C80.7025 172.395 80.2198 172.78 79.7309 173.171C78.5124 174.14 77.3313 175.08 76.2091 175.973L76.0937 176.065L76.003 175.95C74.5806 174.152 73.2753 172.502 72.153 171.083L72.1211 171.043L72.1278 170.993C72.4061 168.932 72.6352 167.233 72.8009 166.006C72.8816 165.451 72.9465 165.003 72.9964 164.66C73.0429 164.354 73.0709 164.198 73.0781 164.208C73.086 164.217 73.0731 164.392 73.0429 164.712C73.0076 165.064 72.9617 165.523 72.9045 166.093C72.7718 167.306 72.5881 168.985 72.3653 171.022L72.3401 170.933C73.4746 172.342 74.794 173.981 76.2321 175.767L76.0265 175.744C77.1471 174.848 78.3259 173.906 79.5422 172.934C80.0317 172.544 80.5149 172.159 80.9708 171.795L80.9153 171.895C81.2239 169.427 81.514 167.114 81.7677 165.084L81.8853 165.23C79.2897 164.941 77.1129 164.698 75.541 164.522C74.7929 164.432 74.1903 164.36 73.7373 164.306C73.3167 164.252 73.0871 164.219 73.0781 164.208Z" fill="#455A64"/>
<path d="M93.3388 180.16C93.3169 180.198 92.7491 179.907 91.8374 179.431C90.9257 178.954 89.6669 178.296 88.2641 177.596C86.8601 176.896 85.5777 176.286 84.6481 175.844C83.7191 175.402 83.1457 175.124 83.1625 175.084C83.1781 175.047 83.7813 175.256 84.7349 175.648C85.6886 176.041 86.9901 176.622 88.399 177.324C89.8069 178.027 91.0545 178.717 91.9416 179.243C92.8292 179.769 93.3595 180.125 93.3388 180.16Z" fill="#455A64"/>
<path d="M92.9133 182.712C92.901 182.745 92.453 182.623 91.7838 182.287C91.1157 181.954 90.2393 181.382 89.4217 180.579C88.6058 179.773 88.02 178.905 87.6773 178.242C87.3318 177.578 87.2024 177.132 87.2355 177.12C87.3228 177.072 88.0267 178.798 89.6351 180.363C91.2221 181.946 92.9592 182.624 92.9133 182.712Z" fill="#455A64"/>
<path d="M102.261 213.081C102.278 213.087 102.234 213.285 102.111 213.63C101.988 213.975 101.768 214.461 101.42 215.02C100.739 216.133 99.4305 217.525 97.5556 218.319C95.6785 219.109 93.7683 219.074 92.4955 218.786C91.8526 218.646 91.3503 218.464 91.0176 218.311C90.6839 218.159 90.5119 218.052 90.5198 218.035C90.5422 217.98 91.2679 218.354 92.5358 218.576C93.7891 218.804 95.6309 218.8 97.4375 218.039C99.2423 217.275 100.53 215.959 101.241 214.902C101.967 213.839 102.206 213.059 102.261 213.081Z" fill="#455A64"/>
<path d="M100.083 212.186C100.098 212.217 99.6348 212.482 98.8178 212.744C98.0041 213.011 96.8303 213.242 95.5239 213.288C94.2174 213.343 93.0375 213.221 92.1958 213.093C91.3535 212.958 90.8439 212.819 90.8507 212.782C90.8652 212.678 92.94 213.081 95.5115 212.985C96.7945 212.939 97.9447 212.748 98.7584 212.538C99.5749 212.333 100.064 212.141 100.083 212.186Z" fill="#455A64"/>
<path d="M75.4625 212.811C75.4855 212.835 75.08 213.274 74.3106 213.854C73.5439 214.435 72.392 215.128 71.0105 215.645C69.6273 216.158 68.3018 216.386 67.3425 216.448C66.381 216.513 65.7874 216.446 65.7891 216.413C65.7896 216.363 66.381 216.353 67.3218 216.235C68.262 216.12 69.5511 215.863 70.9052 215.36C72.2576 214.854 73.4006 214.206 74.1874 213.678C74.9759 213.153 75.43 212.773 75.4625 212.811Z" fill="#455A64"/>
<path d="M72.5599 212.683C72.5784 212.756 71.2204 213.073 69.523 212.932C67.8245 212.802 66.5343 212.275 66.564 212.205C66.5909 212.117 67.8929 212.504 69.5471 212.63C71.2002 212.768 72.547 212.592 72.5599 212.683Z" fill="#455A64"/>
<path d="M85.7686 177.049C85.7832 177.083 85.2277 177.372 84.2796 177.723C83.3326 178.076 81.9853 178.469 80.4593 178.715C78.9321 178.958 77.5288 179.005 76.5197 178.966C75.5089 178.928 74.8912 178.826 74.8945 178.79C74.8985 178.743 75.5201 178.768 76.5213 178.751C77.5226 178.736 78.9041 178.656 80.4117 178.416C81.9175 178.174 83.2553 177.818 84.2113 177.521C85.1672 177.223 85.7501 177.005 85.7686 177.049Z" fill="#455A64"/>
<path d="M84.8643 173.656C84.9477 173.656 85.0194 173.916 85.0239 174.236C85.0284 174.557 84.964 174.819 84.88 174.82C84.7965 174.822 84.7248 174.562 84.7209 174.24C84.7164 173.918 84.7809 173.657 84.8643 173.656Z" fill="#455A64"/>
<path d="M84.8671 171.328C84.9505 171.329 85.0172 171.59 85.0149 171.911C85.0132 172.231 84.9438 172.492 84.8598 172.492C84.7764 172.492 84.7097 172.231 84.712 171.909C84.7142 171.587 84.7836 171.327 84.8671 171.328Z" fill="#455A64"/>
<path d="M84.9151 169C84.9986 169.003 85.0602 169.265 85.0518 169.586C85.0434 169.907 84.9689 170.165 84.8854 170.164C84.802 170.162 84.7404 169.9 84.7488 169.578C84.7572 169.256 84.8317 168.998 84.9151 169Z" fill="#455A64"/>
<path d="M85.0078 166.673C85.0912 166.678 85.1472 166.941 85.1332 167.262C85.1187 167.583 85.0391 167.84 84.9557 167.837C84.8723 167.833 84.8163 167.57 84.8303 167.248C84.8443 166.927 84.9238 166.669 85.0078 166.673Z" fill="#455A64"/>
<path d="M85.1459 164.349C85.2293 164.355 85.2803 164.619 85.2601 164.94C85.2394 165.26 85.1549 165.516 85.0714 165.511C84.988 165.506 84.937 165.242 84.9577 164.92C84.9779 164.599 85.0625 164.343 85.1459 164.349Z" fill="#455A64"/>
<path d="M85.3287 162.028C85.4121 162.036 85.4581 162.301 85.4312 162.621C85.4043 162.94 85.3147 163.195 85.2313 163.188C85.1478 163.181 85.1019 162.916 85.1288 162.596C85.1562 162.275 85.2453 162.021 85.3287 162.028Z" fill="#455A64"/>
<path d="M85.5127 160.127C85.5961 160.136 85.6465 160.309 85.6258 160.513C85.6051 160.718 85.5205 160.877 85.4371 160.869C85.3537 160.861 85.3033 160.688 85.324 160.483C85.3453 160.278 85.4298 160.119 85.5127 160.127Z" fill="#455A64"/>
<path d="M66.7922 260.436C66.8745 260.452 66.8896 260.721 66.8269 261.036C66.7636 261.351 66.646 261.593 66.5643 261.577C66.4825 261.561 66.4668 261.292 66.5301 260.977C66.5928 260.662 66.7104 260.42 66.7922 260.436Z" fill="#455A64"/>
<path d="M67.2491 258.154C67.3309 258.17 67.3465 258.439 67.2833 258.754C67.22 259.069 67.1024 259.311 67.0206 259.295C66.9383 259.279 66.9232 259.01 66.9859 258.695C67.0492 258.379 67.1668 258.137 67.2491 258.154Z" fill="#455A64"/>
<path d="M67.7053 255.87C67.7876 255.886 67.8027 256.155 67.74 256.47C67.6767 256.786 67.5591 257.027 67.4774 257.011C67.3956 256.995 67.3799 256.726 67.4432 256.411C67.5059 256.096 67.6235 255.854 67.7053 255.87Z" fill="#455A64"/>
<path d="M68.1624 253.588C68.2442 253.604 68.2599 253.873 68.1971 254.188C68.1339 254.503 68.0163 254.746 67.9345 254.729C67.8527 254.713 67.8371 254.444 67.8998 254.129C67.9625 253.813 68.0801 253.571 68.1624 253.588Z" fill="#455A64"/>
<path d="M68.6193 251.304C68.7017 251.321 68.7168 251.59 68.6541 251.905C68.5908 252.22 68.4732 252.462 68.3914 252.446C68.3097 252.43 68.294 252.161 68.3573 251.845C68.42 251.53 68.5376 251.288 68.6193 251.304Z" fill="#455A64"/>
<path d="M69.0757 249.022C69.158 249.039 69.1731 249.307 69.1104 249.623C69.0477 249.938 68.9295 250.18 68.8478 250.164C68.7654 250.147 68.7503 249.879 68.813 249.563C68.8758 249.248 68.9934 249.006 69.0757 249.022Z" fill="#455A64"/>
<path d="M69.5324 246.739C69.6148 246.755 69.6299 247.024 69.5672 247.339C69.5039 247.655 69.3863 247.897 69.3045 247.88C69.2228 247.864 69.2071 247.595 69.2704 247.28C69.3331 246.965 69.4507 246.723 69.5324 246.739Z" fill="#455A64"/>
<path d="M69.9888 244.456C70.0711 244.472 70.0862 244.741 70.0235 245.056C69.9602 245.372 69.8426 245.613 69.7608 245.597C69.6785 245.581 69.6634 245.312 69.7261 244.997C69.7888 244.682 69.9065 244.439 69.9888 244.456Z" fill="#455A64"/>
<path d="M70.4455 242.173C70.5273 242.189 70.543 242.458 70.4802 242.773C70.417 243.089 70.2994 243.331 70.2176 243.314C70.1358 243.298 70.1202 243.029 70.1834 242.714C70.2462 242.399 70.3638 242.157 70.4455 242.173Z" fill="#455A64"/>
<path d="M70.9027 239.89C70.985 239.907 71.0002 240.176 70.9374 240.491C70.8742 240.806 70.7566 241.048 70.6748 241.032C70.5925 241.016 70.5774 240.747 70.6406 240.431C70.7028 240.116 70.8204 239.874 70.9027 239.89Z" fill="#455A64"/>
<path d="M71.3586 237.607C71.4409 237.623 71.456 237.892 71.3933 238.208C71.33 238.523 71.2124 238.765 71.1307 238.748C71.0489 238.732 71.0332 238.463 71.0965 238.148C71.1592 237.833 71.2768 237.591 71.3586 237.607Z" fill="#455A64"/>
<path d="M71.8159 235.325C71.8982 235.341 71.9134 235.61 71.8506 235.925C71.7874 236.241 71.6698 236.483 71.588 236.466C71.5057 236.45 71.4906 236.181 71.5533 235.866C71.616 235.551 71.7336 235.308 71.8159 235.325Z" fill="#455A64"/>
<path d="M72.2722 233.042C72.3546 233.058 72.3697 233.327 72.3064 233.642C72.2431 233.957 72.1255 234.199 72.0438 234.183C71.962 234.167 71.9463 233.898 72.0096 233.583C72.0729 233.267 72.1905 233.026 72.2722 233.042Z" fill="#455A64"/>
<path d="M72.7293 230.759C72.8116 230.775 72.8267 231.044 72.7634 231.359C72.7002 231.674 72.5826 231.916 72.5008 231.9C72.419 231.884 72.4034 231.615 72.4666 231.3C72.5294 230.985 72.647 230.742 72.7293 230.759Z" fill="#455A64"/>
<path d="M73.1858 228.476C73.2681 228.493 73.2832 228.762 73.2205 229.077C73.1572 229.392 73.0396 229.634 72.9578 229.618C72.8761 229.601 72.8604 229.333 72.9237 229.017C72.9864 228.702 73.104 228.46 73.1858 228.476Z" fill="#455A64"/>
<path d="M73.6428 226.193C73.7251 226.209 73.7402 226.478 73.6775 226.793C73.6142 227.109 73.4966 227.351 73.4149 227.334C73.3331 227.318 73.3174 227.049 73.3807 226.734C73.4429 226.419 73.5605 226.177 73.6428 226.193Z" fill="#455A64"/>
<path d="M74.099 223.91C74.1807 223.927 74.1964 224.195 74.1337 224.511C74.0704 224.826 73.9528 225.068 73.871 225.052C73.7893 225.035 73.7736 224.767 73.8363 224.451C73.8996 224.136 74.0172 223.894 74.099 223.91Z" fill="#455A64"/>
<path d="M74.5559 221.627C74.6382 221.643 74.6533 221.912 74.5906 222.228C74.5273 222.543 74.4097 222.785 74.328 222.769C74.2462 222.752 74.2305 222.483 74.2938 222.168C74.3559 221.853 74.4736 221.611 74.5559 221.627Z" fill="#455A64"/>
<path d="M75.0125 219.345C75.0942 219.361 75.1099 219.63 75.0466 219.945C74.9834 220.261 74.8658 220.503 74.784 220.486C74.7022 220.47 74.6866 220.201 74.7498 219.886C74.8126 219.571 74.9307 219.329 75.0125 219.345Z" fill="#455A64"/>
<path d="M75.469 217.061C75.5513 217.078 75.5664 217.346 75.5037 217.662C75.4404 217.977 75.3228 218.219 75.241 218.203C75.1593 218.186 75.1436 217.918 75.2069 217.602C75.269 217.288 75.3866 217.045 75.469 217.061Z" fill="#455A64"/>
<path d="M75.926 214.779C76.0083 214.795 76.0234 215.064 75.9607 215.379C75.8974 215.695 75.7798 215.937 75.6981 215.92C75.6163 215.904 75.6006 215.635 75.6639 215.32C75.7261 215.005 75.8442 214.763 75.926 214.779Z" fill="#455A64"/>
<path d="M76.3831 212.496C76.4654 212.512 76.4806 212.781 76.4179 213.096C76.3546 213.411 76.237 213.653 76.1552 213.637C76.0735 213.621 76.0578 213.352 76.1205 213.037C76.1832 212.722 76.3008 212.48 76.3831 212.496Z" fill="#455A64"/>
<path d="M76.8392 210.214C76.9216 210.23 76.9367 210.499 76.874 210.814C76.8107 211.129 76.6931 211.371 76.6113 211.355C76.529 211.339 76.5139 211.07 76.5772 210.755C76.6393 210.439 76.7575 210.197 76.8392 210.214Z" fill="#455A64"/>
<path d="M77.2961 207.93C77.3784 207.947 77.3935 208.216 77.3308 208.531C77.2675 208.846 77.1499 209.088 77.0682 209.072C76.9864 209.056 76.9707 208.787 77.034 208.471C77.0962 208.157 77.2138 207.914 77.2961 207.93Z" fill="#455A64"/>
<path d="M77.753 205.648C77.8353 205.665 77.8504 205.933 77.7872 206.249C77.7239 206.564 77.6063 206.806 77.5245 206.79C77.4422 206.773 77.4271 206.505 77.4898 206.189C77.5531 205.874 77.6712 205.631 77.753 205.648Z" fill="#455A64"/>
<path d="M78.2092 203.365C78.2915 203.381 78.3066 203.65 78.2439 203.965C78.1806 204.281 78.063 204.523 77.9813 204.506C77.8995 204.49 77.8838 204.221 77.9471 203.906C78.0093 203.591 78.1269 203.349 78.2092 203.365Z" fill="#455A64"/>
<path d="M78.6661 201.082C78.7478 201.099 78.7635 201.367 78.7002 201.683C78.637 201.998 78.5194 202.24 78.4376 202.224C78.3553 202.207 78.3402 201.939 78.4029 201.623C78.4662 201.308 78.5843 201.066 78.6661 201.082Z" fill="#455A64"/>
<path d="M79.1223 198.799C79.2046 198.815 79.2197 199.084 79.157 199.399C79.0937 199.715 78.9761 199.957 78.8944 199.94C78.8126 199.924 78.7969 199.655 78.8602 199.34C78.9229 199.025 79.0405 198.783 79.1223 198.799Z" fill="#455A64"/>
<path d="M79.5793 196.516C79.6611 196.533 79.6767 196.801 79.614 197.117C79.5507 197.432 79.4331 197.675 79.3514 197.658C79.2696 197.641 79.2539 197.373 79.3172 197.057C79.3794 196.742 79.4975 196.5 79.5793 196.516Z" fill="#455A64"/>
<path d="M80.0359 194.233C80.1182 194.249 80.1334 194.518 80.0701 194.834C80.0068 195.149 79.8892 195.391 79.8074 195.374C79.7257 195.358 79.71 195.089 79.7733 194.774C79.836 194.459 79.9536 194.217 80.0359 194.233Z" fill="#455A64"/>
<path d="M80.4924 191.951C80.5742 191.967 80.5898 192.236 80.5271 192.551C80.4638 192.867 80.3462 193.109 80.2645 193.092C80.1827 193.076 80.167 192.807 80.2303 192.492C80.2925 192.177 80.4106 191.934 80.4924 191.951Z" fill="#455A64"/>
<path d="M80.95 189.668C81.0317 189.684 81.0474 189.953 80.9841 190.268C80.9209 190.583 80.8033 190.825 80.7215 190.809C80.6397 190.793 80.6241 190.524 80.6873 190.209C80.7501 189.893 80.8677 189.652 80.95 189.668Z" fill="#455A64"/>
<path d="M81.4062 187.386C81.4885 187.402 81.5036 187.671 81.4404 187.986C81.3776 188.301 81.2595 188.543 81.1777 188.527C81.0954 188.511 81.0803 188.242 81.1436 187.927C81.2063 187.611 81.3244 187.369 81.4062 187.386Z" fill="#455A64"/>
<path d="M81.8625 185.102C81.9443 185.119 81.96 185.387 81.8972 185.703C81.834 186.018 81.7163 186.26 81.6346 186.244C81.5528 186.227 81.5372 185.959 81.6004 185.643C81.6626 185.329 81.7802 185.086 81.8625 185.102Z" fill="#455A64"/>
<path d="M82.3197 182.819C82.402 182.835 82.4172 183.104 82.3544 183.419C82.2912 183.735 82.1735 183.977 82.0918 183.96C82.0095 183.944 81.9944 183.675 82.0576 183.36C82.1198 183.045 82.2379 182.802 82.3197 182.819Z" fill="#455A64"/>
<path d="M82.7766 180.536C82.8583 180.553 82.874 180.821 82.8113 181.137C82.748 181.452 82.6304 181.694 82.5487 181.678C82.4669 181.661 82.4512 181.393 82.5145 181.077C82.5767 180.762 82.6943 180.52 82.7766 180.536Z" fill="#455A64"/>
<path d="M83.2324 178.254C83.3147 178.27 83.3298 178.539 83.2665 178.854C83.2033 179.169 83.0857 179.411 83.0039 179.395C82.9216 179.379 82.9065 179.11 82.9697 178.795C83.0325 178.479 83.1501 178.237 83.2324 178.254Z" fill="#455A64"/>
<path d="M128.881 107.853C128.881 107.853 132.755 102.044 132.859 101.993C132.859 101.993 136.356 96.1027 137.519 96.1016C138.689 96.1004 138.262 97.2949 137.061 99.4056C136.009 101.255 135.902 102.411 135.902 102.411L138.775 104.145C138.775 104.145 140.693 103.403 140.774 105.191C140.8 105.79 140.643 106.53 140.443 107.62C140.327 108.257 140.038 108.936 139.437 108.697C139.162 108.587 138.937 108.375 138.923 107.977C138.886 106.919 139.084 106.531 138.949 106.53C138.777 106.53 136.882 112.081 136.882 112.081L128.881 107.853Z" fill="#FFBE9D"/>
<path d="M136.705 103.292C137.001 103.09 137.298 102.886 137.627 102.743C137.955 102.6 138.32 102.521 138.673 102.581C138.895 102.618 139.114 102.715 139.255 102.89C139.449 103.131 139.461 103.479 139.366 103.772C139.27 104.066 139.081 104.318 138.895 104.564" fill="#FFBE9D"/>
<path d="M135.395 102.121C135.675 101.93 135.957 101.737 136.268 101.603C136.579 101.469 136.925 101.394 137.259 101.45C137.469 101.484 137.677 101.576 137.811 101.741C137.994 101.968 138.006 102.296 137.915 102.572C137.824 102.849 137.198 103.489 137.022 103.721" fill="#FFBE9D"/>
<path d="M130.231 104.574L124.632 116.548L130.804 122.857L134.021 113.932C134.021 113.932 135.744 114.276 136.447 113.133C137.232 111.857 138.262 108.168 138.262 108.168L130.231 104.574Z" fill="#FFBE9D"/>
<path d="M134.232 104.243C134.171 104.225 134.311 103.423 134.894 102.587C135.191 102.174 135.568 101.892 135.854 101.738C136.141 101.581 136.337 101.529 136.355 101.564C136.408 101.653 135.685 102.011 135.138 102.767C134.602 103.529 134.325 104.283 134.232 104.243Z" fill="#EB996E"/>
<path d="M140.443 104.293C140.418 104.333 140.226 104.229 139.9 104.172C139.58 104.115 139.106 104.123 138.677 104.359C138.249 104.597 137.97 104.988 137.768 105.261C137.567 105.541 137.435 105.717 137.397 105.696C137.362 105.676 137.425 105.468 137.585 105.149C137.747 104.84 138.016 104.383 138.53 104.093C139.047 103.809 139.608 103.843 139.953 103.964C140.308 104.087 140.465 104.266 140.443 104.293Z" fill="#EB996E"/>
<path d="M138.358 102.604C138.375 102.695 137.667 102.815 137.043 103.378C136.417 103.931 136.109 104.581 136.024 104.539C135.955 104.521 136.146 103.773 136.843 103.15C137.189 102.845 137.583 102.673 137.874 102.609C138.167 102.545 138.353 102.567 138.358 102.604Z" fill="#EB996E"/>
<path d="M139.734 105.191C139.813 105.16 139.96 105.625 139.666 106.089C139.376 106.556 138.894 106.626 138.887 106.542C138.862 106.459 139.189 106.293 139.41 105.928C139.641 105.571 139.649 105.204 139.734 105.191Z" fill="#EB996E"/>
<path d="M128.894 107.62C128.894 107.62 128.699 104.046 129.562 103.237C130.426 102.428 132.901 103.269 132.901 103.269" fill="#FFBE9D"/>
<path d="M133.251 101.565C133.316 101.617 132.743 102.529 131.97 103.602C131.196 104.675 130.513 105.507 130.443 105.461C130.373 105.415 130.947 104.503 131.724 103.424C132.501 102.345 133.185 101.513 133.251 101.565Z" fill="#EB996E"/>
<path d="M83.6808 74.4728L83.5957 102.359L95.5595 102.929L95.9056 96.1464C95.9056 96.1464 100.155 96.9904 101.251 93.0435C101.952 90.5224 101.777 71.0405 101.777 71.0405L83.6808 74.4728Z" fill="#FFBE9D"/>
<path d="M103.35 73.0044C101.465 73.5436 101.056 76.6236 101.056 76.6236L98.1004 83.1521C96.5946 81.9733 94.573 82.0411 94.19 84.6865C93.9133 86.5984 96.2905 86.9853 96.2905 86.9853C94.9068 89.3401 93.9677 91.2452 91.9528 93.4852C89.7721 95.9095 88.5502 96.1542 86.1853 96.1934H83.5774C83.5774 96.1934 82.3006 92.0494 79.9369 81.686C77.3138 70.1887 90.9095 71.6699 93.4301 68.7349C97.5354 63.9553 109.29 71.3036 103.35 73.0044Z" fill="#263238"/>
<path d="M80.1863 82.7698C77.9827 81.2897 77.7839 77.1474 79.0691 74.6638C80.3549 72.1802 83.0608 70.4974 85.8569 70.443C86.231 70.4358 86.6168 70.4537 86.9657 70.3187C87.4831 70.1188 87.818 69.6288 88.1563 69.1892C90.1258 66.6283 92.0611 64.1122 95.7319 64.1128C96.3283 64.1128 96.988 64.1128 98.0397 64.6851C98.5633 64.9702 99.3019 65.9367 99.4257 66.5197C100.116 66.1926 100.818 65.8617 101.573 65.7474C102.328 65.6332 103.156 65.7654 103.727 66.2727C104.297 66.7806 104.508 67.7147 104.065 68.3363C105.302 68.2579 106.475 69.2822 106.67 70.5063C106.865 71.7305 105.11 72.5912 104.928 72.6864C104.928 72.6864 105.891 74.7024 103.594 75.9109C102.67 76.3975 101.467 75.8112 101.331 75.7406" fill="#263238"/>
<path d="M88.9208 85.451C88.9981 85.4431 89.1168 86.4102 88.8525 87.5683C88.5949 88.7281 88.0735 89.5513 88.0069 89.511C87.9268 89.4707 88.3104 88.6167 88.5568 87.5017C88.8116 86.3895 88.8312 85.4532 88.9208 85.451Z" fill="#455A64"/>
<path d="M90.3677 84.083C90.4483 84.0864 90.4656 85.0087 90.2562 86.1214C90.0501 87.2353 89.7013 88.0893 89.6245 88.063C89.5422 88.0366 89.7561 87.158 89.9583 86.066C90.1644 84.9746 90.2814 84.0774 90.3677 84.083Z" fill="#455A64"/>
<path d="M94.5113 79.4802C94.5398 79.52 94.201 79.7669 93.771 80.2715C93.337 80.7704 92.843 81.5505 92.4818 82.4969C92.1195 83.4439 91.9207 84.3505 91.7667 85.0046C91.6166 85.6604 91.513 86.0669 91.4705 86.0591C91.4307 86.0524 91.4593 85.6346 91.5562 84.9648C91.657 84.2973 91.825 83.3666 92.199 82.3877C92.5726 81.4083 93.1208 80.6064 93.6136 80.1264C94.1036 79.6387 94.4939 79.4511 94.5113 79.4802Z" fill="#455A64"/>
<path d="M96.1865 76.3472C96.2218 76.3376 96.3439 76.6171 96.4189 77.1015C96.4945 77.5842 96.4968 78.2752 96.3148 79.0055C96.1305 79.7357 95.8024 80.3439 95.5078 80.7336C95.2133 81.1262 94.9736 81.3144 94.9473 81.2892C94.8722 81.232 95.682 80.3316 96.0208 78.9316C96.3825 77.5383 96.0936 76.3623 96.1865 76.3472Z" fill="#455A64"/>
<path d="M81.9082 83.3119C81.8673 83.3852 81.5011 83.2581 81.0901 83.0285C80.679 82.7989 80.3789 82.5536 80.4197 82.4803C80.4606 82.4075 80.8269 82.534 81.2379 82.7642C81.6489 82.9932 81.9491 83.2391 81.9082 83.3119Z" fill="#455A64"/>
<path d="M87.6882 80.3343C87.7672 80.346 87.7179 80.9368 87.3466 81.5472C86.9787 82.1604 86.4786 82.4785 86.4316 82.4141C86.3745 82.3475 86.7508 81.9538 87.0868 81.3904C87.4295 80.831 87.6025 80.3152 87.6882 80.3343Z" fill="#455A64"/>
<path d="M89.4658 79.3802C89.5431 79.3975 89.4177 80.1054 88.9333 80.8294C88.4539 81.5574 87.8503 81.9478 87.8043 81.8834C87.7478 81.8156 88.2316 81.3458 88.6807 80.662C89.136 79.9833 89.3813 79.3544 89.4658 79.3802Z" fill="#455A64"/>
<path d="M98.2991 67.7013C98.2784 67.7254 98.0745 67.5305 97.6433 67.2852C97.2116 67.0483 96.5228 66.789 95.6391 66.7672C94.7638 66.7398 93.6892 66.9481 92.698 67.5574C91.7068 68.1655 90.8298 69.1562 90.1931 70.3473C89.7294 71.213 89.4085 72.1146 89.1767 72.9619L89.1285 73.1372L88.9678 73.0526C88.0797 72.5862 87.1389 72.3812 86.2989 72.37C85.4555 72.347 84.7135 72.5016 84.1261 72.6982C82.9439 73.1019 82.3828 73.6334 82.352 73.5858C82.343 73.5751 82.4757 73.4418 82.7524 73.2313C83.0307 73.0246 83.467 72.7558 84.065 72.5268C84.6614 72.3 85.4247 72.1169 86.3022 72.1219C87.1758 72.1152 88.1642 72.3129 89.105 72.7967L88.8967 72.8874C89.1252 72.0211 89.4489 71.096 89.9271 70.2034C90.584 68.9747 91.5029 67.9443 92.5546 67.3177C93.6085 66.6894 94.7364 66.4962 95.6492 66.5522C96.5709 66.6031 97.2788 66.9072 97.7049 67.1833C97.9149 67.33 98.0729 67.4487 98.1647 67.5478C98.2599 67.6419 98.3064 67.694 98.2991 67.7013Z" fill="#455A64"/>
<path d="M104.591 69.219C104.57 69.2134 104.924 69.1294 105.278 69.5298C105.439 69.7224 105.588 70.0271 105.553 70.4034C105.517 70.7786 105.258 71.1655 104.858 71.3968C104.464 71.6382 103.926 71.7183 103.405 71.5967C102.881 71.4825 102.377 71.2047 101.905 70.8699C101.43 70.5372 100.973 70.1508 100.438 69.8647C99.9053 69.5751 99.305 69.364 98.6711 69.2436C97.3976 69.0062 96.1326 69.1495 95.0641 69.4906C93.9895 69.835 93.0974 70.3524 92.398 70.8458C91.0013 71.8499 90.312 72.6904 90.2694 72.6467C90.2554 72.6344 90.415 72.4177 90.7426 72.0571C91.073 71.7009 91.5725 71.1986 92.2714 70.6722C92.968 70.1475 93.8713 69.5959 94.9773 69.2246C96.08 68.8561 97.3943 68.6971 98.7271 68.9451C99.3907 69.0711 100.021 69.2951 100.581 69.6037C101.147 69.9123 101.609 70.3132 102.067 70.6414C102.522 70.974 102.987 71.2372 103.46 71.3509C103.931 71.4702 104.395 71.4103 104.751 71.2098C105.108 71.0183 105.34 70.6918 105.385 70.3815C105.43 70.0663 105.317 69.7846 105.185 69.602C104.901 69.2223 104.576 69.2526 104.591 69.219Z" fill="#455A64"/>
<path d="M70.9446 105.279L60.2598 123.223C59.0642 125.316 57.9577 127.548 56.9021 129.861C56.0503 132.077 56.5425 134.969 58.0299 136.808L57.7281 136.374C58.913 137.839 60.6966 138.691 62.5816 138.691H62.8577C65.3418 138.691 67.5891 137.218 68.5803 134.94L72.0131 129.731L70.9446 105.279Z" fill="#3D599E"/>
<path d="M103.184 101.851C100.315 100.386 97.4835 100.055 94.3934 99.9646C90.7954 99.8599 85.723 99.3565 81.8455 99.7686C81.8455 99.7686 70.7978 100.586 70.0306 108.157L71.5393 143.717L69.0098 158.784L104.415 159.854L104.162 142.079C104.599 132.83 103.665 119.735 103.665 119.735C104.21 114.763 106.931 112.525 107.317 109.292C107.658 106.434 105.747 103.16 103.184 101.851Z" fill="#3D599E"/>
<path d="M93.2056 144.229C93.2174 144.242 93.0393 144.426 92.6848 144.722C92.3309 145.019 91.7888 145.415 91.0709 145.829C89.6479 146.659 87.432 147.492 84.8818 147.537C82.331 147.582 80.0865 146.828 78.635 146.048C77.9031 145.66 77.347 145.284 76.983 144.999C76.6179 144.716 76.4336 144.539 76.4448 144.525C76.4801 144.476 77.2635 145.14 78.7313 145.857C80.1851 146.575 82.3864 147.277 84.8762 147.233C87.3648 147.189 89.5399 146.41 90.9673 145.64C92.4087 144.872 93.1692 144.181 93.2056 144.229Z" fill="#263238"/>
<path d="M69.9775 108.564C69.9881 108.563 70.0015 108.683 70.0189 108.91C70.0346 109.17 70.0542 109.499 70.0788 109.903C70.1208 110.807 70.1785 112.046 70.2491 113.56C70.3795 116.683 70.5576 120.93 70.7542 125.623C70.967 130.316 71.1591 134.563 71.3007 137.686C71.378 139.198 71.4407 140.437 71.4867 141.34C71.504 141.745 71.518 142.074 71.5292 142.335C71.5354 142.562 71.5337 142.683 71.5236 142.683C71.513 142.684 71.4945 142.565 71.4687 142.339C71.443 142.08 71.4099 141.752 71.3696 141.349C71.2867 140.488 71.1949 139.241 71.0874 137.699C70.8774 134.614 70.6511 130.35 70.4523 125.636C70.253 120.925 70.1152 116.657 70.0363 113.568C70.0055 112.053 69.9808 110.812 69.9623 109.908C69.9612 109.503 69.9601 109.173 69.959 108.912C69.9601 108.684 69.9668 108.565 69.9775 108.564Z" fill="#263238"/>
<path d="M67.76 110.447C67.769 110.452 67.727 110.547 67.6379 110.723C67.5299 110.929 67.3977 111.182 67.2364 111.489C66.8791 112.149 66.3477 113.096 65.6662 114.252C64.3222 116.575 62.3011 119.686 60.2588 123.223C59.2385 124.989 58.3727 126.738 57.6229 128.336C56.8792 129.932 56.4956 131.498 56.5936 132.823C56.6687 134.148 57.0618 135.177 57.4135 135.826C57.764 136.483 58.0541 136.787 58.0289 136.808C58.0211 136.814 57.9477 136.741 57.8144 136.593C57.6856 136.442 57.5042 136.21 57.311 135.884C56.9207 135.241 56.485 134.198 56.3797 132.837C56.2498 131.474 56.6283 129.842 57.3681 128.222C58.1101 126.604 58.9691 124.851 59.9962 123.073C62.0469 119.522 64.0937 116.434 65.4836 114.142C66.1629 113.026 66.7212 112.109 67.1351 111.43C67.3159 111.134 67.4643 110.891 67.5853 110.693C67.6911 110.527 67.7511 110.442 67.76 110.447Z" fill="#263238"/>
<path d="M132.886 120.209L124.693 114.85L119.522 123.807C119.522 123.807 112.353 113.843 109.097 108.005C106.1 102.632 102.222 101.185 100.351 100.796C99.7987 100.68 99.2975 101.141 99.3586 101.702L102.184 121.077C102.54 122.085 108.454 130.658 111.759 134.972C117.274 142.172 125.4 137.564 127.632 132.525C129.403 128.526 132.16 122.449 132.886 120.209Z" fill="#3D599E"/>
<path d="M121.877 131.892C121.834 131.894 121.785 131.403 121.721 130.613C121.652 129.825 121.572 128.734 121.325 127.562C121.079 126.391 120.67 125.38 120.279 124.703C119.894 124.021 119.567 123.652 119.604 123.618C119.627 123.594 120.017 123.916 120.462 124.591C120.912 125.26 121.37 126.296 121.622 127.499C121.875 128.7 121.922 129.808 121.935 130.603C121.944 131.399 121.918 131.89 121.877 131.892Z" fill="#263238"/>
<path d="M124.276 127.889C124.228 127.892 124.188 127.473 123.985 126.84C123.781 126.211 123.375 125.367 122.674 124.643C121.984 123.91 121.145 123.464 120.496 123.451C119.842 123.418 119.479 123.68 119.457 123.634C119.426 123.617 119.77 123.262 120.498 123.237C121.225 123.194 122.17 123.662 122.893 124.433C123.636 125.202 124.033 126.113 124.191 126.782C124.349 127.457 124.31 127.889 124.276 127.889Z" fill="#263238"/>
<path d="M99.8173 103.189C99.824 103.196 99.7557 103.275 99.6208 103.416C99.5452 103.493 99.4623 103.578 99.3688 103.674C99.2736 103.788 99.1694 103.914 99.0552 104.052C98.6004 104.627 98.0029 105.537 97.6367 106.806C97.2464 108.06 97.0918 109.656 97.3259 111.38C97.4457 112.24 97.6568 113.135 98.0298 114C98.3921 114.875 98.872 115.743 99.3542 116.63C101.36 120.152 103.425 123.2 104.918 125.398C105.658 126.462 106.266 127.336 106.717 127.984C107.144 128.592 107.386 128.926 107.367 128.94C107.359 128.946 107.288 128.871 107.161 128.722C107.034 128.572 106.849 128.349 106.622 128.054C106.16 127.469 105.518 126.604 104.742 125.521C103.201 123.349 101.106 120.318 99.0893 116.778C98.6032 115.883 98.1233 115.011 97.7554 114.114C97.374 113.218 97.1635 112.297 97.0487 111.416C96.8247 109.65 97.0061 108.018 97.4317 106.741C97.8338 105.45 98.4744 104.536 98.9644 103.975C99.0882 103.842 99.2008 103.72 99.3032 103.61C99.4052 103.521 99.4959 103.442 99.5782 103.37C99.7294 103.244 99.8106 103.181 99.8173 103.189Z" fill="#263238"/>
<path d="M99.8387 154.667C99.8421 154.677 99.7558 154.714 99.589 154.775C99.3868 154.845 99.1443 154.929 98.8531 155.03C98.5333 155.14 98.1391 155.267 97.6749 155.391C97.2112 155.518 96.687 155.678 96.0951 155.805C94.9197 156.094 93.5001 156.359 91.913 156.573C90.3238 156.769 88.5654 156.904 86.7162 156.915C84.8666 156.914 83.107 156.789 81.5161 156.602C79.9274 156.397 78.5066 156.141 77.3295 155.858C76.737 155.734 76.2118 155.576 75.7475 155.453C75.2822 155.332 74.8879 155.207 74.567 155.098C74.2753 154.999 74.0322 154.917 73.8295 154.848C73.6621 154.787 73.5758 154.751 73.5792 154.741C73.5826 154.731 73.675 154.748 73.848 154.79C74.0541 154.843 74.3027 154.908 74.6001 154.985C74.9249 155.076 75.3225 155.184 75.7901 155.289C76.2566 155.397 76.783 155.538 77.3754 155.648C78.5526 155.903 79.9688 156.136 81.5485 156.324C83.1305 156.494 84.8778 156.61 86.7146 156.612C88.5508 156.6 90.2969 156.475 91.8778 156.295C93.4564 156.098 94.8709 155.857 96.0469 155.596C96.6389 155.482 97.1642 155.337 97.6301 155.227C98.0971 155.12 98.4942 155.009 98.8184 154.916C99.1158 154.837 99.3638 154.771 99.5699 154.716C99.7424 154.675 99.8354 154.657 99.8387 154.667Z" fill="#263238"/>
<g opacity="0.3">
<path d="M69.3379 133.791L70.9372 131.31L70.1028 111.768L69.3379 133.791Z" fill="black"/>
</g>
<g opacity="0.3">
<path d="M96.9521 110.446C96.9521 110.446 97.0037 117.568 98.6501 120.388C100.296 123.209 104.147 129.305 104.134 128.941C104.121 128.577 103.914 123.915 103.914 123.915C103.914 123.915 96.9857 114.432 96.9521 110.446Z" fill="black"/>
</g>
<path d="M67.9231 134.384C67.9276 134.396 67.7551 134.484 67.4118 134.532C67.0713 134.582 66.5544 134.559 65.9698 134.346C65.3863 134.136 64.7484 133.733 64.1789 133.146C63.6077 132.556 63.1362 131.793 62.6854 130.987C62.2357 130.181 61.8292 129.406 61.3655 128.772C60.9035 128.138 60.3922 127.639 59.905 127.305C58.9194 126.622 58.1169 126.666 58.132 126.607C58.1315 126.594 58.3219 126.563 58.6635 126.61C59.004 126.655 59.4923 126.805 60.0181 127.133C60.5428 127.459 61.0911 127.964 61.5811 128.612C62.0733 129.261 62.4922 130.043 62.9396 130.845C63.3865 131.644 63.8412 132.391 64.3732 132.961C64.9052 133.53 65.5005 133.931 66.0437 134.154C67.1536 134.618 67.9248 134.32 67.9231 134.384Z" fill="white"/>
<path d="M70.0899 122.113C70.0401 122.127 69.9186 121.69 69.5764 121.06C69.2387 120.431 68.6356 119.628 67.767 118.969C66.8946 118.313 65.9582 117.952 65.2599 117.799C64.561 117.643 64.1074 117.645 64.1074 117.593C64.1046 117.565 64.5627 117.487 65.2991 117.597C66.0316 117.702 67.0301 118.049 67.9429 118.736C68.8523 119.426 69.4594 120.291 69.7606 120.967C70.067 121.646 70.1179 122.109 70.0899 122.113Z" fill="white"/>
<path d="M97.0818 111.625C97.0751 111.654 96.6976 111.552 96.0015 111.496C95.3071 111.44 94.2874 111.464 93.075 111.762C91.8615 112.05 90.4721 112.603 89.0139 113.386C87.5467 114.153 85.9938 115.127 84.2354 115.931C82.4815 116.752 80.6469 117.167 78.9753 117.27C77.2981 117.364 75.7855 117.168 74.5591 116.859C73.3288 116.556 72.3824 116.147 71.7547 115.828C71.4355 115.677 71.2036 115.529 71.0435 115.436C70.8844 115.34 70.8038 115.286 70.8088 115.277C70.8223 115.252 71.1627 115.442 71.8034 115.725C72.4412 116.01 73.3882 116.385 74.6073 116.658C75.8231 116.938 77.3127 117.108 78.9585 117.002C80.6015 116.884 82.3874 116.473 84.1155 115.665C85.8493 114.873 87.4055 113.907 88.8901 113.147C90.3668 112.371 91.7892 111.827 93.0296 111.56C94.27 111.282 95.3127 111.29 96.0139 111.381C96.365 111.428 96.6349 111.482 96.8135 111.535C96.9922 111.585 97.0846 111.616 97.0818 111.625Z" fill="white"/>
<path d="M103.966 131C103.969 131.01 103.858 131.047 103.643 131.109C103.427 131.161 103.114 131.275 102.695 131.344C101.866 131.527 100.634 131.666 99.1137 131.629C97.5922 131.598 95.7929 131.334 93.838 130.887C91.8819 130.439 89.7735 129.798 87.5615 129.147C85.3506 128.502 83.2114 127.998 81.2368 127.742C79.2634 127.495 77.458 127.476 75.9717 127.7C74.4849 127.916 73.3156 128.293 72.5501 128.642C71.7807 128.981 71.3752 129.219 71.3596 129.192C71.3545 129.183 71.452 129.119 71.644 129.005C71.8406 128.9 72.1111 128.703 72.5031 128.538C73.2613 128.155 74.4373 127.741 75.9409 127.497C77.4451 127.243 79.2746 127.24 81.2699 127.475C83.2663 127.719 85.4228 128.219 87.6432 128.867C89.8586 129.519 91.9586 130.166 93.899 130.625C95.8388 131.084 97.6168 131.366 99.121 131.423C100.624 131.485 101.845 131.38 102.674 131.233C103.505 131.091 103.959 130.972 103.966 131Z" fill="white"/>
<path d="M104.161 142.079C104.134 142.172 102.501 141.117 99.5026 140.823C98.0152 140.661 96.2238 140.749 94.2604 141.005C92.2954 141.272 90.1568 141.722 87.8983 142.146C85.6409 142.568 83.4771 142.94 81.4868 143.113C79.4983 143.292 77.6872 143.279 76.187 143.078C74.6862 142.883 73.4984 142.553 72.7122 142.245C72.3118 142.111 72.0223 141.951 71.8179 141.865C71.6168 141.771 71.5132 141.718 71.5177 141.709C71.5289 141.682 71.9568 141.869 72.7503 142.138C73.5421 142.411 74.7243 142.707 76.2116 142.874C77.699 143.046 79.4899 143.038 81.4628 142.846C83.4373 142.658 85.5894 142.281 87.8456 141.859C90.0985 141.436 92.2456 140.992 94.2263 140.738C96.2064 140.495 98.0203 140.428 99.5256 140.618C101.03 140.799 102.217 141.153 102.991 141.493C103.388 141.638 103.668 141.816 103.869 141.909C104.065 142.012 104.166 142.07 104.161 142.079Z" fill="white"/>
<path d="M85.9598 156.357C85.9475 156.372 85.7487 156.246 85.4009 156.004C85.0548 155.76 84.5492 155.414 83.918 154.997C82.6575 154.161 80.8688 153.077 78.7957 152.067C76.7204 151.06 74.7632 150.321 73.3273 149.845C72.61 149.607 72.0253 149.423 71.6193 149.301C71.2144 149.177 70.9921 149.098 70.9972 149.079C71.0022 149.059 71.2335 149.1 71.6484 149.191C72.0645 149.279 72.6598 149.434 73.3889 149.649C74.8477 150.076 76.8318 150.79 78.9228 151.805C81.0111 152.823 82.7975 153.943 84.034 154.827C84.6533 155.268 85.1422 155.641 85.4687 155.914C85.7968 156.184 85.9721 156.341 85.9598 156.357Z" fill="white"/>
<path d="M103.198 156.167C103.213 156.194 102.79 156.475 102.022 156.757C101.257 157.04 100.132 157.282 98.8791 157.245C97.6253 157.205 96.5181 156.893 95.7722 156.564C95.0229 156.235 94.6175 155.928 94.6343 155.902C94.6589 155.859 95.0974 156.1 95.8478 156.372C96.596 156.645 97.6734 156.914 98.8881 156.954C100.102 156.989 101.194 156.788 101.958 156.561C102.724 156.337 103.177 156.123 103.198 156.167Z" fill="white"/>
<path d="M115.453 119.197C115.466 119.198 115.473 119.38 115.388 119.694C115.304 120.008 115.104 120.446 114.733 120.897C114.363 121.348 113.824 121.798 113.159 122.178C112.493 122.559 111.712 122.857 110.913 123.184C110.116 123.511 109.369 123.856 108.784 124.298C108.2 124.74 107.772 125.261 107.518 125.751C106.991 126.752 107.223 127.498 107.16 127.492C107.148 127.496 107.074 127.328 107.051 127.002C107.026 126.679 107.086 126.193 107.333 125.66C107.579 125.129 108.014 124.563 108.621 124.085C109.231 123.606 109.998 123.245 110.803 122.914C111.608 122.585 112.381 122.298 113.028 121.943C113.677 121.59 114.206 121.175 114.577 120.762C115.337 119.93 115.397 119.176 115.453 119.197Z" fill="white"/>
<path d="M108.573 107.312C108.593 107.317 108.558 107.497 108.479 107.82C108.442 107.982 108.388 108.179 108.306 108.4C108.225 108.623 108.147 108.882 108.017 109.151C107.788 109.702 107.447 110.328 107.009 110.985C106.558 111.634 106.003 112.308 105.343 112.937C104.673 113.559 103.967 114.071 103.292 114.481C102.609 114.878 101.963 115.18 101.4 115.375C101.124 115.488 100.86 115.55 100.634 115.617C100.407 115.687 100.208 115.727 100.043 115.754C99.7158 115.814 99.5343 115.837 99.5304 115.818C99.5187 115.763 100.24 115.624 101.325 115.183C101.87 114.968 102.493 114.652 103.153 114.251C103.805 113.837 104.49 113.331 105.143 112.725C105.788 112.11 106.335 111.458 106.788 110.832C107.228 110.198 107.581 109.595 107.83 109.065C108.336 108.008 108.52 107.297 108.573 107.312Z" fill="white"/>
<path d="M97.793 99.9647C97.8002 99.9832 97.5113 100.113 96.9804 100.33C96.4518 100.554 95.6694 100.834 94.69 101.14C93.7117 101.45 92.5256 101.754 91.195 102.026C89.8617 102.284 88.3822 102.5 86.8186 102.621C85.254 102.73 83.7582 102.732 82.4014 102.672C81.045 102.597 79.8276 102.469 78.8146 102.305C77.801 102.145 76.9862 101.982 76.4306 101.838C75.874 101.701 75.5688 101.615 75.5733 101.595C75.5778 101.576 75.8914 101.624 76.4536 101.727C77.0142 101.836 77.8312 101.968 78.8431 102.101C79.8545 102.238 81.0658 102.344 82.4131 102.403C83.7611 102.448 85.2445 102.438 86.7974 102.33C88.3486 102.21 89.8174 102.003 91.1441 101.762C92.4679 101.507 93.6507 101.226 94.6312 100.942C95.6123 100.663 96.4019 100.414 96.9406 100.223C97.4822 100.04 97.7857 99.9462 97.793 99.9647Z" fill="white"/>
<path d="M119.798 124.34C119.814 124.335 119.898 124.533 119.996 124.907C120.095 125.281 120.201 125.836 120.236 126.529C120.334 127.919 120.068 129.825 119.686 131.883C119.5 132.917 119.274 133.906 118.924 134.761C118.582 135.619 118.111 136.327 117.623 136.828C117.139 137.337 116.646 137.637 116.292 137.796C115.935 137.956 115.721 137.992 115.717 137.977C115.685 137.924 116.565 137.709 117.472 136.688C117.923 136.186 118.355 135.498 118.674 134.662C118.999 133.828 119.214 132.858 119.399 131.83C119.781 129.771 120.073 127.901 120.03 126.536C120.01 125.172 119.742 124.354 119.798 124.34Z" fill="white"/>
<path d="M131.024 125.775C130.975 125.798 130.712 125.204 130.125 124.351C129.542 123.498 128.585 122.415 127.293 121.509C125.996 120.608 124.65 120.082 123.648 119.828C122.645 119.57 121.997 119.528 122.002 119.474C122.003 119.454 122.165 119.451 122.459 119.463C122.754 119.468 123.179 119.522 123.695 119.627C124.214 119.729 124.818 119.913 125.467 120.176C126.11 120.451 126.794 120.81 127.46 121.27C128.12 121.737 128.693 122.255 129.172 122.764C129.642 123.283 130.023 123.786 130.297 124.238C130.574 124.687 130.771 125.068 130.877 125.342C130.99 125.614 131.043 125.767 131.024 125.775Z" fill="white"/>
<g opacity="0.3">
<path d="M98.1161 155.109C98.7013 154.845 98.8749 154.046 98.5081 153.585C98.1413 153.123 97.4844 153.02 96.8947 153.032C94.0023 153.089 91.4773 155.025 88.6313 155.545C86.4664 155.941 84.2353 155.494 82.1292 154.855C80.023 154.216 77.9684 153.383 75.8057 152.974C75.3537 152.889 74.8822 152.823 74.4381 152.943C73.9941 153.063 73.5825 153.413 73.5265 153.87C73.4705 154.327 73.578 154.665 74.2589 154.898C74.2589 154.898 81.4208 156.889 86.6064 156.811C92.1078 156.729 98.1161 155.109 98.1161 155.109Z" fill="black"/>
</g>
<path d="M247.348 237.312H208.282V242.68H247.348V237.312Z" fill="#263238"/>
<path d="M247.415 242.746H208.216V237.245H247.415V242.746ZM208.349 242.613H247.281V237.378H208.349V242.613Z" fill="#263238"/>
<path d="M211.904 240.893L217.528 268.634H238.334L243.769 242.679L211.904 240.893Z" fill="#263238"/>
<path d="M211.904 266.01L214.904 270.134H240.193L243.769 266.01H211.904Z" fill="#455A64"/>
<path d="M226.348 241.703C226.272 241.703 226.173 228.851 226.128 213.001C226.084 197.145 226.11 184.296 226.187 184.296C226.263 184.296 226.362 197.145 226.407 213C226.451 228.851 226.425 241.703 226.348 241.703Z" fill="#263238"/>
<path d="M235.05 209.541C235.059 209.546 235.022 209.648 234.945 209.84C234.854 210.058 234.738 210.334 234.597 210.672C234.519 210.855 234.434 211.055 234.342 211.27C234.261 211.497 234.174 211.74 234.081 212C233.987 212.263 233.886 212.542 233.78 212.837C233.676 213.134 233.594 213.457 233.491 213.791C233.064 215.123 232.725 216.756 232.399 218.574C232.114 220.401 231.901 222.423 231.794 224.555C231.604 228.824 231.845 232.694 232.102 235.481C232.228 236.876 232.354 238.004 232.447 238.782C232.488 239.147 232.52 239.443 232.546 239.679C232.565 239.885 232.571 239.993 232.562 239.995C232.552 239.997 232.528 239.89 232.49 239.687C232.451 239.454 232.401 239.158 232.34 238.796C232.214 238.022 232.058 236.897 231.906 235.501C231.598 232.713 231.324 228.83 231.515 224.542C231.623 222.4 231.845 220.367 232.145 218.532C232.488 216.705 232.849 215.066 233.303 213.733C233.412 213.399 233.501 213.076 233.613 212.78C233.726 212.486 233.834 212.207 233.936 211.945C234.037 211.687 234.131 211.446 234.219 211.221C234.315 211.002 234.413 210.806 234.497 210.629C234.659 210.298 234.79 210.029 234.894 209.816C234.989 209.631 235.042 209.537 235.05 209.541Z" fill="#263238"/>
<path d="M234.052 199.147C234.061 199.15 234.018 199.297 233.928 199.571C233.826 199.868 233.691 200.266 233.521 200.766C233.43 201.028 233.331 201.315 233.222 201.627C233.126 201.948 233.02 202.294 232.908 202.665C232.68 203.409 232.415 204.254 232.18 205.205C232.055 205.678 231.924 206.174 231.788 206.69C231.67 207.212 231.548 207.754 231.421 208.315C231.148 209.434 230.952 210.649 230.7 211.918C230.269 214.471 229.89 217.293 229.628 220.269C229.381 223.248 229.274 226.094 229.236 228.684C229.229 231.273 229.262 233.607 229.368 235.563C229.403 236.542 229.465 237.426 229.516 238.203C229.561 238.98 229.609 239.648 229.659 240.194C229.699 240.72 229.731 241.14 229.755 241.453C229.774 241.741 229.779 241.893 229.77 241.894C229.76 241.895 229.736 241.745 229.7 241.459C229.663 241.147 229.613 240.729 229.552 240.205C229.486 239.66 229.421 238.992 229.361 238.215C229.296 237.438 229.22 236.554 229.172 235.573C229.04 233.615 228.987 231.278 228.98 228.682C229.004 226.086 229.104 223.233 229.352 220.246C229.614 217.261 230.002 214.431 230.448 211.874C230.707 210.602 230.913 209.384 231.197 208.264C231.329 207.703 231.457 207.161 231.58 206.638C231.723 206.122 231.859 205.626 231.99 205.152C232.239 204.202 232.517 203.359 232.76 202.617C232.881 202.248 232.993 201.903 233.098 201.584C233.215 201.274 233.322 200.988 233.42 200.729C233.611 200.236 233.763 199.844 233.877 199.55C233.982 199.283 234.043 199.143 234.052 199.147Z" fill="#263238"/>
<path d="M223.877 243.976C223.872 243.976 223.864 243.926 223.855 243.826C223.845 243.711 223.833 243.565 223.818 243.384C223.791 242.974 223.752 242.405 223.703 241.682C223.609 240.183 223.476 238.049 223.311 235.422C222.972 230.137 222.482 222.836 221.593 214.807C221.138 210.792 220.611 206.98 220.063 203.524C219.772 201.798 219.508 200.156 219.208 198.629C218.933 197.097 218.637 195.679 218.365 194.383C218.108 193.085 217.821 191.922 217.591 190.896C217.365 189.869 217.146 188.99 216.963 188.273C216.791 187.57 216.655 187.015 216.557 186.617C216.517 186.44 216.484 186.297 216.458 186.184C216.438 186.086 216.429 186.035 216.434 186.034C216.438 186.033 216.456 186.081 216.486 186.176C216.518 186.287 216.56 186.428 216.611 186.602C216.721 186.997 216.874 187.547 217.068 188.246C217.267 188.959 217.502 189.835 217.743 190.86C217.987 191.883 218.287 193.044 218.557 194.342C218.842 195.636 219.15 197.054 219.434 198.586C219.745 200.113 220.017 201.756 220.316 203.482C220.878 206.941 221.413 210.757 221.869 214.776C222.758 222.814 223.218 230.121 223.507 235.411C223.651 238.055 223.751 240.196 223.811 241.676C223.838 242.4 223.858 242.971 223.873 243.381C223.877 243.563 223.88 243.709 223.883 243.825C223.884 243.925 223.882 243.976 223.877 243.976Z" fill="#263238"/>
<path d="M226.029 190.475C225.859 188.654 224.019 187.281 222.191 187.261C220.362 187.242 218.658 188.339 217.54 189.786C216.421 191.233 215.805 192.999 215.3 194.757C214.069 199.046 213.396 203.552 213.922 207.984C214.448 212.416 216.246 216.779 219.426 219.91C219.943 220.419 220.613 220.928 221.322 220.777C221.71 220.694 222.028 220.425 222.322 220.159C228.569 214.516 232.177 206.063 231.929 197.648C231.88 195.963 231.659 194.209 230.725 192.805C229.793 191.402 227.618 189.911 226.029 190.475Z" fill="#3D599E"/>
<path d="M212.375 175.891C211.516 177.446 210.658 179 209.799 180.555C209.74 180.664 209.66 180.786 209.536 180.796C209.401 180.807 209.3 180.68 209.225 180.565C206.956 177.082 204.686 173.599 202.417 170.116L203.986 169.227L212.375 175.891Z" fill="#3D599E"/>
<g opacity="0.2">
<path d="M212.375 175.891C211.516 177.446 210.658 179 209.799 180.555C209.74 180.664 209.66 180.786 209.536 180.796C209.401 180.807 209.3 180.68 209.225 180.565C206.956 177.082 204.686 173.599 202.417 170.116L203.986 169.227L212.375 175.891Z" fill="black"/>
</g>
<path d="M226.186 184.295C218.444 179.727 210.702 175.159 202.96 170.59C202.723 170.45 202.466 170.285 202.394 170.019C202.301 169.676 202.56 169.344 202.808 169.089C206.002 165.793 210.642 163.883 215.22 164.212C219.798 164.541 224.2 167.186 226.441 171.191C228.682 175.197 228.757 180.494 226.186 184.295Z" fill="#3D599E"/>
<path d="M206.308 166.215C206.307 166.206 206.412 166.193 206.612 166.177C206.812 166.167 207.108 166.131 207.489 166.135C208.253 166.117 209.362 166.167 210.712 166.391C212.061 166.613 213.646 167.047 215.302 167.786C216.957 168.52 218.668 169.584 220.228 170.982C221.775 172.395 223.005 173.993 223.901 175.566C224.801 177.14 225.39 178.674 225.745 179.994C226.103 181.315 226.264 182.414 226.321 183.175C226.363 183.554 226.356 183.852 226.366 184.053C226.371 184.253 226.368 184.359 226.359 184.359C226.334 184.36 226.305 183.939 226.213 183.186C226.123 182.433 225.935 181.348 225.556 180.048C224.822 177.461 223.117 173.974 220.041 171.188C216.963 168.407 213.324 167.058 210.677 166.585C209.346 166.338 208.247 166.259 207.489 166.244C206.73 166.227 206.309 166.24 206.308 166.215Z" fill="#263238"/>
<path d="M223.043 174.836C223.057 174.871 222.609 175.078 221.869 175.37C221.129 175.661 220.095 176.034 218.938 176.402C217.781 176.769 216.721 177.061 215.949 177.25C215.176 177.439 214.691 177.528 214.682 177.491C214.672 177.453 215.138 177.297 215.896 177.06C216.752 176.793 217.751 176.481 218.854 176.136C219.954 175.781 220.949 175.46 221.803 175.184C222.558 174.941 223.029 174.799 223.043 174.836Z" fill="#263238"/>
<path d="M219.385 165.012C219.46 165.005 219.625 166.163 219.66 167.603C219.698 169.043 219.592 170.208 219.517 170.205C219.438 170.202 219.419 169.041 219.382 167.61C219.347 166.18 219.307 165.019 219.385 165.012Z" fill="#263238"/>
<path d="M202.757 170.33C202.746 170.295 203.389 170.061 204.444 169.737C205.499 169.411 206.969 169 208.607 168.604C210.246 168.21 211.742 167.907 212.83 167.716C213.917 167.525 214.595 167.44 214.602 167.476C214.609 167.516 213.944 167.669 212.868 167.909C211.793 168.149 210.307 168.482 208.673 168.875C207.039 169.269 205.565 169.649 204.499 169.926C203.431 170.202 202.769 170.368 202.757 170.33Z" fill="#263238"/>
<path d="M215.477 186.165C213.479 184.65 211.367 184.351 208.862 184.451C206.357 184.55 203.919 185.313 201.623 186.319C197.706 188.034 194.024 190.563 191.685 194.141C189.345 197.72 188.53 202.457 190.283 206.357C190.457 206.746 190.684 207.152 191.075 207.32C191.488 207.496 191.96 207.358 192.386 207.219C196.841 205.766 201.327 204.3 205.423 202.024C209.519 199.748 213.246 196.585 215.444 192.447C215.972 191.454 216.413 190.39 216.499 189.269C216.585 188.148 216.275 186.956 215.477 186.165Z" fill="#3D599E"/>
<path d="M215.517 185.695C215.52 185.704 215.409 185.748 215.196 185.825C214.955 185.908 214.646 186.014 214.263 186.146C214.056 186.215 213.831 186.29 213.587 186.371C213.341 186.459 213.08 186.569 212.797 186.679C212.234 186.906 211.579 187.134 210.89 187.469C210.541 187.628 210.177 187.793 209.798 187.966C209.42 188.141 209.041 188.356 208.641 188.56C207.834 188.956 207.017 189.463 206.147 189.976C204.44 191.056 202.632 192.356 200.873 193.888C199.129 195.438 197.609 197.065 196.321 198.622C195.7 199.42 195.094 200.166 194.598 200.916C194.344 201.287 194.083 201.635 193.861 201.988C193.642 202.342 193.431 202.683 193.228 203.008C192.809 203.649 192.5 204.269 192.202 204.798C192.057 205.066 191.915 205.311 191.796 205.543C191.684 205.774 191.581 205.988 191.487 206.184C191.308 206.547 191.163 206.841 191.049 207.069C190.946 207.27 190.888 207.374 190.879 207.371C190.87 207.367 190.911 207.255 190.998 207.047C191.099 206.812 191.228 206.511 191.388 206.139C191.476 205.939 191.572 205.721 191.677 205.484C191.789 205.248 191.925 204.999 192.064 204.727C192.35 204.189 192.648 203.559 193.059 202.908C193.257 202.577 193.464 202.232 193.679 201.872C193.898 201.514 194.156 201.161 194.407 200.785C194.898 200.024 195.501 199.268 196.12 198.461C197.406 196.886 198.931 195.241 200.688 193.68C202.46 192.136 204.285 190.834 206.011 189.759C206.891 189.248 207.717 188.746 208.534 188.355C208.939 188.155 209.322 187.943 209.705 187.772C210.089 187.604 210.458 187.443 210.811 187.288C211.508 186.964 212.171 186.748 212.742 186.532C213.029 186.429 213.294 186.326 213.542 186.246C213.79 186.172 214.019 186.105 214.228 186.042C214.619 185.931 214.934 185.841 215.179 185.771C215.399 185.712 215.515 185.686 215.517 185.695Z" fill="#263238"/>
<path d="M199.911 194.144C199.933 194.218 197.757 194.919 195.052 195.71C192.346 196.501 190.136 197.083 190.114 197.009C190.093 196.935 192.268 196.234 194.974 195.443C197.679 194.652 199.89 194.071 199.911 194.144Z" fill="#263238"/>
<path d="M199.712 204.868C199.674 204.868 199.63 204.29 199.605 203.353C199.579 202.418 199.575 201.123 199.615 199.695C199.655 198.267 199.731 196.975 199.809 196.042C199.887 195.108 199.963 194.534 200 194.537C200.039 194.539 200.032 195.118 200.005 196.053C199.974 197.079 199.935 198.325 199.892 199.703C199.858 201.081 199.827 202.328 199.801 203.353C199.776 204.288 199.751 204.867 199.712 204.868Z" fill="#263238"/>
<path d="M208.896 200.188C208.819 200.193 208.575 197.564 208.35 194.317C208.126 191.067 208.006 188.43 208.083 188.425C208.159 188.42 208.404 191.048 208.628 194.297C208.853 197.545 208.973 200.183 208.896 200.188Z" fill="#263238"/>
<path d="M197.463 188.169C197.465 188.131 198.06 188.115 199.02 188.122C199.981 188.129 201.306 188.157 202.769 188.205C204.233 188.253 205.558 188.313 206.517 188.37C207.476 188.427 208.069 188.481 208.068 188.519C208.068 188.558 207.473 188.573 206.513 188.566C205.553 188.56 204.226 188.532 202.76 188.483C201.296 188.434 199.97 188.375 199.011 188.318C198.053 188.262 197.461 188.208 197.463 188.169Z" fill="#263238"/>
<path d="M220.423 221.161C220.413 221.161 220.402 221.051 220.39 220.843C220.379 220.604 220.366 220.302 220.349 219.931C220.314 219.138 220.306 217.99 220.336 216.571C220.361 215.153 220.456 213.465 220.623 211.595C220.804 209.728 221.065 207.68 221.44 205.546C221.826 203.414 222.287 201.401 222.762 199.585C223.251 197.773 223.745 196.156 224.211 194.815C224.673 193.474 225.077 192.399 225.383 191.667C225.527 191.324 225.644 191.045 225.737 190.825C225.82 190.633 225.868 190.535 225.877 190.539C225.886 190.542 225.855 190.648 225.789 190.846C225.709 191.071 225.609 191.356 225.484 191.706C225.209 192.448 224.834 193.531 224.397 194.877C223.956 196.222 223.483 197.839 223.01 199.649C222.549 201.463 222.097 203.47 221.714 205.594C221.34 207.72 221.071 209.76 220.878 211.619C220.697 213.481 220.583 215.162 220.533 216.577C220.478 217.991 220.456 219.137 220.458 219.929C220.453 220.3 220.449 220.602 220.446 220.841C220.44 221.05 220.433 221.16 220.423 221.161Z" fill="#263238"/>
<path d="M221.648 205.314C221.674 205.341 221.322 205.732 220.721 206.331C220.121 206.93 219.268 207.734 218.294 208.588C217.32 209.442 216.411 210.183 215.738 210.7C215.065 211.218 214.632 211.515 214.609 211.485C214.584 211.455 214.974 211.103 215.613 210.548C216.327 209.928 217.174 209.193 218.11 208.38C219.039 207.558 219.879 206.814 220.587 206.188C221.221 205.626 221.62 205.286 221.648 205.314Z" fill="#263238"/>
<path d="M229 211.236C228.966 211.257 228.598 210.728 228.013 209.869C227.378 208.943 226.589 207.792 225.718 206.519C224.828 205.259 224.023 204.12 223.375 203.203C222.772 202.355 222.405 201.827 222.436 201.802C222.466 201.779 222.888 202.266 223.532 203.084C224.176 203.903 225.038 205.056 225.946 206.36C226.854 207.665 227.635 208.873 228.179 209.761C228.722 210.65 229.032 211.216 229 211.236Z" fill="#263238"/>
<path d="M225.148 192.611C225.19 192.676 222.748 194.32 219.694 196.283C216.64 198.247 214.131 199.786 214.089 199.721C214.048 199.657 216.49 198.013 219.544 196.049C222.597 194.086 225.107 192.546 225.148 192.611Z" fill="#263238"/>
<path d="M232.034 200.044C231.981 200.099 230.327 198.57 228.341 196.631C226.354 194.69 224.787 193.073 224.841 193.018C224.895 192.963 226.549 194.491 228.535 196.432C230.521 198.371 232.088 199.988 232.034 200.044Z" fill="#263238"/>
<path d="M233.767 199.894L235.863 199.721C237.351 199.598 238.796 199.157 240.097 198.425C240.74 198.063 241.386 197.709 242.07 197.434C244.661 196.393 247.553 196.579 250.343 196.439C254.895 196.211 259.4 195.059 263.504 193.074C263.741 192.959 263.951 192.785 264.077 192.554C264.508 191.769 263.708 191.071 263.019 190.647C259.487 188.471 255.892 186.267 251.887 185.186C247.882 184.106 243.335 184.289 239.918 186.641C235.906 189.402 234.444 195.072 233.767 199.894Z" fill="#3D599E"/>
<path d="M264.125 192.296C264.12 192.305 263.998 192.248 263.769 192.131C263.518 191.999 263.187 191.826 262.776 191.61C261.914 191.157 260.673 190.488 259.105 189.737C257.537 188.993 255.636 188.154 253.424 187.547C251.222 186.935 248.681 186.615 246.061 186.951C243.452 187.294 241.049 188.31 239.349 189.833C237.637 191.351 236.592 193.185 235.854 194.742C235.117 196.314 234.663 197.651 234.333 198.565C234.178 199.004 234.054 199.355 233.96 199.622C233.872 199.864 233.822 199.989 233.813 199.986C233.804 199.983 233.836 199.852 233.906 199.605C233.988 199.333 234.096 198.976 234.23 198.53C234.53 197.604 234.955 196.254 235.675 194.66C236.397 193.079 237.437 191.207 239.179 189.641C240.912 188.069 243.37 187.023 246.025 186.675C248.689 186.332 251.272 186.668 253.493 187.3C255.724 187.927 257.628 188.791 259.191 189.56C260.753 190.337 261.981 191.033 262.827 191.516C263.229 191.75 263.551 191.939 263.796 192.082C264.016 192.215 264.13 192.288 264.125 192.296Z" fill="#263238"/>
<path d="M259.09 195.001C259.047 195.065 256.305 193.291 252.966 191.04C249.626 188.788 246.954 186.912 246.998 186.848C247.041 186.784 249.782 188.558 253.122 190.809C256.46 193.06 259.133 194.938 259.09 195.001Z" fill="#263238"/>
<path d="M256.456 186.585C256.471 186.658 255.52 186.905 254.316 187.015C253.113 187.127 252.132 187.058 252.134 186.983C252.134 186.904 253.103 186.848 254.291 186.737C255.479 186.63 256.441 186.507 256.456 186.585Z" fill="#263238"/>
<path d="M244.163 184.383C244.229 184.422 243.826 185.227 243.263 186.182C242.701 187.136 242.19 187.878 242.124 187.839C242.058 187.801 242.461 186.995 243.024 186.04C243.586 185.086 244.097 184.344 244.163 184.383Z" fill="#263238"/>
<path d="M246.619 196.616C246.6 196.648 246.091 196.382 245.299 195.901C244.508 195.421 243.437 194.716 242.293 193.886C241.15 193.055 240.141 192.27 239.417 191.695C238.693 191.119 238.255 190.75 238.278 190.719C238.301 190.688 238.781 191.002 239.535 191.538C240.357 192.135 241.354 192.86 242.457 193.661C243.597 194.488 244.644 195.215 245.406 195.736C246.169 196.257 246.64 196.582 246.619 196.616Z" fill="#263238"/>
<path d="M236.853 208.801C234.853 208.273 232.47 210.218 232.058 212.244C231.645 214.271 232.405 216.344 233.295 218.211C235.265 222.343 237.983 226.177 241.564 229.03C245.145 231.883 249.629 233.708 254.207 233.685C253.362 229.758 254.431 225.656 253.96 221.668C253.548 218.186 251.925 214.86 249.434 212.393C246.943 209.927 243.6 208.337 240.115 207.96C238.839 207.823 237.362 207.622 236.853 208.801Z" fill="#3D599E"/>
<path d="M254.208 233.684C254.204 233.693 254.106 233.647 253.924 233.552C253.743 233.454 253.483 233.295 253.175 233.05C252.548 232.573 251.829 231.655 251.201 230.41C250.882 229.791 250.526 229.118 250.178 228.374C249.84 227.628 249.48 226.832 249.102 225.997C248.721 225.163 248.301 224.299 247.78 223.455C247.261 222.61 246.644 221.784 245.96 220.981C244.591 219.372 243.122 217.981 241.849 216.653C240.569 215.329 239.493 214.054 238.715 212.892C237.929 211.734 237.453 210.697 237.183 209.966C237.054 209.597 236.961 209.309 236.916 209.108C236.865 208.909 236.844 208.804 236.853 208.801C236.878 208.794 236.992 209.21 237.284 209.926C237.583 210.639 238.079 211.649 238.877 212.78C239.667 213.915 240.748 215.165 242.033 216.474C243.312 217.789 244.789 219.176 246.173 220.801C246.863 221.612 247.488 222.451 248.012 223.313C248.539 224.174 248.958 225.051 249.335 225.891C249.705 226.73 250.056 227.529 250.387 228.279C250.722 229.02 251.069 229.698 251.376 230.32C251.978 231.569 252.65 232.474 253.245 232.968C253.829 233.471 254.224 233.658 254.208 233.684Z" fill="#263238"/>
<path d="M243.867 230.421C243.831 230.414 243.894 229.899 244.051 229.075C244.208 228.252 244.464 227.121 244.811 225.89C245.158 224.658 245.53 223.56 245.826 222.776C246.122 221.991 246.337 221.519 246.372 221.532C246.409 221.546 246.259 222.042 246.012 222.84C245.764 223.638 245.425 224.74 245.079 225.966C244.734 227.191 244.448 228.309 244.243 229.118C244.038 229.928 243.907 230.429 243.867 230.421Z" fill="#263238"/>
<path d="M253.828 220.784C253.816 220.822 253.281 220.685 252.42 220.46C251.558 220.235 250.369 219.927 249.045 219.629C247.72 219.331 246.514 219.099 245.639 218.933C244.764 218.767 244.222 218.662 244.228 218.622C244.233 218.585 244.784 218.622 245.67 218.739C246.556 218.855 247.775 219.058 249.106 219.357C250.437 219.657 251.625 219.997 252.475 220.271C253.325 220.546 253.839 220.749 253.828 220.784Z" fill="#263238"/>
<path d="M236.447 223.584C236.411 223.577 236.488 222.981 236.663 222.026C236.839 221.072 237.119 219.759 237.493 218.326C237.867 216.891 238.265 215.61 238.578 214.691C238.892 213.772 239.116 213.215 239.151 213.227C239.189 213.239 239.031 213.818 238.766 214.75C238.502 215.682 238.136 216.968 237.763 218.396C237.39 219.825 237.081 221.125 236.857 222.067C236.632 223.009 236.486 223.592 236.447 223.584Z" fill="#263238"/>
<path d="M249.241 212.385C249.233 212.461 246.737 212.259 243.666 211.934C240.595 211.608 238.112 211.282 238.12 211.206C238.128 211.129 240.624 211.331 243.695 211.657C246.767 211.982 249.25 212.308 249.241 212.385Z" fill="#263238"/>
<path d="M247.412 242.657C247.412 242.734 238.638 242.796 227.816 242.796C216.99 242.796 208.217 242.734 208.217 242.657C208.217 242.58 216.99 242.518 227.816 242.518C238.638 242.518 247.412 242.58 247.412 242.657Z" fill="#455A64"/>
<path d="M241.308 253.949C241.308 254.026 235.395 254.088 228.104 254.088C220.81 254.088 214.899 254.026 214.899 253.949C214.899 253.872 220.81 253.81 228.104 253.81C235.395 253.81 241.308 253.872 241.308 253.949Z" fill="#455A64"/>
<path d="M241.538 255.563C241.538 255.64 235.626 255.702 228.335 255.702C221.041 255.702 215.13 255.64 215.13 255.563C215.13 255.486 221.041 255.424 228.335 255.424C235.626 255.424 241.538 255.486 241.538 255.563Z" fill="#455A64"/>
<path d="M241.539 252.618C241.539 252.695 235.423 252.758 227.882 252.758C220.337 252.758 214.223 252.696 214.223 252.618C214.223 252.542 220.337 252.479 227.882 252.479C235.423 252.479 241.539 252.542 241.539 252.618Z" fill="#455A64"/>
<path d="M258.29 270.133C258.29 270.214 205.325 270.279 140.006 270.279C74.6634 270.279 21.7109 270.213 21.7109 270.133C21.7109 270.053 74.664 269.988 140.006 269.988C205.325 269.988 258.29 270.053 258.29 270.133Z" fill="#263238"/>
</svg>
