<svg width="1440" height="658" viewBox="0 0 1440 658" fill="none" xmlns="http://www.w3.org/2000/svg">
<path opacity="0.5" d="M1323 65C1323 -27 1381.81 -38.8333 1428.47 -43L1476.97 296.5C1433.81 320.667 1322.13 322.752 1391.97 217.5C1428.47 162.5 1323 172.001 1323 65Z" stroke="#D250FF" stroke-width="2" stroke-dasharray="4 4"/>
<path opacity="0.2" d="M1037 512C1046.39 512 1054 504.389 1054 495C1054 485.611 1046.39 478 1037 478C1027.61 478 1020 485.611 1020 495C1020 504.389 1027.61 512 1037 512Z" fill="url(#paint0_linear_671_147)"/>
<g opacity="0.15">
<path opacity="0.15" d="M196.224 449.412C192.627 463.331 178.395 471.62 164.476 467.866C150.557 464.269 142.269 450.038 146.022 436.119C149.619 422.2 163.851 413.911 177.77 417.664C191.689 421.418 199.977 435.493 196.224 449.412Z" fill="#FF0000"/>
<path opacity="0.15" d="M198.257 442.218C198.257 442.218 200.916 443 205.451 444.72C207.641 445.502 210.456 446.597 213.584 448.004C216.555 449.412 220.152 450.976 223.436 454.104C224.218 454.886 225.157 455.824 225.157 457.544C225.157 457.857 225.157 457.857 225 458.326L224.844 458.639C224.687 458.952 224.218 459.421 224.062 459.734C223.436 460.203 222.967 460.516 222.342 460.828C219.996 461.767 217.65 461.923 215.147 462.08C210.299 462.236 205.295 461.923 200.134 461.298C189.812 460.047 179.021 457.857 168.23 455.042C157.595 452.071 146.96 448.63 137.42 444.72C132.572 442.687 128.037 440.497 123.971 437.995C121.937 436.744 119.904 435.336 118.34 433.46C118.028 432.991 117.558 432.365 117.402 431.739C117.089 431.114 117.089 430.019 117.558 429.394C117.715 429.081 118.653 427.986 119.122 427.83C119.748 427.517 120.217 427.36 120.843 427.204C125.222 426.109 128.975 426.579 132.416 426.735C135.856 427.048 138.671 427.517 141.017 427.83C145.709 428.612 148.524 429.237 148.524 429.237C148.524 429.237 145.709 428.924 141.017 428.455C138.671 428.299 135.7 427.986 132.416 427.986C129.132 427.986 125.222 427.986 121.625 428.924C121.156 429.081 120.686 429.237 120.374 429.55C120.217 429.706 120.061 429.706 120.061 429.863C120.061 429.863 120.061 429.863 119.904 429.863C119.904 429.863 119.748 430.019 119.748 430.176C119.435 430.488 119.904 431.27 120.53 431.896C121.781 433.303 123.814 434.555 125.691 435.649C129.757 437.839 134.293 439.872 138.984 441.749C148.524 445.502 159.003 448.786 169.637 451.445C180.116 454.26 190.907 456.606 201.072 458.013C206.077 458.639 211.081 459.265 215.617 459.265C219.839 459.265 226.095 458.639 222.498 455.355C219.839 452.696 216.399 450.663 213.584 449.099C210.612 447.535 207.953 446.284 205.92 445.189C200.759 443.312 198.257 442.218 198.257 442.218Z" fill="#FF0000"/>
</g>
<g opacity="0.6">
<path opacity="0.6" d="M783.478 76.0815L901.711 184.618C902.337 185.244 902.493 186.182 901.868 186.964C901.242 187.59 900.304 187.746 899.522 187.12L777.536 82.6499C775.659 81.086 775.502 78.2709 777.066 76.3942C778.787 74.6739 781.602 74.5176 783.478 76.0815Z" fill="url(#paint1_linear_671_147)"/>
<path opacity="0.6" d="M827.581 117.682L899.991 184.149C900.46 184.462 900.46 185.087 899.991 185.557C899.678 186.026 899.052 186.026 898.583 185.713L823.828 121.748C822.733 120.81 822.576 119.09 823.515 117.838C824.766 116.744 826.486 116.587 827.581 117.682Z" fill="url(#paint2_linear_671_147)"/>
</g>
<g opacity="0.3">
<path opacity="0.3" d="M420.491 559.669C528.371 559.669 615.826 472.215 615.826 364.334C615.826 256.454 528.371 169 420.491 169C312.611 169 225.157 256.454 225.157 364.334C225.157 472.215 312.611 559.669 420.491 559.669Z" fill="url(#paint3_radial_671_147)"/>
<g opacity="0.5">
<path opacity="0.3" d="M119.804 560.058C119.804 569.442 118.552 578.513 116.05 587.114C104.321 628.089 66.6301 657.96 21.9018 657.96C-28.1438 657.96 -69.2751 620.426 -75.218 572.1C-75.6872 568.191 -76 564.124 -76 559.902C-76 543.95 -72.2465 528.936 -65.3653 515.643C-49.2568 483.739 -16.1016 462 22.0582 462C61.9383 462 96.3447 485.928 111.671 520.178C116.832 532.533 119.804 545.983 119.804 560.058Z" fill="url(#paint4_linear_671_147)"/>
<path opacity="0.3" d="M111.359 520.335C63.9716 496.094 47.7068 506.259 -2.80803 524.244C-31.7407 534.566 -52.8537 525.496 -65.5215 515.799C-49.413 483.895 -16.2578 462.157 21.902 462.157C61.7821 462.157 96.1885 486.085 111.359 520.335Z" fill="url(#paint5_linear_671_147)"/>
<path opacity="0.3" d="M116.05 587.114C104.321 628.089 66.6299 657.96 21.9016 657.96C-28.1441 657.96 -69.2753 620.426 -75.2183 572.1C-61.9249 584.143 -40.6555 597.28 -10.4717 595.403C40.8251 592.588 80.3925 556.148 116.05 587.114Z" fill="url(#paint6_linear_671_147)"/>
</g>
</g>
<g opacity="0.6">
<path opacity="0.6" d="M1321.48 444.082L1439.71 552.618C1440.34 553.244 1440.49 554.182 1439.87 554.964C1439.24 555.59 1438.3 555.746 1437.52 555.12L1315.54 450.65C1313.66 449.086 1313.5 446.271 1315.07 444.394C1316.79 442.674 1319.6 442.518 1321.48 444.082Z" fill="url(#paint7_linear_671_147)"/>
<path opacity="0.6" d="M1365.58 485.682L1437.99 552.149C1438.46 552.462 1438.46 553.087 1437.99 553.557C1437.68 554.026 1437.05 554.026 1436.58 553.713L1361.83 489.748C1360.73 488.81 1360.58 487.09 1361.51 485.838C1362.77 484.744 1364.49 484.587 1365.58 485.682Z" fill="url(#paint8_linear_671_147)"/>
</g>
<defs>
<linearGradient id="paint0_linear_671_147" x1="1029.12" y1="481.254" x2="1044.94" y2="508.979" gradientUnits="userSpaceOnUse">
<stop offset="0.00537634" stop-color="#FFA6A6"/>
<stop offset="0.1746" stop-color="#FF7777"/>
<stop offset="0.3526" stop-color="#FF4C4C"/>
<stop offset="0.526" stop-color="#FF2B2B"/>
<stop offset="0.6908" stop-color="#FF1313"/>
<stop offset="0.8438" stop-color="#FF0505"/>
<stop offset="0.9731" stop-color="#FF0000"/>
</linearGradient>
<linearGradient id="paint1_linear_671_147" x1="901.737" y1="187.111" x2="777.174" y2="76.4609" gradientUnits="userSpaceOnUse">
<stop offset="0.00537634" stop-color="#FEA7AF"/>
<stop offset="0.9946" stop-color="#EA47AC" stop-opacity="0"/>
</linearGradient>
<linearGradient id="paint2_linear_671_147" x1="900.134" y1="185.685" x2="823.801" y2="117.878" gradientUnits="userSpaceOnUse">
<stop offset="0.00537634" stop-color="#FEA7AF"/>
<stop offset="0.9946" stop-color="#EA47AC" stop-opacity="0"/>
</linearGradient>
<radialGradient id="paint3_radial_671_147" cx="0" cy="0" r="1" gradientUnits="userSpaceOnUse" gradientTransform="translate(420.417 364.311) scale(195.262 195.262)">
<stop stop-color="#FF0000"/>
<stop offset="0.0657209" stop-color="#FF2727"/>
<stop offset="0.1616" stop-color="#FF5959"/>
<stop offset="0.2622" stop-color="#FF8686"/>
<stop offset="0.3657" stop-color="#FFABAB"/>
<stop offset="0.4729" stop-color="#FFCACA"/>
<stop offset="0.585" stop-color="#FFE1E1"/>
<stop offset="0.704" stop-color="#FFF2F2"/>
<stop offset="0.8348" stop-color="#FFFCFC"/>
<stop offset="1" stop-color="white"/>
</radialGradient>
<linearGradient id="paint4_linear_671_147" x1="-76.1142" y1="560.121" x2="119.779" y2="560.121" gradientUnits="userSpaceOnUse">
<stop offset="0.00537634" stop-color="#FEA7AF"/>
<stop offset="0.9731" stop-color="#FF2222"/>
</linearGradient>
<linearGradient id="paint5_linear_671_147" x1="-65.5481" y1="495.513" x2="111.376" y2="495.513" gradientUnits="userSpaceOnUse">
<stop offset="0.00537634" stop-color="#FFA6A6"/>
<stop offset="0.1746" stop-color="#FF7777"/>
<stop offset="0.3526" stop-color="#FF4C4C"/>
<stop offset="0.526" stop-color="#FF2B2B"/>
<stop offset="0.6908" stop-color="#FF1313"/>
<stop offset="0.8438" stop-color="#FF0505"/>
<stop offset="0.9731" stop-color="#FF0000"/>
</linearGradient>
<linearGradient id="paint6_linear_671_147" x1="-75.3621" y1="615.161" x2="116.016" y2="615.161" gradientUnits="userSpaceOnUse">
<stop offset="0.00537634" stop-color="#FFA6A6"/>
<stop offset="0.1746" stop-color="#FF7777"/>
<stop offset="0.3526" stop-color="#FF4C4C"/>
<stop offset="0.526" stop-color="#FF2B2B"/>
<stop offset="0.6908" stop-color="#FF1313"/>
<stop offset="0.8438" stop-color="#FF0505"/>
<stop offset="0.9731" stop-color="#FF0000"/>
</linearGradient>
<linearGradient id="paint7_linear_671_147" x1="1439.74" y1="555.111" x2="1315.17" y2="444.461" gradientUnits="userSpaceOnUse">
<stop offset="0.00537634" stop-color="#FEA7AF"/>
<stop offset="0.9946" stop-color="#EA47AC" stop-opacity="0"/>
</linearGradient>
<linearGradient id="paint8_linear_671_147" x1="1438.13" y1="553.685" x2="1361.8" y2="485.878" gradientUnits="userSpaceOnUse">
<stop offset="0.00537634" stop-color="#FEA7AF"/>
<stop offset="0.9946" stop-color="#EA47AC" stop-opacity="0"/>
</linearGradient>
</defs>
</svg>
