<svg width="50" height="50" viewBox="0 0 50 50" fill="none" xmlns="http://www.w3.org/2000/svg">
<path d="M42 25C42 34.4 34.4 42 25 42C15.6 42 8 34.4 8 25C8 15.6 15.6 8 25 8C34.4 8 42 15.6 42 25ZM10 25C10 33.3 16.7 40 25 40C33.3 40 40 33.3 40 25C40 16.7 33.3 10 25 10C16.7 10 10 16.7 10 25Z" fill="url(#paint0_linear_1668_226)"/>
<path d="M26.6996 16.7L18.3996 25L26.6996 33.3L25.2996 34.7L15.5996 25L25.2996 15.2999L26.6996 16.7Z" fill="url(#paint1_linear_1668_226)"/>
<path d="M17 26V24H34V26H17Z" fill="url(#paint2_linear_1668_226)"/>
<defs>
<linearGradient id="paint0_linear_1668_226" x1="8" y1="25" x2="42" y2="25" gradientUnits="userSpaceOnUse">
<stop stop-color="#1666B6"/>
<stop offset="1" stop-color="#40AFF1"/>
</linearGradient>
<linearGradient id="paint1_linear_1668_226" x1="15.5996" y1="25" x2="26.6996" y2="25" gradientUnits="userSpaceOnUse">
<stop stop-color="#1666B6"/>
<stop offset="1" stop-color="#40AFF1"/>
</linearGradient>
<linearGradient id="paint2_linear_1668_226" x1="17" y1="25" x2="34" y2="25" gradientUnits="userSpaceOnUse">
<stop stop-color="#1666B6"/>
<stop offset="1" stop-color="#40AFF1"/>
</linearGradient>
</defs>
</svg>
