<svg width="50" height="50" viewBox="0 0 50 50" fill="none" xmlns="http://www.w3.org/2000/svg">
<path d="M8 25C8 15.6 15.6 8 25 8C34.4 8 42 15.6 42 25C42 34.4 34.4 42 25 42C15.6 42 8 34.4 8 25ZM40 25C40 16.7 33.3 10 25 10C16.7 10 10 16.7 10 25C10 33.3 16.7 40 25 40C33.3 40 40 33.3 40 25Z" fill="url(#paint0_linear_1668_230)"/>
<path d="M23.3004 33.3L31.6004 25L23.3004 16.7L24.7004 15.3L34.4004 25L24.7004 34.7001L23.3004 33.3Z" fill="url(#paint1_linear_1668_230)"/>
<path d="M33 24V26H16V24H33Z" fill="url(#paint2_linear_1668_230)"/>
<defs>
<linearGradient id="paint0_linear_1668_230" x1="42" y1="25" x2="8" y2="25" gradientUnits="userSpaceOnUse">
<stop stop-color="#1666B6"/>
<stop offset="1" stop-color="#40AFF1"/>
</linearGradient>
<linearGradient id="paint1_linear_1668_230" x1="34.4004" y1="25" x2="23.3004" y2="25" gradientUnits="userSpaceOnUse">
<stop stop-color="#1666B6"/>
<stop offset="1" stop-color="#40AFF1"/>
</linearGradient>
<linearGradient id="paint2_linear_1668_230" x1="33" y1="25" x2="16" y2="25" gradientUnits="userSpaceOnUse">
<stop stop-color="#1666B6"/>
<stop offset="1" stop-color="#40AFF1"/>
</linearGradient>
</defs>
</svg>
