<svg width="50" height="50" viewBox="0 0 50 50" fill="none" xmlns="http://www.w3.org/2000/svg">
<g clip-path="url(#clip0_1901_203)">
<rect width="50" height="50" fill="#F9F9F9"/>
<path d="M42.6666 7.31667C40.3472 4.99216 37.5913 3.1488 34.5574 1.89246C31.5235 0.636129 28.2712 -0.00841916 24.9874 -0.00415994C11.1791 -0.00415994 -0.0146484 11.1896 -0.0146484 24.9979C-0.0146484 31.9021 2.78535 38.1542 7.31035 42.6792C9.62979 45.0037 12.3856 46.847 15.4196 48.1034C18.4535 49.3597 21.7058 50.0043 24.9895 50C38.7979 50 49.9916 38.8063 49.9916 24.9979C49.9916 18.0938 47.1916 11.8417 42.6666 7.31667ZM39.4541 39.4563C37.5567 41.3586 35.302 42.8672 32.8197 43.8954C30.3374 44.9237 27.6764 45.4513 24.9895 45.4479C13.6916 45.4479 4.53327 36.2896 4.53327 24.9917C4.5299 22.3048 5.0575 19.6438 6.08574 17.1615C7.11399 14.6792 8.62262 12.4245 10.5249 10.5271C12.4219 8.62474 14.6762 7.11608 17.1582 6.08782C19.6402 5.05956 22.3009 4.53199 24.9874 4.53542C36.2833 4.53542 45.4416 13.6938 45.4416 24.9896C45.4452 27.6761 44.9176 30.3369 43.8894 32.8189C42.8611 35.3009 41.3524 37.5552 39.4499 39.4521L39.4541 39.4563Z" fill="black"/>
<path d="M28.202 25L36.2332 16.9687C36.6294 16.5369 36.8435 15.9688 36.8308 15.3829C36.8181 14.797 36.5796 14.2387 36.1651 13.8245C35.7506 13.4102 35.1921 13.1721 34.6062 13.1598C34.0203 13.1474 33.4523 13.3619 33.0207 13.7583L33.0228 13.7562L24.9916 21.7875L16.9603 13.7562C16.5285 13.3601 15.9604 13.146 15.3745 13.1587C14.7886 13.1714 14.2303 13.4099 13.816 13.8244C13.4018 14.2389 13.1637 14.7974 13.1513 15.3833C13.139 15.9692 13.3535 16.5372 13.7499 16.9687L13.7478 16.9667L21.7791 24.9979L13.7478 33.0292C13.5219 33.2365 13.3402 33.4874 13.2137 33.7667C13.0873 34.0461 13.0187 34.3482 13.012 34.6547C13.0054 34.9613 13.0608 35.2661 13.175 35.5507C13.2893 35.8352 13.4599 36.0938 13.6767 36.3107C13.8934 36.5276 14.1519 36.6984 14.4364 36.8128C14.7209 36.9272 15.0256 36.9829 15.3322 36.9764C15.6388 36.97 15.9409 36.9016 16.2203 36.7753C16.4998 36.649 16.7508 36.4675 16.9582 36.2417L16.9603 36.2396L24.9916 28.2083L33.0228 36.2396C33.2301 36.4655 33.481 36.6472 33.7604 36.7737C34.0398 36.9001 34.3418 36.9687 34.6484 36.9754C34.955 36.982 35.2597 36.9266 35.5443 36.8124C35.8289 36.6981 36.0874 36.5275 36.3043 36.3107C36.5213 36.094 36.6921 35.8355 36.8065 35.551C36.9209 35.2665 36.9765 34.9618 36.9701 34.6552C36.9636 34.3486 36.8952 34.0465 36.7689 33.7671C36.6427 33.4876 36.4612 33.2366 36.2353 33.0292L36.2332 33.0271L28.202 25Z" fill="black"/>
</g>
<defs>
<clipPath id="clip0_1901_203">
<rect width="50" height="50" fill="white"/>
</clipPath>
</defs>
</svg>
